<?xml version="1.0" standalone="no"?>
<!DOCTYPE svg PUBLIC "-//W3C//DTD SVG 1.1//EN" "http://www.w3.org/Graphics/SVG/1.1/DTD/svg11.dtd" >
<svg xmlns="http://www.w3.org/2000/svg" xmlns:xlink="http://www.w3.org/1999/xlink" version="1.1">
<metadata>
Created by FontForge 20170924 at Tue Dec  4 01:20:37 2018
 By www-data
Copyright (c) 2017 by REEJI. All rights reserved.
</metadata>
<defs>
<font id="REEJI-JunXianGB-Normal" horiz-adv-x="1000" vert-adv-y="1000" >
  <font-face 
    font-family="REEJI-JunXianGB Normal"
    font-weight="400"
    font-stretch="normal"
    units-per-em="1000"
    panose-1="2 1 6 4 0 0 0 0 0 0"
    ascent="880"
    descent="-120"
    x-height="462"
    cap-height="729"
    bbox="-475 -311 1245 1047"
    underline-thickness="50"
    underline-position="-100"
    unicode-range="U+0020-FFE5"
  />
<missing-glyph 
 />
    <glyph glyph-name=".notdef" 
 />
    <glyph glyph-name="space" unicode=" " horiz-adv-x="500" 
 />
    <glyph glyph-name="A" unicode="A" horiz-adv-x="901" 
d="M408 763h85l351 -805h-63l-121 277h-418l-121 -277h-63zM641 279l-190 431l-190 -431h380z" />
    <glyph glyph-name="B" unicode="B" horiz-adv-x="806" 
d="M60 766h440q45 0 84.5 -15.5t67.5 -42.5q25 -24 38.5 -55.5t13.5 -67.5v-64q0 -64 -43 -113q-16 -20 -40 -36q43 -13 74 -46q51 -51 51 -122v-73q0 -38 -15.5 -71.5t-43.5 -58.5q-57 -51 -145 -52l-482 1v816zM499 384q35 0 64.5 13.5t48.5 38.5q31 37 31 83v69
q0 49 -35 87q-42 48 -112 48h-375v-339h378zM538 -7q68 0 106 41q41 39 41 95v77q0 50 -35 88q-19 22 -47 34t-62 12h-420v-347h417z" />
    <glyph glyph-name="C" unicode="C" horiz-adv-x="787" 
d="M226 -27q-53 24 -91 67q-75 88 -75 206v221q0 64 22 119.5t63 97.5q38 39 89 60t109 21h384v-43h-379q-46 -1 -86.5 -19t-70.5 -51q-33 -34 -51.5 -81t-18.5 -100v-228q0 -49 15.5 -93t44.5 -79q31 -38 73 -58.5t91 -20.5h382v-43h-386q-62 0 -115 24z" />
    <glyph glyph-name="D" unicode="D" horiz-adv-x="789" 
d="M60 767h386q62 0 115 -23.5t92 -66.5q37 -41 56.5 -94.5t19.5 -114.5v-220q0 -108 -62 -191q-39 -50 -95.5 -78t-123.5 -29h-388v817zM445 -7q55 1 101 26t76 70q46 67 46 155v228q0 53 -18 100t-51 81q-31 33 -71.5 51.5t-86.5 19.5h-320v-731h324z" />
    <glyph glyph-name="E" unicode="E" horiz-adv-x="770" 
d="M60 765h650v-43h-589v-343h551v-43h-551v-344h589v-43h-650v816z" />
    <glyph glyph-name="F" unicode="F" horiz-adv-x="770" 
d="M60 765h650v-43h-589v-343h551v-43h-551v-387h-61v816z" />
    <glyph glyph-name="G" unicode="G" horiz-adv-x="815" 
d="M227 -27q-53 24 -91 67q-36 42 -56 94.5t-20 111.5v221q0 66 24 123.5t68 98.5q37 37 86 56.5t105 19.5h398v-43h-393q-45 -1 -85 -18.5t-71 -49.5q-34 -35 -52.5 -82t-18.5 -101v-228q0 -98 59 -171q30 -38 73 -59t92 -21h242q53 0 80 29t27 78v232h-326v43h387v-273
q0 -68 -43 -110t-121 -42h-250q-61 0 -114 24z" />
    <glyph glyph-name="H" unicode="H" horiz-adv-x="779" 
d="M60 765h61v-386h537v386h61v-816h-61v387h-537v-387h-61v816z" />
    <glyph glyph-name="I" unicode="I" horiz-adv-x="495" 
d="M60 -9h156v741h-156v42h375v-42h-155v-741h155v-47h-375v47z" />
    <glyph glyph-name="J" unicode="J" horiz-adv-x="441" 
d="M60 -6h147q55 0 85 32t30 83v652h59v-647q0 -73 -45.5 -119.5t-123.5 -46.5h-152v46z" />
    <glyph glyph-name="K" unicode="K" horiz-adv-x="722" 
d="M60 -51v819h61v-819h-61zM633 763l-427 -416l425 -398h-83l-423 398l429 416h79z" />
    <glyph glyph-name="L" unicode="L" horiz-adv-x="628" 
d="M60 764h61v-773h447v-43h-508v816z" />
    <glyph glyph-name="M" unicode="M" horiz-adv-x="849" 
d="M60 764h59l306 -472l305 472h59v-812h-61v703l-303 -470l-304 471v-708h-61v816z" />
    <glyph glyph-name="N" unicode="N" horiz-adv-x="751" 
d="M60 764h58l512 -715v715h61v-816h-58l-512 715v-715h-61v816z" />
    <glyph glyph-name="O" unicode="O" horiz-adv-x="767" 
d="M103.5 -10q-43.5 42 -43.5 111v508q0 68 43.5 110t120.5 43h319q78 -1 121 -43t43 -110v-508q0 -69 -43 -111t-121 -42h-319q-77 0 -120.5 42zM539 -9q53 0 80 29.5t27 78.5v512q0 49 -27 78t-80 30h-311q-53 -1 -80 -30t-27 -78v-512q0 -49 27 -78.5t80 -29.5h311z" />
    <glyph glyph-name="P" unicode="P" horiz-adv-x="759" 
d="M60 764h435q86 0 142 -48q30 -24 46 -58.5t16 -73.5v-102q0 -68 -47 -117q-27 -30 -67 -46.5t-88 -16.5h-376v-354h-61v816zM494 345q36 0 66 13t49 38q15 20 22 40t7 44v106q0 57 -45 99q-39 36 -102 36h-370v-376h373z" />
    <glyph glyph-name="Q" unicode="Q" horiz-adv-x="767" 
d="M664 719q43 -42 43 -110v-508q0 -69 -43 -111t-121 -42h-13l44 -73h-67l-44 73h-239q-77 0 -120.5 42t-43.5 111v508q0 68 43.5 110t120.5 43h319q78 -1 121 -43zM646 611q0 49 -27 78t-80 30h-311q-53 -1 -80 -30t-27 -78v-512q0 -49 27 -78.5t80 -29.5h209l-103 170h67
l103 -170h35q53 0 80 29.5t27 78.5v512z" />
    <glyph glyph-name="R" unicode="R" horiz-adv-x="769" 
d="M60 764h435q85 0 143 -48q29 -25 45 -59t16 -73v-59q0 -70 -49 -119q-25 -28 -49.5 -40t-58 -15.5t-107.5 -4.5l286 -406h-70l-285 405h-245v-397h-61v816zM494 388q33 0 61.5 12t47.5 34q35 41 35 89v63q0 59 -46 100q-39 35 -101 35h-370v-333h373z" />
    <glyph glyph-name="S" unicode="S" horiz-adv-x="816" 
d="M63 -2h492q65 0 99.5 37.5t35.5 98.5l1 70q0 60 -35 97t-100 38h-276q-89 0 -140.5 50.5t-51.5 130.5v63q0 80 51.5 130.5t140.5 50.5h473l1 -43h-470q-64 0 -99 -37.5t-36 -98.5v-67q1 -61 36 -98t99 -38h276q90 0 141 -50t51 -131l-1 -66q0 -80 -51.5 -130t-140.5 -50
h-496v43z" />
    <glyph glyph-name="T" unicode="T" horiz-adv-x="778" 
d="M358 721h-298v43h658v-43h-299v-766h-61v766z" />
    <glyph glyph-name="U" unicode="U" horiz-adv-x="794" 
d="M163 -25q-50 27 -76.5 74t-26.5 108v606h61v-608q0 -72 43.5 -118t119.5 -46h227q75 0 118.5 46t43.5 118v608h61v-606q0 -61 -26.5 -108t-76 -74t-116.5 -27h-235q-67 0 -117 27z" />
    <glyph glyph-name="V" unicode="V" horiz-adv-x="889" 
d="M54 753h65l326 -744l326 744h65l-352 -805h-79z" />
    <glyph glyph-name="W" unicode="W" horiz-adv-x="922" 
d="M58 749h62l130 -681l175 639h72l176 -640l128 682h63l-152 -802h-72l-179 643l-179 -643h-72z" />
    <glyph glyph-name="X" unicode="X" horiz-adv-x="832" 
d="M379 362l-315 395h74l278 -346l278 346h74l-315 -395l327 -410h-73l-290 361l-291 -361h-74z" />
    <glyph glyph-name="Y" unicode="Y" horiz-adv-x="822" 
d="M380 344l-328 413h74l285 -356l284 356h74l-328 -413v-396h-61v396z" />
    <glyph glyph-name="Z" unicode="Z" horiz-adv-x="816" 
d="M630 721h-570v43h677l-567 -773h586v-43h-693z" />
    <glyph glyph-name="uniFF21" unicode="&#xff21;" 
d="M457 763h85l351 -805h-63l-121 277h-418l-121 -277h-63zM690 279l-190 431l-190 -431h380z" />
    <glyph glyph-name="uniFF22" unicode="&#xff22;" 
d="M157 766h440q45 0 84.5 -15.5t67.5 -42.5q25 -24 38.5 -55.5t13.5 -67.5v-64q0 -64 -43 -113q-16 -20 -40 -36q43 -13 74 -46q51 -51 51 -122v-73q0 -38 -15.5 -71.5t-43.5 -58.5q-57 -51 -145 -52l-482 1v816zM596 384q35 0 64.5 13.5t48.5 38.5q31 37 31 83v69
q0 49 -35 87q-42 48 -112 48h-375v-339h378zM635 -7q68 0 106 41q41 39 41 95v77q0 50 -35 88q-19 22 -47 34t-62 12h-420v-347h417z" />
    <glyph glyph-name="uniFF23" unicode="&#xff23;" 
d="M332 -27q-53 24 -91 67q-75 88 -75 206v221q0 64 22 119.5t63 97.5q38 39 89 60t109 21h384v-43h-379q-46 -1 -86.5 -19t-70.5 -51q-33 -34 -51.5 -81t-18.5 -100v-228q0 -49 15.5 -93t44.5 -79q31 -38 73 -58.5t91 -20.5h382v-43h-386q-62 0 -115 24z" />
    <glyph glyph-name="uniFF24" unicode="&#xff24;" 
d="M165 767h386q62 0 115 -23.5t92 -66.5q37 -41 56.5 -94.5t19.5 -114.5v-220q0 -108 -62 -191q-39 -50 -95.5 -78t-123.5 -29h-388v817zM550 -7q55 1 101 26t76 70q46 67 46 155v228q0 53 -18 100t-51 81q-31 33 -71.5 51.5t-86.5 19.5h-320v-731h324z" />
    <glyph glyph-name="uniFF25" unicode="&#xff25;" 
d="M175 765h650v-43h-589v-343h551v-43h-551v-344h589v-43h-650v816z" />
    <glyph glyph-name="uniFF26" unicode="&#xff26;" 
d="M175 765h650v-43h-589v-343h551v-43h-551v-387h-61v816z" />
    <glyph glyph-name="uniFF27" unicode="&#xff27;" 
d="M319 -27q-53 24 -91 67q-36 42 -56 94.5t-20 111.5v221q0 66 24 123.5t68 98.5q37 37 86 56.5t105 19.5h398v-43h-393q-45 -1 -85 -18.5t-71 -49.5q-34 -35 -52.5 -82t-18.5 -101v-228q0 -98 59 -171q30 -38 73 -59t92 -21h242q53 0 80 29t27 78v232h-326v43h387v-273
q0 -68 -43 -110t-121 -42h-250q-61 0 -114 24z" />
    <glyph glyph-name="uniFF28" unicode="&#xff28;" 
d="M171 765h61v-386h537v386h61v-816h-61v387h-537v-387h-61v816z" />
    <glyph glyph-name="uniFF29" unicode="&#xff29;" 
d="M313 -9h156v741h-156v42h375v-42h-155v-741h155v-47h-375v47z" />
    <glyph glyph-name="uniFF2A" unicode="&#xff2a;" 
d="M340 -6h147q55 0 85 32t30 83v652h59v-647q0 -73 -45.5 -119.5t-123.5 -46.5h-152v46z" />
    <glyph glyph-name="uniFF2B" unicode="&#xff2b;" 
d="M199 -51v819h61v-819h-61zM772 763l-427 -416l425 -398h-83l-423 398l429 416h79z" />
    <glyph glyph-name="uniFF2C" unicode="&#xff2c;" 
d="M246 764h61v-773h447v-43h-508v816z" />
    <glyph glyph-name="uniFF2D" unicode="&#xff2d;" 
d="M136 764h59l306 -472l305 472h59v-812h-61v703l-303 -470l-304 471v-708h-61v816z" />
    <glyph glyph-name="uniFF2E" unicode="&#xff2e;" 
d="M184 764h58l512 -715v715h61v-816h-58l-512 715v-715h-61v816z" />
    <glyph glyph-name="uniFF2F" unicode="&#xff2f;" 
d="M220.5 -10q-43.5 42 -43.5 111v508q0 68 43.5 110t120.5 43h319q78 -1 121 -43t43 -110v-508q0 -69 -43 -111t-121 -42h-319q-77 0 -120.5 42zM656 -9q53 0 80 29.5t27 78.5v512q0 49 -27 78t-80 30h-311q-53 -1 -80 -30t-27 -78v-512q0 -49 27 -78.5t80 -29.5h311z" />
    <glyph glyph-name="uniFF30" unicode="&#xff30;" 
d="M181 764h435q86 0 142 -48q30 -24 46 -58.5t16 -73.5v-102q0 -68 -47 -117q-27 -30 -67 -46.5t-88 -16.5h-376v-354h-61v816zM615 345q36 0 66 13t49 38q15 20 22 40t7 44v106q0 57 -45 99q-39 36 -102 36h-370v-376h373z" />
    <glyph glyph-name="uniFF31" unicode="&#xff31;" 
d="M781 719q43 -42 43 -110v-508q0 -69 -43 -111t-121 -42h-13l44 -73h-67l-44 73h-239q-77 0 -120.5 42t-43.5 111v508q0 68 43.5 110t120.5 43h319q78 -1 121 -43zM763 611q0 49 -27 78t-80 30h-311q-53 -1 -80 -30t-27 -78v-512q0 -49 27 -78.5t80 -29.5h209l-103 170h67
l103 -170h35q53 0 80 29.5t27 78.5v512z" />
    <glyph glyph-name="uniFF32" unicode="&#xff32;" 
d="M176 764h435q85 0 143 -48q29 -25 45 -59t16 -73v-59q0 -70 -49 -119q-25 -28 -49.5 -40t-58 -15.5t-107.5 -4.5l286 -406h-70l-285 405h-245v-397h-61v816zM610 388q33 0 61.5 12t47.5 34q35 41 35 89v63q0 59 -46 100q-39 35 -101 35h-370v-333h373z" />
    <glyph glyph-name="uniFF33" unicode="&#xff33;" 
d="M155 -2h492q65 0 99.5 37.5t35.5 98.5l1 70q0 60 -35 97t-100 38h-276q-89 0 -140.5 50.5t-51.5 130.5v63q0 80 51.5 130.5t140.5 50.5h473l1 -43h-470q-64 0 -99 -37.5t-36 -98.5v-67q1 -61 36 -98t99 -38h276q90 0 141 -50t51 -131l-1 -66q0 -80 -51.5 -130t-140.5 -50
h-496v43z" />
    <glyph glyph-name="uniFF34" unicode="&#xff34;" 
d="M470 721h-298v43h658v-43h-299v-766h-61v766z" />
    <glyph glyph-name="uniFF35" unicode="&#xff35;" 
d="M266 -25q-50 27 -76.5 74t-26.5 108v606h61v-608q0 -72 43.5 -118t119.5 -46h227q75 0 118.5 46t43.5 118v608h61v-606q0 -61 -26.5 -108t-76 -74t-116.5 -27h-235q-67 0 -117 27z" />
    <glyph glyph-name="uniFF36" unicode="&#xff36;" 
d="M109 753h65l326 -744l326 744h65l-352 -805h-79z" />
    <glyph glyph-name="uniFF37" unicode="&#xff37;" 
d="M97 749h62l130 -681l175 639h72l176 -640l128 682h63l-152 -802h-72l-179 643l-179 -643h-72z" />
    <glyph glyph-name="uniFF38" unicode="&#xff38;" 
d="M463 362l-315 395h74l278 -346l278 346h74l-315 -395l327 -410h-73l-290 361l-291 -361h-74z" />
    <glyph glyph-name="uniFF39" unicode="&#xff39;" 
d="M469 344l-328 413h74l285 -356l284 356h74l-328 -413v-396h-61v396z" />
    <glyph glyph-name="uniFF3A" unicode="&#xff3a;" 
d="M722 721h-570v43h677l-567 -773h586v-43h-693z" />
    <glyph glyph-name="A.vert" vert-adv-y="901" orientation="v" 
d="M883 472v-85l-805 -351v63l277 121v418l-277 121v63zM399 239l431 190l-431 190v-380z" />
    <glyph glyph-name="B.vert" vert-adv-y="806" orientation="v" 
d="M886 820v-440q0 -45 -15.5 -84.5t-42.5 -67.5q-24 -25 -55.5 -38.5t-67.5 -13.5h-64q-64 0 -113 43q-20 16 -36 40q-13 -43 -46 -74q-51 -51 -122 -51h-73q-38 0 -71.5 15.5t-58.5 43.5q-51 57 -52 145l1 482h816zM113 342q0 -68 41 -106q39 -41 95 -41h77q50 0 88 35
q22 19 34 47t12 62v420h-347v-417zM504 381q0 -35 13.5 -64.5t38.5 -48.5q37 -31 83 -31h69q49 0 87 35q48 42 48 112v375h-339v-378z" />
    <glyph glyph-name="C.vert" vert-adv-y="787" orientation="v" 
d="M93 654q24 53 67 91q88 75 206 75h221q64 0 119.5 -22t97.5 -63q39 -38 60 -89t21 -109v-384h-43v379q-1 46 -19 86.5t-51 70.5q-34 33 -81 51.5t-100 18.5h-228q-49 0 -93 -15.5t-79 -44.5q-37 -31 -58 -72.5t-21 -90.5v-383h-43v386q0 62 24 115z" />
    <glyph glyph-name="D.vert" vert-adv-y="789" orientation="v" 
d="M887 820v-386q0 -62 -23.5 -115t-66.5 -92q-41 -37 -94.5 -56.5t-114.5 -19.5h-220q-108 0 -191 62q-50 39 -78 95.5t-29 123.5v388h817zM113 435q1 -55 26 -101t70 -76q67 -46 155 -46h228q53 0 100 18t81 51q33 31 51.5 71.5t19.5 86.5v320h-731v-324z" />
    <glyph glyph-name="E.vert" vert-adv-y="770" orientation="v" 
d="M885 820v-650h-43v589h-343v-551h-43v551h-344v-589h-43v650h816z" />
    <glyph glyph-name="F.vert" vert-adv-y="770" orientation="v" 
d="M885 820v-650h-43v589h-343v-551h-43v551h-387v61h816z" />
    <glyph glyph-name="G.vert" vert-adv-y="815" orientation="v" 
d="M93 653q24 53 67 91q42 36 94.5 56t111.5 20h221q66 0 123.5 -24t98.5 -68q37 -37 56.5 -86t19.5 -105v-398h-43v393q-1 45 -18.5 85t-49.5 71q-35 34 -82 52.5t-101 18.5h-228q-98 0 -171 -59q-38 -30 -59 -73t-21 -91v-243q0 -53 29 -80t78 -27h232v326h43v-387h-273
q-68 0 -110 43t-42 121v250q0 61 24 114z" />
    <glyph glyph-name="H.vert" vert-adv-y="779" orientation="v" 
d="M885 820v-61h-386v-537h386v-61h-816v61h387v537h-387v61h816z" />
    <glyph glyph-name="I.vert" vert-adv-y="495" orientation="v" 
d="M111 820v-156h741v156h42v-375h-42v155h-741v-155h-47v375h47z" />
    <glyph glyph-name="J.vert" vert-adv-y="441" orientation="v" 
d="M114 820v-147q0 -55 32 -85t83 -30h652v-59h-647q-73 0 -119.5 45.5t-46.5 123.5v152h46z" />
    <glyph glyph-name="K.vert" vert-adv-y="722" orientation="v" 
d="M69 820h819v-61h-819v61zM883 247l-416 427l-398 -425v83l398 423l416 -429v-79z" />
    <glyph glyph-name="L.vert" vert-adv-y="628" orientation="v" 
d="M884 820v-61h-773v-447h-43v508h816z" />
    <glyph glyph-name="M.vert" vert-adv-y="849" orientation="v" 
d="M884 820v-59l-472 -306l472 -305v-59h-812v61h703l-470 303l471 304h-708v61h816z" />
    <glyph glyph-name="N.vert" vert-adv-y="751" orientation="v" 
d="M884 820v-58l-715 -512h715v-61h-816v58l715 512h-715v61h816z" />
    <glyph glyph-name="O.vert" vert-adv-y="767" orientation="v" 
d="M110 776.5q42 43.5 111 43.5h508q68 0 110 -43.5t43 -120.5v-319q-1 -78 -43 -121t-110 -43h-508q-69 0 -111 43t-42 121v319q0 77 42 120.5zM111 341q0 -53 29.5 -80t78.5 -27h512q49 0 78 27t30 80v311q-1 53 -30 80t-78 27h-512q-49 0 -78.5 -27t-29.5 -80v-311z" />
    <glyph glyph-name="P.vert" vert-adv-y="759" orientation="v" 
d="M884 820v-435q0 -86 -48 -142q-24 -30 -58.5 -46t-73.5 -16h-102q-68 0 -117 47q-30 27 -46.5 67t-16.5 88v376h-354v61h816zM465 386q0 -36 13 -66t38 -49q20 -15 40 -22t44 -7h106q57 0 99 45q36 39 36 102v370h-376v-373z" />
    <glyph glyph-name="Q.vert" vert-adv-y="767" orientation="v" 
d="M839 776.5q42 -43.5 43 -120.5v-319q-1 -78 -43 -121t-110 -43h-508q-69 0 -111 43t-42 121v13l-73 -44v67l73 44v239q0 77 42 120.5t111 43.5h508q68 0 110 -43.5zM839 652q-1 53 -30 80t-78 27h-512q-49 0 -78.5 -27t-29.5 -80v-209l170 103v-67l-170 -103v-35
q0 -53 29.5 -80t78.5 -27h512q49 0 78 27t30 80v311z" />
    <glyph glyph-name="R.vert" vert-adv-y="769" orientation="v" 
d="M884 820v-435q0 -85 -48 -143q-25 -29 -59 -45t-73 -16h-59q-70 0 -119 49q-28 25 -40 49.5t-15.5 58t-4.5 107.5l-406 -286v70l405 285v245h-397v61h816zM508 386q0 -33 12 -61.5t34 -47.5q41 -35 89 -35h63q59 0 100 46q35 39 35 101v370h-333v-373z" />
    <glyph glyph-name="S.vert" vert-adv-y="816" orientation="v" 
d="M118 817v-492q0 -65 37.5 -99.5t98.5 -35.5l70 -1q60 0 97 35t38 100v276q0 89 50.5 140.5t130.5 51.5h63q80 0 130.5 -51.5t50.5 -140.5v-473l-43 -1v470q0 64 -37.5 99t-98.5 36h-67q-61 -1 -98 -36t-38 -99v-276q0 -90 -50 -141t-131 -51l-66 1q-80 0 -130 51.5
t-50 140.5v496h43z" />
    <glyph glyph-name="T.vert" vert-adv-y="778" orientation="v" 
d="M841 522v298h43v-658h-43v299h-766v61h766z" />
    <glyph glyph-name="U.vert" vert-adv-y="794" orientation="v" 
d="M95 717.5q27 49.5 74 76t108 26.5h606v-61h-608q-72 0 -118 -43.5t-46 -119.5v-227q0 -75 46 -118.5t118 -43.5h608v-61h-606q-61 0 -108 26.5t-74 76t-27 116.5v236q0 67 27 116.5z" />
    <glyph glyph-name="V.vert" vert-adv-y="889" orientation="v" 
d="M873 826v-65l-744 -326l744 -326v-65l-805 352v79z" />
    <glyph glyph-name="W.vert" vert-adv-y="922" orientation="v" 
d="M869 822v-62l-681 -130l639 -175v-72l-640 -176l682 -128v-63l-802 152v72l643 179l-643 179v72z" />
    <glyph glyph-name="X.vert" vert-adv-y="832" orientation="v" 
d="M482 501l395 315v-74l-346 -278l346 -278v-74l-395 315l-410 -327v73l361 290l-361 291v74z" />
    <glyph glyph-name="Y.vert" vert-adv-y="822" orientation="v" 
d="M464 500l413 328v-74l-356 -285l356 -284v-74l-413 328h-396v61h396z" />
    <glyph glyph-name="Z.vert" vert-adv-y="816" orientation="v" 
d="M841 250v570h43v-677l-773 567v-586h-43v693z" />
    <glyph glyph-name="a" unicode="a" horiz-adv-x="691" 
d="M122 -6.5q-44 38.5 -44 99.5v25q0 62 43.5 100.5t120.5 38.5h328q0 72 -6 104t-28.5 46.5t-73.5 14.5h-402v43h407q86 -1 125 -36t39 -106v-215q0 -69 -43 -111t-121 -42h-223q-78 0 -122 38.5zM462 -2q53 0 80.5 29.5t27.5 78.5v108h-324q-51 -1 -79 -27.5t-28 -72.5
v-17q0 -46 28 -72.5t82 -26.5h213z" />
    <glyph glyph-name="aacute" unicode="&#xe1;" horiz-adv-x="691" 
d="M122 -6.5q-44 38.5 -44 99.5v25q0 62 43.5 100.5t120.5 38.5h328q0 72 -6 104t-28.5 46.5t-73.5 14.5h-402v43h407q86 -1 125 -36t39 -106v-215q0 -69 -43 -111t-121 -42h-223q-78 0 -122 38.5zM462 -2q53 0 80.5 29.5t27.5 78.5v108h-324q-51 -1 -79 -27.5t-28 -72.5
v-17q0 -46 28 -72.5t82 -26.5h213zM296 595l151 173l41 -26l-146 -177z" />
    <glyph glyph-name="uni01CE" unicode="&#x1ce;" horiz-adv-x="691" 
d="M122 -6.5q-44 38.5 -44 99.5v25q0 62 43.5 100.5t120.5 38.5h328q0 72 -6 104t-28.5 46.5t-73.5 14.5h-402v43h407q86 -1 125 -36t39 -106v-215q0 -69 -43 -111t-121 -42h-223q-78 0 -122 38.5zM462 -2q53 0 80.5 29.5t27.5 78.5v108h-324q-51 -1 -79 -27.5t-28 -72.5
v-17q0 -46 28 -72.5t82 -26.5h213zM200 734l33 28l139 -145l138 145l33 -28l-172 -182z" />
    <glyph glyph-name="agrave" unicode="&#xe0;" horiz-adv-x="691" 
d="M122 -6.5q-44 38.5 -44 99.5v25q0 62 43.5 100.5t120.5 38.5h328q0 72 -6 104t-28.5 46.5t-73.5 14.5h-402v43h407q86 -1 125 -36t39 -106v-215q0 -69 -43 -111t-121 -42h-223q-78 0 -122 38.5zM462 -2q53 0 80.5 29.5t27.5 78.5v108h-324q-51 -1 -79 -27.5t-28 -72.5
v-17q0 -46 28 -72.5t82 -26.5h213zM233 737l46 30l146 -178l-41 -26z" />
    <glyph glyph-name="uni0251" unicode="&#x251;" horiz-adv-x="504" 
d="M59 33q-49 58 -49 153q0 63 26.5 116t72.5 84.5t103 33.5q52 -1 79.5 -17t60.5 -57v52l64 12v-320q-5 -76 74 -74v-12q-35 -16 -74 -19q-67 10 -64 51q-71 -59 -160 -63q-84 2 -133 60zM356 174q2 218 -132 224q-74 -4 -107 -65t-31 -159q-6 -160 138 -170
q122 -2 132 170z" />
    <glyph glyph-name="amacron" unicode="&#x101;" horiz-adv-x="691" 
d="M122 -6.5q-44 38.5 -44 99.5v25q0 62 43.5 100.5t120.5 38.5h328q0 72 -6 104t-28.5 46.5t-73.5 14.5h-402v43h407q86 -1 125 -36t39 -106v-215q0 -69 -43 -111t-121 -42h-223q-78 0 -122 38.5zM462 -2q53 0 80.5 29.5t27.5 78.5v108h-324q-51 -1 -79 -27.5t-28 -72.5
v-17q0 -46 28 -72.5t82 -26.5h213zM201 611h311v-48h-311v48z" />
    <glyph glyph-name="b" unicode="b" horiz-adv-x="681" 
d="M60 771h61v-313h299q94 -2 144 -43q57 -46 57 -127v-153q0 -40 -17 -75.5t-48 -60.5q-55 -44 -138 -44h-358v816zM413 -2q59 0 98 32q49 41 50 103v157q0 55 -42 92q-38 32 -102 32h-296v-416h292z" />
    <glyph glyph-name="c" unicode="c" horiz-adv-x="613" 
d="M129 -3q-33 25 -51 61t-18 77v163q0 71 53 118q27 24 65.5 37t84.5 13h290v-43h-287q-79 0 -112 -36q-33 -34 -33 -88v-166q0 -61 50 -103q38 -32 98 -32h284v-43h-289q-81 0 -135 42z" />
    <glyph glyph-name="d" unicode="d" horiz-adv-x="681" 
d="M127 -2q-32 25 -49.5 60.5t-17.5 76.5v153q0 40 17.5 73.5t49.5 56.5q50 38 136 40h298v313h60v-816h-356q-82 0 -138 43zM561 -2v416h-295q-65 0 -101 -27q-44 -35 -44 -97v-157q0 -65 54 -106q36 -29 94 -29h292z" />
    <glyph glyph-name="e" unicode="e" horiz-adv-x="691" 
d="M103 -3q-43 42 -43 111v215q0 66 42 103.5t122 38.5h223q86 -1 126 -32t40 -95v-160h-492q0 -72 7 -108.5t29.5 -54t70.5 -17.5h403v-43h-407q-78 0 -121 42zM552 221v113q0 45 -26 66t-84 22h-214q-61 -1 -84 -23t-23 -73v-105h431z" />
    <glyph glyph-name="eacute" unicode="&#xe9;" horiz-adv-x="691" 
d="M103 -3q-43 42 -43 111v215q0 66 42 103.5t122 38.5h223q86 -1 126 -32t40 -95v-160h-492q0 -72 7 -108.5t29.5 -54t70.5 -17.5h403v-43h-407q-78 0 -121 42zM552 221v113q0 45 -26 66t-84 22h-214q-61 -1 -84 -23t-23 -73v-105h431zM270 595l151 173l41 -26l-146 -177z
" />
    <glyph glyph-name="ecaron" unicode="&#x11b;" horiz-adv-x="691" 
d="M103 -3q-43 42 -43 111v215q0 66 42 103.5t122 38.5h223q86 -1 126 -32t40 -95v-160h-492q0 -72 7 -108.5t29.5 -54t70.5 -17.5h403v-43h-407q-78 0 -121 42zM552 221v113q0 45 -26 66t-84 22h-214q-61 -1 -84 -23t-23 -73v-105h431zM171 734l33 28l139 -145l138 145
l33 -28l-172 -182z" />
    <glyph glyph-name="ecircumflex" unicode="&#xea;" horiz-adv-x="691" 
d="M103 -3q-43 42 -43 111v215q0 66 42 103.5t122 38.5h223q86 -1 126 -32t40 -95v-160h-492q0 -72 7 -108.5t29.5 -54t70.5 -17.5h403v-43h-407q-78 0 -121 42zM552 221v113q0 45 -26 66t-84 22h-214q-61 -1 -84 -23t-23 -73v-105h431zM341 707l-139 -145l-32 28l170 190
l172 -190l-32 -28z" />
    <glyph glyph-name="egrave" unicode="&#xe8;" horiz-adv-x="691" 
d="M103 -3q-43 42 -43 111v215q0 66 42 103.5t122 38.5h223q86 -1 126 -32t40 -95v-160h-492q0 -72 7 -108.5t29.5 -54t70.5 -17.5h403v-43h-407q-78 0 -121 42zM552 221v113q0 45 -26 66t-84 22h-214q-61 -1 -84 -23t-23 -73v-105h431zM184 737l46 30l146 -178l-41 -26z
" />
    <glyph glyph-name="emacron" unicode="&#x113;" horiz-adv-x="691" 
d="M103 -3q-43 42 -43 111v215q0 66 42 103.5t122 38.5h223q86 -1 126 -32t40 -95v-160h-492q0 -72 7 -108.5t29.5 -54t70.5 -17.5h403v-43h-407q-78 0 -121 42zM552 221v113q0 45 -26 66t-84 22h-214q-61 -1 -84 -23t-23 -73v-105h431zM199 611h311v-48h-311v48z" />
    <glyph glyph-name="f" unicode="f" horiz-adv-x="622" 
d="M371 692q-35 -38 -36 -98v-133h214v-43h-214v-463h-60v463h-215v43h215v131q0 81 49.5 131t136.5 50h101v-43h-97q-59 0 -94 -38z" />
    <glyph glyph-name="g" unicode="g" horiz-adv-x="698" 
d="M60 -267h382q64 0 99.5 37.5t36.5 97.5v129h-302q-102 0 -154 47q-50 44 -50 119v125q0 38 16 70t46 56q52 43 140 43h364v-587q0 -79 -51.5 -129.5t-140.5 -50.5h-386v43zM578 40v374h-301q-67 0 -101 -28q-22 -18 -32.5 -41.5t-10.5 -55.5v-128q0 -52 40 -87
q38 -34 108 -34h297z" />
    <glyph glyph-name="uni0261" unicode="&#x261;" horiz-adv-x="420" 
d="M24 -112q0 36 38 39q23 -2 38 -36q27 -66 94 -70q41 2 71.5 29.5t47 70.5t17.5 91v34q-61 -64 -148 -63q-59 2 -100 33t-61.5 80t-20.5 106q0 86 49 147q25 33 62.5 49t79.5 16q74 0 129 -42l74 42v-392q-1 -100 -56 -163t-152 -66q-162 11 -162 95zM301 65.5
q33 49.5 33 126.5q0 83 -31 139.5t-95 60.5q-46 -3 -78.5 -33t-49 -73.5t-16.5 -88.5q0 -74 34.5 -127t103.5 -56q66 2 99 51.5z" />
    <glyph glyph-name="h" unicode="h" horiz-adv-x="679" 
d="M60 778h61v-325h296q94 -2 144 -43q28 -22 43 -54.5t15 -72.5v-322h-61v324q0 55 -44 93q-35 31 -100 31h-293v-448h-61v817z" />
    <glyph glyph-name="i" unicode="i" horiz-adv-x="240" 
d="M88 696h64v-123h-64v123zM88 493h64v-538h-64v538z" />
    <glyph glyph-name="iacute" unicode="&#xed;" horiz-adv-x="500" 
d="M212 589l150 173l42 -26l-147 -177zM214 493h63v-538h-63v538z" />
    <glyph glyph-name="uni01D0" unicode="&#x1d0;" horiz-adv-x="500" 
d="M86 734l33 28l139 -145l138 145l33 -28l-171 -182zM221 493h63v-538h-63v538z" />
    <glyph glyph-name="igrave" unicode="&#xec;" horiz-adv-x="500" 
d="M87 737l46 30l145 -178l-40 -26zM217 493h64v-538h-64v538z" />
    <glyph glyph-name="imacron" unicode="&#x12b;" horiz-adv-x="500" 
d="M87 626h312v-48h-312v48zM215 493h64v-538h-64v538z" />
    <glyph glyph-name="j" unicode="j" horiz-adv-x="230" 
d="M73 693h61v-120h-61v120zM-167 -268h105q64 1 99.5 38.5t35.5 97.5v624h61v-622q0 -80 -51.5 -130t-139.5 -51h-110v43z" />
    <glyph glyph-name="k" unicode="k" horiz-adv-x="610" 
d="M74 772h61v-817h-61v817zM150 216l295 256h85l-293 -256l303 -261h-86z" />
    <glyph glyph-name="l" unicode="l" horiz-adv-x="181" 
d="M60 772h61v-817h-61v817z" />
    <glyph glyph-name="m" unicode="m" horiz-adv-x="765" 
d="M60 467h453q97 -1 144.5 -44.5t47.5 -125.5v-340h-61v342q-1 58 -35 91t-100 34h-96v-467h-61v467h-231v-467h-61v510z" />
    <glyph glyph-name="uni1E3F" unicode="&#x1e3f;" horiz-adv-x="765" 
d="M60 467h453q97 -1 144.5 -44.5t47.5 -125.5v-340h-61v342q-1 58 -35 91t-100 34h-96v-467h-61v467h-231v-467h-61v510zM342 595l151 173l41 -26l-146 -177z" />
    <glyph glyph-name="n" unicode="n" horiz-adv-x="641" 
d="M60 465h330q191 -1 191 -170v-340h-61v343q0 57 -34 90t-100 34h-265v-467h-61v510z" />
    <glyph glyph-name="nacute" unicode="&#x144;" horiz-adv-x="641" 
d="M60 465h330q191 -1 191 -170v-340h-61v343q0 57 -34 90t-100 34h-265v-467h-61v510zM286 595l151 173l41 -26l-146 -177z" />
    <glyph glyph-name="ncaron" unicode="&#x148;" horiz-adv-x="641" 
d="M60 465h330q191 -1 191 -170v-340h-61v343q0 57 -34 90t-100 34h-265v-467h-61v510zM146 734l33 28l139 -145l138 145l33 -28l-172 -182z" />
    <glyph glyph-name="uni01F9" unicode="&#x1f9;" horiz-adv-x="641" 
d="M60 465h330q191 -1 191 -170v-340h-61v343q0 57 -34 90t-100 34h-265v-467h-61v510zM174 737l46 30l146 -178l-41 -26z" />
    <glyph glyph-name="o" unicode="o" horiz-adv-x="681" 
d="M107 2q-47 46 -47 121v188q0 72 46 113.5t132 42.5h206q91 -1 134 -40t43 -116v-188q0 -75 -46.5 -121t-130.5 -46h-206q-84 0 -131 46zM439 -1q59 1 90 34t32 88v192q-2 110 -122 111h-197q-66 -1 -93.5 -27.5t-27.5 -83.5v-192q0 -55 31 -88t90 -34h197z" />
    <glyph glyph-name="oacute" unicode="&#xf3;" horiz-adv-x="681" 
d="M107 2q-47 46 -47 121v188q0 72 46 113.5t132 42.5h206q91 -1 134 -40t43 -116v-188q0 -75 -46.5 -121t-130.5 -46h-206q-84 0 -131 46zM439 -1q59 1 90 34t32 88v192q-2 110 -122 111h-197q-66 -1 -93.5 -27.5t-27.5 -83.5v-192q0 -55 31 -88t90 -34h197zM296 595
l151 173l41 -26l-146 -177z" />
    <glyph glyph-name="uni01D2" unicode="&#x1d2;" horiz-adv-x="681" 
d="M107 2q-47 46 -47 121v188q0 72 46 113.5t132 42.5h206q91 -1 134 -40t43 -116v-188q0 -75 -46.5 -121t-130.5 -46h-206q-84 0 -131 46zM439 -1q59 1 90 34t32 88v192q-2 110 -122 111h-197q-66 -1 -93.5 -27.5t-27.5 -83.5v-192q0 -55 31 -88t90 -34h197zM191 734l33 28
l139 -145l138 145l33 -28l-172 -182z" />
    <glyph glyph-name="ograve" unicode="&#xf2;" horiz-adv-x="681" 
d="M107 2q-47 46 -47 121v188q0 72 46 113.5t132 42.5h206q91 -1 134 -40t43 -116v-188q0 -75 -46.5 -121t-130.5 -46h-206q-84 0 -131 46zM439 -1q59 1 90 34t32 88v192q-2 110 -122 111h-197q-66 -1 -93.5 -27.5t-27.5 -83.5v-192q0 -55 31 -88t90 -34h197zM196 737l46 30
l146 -178l-41 -26z" />
    <glyph glyph-name="omacron" unicode="&#x14d;" horiz-adv-x="681" 
d="M107 2q-47 46 -47 121v188q0 72 46 113.5t132 42.5h206q91 -1 134 -40t43 -116v-188q0 -75 -46.5 -121t-130.5 -46h-206q-84 0 -131 46zM439 -1q59 1 90 34t32 88v192q-2 110 -122 111h-197q-66 -1 -93.5 -27.5t-27.5 -83.5v-192q0 -55 31 -88t90 -34h197zM187 621h311
v-48h-311v48z" />
    <glyph glyph-name="p" unicode="p" horiz-adv-x="682" 
d="M60 462l358 2q97 0 149 -44q55 -44 55 -124v-135q0 -38 -16 -70t-46 -55q-55 -41 -140 -41h-299v-306h-61v773zM417 38q70 0 104 27q20 17 30 40t10 54v139q0 53 -42 90q-37 33 -106 33h-292v-383h296z" />
    <glyph glyph-name="q" unicode="q" horiz-adv-x="681" 
d="M561 -5h-298q-103 0 -156 48q-47 44 -47 118v135q0 35 13.5 65t39.5 52q57 51 152 51l356 -1v-774h-60v306zM561 38v383h-292q-73 0 -108 -31q-40 -33 -40 -92v-139q0 -48 36 -84q38 -37 109 -37h295z" />
    <glyph glyph-name="r" unicode="r" horiz-adv-x="424" 
d="M60 478h61v-149l251 142v-54l-251 -142v-318h-61v521z" />
    <glyph glyph-name="s" unicode="s" horiz-adv-x="680" 
d="M537 172.5q-22 24.5 -54 25.5h-288q-61 0 -97 30.5t-38 82.5v46q0 105 138 108h405v-43h-402q-45 -1 -62.5 -15.5t-17.5 -49.5l1 -46q1 -31 22.5 -50.5t54.5 -19.5h287q60 0 97 -36.5t37 -90.5v-41q0 -53 -36.5 -86t-99.5 -33h-407v43h403q35 0 57 22t22 54v41
q0 34 -22 58.5z" />
    <glyph glyph-name="t" unicode="t" horiz-adv-x="622" 
d="M325 5q-50 50 -50 130v290h-215v43h215v206h61v-206h214v-43h-214v-292q0 -60 35 -97.5t95 -37.5h96v-43h-100q-87 0 -137 50z" />
    <glyph glyph-name="u" unicode="u" horiz-adv-x="641" 
d="M111.5 5q-51.5 50 -51.5 130v341h61v-343q0 -60 35.5 -97.5t99.5 -37.5h129q65 0 100 37t35 98v343h61v-341q0 -80 -51.5 -130t-140.5 -50h-137q-89 0 -140.5 50z" />
    <glyph glyph-name="uacute" unicode="&#xfa;" horiz-adv-x="641" 
d="M111.5 5q-51.5 50 -51.5 130v341h61v-343q0 -60 35.5 -97.5t99.5 -37.5h129q65 0 100 37t35 98v343h61v-341q0 -80 -51.5 -130t-140.5 -50h-137q-89 0 -140.5 50zM271 595l151 173l41 -26l-146 -177z" />
    <glyph glyph-name="uni01D4" unicode="&#x1d4;" horiz-adv-x="641" 
d="M111.5 5q-51.5 50 -51.5 130v341h61v-343q0 -60 35.5 -97.5t99.5 -37.5h129q65 0 100 37t35 98v343h61v-341q0 -80 -51.5 -130t-140.5 -50h-137q-89 0 -140.5 50zM161 734l33 28l139 -145l138 145l33 -28l-172 -182z" />
    <glyph glyph-name="udieresis" unicode="&#xfc;" horiz-adv-x="641" 
d="M111.5 5q-51.5 50 -51.5 130v341h61v-343q0 -60 35.5 -97.5t99.5 -37.5h129q65 0 100 37t35 98v343h61v-341q0 -80 -51.5 -130t-140.5 -50h-137q-89 0 -140.5 50zM180 615h58v-110h-58v110zM407 615h59v-110h-59v110z" />
    <glyph glyph-name="uni01D8" unicode="&#x1d8;" horiz-adv-x="641" 
d="M271 695l151 173l41 -26l-146 -177zM111.5 5q-51.5 50 -51.5 130v341h61v-343q0 -60 35.5 -97.5t99.5 -37.5h129q65 0 100 37t35 98v343h61v-341q0 -80 -51.5 -130t-140.5 -50h-137q-89 0 -140.5 50zM180 615h58v-110h-58v110zM407 615h59v-110h-59v110z" />
    <glyph glyph-name="uni01DA" unicode="&#x1da;" horiz-adv-x="641" 
d="M166 834l33 28l139 -145l138 145l33 -28l-172 -182zM111.5 5q-51.5 50 -51.5 130v341h61v-343q0 -60 35.5 -97.5t99.5 -37.5h129q65 0 100 37t35 98v343h61v-341q0 -80 -51.5 -130t-140.5 -50h-137q-89 0 -140.5 50zM180 615h58v-110h-58v110zM407 615h59v-110h-59v110z
" />
    <glyph glyph-name="uni01DC" unicode="&#x1dc;" horiz-adv-x="641" 
d="M159 837l46 30l146 -178l-41 -26zM111.5 5q-51.5 50 -51.5 130v341h61v-343q0 -60 35.5 -97.5t99.5 -37.5h129q65 0 100 37t35 98v343h61v-341q0 -80 -51.5 -130t-140.5 -50h-137q-89 0 -140.5 50zM180 615h58v-110h-58v110zM407 615h59v-110h-59v110z" />
    <glyph glyph-name="uni01D6" unicode="&#x1d6;" horiz-adv-x="641" 
d="M168 752h311v-48h-311v48zM111.5 5q-51.5 50 -51.5 130v341h61v-343q0 -60 35.5 -97.5t99.5 -37.5h129q65 0 100 37t35 98v343h61v-341q0 -80 -51.5 -130t-140.5 -50h-137q-89 0 -140.5 50zM180 615h58v-110h-58v110zM407 615h59v-110h-59v110z" />
    <glyph glyph-name="ugrave" unicode="&#xf9;" horiz-adv-x="641" 
d="M111.5 5q-51.5 50 -51.5 130v341h61v-343q0 -60 35.5 -97.5t99.5 -37.5h129q65 0 100 37t35 98v343h61v-341q0 -80 -51.5 -130t-140.5 -50h-137q-89 0 -140.5 50zM166 737l46 30l146 -178l-41 -26z" />
    <glyph glyph-name="umacron" unicode="&#x16b;" horiz-adv-x="641" 
d="M111.5 5q-51.5 50 -51.5 130v341h61v-343q0 -60 35.5 -97.5t99.5 -37.5h129q65 0 100 37t35 98v343h61v-341q0 -80 -51.5 -130t-140.5 -50h-137q-89 0 -140.5 50zM171 621h311v-48h-311v48z" />
    <glyph glyph-name="v" unicode="v" horiz-adv-x="706" 
d="M57 468h65l231 -449l231 449h67l-265 -514h-66z" />
    <glyph glyph-name="w" unicode="w" horiz-adv-x="840" 
d="M205 -45l-146 512h61l125 -431l142 409h66l141 -409l125 431h62l-146 -512h-76l-139 398l-140 -398h-75z" />
    <glyph glyph-name="x" unicode="x" horiz-adv-x="643" 
d="M282 216l-221 246h79l182 -202l181 202h80l-222 -246l230 -256h-79l-190 211l-191 -211h-80z" />
    <glyph glyph-name="y" unicode="y" horiz-adv-x="715" 
d="M325 30l-267 433h67l234 -377l232 377h69l-468 -760h-67z" />
    <glyph glyph-name="z" unicode="z" horiz-adv-x="696" 
d="M510 422h-441v43h559l-450 -467h458v-43h-576z" />
    <glyph glyph-name="uniFF41" unicode="&#xff41;" 
d="M277 -6.5q-44 38.5 -44 99.5v25q0 62 43.5 100.5t120.5 38.5h328q0 72 -6 104t-28.5 46.5t-73.5 14.5h-402v43h407q86 -1 125 -36t39 -106v-215q0 -69 -43 -111t-121 -42h-223q-78 0 -122 38.5zM617 -2q53 0 80.5 29.5t27.5 78.5v108h-324q-51 -1 -79 -27.5t-28 -72.5
v-17q0 -46 28 -72.5t82 -26.5h213z" />
    <glyph glyph-name="uniFF42" unicode="&#xff42;" 
d="M219 771h61v-313h299q94 -2 144 -43q57 -46 57 -127v-153q0 -40 -17 -75.5t-48 -60.5q-55 -44 -138 -44h-358v816zM572 -2q59 0 98 32q49 41 50 103v157q0 55 -42 92q-38 32 -102 32h-296v-416h292z" />
    <glyph glyph-name="uniFF43" unicode="&#xff43;" 
d="M323 -3q-33 25 -51 61t-18 77v163q0 71 53 118q27 24 65.5 37t84.5 13h290v-43h-287q-79 0 -112 -36q-33 -34 -33 -88v-166q0 -61 50 -103q38 -32 98 -32h284v-43h-289q-81 0 -135 42z" />
    <glyph glyph-name="uniFF44" unicode="&#xff44;" 
d="M286 -2q-32 25 -49.5 60.5t-17.5 76.5v153q0 40 17.5 73.5t49.5 56.5q50 38 136 40h298v313h60v-816h-356q-82 0 -138 43zM720 -2v416h-295q-65 0 -101 -27q-44 -35 -44 -97v-157q0 -65 54 -106q36 -29 94 -29h292z" />
    <glyph glyph-name="uniFF45" unicode="&#xff45;" 
d="M258 -3q-43 42 -43 111v215q0 66 42 103.5t122 38.5h223q86 -1 126 -32t40 -95v-160h-492q0 -72 7 -108.5t29.5 -54t70.5 -17.5h403v-43h-407q-78 0 -121 42zM707 221v113q0 45 -26 66t-84 22h-214q-61 -1 -84 -23t-23 -73v-105h431z" />
    <glyph glyph-name="uniFF46" unicode="&#xff46;" 
d="M568 692q-35 -38 -36 -98v-133h214v-43h-214v-463h-60v463h-215v43h215v131q0 81 49.5 131t136.5 50h101v-43h-97q-59 0 -94 -38z" />
    <glyph glyph-name="uniFF47" unicode="&#xff47;" 
d="M211 -267h382q64 0 99.5 37.5t36.5 97.5v129h-302q-102 0 -154 47q-50 44 -50 119v125q0 38 16 70t46 56q52 43 140 43h364v-587q0 -79 -51.5 -129.5t-140.5 -50.5h-386v43zM729 40v374h-301q-67 0 -101 -28q-22 -18 -32.5 -41.5t-10.5 -55.5v-128q0 -52 40 -87
q38 -34 108 -34h297z" />
    <glyph glyph-name="uniFF48" unicode="&#xff48;" 
d="M221 778h61v-325h296q94 -2 144 -43q28 -22 43 -54.5t15 -72.5v-322h-61v324q0 55 -44 93q-35 31 -100 31h-293v-448h-61v817z" />
    <glyph glyph-name="uniFF49" unicode="&#xff49;" 
d="M468 696h64v-123h-64v123zM468 493h64v-538h-64v538z" />
    <glyph glyph-name="uniFF4A" unicode="&#xff4a;" 
d="M590 693h61v-120h-61v120zM350 -268h105q64 1 99.5 38.5t35.5 97.5v624h61v-622q0 -80 -51.5 -130t-139.5 -51h-110v43z" />
    <glyph glyph-name="uniFF4B" unicode="&#xff4b;" 
d="M269 772h61v-817h-61v817zM345 216l295 256h85l-293 -256l303 -261h-86z" />
    <glyph glyph-name="uniFF4C" unicode="&#xff4c;" 
d="M470 772h61v-817h-61v817z" />
    <glyph glyph-name="uniFF4D" unicode="&#xff4d;" 
d="M178 467h453q97 -1 144.5 -44.5t47.5 -125.5v-340h-61v342q-1 58 -35 91t-100 34h-96v-467h-61v467h-231v-467h-61v510z" />
    <glyph glyph-name="uniFF4E" unicode="&#xff4e;" 
d="M240 465h330q191 -1 191 -170v-340h-61v343q0 57 -34 90t-100 34h-265v-467h-61v510z" />
    <glyph glyph-name="uniFF4F" unicode="&#xff4f;" 
d="M266 2q-47 46 -47 121v188q0 72 46 113.5t132 42.5h206q91 -1 134 -40t43 -116v-188q0 -75 -46.5 -121t-130.5 -46h-206q-84 0 -131 46zM598 -1q59 1 90 34t32 88v192q-2 110 -122 111h-197q-66 -1 -93.5 -27.5t-27.5 -83.5v-192q0 -55 31 -88t90 -34h197z" />
    <glyph glyph-name="uniFF50" unicode="&#xff50;" 
d="M219 462l358 2q97 0 149 -44q55 -44 55 -124v-135q0 -38 -16 -70t-46 -55q-55 -41 -140 -41h-299v-306h-61v773zM576 38q70 0 104 27q20 17 30 40t10 54v139q0 53 -42 90q-37 33 -106 33h-292v-383h296z" />
    <glyph glyph-name="uniFF51" unicode="&#xff51;" 
d="M720 -5h-298q-103 0 -156 48q-47 44 -47 118v135q0 35 13.5 65t39.5 52q57 51 152 51l356 -1v-774h-60v306zM720 38v383h-292q-73 0 -108 -31q-40 -33 -40 -92v-139q0 -48 36 -84q38 -37 109 -37h295z" />
    <glyph glyph-name="uniFF52" unicode="&#xff52;" 
d="M348 478h61v-149l251 142v-54l-251 -142v-318h-61v521z" />
    <glyph glyph-name="uniFF53" unicode="&#xff53;" 
d="M697 172.5q-22 24.5 -54 25.5h-288q-61 0 -97 30.5t-38 82.5v46q0 105 138 108h405v-43h-402q-45 -1 -62.5 -15.5t-17.5 -49.5l1 -46q1 -31 22.5 -50.5t54.5 -19.5h287q60 0 97 -36.5t37 -90.5v-41q0 -53 -36.5 -86t-99.5 -33h-407v43h403q35 0 57 22t22 54v41
q0 34 -22 58.5z" />
    <glyph glyph-name="uniFF54" unicode="&#xff54;" 
d="M522 5q-50 50 -50 130v290h-215v43h215v206h61v-206h214v-43h-214v-292q0 -60 35 -97.5t95 -37.5h96v-43h-100q-87 0 -137 50z" />
    <glyph glyph-name="uniFF55" unicode="&#xff55;" 
d="M291.5 5q-51.5 50 -51.5 130v341h61v-343q0 -60 35.5 -97.5t99.5 -37.5h129q65 0 100 37t35 98v343h61v-341q0 -80 -51.5 -130t-140.5 -50h-137q-89 0 -140.5 50z" />
    <glyph glyph-name="uniFF56" unicode="&#xff56;" 
d="M204 468h65l231 -449l231 449h67l-265 -514h-66z" />
    <glyph glyph-name="a.vert" vert-adv-y="691" orientation="v" 
d="M113.5 758q38.5 44 99.5 44h25q62 0 100.5 -43.5t38.5 -120.5v-328q72 0 104 6t46.5 28.5t14.5 73.5v402h43v-407q-1 -86 -36 -125t-106 -39h-215q-69 0 -111 43t-42 121v223q0 78 38.5 122zM118 418q0 -53 29.5 -80.5t78.5 -27.5h108v324q-1 51 -27.5 79t-72.5 28h-17
q-46 0 -72.5 -28t-26.5 -82v-213z" />
    <glyph glyph-name="b.vert" vert-adv-y="681" orientation="v" 
d="M891 820v-61h-313v-299q-2 -94 -43 -144q-46 -57 -127 -57h-153q-40 0 -75.5 17t-60.5 48q-44 55 -44 138v358h816zM118 467q0 -59 32 -98q41 -49 103 -50h157q55 0 92 42q32 38 32 103v295h-416v-292z" />
    <glyph glyph-name="c.vert" vert-adv-y="613" orientation="v" 
d="M117 751q25 33 61 51t77 18h163q71 0 118 -53q24 -27 37 -65.5t13 -84.5v-290h-43v287q0 79 -36 112q-34 33 -88 33h-166q-61 0 -103 -50q-32 -38 -32 -98v-284h-43v289q0 81 42 135z" />
    <glyph glyph-name="d.vert" vert-adv-y="681" orientation="v" 
d="M118 753q25 32 60.5 49.5t76.5 17.5h153q40 0 73.5 -17.5t56.5 -49.5q38 -50 40 -136v-298h313v-60h-816v356q0 82 43 138zM118 319h416v295q0 65 -27 101q-35 44 -97 44h-157q-65 0 -106 -54q-29 -36 -29 -94v-292z" />
    <glyph glyph-name="e.vert" vert-adv-y="691" orientation="v" 
d="M117 777q42 43 111 43h215q66 0 103.5 -42t38.5 -122v-223q-1 -86 -32 -126t-95 -40h-160v492q-72 0 -108.5 -7t-54 -29.5t-17.5 -70.5v-403h-43v407q0 78 42 121zM341 328h113q45 0 66 26t22 84v214q-1 61 -23 84t-73 23h-105v-431z" />
    <glyph glyph-name="f.vert" vert-adv-y="622" orientation="v" 
d="M842.5 548q50.5 -50 50.5 -137v-101h-43v97q0 59 -38 94t-98 36h-133v-214h-43v214h-463v61h463v214h43v-214h131q80 0 130.5 -50z" />
    <glyph glyph-name="g.vert" vert-adv-y="698" orientation="v" 
d="M-147 820v-382q0 -64 37.5 -99.5t97.5 -36.5h129v302q0 102 47 154q44 50 119 50h125q38 0 70 -16t56 -46q43 -52 43 -140v-364h-587q-79 0 -129.5 51.5t-50.5 140.5v386h43zM160 302h374v301q0 67 -28 101q-18 22 -41.5 32.5t-55.5 10.5h-128q-52 0 -87 -40
q-34 -38 -34 -108v-297z" />
    <glyph glyph-name="h.vert" vert-adv-y="679" orientation="v" 
d="M898 820v-61h-325v-296q-2 -94 -43 -144q-22 -28 -54.5 -43t-72.5 -15h-322v61h324q55 0 93 44q31 35 31 100v293h-448v61h817z" />
    <glyph glyph-name="i.vert" vert-adv-y="240" orientation="v" 
d="M613 792v-64h-538v64h538zM816 792v-64h-123v64h123z" />
    <glyph glyph-name="j.vert" vert-adv-y="230" orientation="v" 
d="M-148 1047v-105q1 -64 38.5 -99.5t97.5 -35.5h624v-61h-622q-80 0 -130 51.5t-51 139.5v110h43zM813 807v-61h-120v61h120z" />
    <glyph glyph-name="k.vert" vert-adv-y="610" orientation="v" 
d="M892 806v-61h-817v61h817zM336 730l256 -295v-85l-256 293l-261 -303v86z" />
    <glyph glyph-name="l.vert" vert-adv-y="181" orientation="v" 
d="M892 820v-61h-817v61h817z" />
    <glyph glyph-name="m.vert" vert-adv-y="765" orientation="v" 
d="M587 820v-453q-1 -97 -44.5 -144.5t-125.5 -47.5h-340v61h342q58 1 91 35t34 100v96h-467v61h467v231h-467v61h510z" />
    <glyph glyph-name="n.vert" vert-adv-y="641" orientation="v" 
d="M585 820v-330q-1 -191 -170 -191h-340v61h343q57 0 90 34t34 100v265h-467v61h510z" />
    <glyph glyph-name="o.vert" vert-adv-y="681" orientation="v" 
d="M122 773q46 47 121 47h188q72 0 113.5 -46t42.5 -132v-206q-1 -91 -40 -134t-116 -43h-188q-75 0 -121 46.5t-46 130.5v206q0 84 46 131zM119 441q1 -59 34 -90t88 -32h192q110 2 111 122v197q-1 66 -27.5 93.5t-83.5 27.5h-192q-55 0 -88 -31t-34 -90v-197z" />
    <glyph glyph-name="p.vert" vert-adv-y="682" orientation="v" 
d="M582 820l2 -358q0 -97 -44 -149q-44 -55 -124 -55h-135q-38 0 -70 16t-55 46q-41 55 -41 140v299h-306v61h773zM158 464q0 -71 27 -105q17 -20 40 -30t54 -10h139q53 0 90 42q33 37 33 106v292h-383v-295z" />
    <glyph glyph-name="q.vert" vert-adv-y="681" orientation="v" 
d="M115 319v298q0 103 48 156q44 47 118 47h135q35 0 65 -13.5t52 -39.5q51 -57 51 -152l-1 -356h-774v60h306zM158 319h383v292q0 73 -31 108q-33 40 -92 40h-139q-48 0 -84 -36q-37 -38 -37 -109v-295z" />
    <glyph glyph-name="r.vert" vert-adv-y="424" orientation="v" 
d="M598 820v-61h-149l142 -251h-54l-142 251h-318v61h521z" />
    <glyph glyph-name="s.vert" vert-adv-y="680" orientation="v" 
d="M292.5 343q24.5 22 25.5 54v288q0 61 30.5 97t82.5 38h46q105 0 108 -138v-405h-43v402q-1 45 -15.5 62.5t-49.5 17.5l-46 -1q-31 -1 -50.5 -22.5t-19.5 -54.5v-287q0 -60 -36.5 -97t-90.5 -37h-41q-53 0 -86 36.5t-33 99.5v407h43v-403q0 -35 22 -57t54 -22h41
q34 0 58.5 22z" />
    <glyph glyph-name="t.vert" vert-adv-y="622" orientation="v" 
d="M125 555q50 50 130 50h290v215h43v-215h206v-61h-206v-214h-43v214h-292q-60 0 -97.5 -35t-37.5 -95v-96h-43v100q0 87 50 137z" />
    <glyph glyph-name="u.vert" vert-adv-y="641" orientation="v" 
d="M125 768.5q50 51.5 130 51.5h341v-61h-343q-60 0 -97.5 -35.5t-37.5 -99.5v-129q0 -65 37 -100t98 -35h343v-61h-341q-80 0 -130 51.5t-50 140.5v137q0 89 50 140.5z" />
    <glyph glyph-name="v.vert" vert-adv-y="706" orientation="v" 
d="M588 823v-65l-449 -231l449 -231v-67l-514 265v66z" />
    <glyph glyph-name="w.vert" vert-adv-y="840" orientation="v" 
d="M75 675l512 146v-61l-431 -125l409 -142v-66l-409 -141l431 -125v-62l-512 146v76l398 139l-398 140v75z" />
    <glyph glyph-name="x.vert" vert-adv-y="643" orientation="v" 
d="M336 598l246 221v-79l-202 -182l202 -181v-79l-246 221l-256 -230v79l211 190l-211 191v80z" />
    <glyph glyph-name="y.vert" vert-adv-y="715" orientation="v" 
d="M150 555l433 267v-67l-377 -234l377 -232v-69l-760 468v67z" />
    <glyph glyph-name="z.vert" vert-adv-y="696" orientation="v" 
d="M542 370v441h43v-559l-467 450v-458h-43v576z" />
    <glyph glyph-name="uniFF57" unicode="&#xff57;" 
d="M285 -45l-146 512h61l125 -431l142 409h66l141 -409l125 431h62l-146 -512h-76l-139 398l-140 -398h-75z" />
    <glyph glyph-name="uniFF58" unicode="&#xff58;" 
d="M461 216l-221 246h79l182 -202l181 202h80l-222 -246l230 -256h-79l-190 211l-191 -211h-80z" />
    <glyph glyph-name="uniFF59" unicode="&#xff59;" 
d="M468 30l-267 433h67l234 -377l232 377h69l-468 -760h-67z" />
    <glyph glyph-name="uniFF5A" unicode="&#xff5a;" 
d="M662 422h-441v43h559l-450 -467h458v-43h-576z" />
    <glyph glyph-name="uni0410" unicode="&#x410;" horiz-adv-x="588" 
d="M580 0h-64l-82 244h-282l-83 -244h-61l254 729h63zM419 293l-126 372l-126 -372h252z" />
    <glyph glyph-name="uni0411" unicode="&#x411;" horiz-adv-x="632" 
d="M106 729h429v-52h-369v-264h158q123 0 191.5 -48t68.5 -150q0 -106 -66 -160.5t-190 -54.5h-222v729zM314 50q106 0 158 39.5t52 123.5q0 78 -53 114.5t-161 36.5h-144v-314h148z" />
    <glyph glyph-name="uni0412" unicode="&#x412;" horiz-adv-x="642" 
d="M106 729h202q114 0 178.5 -43.5t64.5 -133.5q0 -57 -29 -100t-83 -59v-5q72 -12 114 -57t42 -119q0 -103 -73.5 -157.5t-199.5 -54.5h-216v729zM288 411q202 0 202 134q0 72 -48 103.5t-148 31.5h-128v-269h122zM309 50q108 0 167 40t59 123q0 75 -58 112t-168 37h-143
v-312h143z" />
    <glyph glyph-name="uni0413" unicode="&#x413;" horiz-adv-x="541" 
d="M106 729h402v-52h-342v-677h-60v729z" />
    <glyph glyph-name="uni0414" unicode="&#x414;" horiz-adv-x="691" 
d="M36 17v35h33q25 11 49.5 69.5t50.5 196.5q36 203 69 411h340v-677h78v-35l-8 -225h-52v208h-501v-208h-52zM517 52v625h-232q-10 -56 -27 -168q-24 -151 -33 -202q-20 -108 -40.5 -167t-42.5 -88h375z" />
    <glyph glyph-name="uni0415" unicode="&#x415;" horiz-adv-x="573" 
d="M106 729h404v-52h-344v-264h289v-52h-289v-309h355v-52h-415v729z" />
    <glyph glyph-name="uni0401" unicode="&#x401;" horiz-adv-x="573" 
d="M171.5 812.5q-12.5 11.5 -12.5 31.5q0 19 12.5 31.5t32.5 12.5q18 0 31 -12.5t13 -31.5q0 -20 -12.5 -31.5t-31.5 -11.5q-20 0 -32.5 11.5zM391.5 812.5q-12.5 11.5 -12.5 31.5q0 19 12.5 31.5t31.5 12.5t31.5 -12.5t12.5 -31.5q0 -20 -12.5 -31.5t-31.5 -11.5
t-31.5 11.5zM106 729h404v-52h-344v-264h289v-52h-289v-309h355v-52h-415v729z" />
    <glyph glyph-name="uni0416" unicode="&#x416;" horiz-adv-x="860" 
d="M237 391l-85 188q-30 64 -52 83.5t-50 19.5q-10 0 -23 -5l-10 60q13 5 31 5q31 0 54.5 -11t47 -40.5t50.5 -85.5l87 -193h114v317h58v-317h114l88 193q27 56 50.5 85.5t47 40.5t54.5 11q18 0 31 -5l-10 -60q-12 5 -24 5q-19 0 -33 -7t-30.5 -29t-37.5 -67l-86 -187
l228 -392h-68l-205 361h-119v-361h-58v361h-118l-205 -361h-69z" />
    <glyph glyph-name="uni0417" unicode="&#x417;" horiz-adv-x="609" 
d="M165.5 13q-61.5 26 -114.5 83l36 41q52 -53 102 -74.5t120 -21.5q52 0 96 19.5t70 56.5t26 88q0 79 -58.5 118t-166.5 39h-76v49h54q107 0 157.5 36t50.5 108q0 63 -45 98t-116 35q-52 0 -99.5 -19.5t-80.5 -53.5l-35 40q37 39 94.5 63t121.5 24q62 0 112 -22t79 -63
t29 -97q0 -61 -30.5 -105.5t-85.5 -61.5v-5q69 -12 112 -60.5t43 -124.5q0 -66 -33.5 -115t-91 -75t-127.5 -26q-82 0 -143.5 26z" />
    <glyph glyph-name="uni0418" unicode="&#x418;" horiz-adv-x="717" 
d="M106 729h60v-431q0 -44 -2 -99.5t-3 -77.5l-2 -39h4l82 144l302 503h65v-729h-61v436q0 71 8 211h-4l-83 -144l-302 -503h-64v729z" />
    <glyph glyph-name="uni0419" unicode="&#x419;" horiz-adv-x="717" 
d="M248.5 828q-35.5 41 -39.5 102h53q3 -46 27 -75.5t74 -29.5t74 29.5t26 75.5h54q-4 -61 -39.5 -102t-114.5 -41t-114.5 41zM106 729h60v-431q0 -44 -2 -99.5t-3 -77.5l-2 -39h4l82 144l302 503h65v-729h-61v436q0 71 8 211h-4l-83 -144l-302 -503h-64v729z" />
    <glyph glyph-name="uni041A" unicode="&#x41a;" horiz-adv-x="622" 
d="M106 729h60v-317h147l105 193q31 57 54 86.5t45 40t52 10.5q17 0 32 -5l-11 -60q-13 5 -24 5q-18 0 -31 -7t-29.5 -29t-41.5 -67l-102 -189l255 -390h-68l-237 361h-146v-361h-60v729z" />
    <glyph glyph-name="uni041B" unicode="&#x41b;" horiz-adv-x="684" 
d="M5 -4l15 58q15 -7 31 -7q22 0 38.5 15t32.5 59.5t33 130.5q32 162 63 349q7 39 12.5 71t10.5 57h338v-729h-61v677h-228q-10 -54 -37 -206q-26 -150 -40 -226q-19 -105 -40.5 -160.5t-48.5 -76.5t-67 -21q-29 0 -52 9z" />
    <glyph glyph-name="uni041C" unicode="&#x41c;" horiz-adv-x="788" 
d="M106 729h81l149 -419l57 -159h4q6 16 12 34.5t14 39.5q9 29 29 85l149 419h81v-729h-58v461q0 59 7 201h-4l-57 -163l-152 -421h-49l-154 421l-57 163h-4q8 -122 8 -201v-461h-56v729z" />
    <glyph glyph-name="uni041D" unicode="&#x41d;" horiz-adv-x="711" 
d="M106 729h60v-315h378v315h61v-729h-61v360h-378v-360h-60v729z" />
    <glyph glyph-name="uni041E" unicode="&#x41e;" horiz-adv-x="726" 
d="M206 34q-69 47 -107.5 133t-38.5 200q0 113 38.5 198t107.5 131t157 46t157 -46t107.5 -131t38.5 -198q0 -114 -38.5 -200t-107.5 -133t-157 -47t-157 47zM488.5 81q54.5 40 84.5 114t30 172q0 97 -30 170t-84 112t-126 39t-126 -39t-84 -112t-30 -170q0 -98 30 -172
t84.5 -114t125.5 -40t125.5 40z" />
    <glyph glyph-name="uni041F" unicode="&#x41f;" horiz-adv-x="705" 
d="M106 729h494v-729h-61v677h-373v-677h-60v729z" />
    <glyph glyph-name="uni0420" unicode="&#x420;" horiz-adv-x="613" 
d="M106 729h189q130 0 198.5 -48t68.5 -157q0 -107 -69 -161.5t-194 -54.5h-133v-308h-60v729zM287 359q109 0 160.5 39t51.5 126q0 86 -51.5 120t-164.5 34h-117v-319h121z" />
    <glyph glyph-name="uni0421" unicode="&#x421;" horiz-adv-x="627" 
d="M209 33.5q-70 46.5 -109.5 132t-39.5 199.5q0 115 40 200t111 131t163 46q60 0 110 -25t82 -63l-35 -39q-30 34 -69.5 53.5t-86.5 19.5q-77 0 -134 -39t-87.5 -112t-30.5 -171t30.5 -171.5t86.5 -113.5t131 -40q53 0 97 22t84 66l34 -38q-44 -51 -96.5 -77.5
t-120.5 -26.5q-90 0 -160 46.5z" />
    <glyph glyph-name="uni0422" unicode="&#x422;" horiz-adv-x="584" 
d="M261 677h-229v52h520v-52h-229v-677h-62v677z" />
    <glyph glyph-name="uni0423" unicode="&#x423;" horiz-adv-x="550" 
d="M77 -3l15 56q17 -7 42 -7q40 0 63.5 16.5t41.5 53.5l17 46l-248 567h63l160 -373l53 -130h4l48 130l147 373h63l-245 -611q-26 -65 -64 -98t-97 -33q-36 0 -63 10z" />
    <glyph glyph-name="uni0424" unicode="&#x424;" horiz-adv-x="795" 
d="M370 95q-151 2 -234 74t-83 198t82.5 196t234.5 72v107h55v-107q151 -2 234.5 -72t83.5 -196q0 -125 -84 -197.5t-234 -74.5v-108h-55v108zM370 586q-125 -1 -191 -59t-66 -160q0 -103 66.5 -162t190.5 -61v442zM615.5 205q66.5 59 66.5 162q0 102 -66 160t-191 59v-442
q124 2 190.5 61z" />
    <glyph glyph-name="uni0425" unicode="&#x425;" horiz-adv-x="542" 
d="M236 377l-203 352h67l115 -207q35 -63 59 -102h4l16 31q17 35 37 71l115 207h63l-203 -355l218 -374h-66l-123 218l-21 38l-45 78h-4l-62 -116l-121 -218h-63z" />
    <glyph glyph-name="uni0427" unicode="&#x427;" horiz-adv-x="646" 
d="M480 341q-67 -13 -143 -13q-127 0 -193.5 52.5t-66.5 172.5v176h60v-176q0 -95 51.5 -133.5t154.5 -38.5q71 0 137 12v336h60v-729h-60v341z" />
    <glyph glyph-name="uni0426" unicode="&#x426;" horiz-adv-x="698" 
d="M603 0h-497v729h60v-677h358v677h62v-677h77v-35l-8 -225h-52v208z" />
    <glyph glyph-name="uni0428" unicode="&#x428;" horiz-adv-x="935" 
d="M106 729h60v-677h272v677h59v-677h273v677h60v-729h-724v729z" />
    <glyph glyph-name="uni0429" unicode="&#x429;" horiz-adv-x="943" 
d="M847 0h-741v729h60v-677h272v677h59v-677h273v677h60v-677h78v-35l-8 -225h-53v208z" />
    <glyph glyph-name="uni042C" unicode="&#x42c;" horiz-adv-x="632" 
d="M106 729h60v-313h152q123 0 192.5 -48.5t69.5 -149.5q0 -108 -67 -163t-191 -55h-216v729zM309 51q106 0 158.5 40t52.5 125q0 77 -53 113t-162 36h-139v-314h143z" />
    <glyph glyph-name="uni042A" unicode="&#x42a;" horiz-adv-x="793" 
d="M275 677h-243v52h304v-313h138q123 0 194.5 -49.5t71.5 -148.5q0 -108 -67.5 -163t-191.5 -55h-206v677zM469 51q106 0 158.5 40t52.5 125q0 149 -219 149h-125v-314h133z" />
    <glyph glyph-name="uni042B" unicode="&#x42b;" horiz-adv-x="857" 
d="M106 729h60v-313h132q124 0 193 -48.5t69 -149.5q0 -109 -67 -163.5t-192 -54.5h-195v729zM691 729h60v-729h-60v729zM289 51q105 0 157.5 40t52.5 125q0 77 -53 113t-161 36h-119v-314h123z" />
    <glyph glyph-name="uni042D" unicode="&#x42d;" horiz-adv-x="627" 
d="M142.5 13.5q-55.5 26.5 -101.5 77.5l34 38q42 -44 88.5 -66t104.5 -22q110 0 173 83t65 237h-329v52h328q-8 131 -69.5 203t-167.5 72q-49 0 -94 -19.5t-79 -53.5l-35 39q35 37 91 62.5t118 25.5q92 0 159 -43.5t103.5 -128.5t36.5 -205q0 -118 -37 -203.5t-104.5 -130
t-155.5 -44.5q-73 0 -128.5 26.5z" />
    <glyph glyph-name="uni042E" unicode="&#x42e;" horiz-adv-x="985" 
d="M485.5 32.5q-64.5 45.5 -100.5 130t-37 197.5h-182v-360h-60v729h60v-315h183q7 100 44.5 174.5t99.5 114t142 39.5q85 0 151 -46t102.5 -130.5t36.5 -198.5t-36.5 -200.5t-102.5 -133t-151 -46.5t-149.5 45.5zM755 81q51 40 78.5 114t27.5 172t-27.5 170.5t-78.5 111.5
t-120 39t-120.5 -39t-79.5 -111.5t-28 -170.5t28 -172t79.5 -114t120.5 -40t120 40z" />
    <glyph glyph-name="uni042F" unicode="&#x42f;" horiz-adv-x="627" 
d="M243 335q-82 14 -130 64t-48 135q0 195 243 195h214v-729h-61v329h-157l-205 -329h-70zM461 379v299h-139q-97 0 -146 -33.5t-49 -110.5q0 -78 50 -116.5t145 -38.5h139z" />
    <glyph glyph-name="uni0430" unicode="&#x430;" horiz-adv-x="548" 
d="M106.5 25.5q-43.5 38.5 -43.5 109.5q0 87 80.5 133.5t258.5 66.5q2 70 -25 115.5t-96 45.5q-82 0 -168 -61l-25 43q39 28 91 48.5t109 20.5q91 0 132.5 -56.5t41.5 -152.5v-338h-49l-7 68h-3q-98 -81 -185 -81q-68 0 -111.5 38.5zM313.5 57q40.5 20 88.5 62v173
q-152 -18 -216 -54.5t-64 -99.5q0 -52 30 -76.5t78 -24.5q43 0 83.5 20z" />
    <glyph glyph-name="uni0431" unicode="&#x431;" horiz-adv-x="594" 
d="M128.5 73q-64.5 86 -64.5 246q0 182 38.5 276t107 129.5t188.5 53.5q39 6 57 12t46 19l12 -56q-20 -13 -44 -20t-59 -13q-107 -17 -160 -38.5t-85 -81.5t-40 -184q39 49 89.5 75t104.5 26q66 0 115.5 -31t76 -87.5t26.5 -132.5q0 -83 -31 -146.5t-83 -98t-113 -34.5
q-117 0 -181.5 86zM394.5 67q37.5 29 59 81t21.5 118q0 91 -43.5 147t-123.5 56q-101 0 -186 -110v-48q0 -129 47.5 -201t140.5 -72q47 0 84.5 29z" />
    <glyph glyph-name="uni0432" unicode="&#x432;" horiz-adv-x="553" 
d="M99 534h195q91 0 140 -32.5t49 -100.5q0 -89 -89 -116v-4q49 -11 81 -42.5t32 -86.5q0 -76 -54.5 -114t-150.5 -38h-203v534zM277 303q146 0 146 93q0 45 -33.5 68t-104.5 23h-127v-184h119zM291 46q77 0 116.5 28t39.5 81q0 48 -42 74.5t-122 26.5h-125v-210h133z" />
    <glyph glyph-name="uni0433" unicode="&#x433;" horiz-adv-x="444" 
d="M99 534h317v-51h-257v-483h-60v534z" />
    <glyph glyph-name="uni0434" unicode="&#x434;" horiz-adv-x="563" 
d="M26 14v37h22q27 14 46 62t35 173l30 248h301v-483h75v-37l-7 -204h-51v190h-394v-190h-51zM402 51v432h-196l-24 -205q-19 -165 -63 -227h283z" />
    <glyph glyph-name="uni0435" unicode="&#x435;" horiz-adv-x="538" 
d="M178.5 20.5q-56.5 33.5 -89.5 97t-33 148.5q0 84 32.5 148t86.5 98.5t115 34.5q97 0 151.5 -65.5t54.5 -182.5q0 -30 -3 -43h-377q1 -64 25.5 -114t68 -77.5t100.5 -27.5q41 0 75 11.5t66 34.5l24 -44q-40 -25 -79 -38.5t-91 -13.5q-70 0 -126.5 33.5zM442 303
q0 95 -40 144.5t-112 49.5q-43 0 -81 -23.5t-63 -67.5t-30 -103h326z" />
    <glyph glyph-name="uni0451" unicode="&#x451;" horiz-adv-x="538" 
d="M158 672.5q-13 12.5 -13 31.5q0 18 13 31t32 13t32 -13t13 -31q0 -19 -13 -31.5t-32 -12.5t-32 12.5zM359 672.5q-13 12.5 -13 31.5q0 18 13 31t32 13q18 0 31 -13t13 -31q0 -19 -13 -31.5t-31 -12.5q-19 0 -32 12.5zM178.5 20.5q-56.5 33.5 -89.5 97t-33 148.5
q0 84 32.5 148t86.5 98.5t115 34.5q97 0 151.5 -65.5t54.5 -182.5q0 -30 -3 -43h-377q1 -64 25.5 -114t68 -77.5t100.5 -27.5q41 0 75 11.5t66 34.5l24 -44q-40 -25 -79 -38.5t-91 -13.5q-70 0 -126.5 33.5zM442 303q0 95 -40 144.5t-112 49.5q-43 0 -81 -23.5t-63 -67.5
t-30 -103h326z" />
    <glyph glyph-name="uni0436" unicode="&#x436;" horiz-adv-x="714" 
d="M185 283l-49 123q-19 49 -37.5 65.5t-43.5 16.5q-5 0 -16 -3l-13 57q12 5 27 5q40 0 70.5 -25t56.5 -90l52 -129h98v231h54v-231h98l53 129q26 64 56 89.5t70 25.5q18 0 26 -5l-11 -57q-11 3 -17 3q-24 0 -43 -16.5t-38 -65.5l-49 -122l168 -284h-65l-143 253h-105v-253
h-54v253h-104l-144 -253h-64z" />
    <glyph glyph-name="uni0437" unicode="&#x437;" horiz-adv-x="495" 
d="M137 3q-49 16 -92 53l29 40q37 -32 77.5 -45.5t89.5 -13.5q62 0 105 31t43 81q0 53 -42 80t-119 27h-69v47h55q75 0 113 26.5t38 72.5q0 47 -34 71t-90 24q-48 0 -82.5 -13t-70.5 -39l-28 41q38 29 82 45t101 16q78 0 130 -36.5t52 -103.5q0 -41 -24 -72.5t-66 -49.5v-5
q51 -12 82.5 -46t31.5 -89q0 -46 -27.5 -82t-74.5 -56t-103 -20q-58 0 -107 16z" />
    <glyph glyph-name="uni0438" unicode="&#x438;" horiz-adv-x="616" 
d="M99 534h59v-257q0 -62 -5 -152l-2 -48h5l74 116l230 341h57v-534h-58v256q0 77 7 201h-5l-75 -116l-230 -341h-57v534z" />
    <glyph glyph-name="uni0439" unicode="&#x439;" horiz-adv-x="616" 
d="M188 683q-39 48 -44 117h52q3 -55 29.5 -90t85.5 -35q58 0 85 35.5t29 89.5h51q-5 -69 -43 -117t-122 -48t-123 48zM99 534h59v-257q0 -62 -5 -152l-2 -48h5l74 116l230 341h57v-534h-58v256q0 77 7 201h-5l-75 -116l-230 -341h-57v534z" />
    <glyph glyph-name="uni043A" unicode="&#x43a;" horiz-adv-x="529" 
d="M99 534h60v-231h125l55 129q28 67 57.5 91t69.5 24q17 0 27 -5l-13 -57q-9 3 -16 3q-24 0 -42.5 -16t-39.5 -66l-52 -125l181 -281h-65l-160 253h-127v-253h-60v534z" />
    <glyph glyph-name="uni043B" unicode="&#x43b;" horiz-adv-x="567" 
d="M14 -6l12 56q2 -1 9 -3t14 -2q63 0 78 129l43 360h298v-534h-60v483h-191q-18 -157 -39 -322q-19 -174 -123 -174q-24 0 -41 7z" />
    <glyph glyph-name="uni043C" unicode="&#x43c;" horiz-adv-x="688" 
d="M99 534h69l122 -281q36 -90 52 -135h5l10 23q31 71 44 112l119 281h69v-534h-55v287q0 39 7 163h-5q-21 -53 -48 -115l-119 -283h-48l-121 283q-37 85 -48 115h-5q2 -26 2 -41q6 -86 6 -122v-287h-56v534z" />
    <glyph glyph-name="uni043D" unicode="&#x43d;" horiz-adv-x="613" 
d="M99 534h60v-228h295v228h60v-534h-60v253h-295v-253h-60v534z" />
    <glyph glyph-name="uni043E" unicode="&#x43e;" horiz-adv-x="594" 
d="M176.5 20.5q-55.5 33.5 -88 96.5t-32.5 149q0 87 32.5 150.5t88 97t120.5 33.5q66 0 121 -33.5t88 -97.5t33 -150t-33 -149t-88.5 -96.5t-120.5 -33.5t-120.5 33.5zM390.5 66.5q41.5 28.5 64.5 80.5t23 119t-23.5 119.5t-64.5 81.5t-93 29t-92.5 -29t-63.5 -81.5
t-23 -119.5t23 -119t63.5 -80.5t92.5 -28.5t93.5 28.5z" />
    <glyph glyph-name="uni043F" unicode="&#x43f;" horiz-adv-x="602" 
d="M99 534h404v-534h-60v483h-284v-483h-60v534z" />
    <glyph glyph-name="uni0440" unicode="&#x440;" horiz-adv-x="605" 
d="M99 534h50l6 -66h3q98 79 177 79q104 0 159 -72.5t55 -199.5q0 -88 -32 -153.5t-85.5 -100t-117.5 -34.5q-74 0 -156 65l1 -289h-60v771zM401 67.5q40 29.5 63 83.5t23 123q0 103 -39.5 162.5t-123.5 59.5q-70 0 -165 -84v-309q40 -33 79 -49t72 -16q51 0 91 29.5z" />
    <glyph glyph-name="uni0441" unicode="&#x441;" horiz-adv-x="499" 
d="M174.5 20q-55.5 33 -87 96.5t-31.5 149.5q0 87 33.5 150.5t90 97t123.5 33.5q49 0 86.5 -17.5t69.5 -47.5l-33 -41q-57 55 -121 55q-53 0 -95.5 -29t-67 -81.5t-24.5 -119.5t23 -119t65.5 -80.5t97.5 -28.5q38 0 73.5 16t64.5 43l29 -41q-37 -32 -80.5 -50.5t-90.5 -18.5
q-70 0 -125.5 33z" />
    <glyph glyph-name="uni0442" unicode="&#x442;" horiz-adv-x="494" 
d="M218 483h-189v51h436v-51h-189v-483h-58v483z" />
    <glyph glyph-name="uni0443" unicode="&#x443;" horiz-adv-x="490" 
d="M29 -229l13 50q20 -9 43 -9q45 0 78 36.5t54 98.5l14 46l-218 541h63l124 -326q2 -5 14 -37q18 -52 42 -113h5l48 150l109 326h59l-207 -596q-61 -178 -185 -178q-32 0 -56 11z" />
    <glyph glyph-name="uni0444" unicode="&#x444;" horiz-adv-x="791" 
d="M367 31q-53 -44 -111 -44q-92 0 -146 73.5t-54 205.5q0 84 26.5 148t72.5 98.5t101 34.5q29 0 55 -11t56 -31l-1 290h58l-1 -292q28 20 59 32t60 12q93 0 142.5 -72.5t49.5 -199.5q0 -88 -27 -153.5t-72.5 -100t-100.5 -34.5q-50 0 -111 43l1 -267h-58zM318 48
q24 10 49 35v369q-25 24 -50.5 34t-54.5 10q-40 0 -73 -30t-52 -82.5t-19 -117.5q0 -105 39 -166.5t109 -61.5q28 0 52 10zM603 67.5q33 29.5 51.5 83t18.5 123.5q0 102 -35 162t-108 60q-55 0 -107 -44v-371q26 -23 54 -33t51 -10q42 0 75 29.5z" />
    <glyph glyph-name="uni0445" unicode="&#x445;" horiz-adv-x="461" 
d="M195 279l-165 255h65l82 -132l56 -88h4l53 88l79 132h62l-165 -261l180 -273h-66l-90 141q-27 46 -61 97h-5q-22 -33 -46 -73l-14 -24l-86 -141h-63z" />
    <glyph glyph-name="uni0447" unicode="&#x447;" horiz-adv-x="549" 
d="M391 227q-7 -1 -28.5 -5.5t-40 -6t-42.5 -1.5q-105 0 -157 42.5t-52 134.5v143h59v-143q0 -67 38.5 -96.5t123.5 -29.5q44 0 99 12v257h58v-534h-58v227z" />
    <glyph glyph-name="uni0446" unicode="&#x446;" horiz-adv-x="594" 
d="M512 0h-413v534h60v-483h276v483h60v-483h74v-37l-7 -204h-50v190z" />
    <glyph glyph-name="uni0448" unicode="&#x448;" horiz-adv-x="804" 
d="M99 534h60v-483h214v483h57v-483h216v483h58v-534h-605v534z" />
    <glyph glyph-name="uni0449" unicode="&#x449;" horiz-adv-x="804" 
d="M720 0h-621v534h60v-483h214v483h57v-483h216v483h58v-483h74v-37l-6 -204h-52v190z" />
    <glyph glyph-name="uni044C" unicode="&#x44c;" horiz-adv-x="531" 
d="M99 534h60v-210h119q96 0 150 -40.5t54 -119.5q0 -81 -54 -122.5t-150 -41.5h-179v534zM268 50q79 0 116.5 27.5t37.5 86.5q0 58 -37.5 85t-116.5 27h-109v-226h109z" />
    <glyph glyph-name="uni044A" unicode="&#x44a;" horiz-adv-x="646" 
d="M230 483h-201v51h261v-210h103q97 0 151 -40.5t54 -119.5q0 -81 -54 -122.5t-151 -41.5h-163v483zM383 50q80 0 118 27.5t38 86.5q0 58 -38.5 85t-117.5 27h-93v-226h93z" />
    <glyph glyph-name="uni044B" unicode="&#x44b;" horiz-adv-x="715" 
d="M99 534h60v-210h91q97 0 151 -40.5t54 -119.5q0 -81 -54 -122.5t-151 -41.5h-151v534zM557 534h58v-534h-58v534zM240 50q79 0 117 27.5t38 86.5q0 58 -38 85t-117 27h-81v-226h81z" />
    <glyph glyph-name="uni044D" unicode="&#x44d;" horiz-adv-x="499" 
d="M28 56l28 39q61 -58 141 -58q85 0 135 57t52 162h-257v47h256q-8 93 -56 143.5t-121 50.5q-43 0 -74 -14t-60 -40l-32 38q32 30 72 48t97 18q66 0 119 -31t84 -94.5t31 -155.5q0 -136 -66.5 -207.5t-175.5 -71.5q-99 0 -173 69z" />
    <glyph glyph-name="uni044E" unicode="&#x44e;" horiz-adv-x="799" 
d="M405 18q-51 31 -81 90.5t-33 140.5h-132v-249h-60v534h60v-232h133q6 76 37 131.5t80.5 84.5t109.5 29q63 0 114 -33.5t80.5 -97t29.5 -150.5q0 -86 -29.5 -149t-80.5 -96.5t-114 -33.5t-114 31zM603 66.5q38 28.5 58.5 80.5t20.5 119t-20.5 119.5t-58.5 81.5t-87 29
t-87.5 -29t-60 -81.5t-21.5 -119.5t21.5 -119t59.5 -80.5t88 -28.5q49 0 87 28.5z" />
    <glyph glyph-name="uni044F" unicode="&#x44f;" horiz-adv-x="555" 
d="M221 235q-64 12 -102 49t-38 100q0 79 54.5 114.5t148.5 35.5h171v-534h-59v227h-116l-168 -227h-68zM396 274v211h-99q-156 0 -156 -102q0 -53 41.5 -81t114.5 -28h99z" />
    <glyph glyph-name="Alpha" unicode="&#x391;" horiz-adv-x="588" 
d="M262 729h63l255 -729h-64l-82 244h-282l-83 -244h-61zM419 293l-44 132q-38 107 -80 250h-4q-29 -104 -79 -250l-45 -132h252z" />
    <glyph glyph-name="Beta" unicode="&#x392;" horiz-adv-x="642" 
d="M106 729h202q114 0 178.5 -43.5t64.5 -133.5q0 -57 -29 -100t-83 -59v-5q72 -12 114 -57t42 -119q0 -103 -73.5 -157.5t-199.5 -54.5h-216v729zM288 411q202 0 202 134q0 72 -48 103.5t-148 31.5h-128v-269h122zM309 50q108 0 167 40t59 123q0 75 -58 112t-168 37h-143
v-312h143z" />
    <glyph glyph-name="Gamma" unicode="&#x393;" horiz-adv-x="530" 
d="M106 729h402v-52h-342v-677h-60v729z" />
    <glyph glyph-name="uni0394" unicode="&#x394;" horiz-adv-x="626" 
d="M31 36l249 693h66l249 -693v-36h-564v36zM528 52l-131 371l-82 243h-4l-83 -243l-131 -371h431z" />
    <glyph glyph-name="Epsilon" unicode="&#x395;" horiz-adv-x="573" 
d="M106 729h404v-52h-344v-264h289v-52h-289v-309h355v-52h-415v729z" />
    <glyph glyph-name="Zeta" unicode="&#x396;" horiz-adv-x="596" 
d="M54 36l411 641h-374v52h450v-35l-411 -642h415v-52h-491v36z" />
    <glyph glyph-name="Eta" unicode="&#x397;" horiz-adv-x="711" 
d="M106 729h60v-315h378v315h61v-729h-61v360h-378v-360h-60v729z" />
    <glyph glyph-name="Theta" unicode="&#x398;" horiz-adv-x="726" 
d="M206 34q-69 47 -107.5 133t-38.5 200q0 113 38.5 198t107.5 131t157 46t157 -46t107.5 -131t38.5 -198q0 -114 -38.5 -200t-107.5 -133t-157 -47t-157 47zM488.5 81q54.5 40 84.5 114t30 172q0 97 -30 170t-84 112t-126 39t-126 -39t-84 -112t-30 -170q0 -98 30 -172
t84.5 -114t125.5 -40t125.5 40zM231 414h264v-54h-264v54z" />
    <glyph glyph-name="Iota" unicode="&#x399;" horiz-adv-x="272" 
d="M106 729h60v-729h-60v729z" />
    <glyph glyph-name="Kappa" unicode="&#x39a;" horiz-adv-x="624" 
d="M106 729h60v-394h2l342 394h71l-233 -271l265 -458h-68l-236 411l-143 -165v-246h-60v729z" />
    <glyph glyph-name="Lambda" unicode="&#x39b;" horiz-adv-x="550" 
d="M240 729h68l239 -729h-65l-131 419l-24 79q-32 108 -51 164h-5q-19 -56 -51 -164l-24 -79l-131 -419h-61z" />
    <glyph glyph-name="Mu" unicode="&#x39c;" horiz-adv-x="788" 
d="M106 729h81l149 -419l57 -159h4q6 16 12 34.5t14 39.5q9 29 29 85l149 419h81v-729h-58v461q0 59 7 201h-4l-57 -163l-152 -421h-49l-154 421l-57 163h-4q8 -122 8 -201v-461h-56v729z" />
    <glyph glyph-name="Nu" unicode="&#x39d;" horiz-adv-x="707" 
d="M106 729h63l297 -500l82 -147h5q-9 128 -9 216v431h58v-729h-63l-297 501l-82 146h-4l2 -42q1 -21 3 -73.5t2 -95.5v-436h-57v729z" />
    <glyph glyph-name="Xi" unicode="&#x39e;" horiz-adv-x="571" 
d="M64 729h444v-52h-444v52zM139 413h294v-52h-294v52zM53 52h467v-52h-467v52z" />
    <glyph glyph-name="Omicron" unicode="&#x39f;" horiz-adv-x="726" 
d="M206 34q-69 47 -107.5 133t-38.5 200q0 113 38.5 198t107.5 131t157 46t157 -46t107.5 -131t38.5 -198q0 -114 -38.5 -200t-107.5 -133t-157 -47t-157 47zM488.5 81q54.5 40 84.5 114t30 172q0 97 -30 170t-84 112t-126 39t-126 -39t-84 -112t-30 -170q0 -98 30 -172
t84.5 -114t125.5 -40t125.5 40z" />
    <glyph glyph-name="Pi" unicode="&#x3a0;" horiz-adv-x="705" 
d="M106 729h494v-729h-61v677h-373v-677h-60v729z" />
    <glyph glyph-name="Rho" unicode="&#x3a1;" horiz-adv-x="613" 
d="M106 729h189q130 0 198.5 -48t68.5 -157q0 -107 -69 -161.5t-194 -54.5h-133v-308h-60v729zM287 359q109 0 160.5 39t51.5 126q0 86 -51.5 120t-164.5 34h-117v-319h121z" />
    <glyph glyph-name="Sigma" unicode="&#x3a3;" horiz-adv-x="590" 
d="M51 36l262 335l-256 323v35h457v-52h-379l241 -305l-246 -320h418v-52h-497v36z" />
    <glyph glyph-name="Tau" unicode="&#x3a4;" horiz-adv-x="584" 
d="M261 677h-229v52h520v-52h-229v-677h-62v677z" />
    <glyph glyph-name="Upsilon" unicode="&#x3a5;" horiz-adv-x="503" 
d="M221 292l-219 437h65l106 -222l23 -49q45 -92 54 -110h4q15 29 17 35q42 82 60 124l108 222h61l-219 -437v-292h-60v292z" />
    <glyph glyph-name="Phi" unicode="&#x3a6;" horiz-adv-x="777" 
d="M361 84q-93 2 -162.5 37t-107.5 98.5t-38 147.5t38 146.5t107.5 97t162.5 36.5v106h55v-106q93 -2 162.5 -36.5t107 -97t37.5 -146.5t-37.5 -147t-107 -98.5t-162.5 -37.5v-108h-55v108zM361 597q-114 -3 -180.5 -65t-66.5 -165q0 -68 30 -120t86 -82t131 -32v464z
M546.5 165q55.5 30 85.5 82t30 120t-30 119t-85.5 80t-130.5 31v-464q75 2 130.5 32z" />
    <glyph glyph-name="Chi" unicode="&#x3a7;" horiz-adv-x="542" 
d="M236 377l-203 352h67l115 -207q35 -63 59 -102h4l16 31q17 35 37 71l115 207h63l-203 -355l218 -374h-66l-123 218l-21 38l-45 78h-4l-62 -116l-121 -218h-63z" />
    <glyph glyph-name="Psi" unicode="&#x3a8;" horiz-adv-x="748" 
d="M344 285q-130 3 -199.5 68t-69.5 197v179h60v-177q0 -212 209 -218v395h59v-395q209 5 209 218v177h60v-179q0 -133 -69.5 -198t-199.5 -67v-285h-59v285z" />
    <glyph glyph-name="uni03A9" unicode="&#x3a9;" horiz-adv-x="736" 
d="M51 51h155v4q-141 139 -141 331q0 102 37 183t106 127t160 46q90 0 159 -46t106.5 -127t37.5 -183q0 -193 -142 -331v-4h156v-51h-242v45q74 53 119 136.5t45 202.5q0 87 -28.5 156t-82.5 108.5t-128 39.5t-128 -39.5t-83 -108.5t-29 -156q0 -118 45.5 -202t118.5 -137
v-45h-241v51z" />
    <glyph glyph-name="alpha" unicode="&#x3b1;" horiz-adv-x="603" 
d="M111 56.5q-55 69.5 -55 198.5q0 89 32 155.5t85.5 101.5t115.5 35q57 0 104.5 -38t67.5 -117h2l26 142h58q-32 -163 -49 -266t-17 -172q0 -26 15.5 -42t38.5 -16q16 0 38 8l10 -47q-26 -12 -58 -12q-41 0 -66 24.5t-25 71.5q0 14 1 21h-3q-32 -58 -76.5 -87.5
t-98.5 -29.5q-91 0 -146 69.5zM343.5 64q37.5 26 62.5 69t28 93l9 105q-37 165 -151 165q-46 0 -86 -28.5t-64 -83t-24 -129.5q0 -101 39.5 -159t109.5 -58q39 0 76.5 26z" />
    <glyph glyph-name="beta" unicode="&#x3b2;" horiz-adv-x="609" 
d="M95 556q0 114 53 183t154 69q50 0 92 -21.5t67.5 -63.5t25.5 -102q0 -61 -29.5 -110t-84.5 -83v-5q87 -10 135 -67t48 -145q0 -67 -28.5 -118t-76 -78.5t-102.5 -27.5q-56 0 -107 20.5t-91 65.5q3 -107 3 -206q1 -21 1 -66h-60v755zM418.5 59.5q35.5 21.5 56.5 61.5
t21 93q0 77 -44.5 124t-129.5 47q-32 0 -60 -7l-11 49q89 19 133 73t44 118q0 67 -36 103.5t-89 36.5q-70 0 -109.5 -55t-39.5 -160q-1 -138 -1 -414q72 -91 186 -91q44 0 79.5 21.5z" />
    <glyph glyph-name="gamma" unicode="&#x3b3;" horiz-adv-x="511" 
d="M227 -72q0 93 -32 208t-82 220t-103 173l58 18q60 -81 116 -215.5t75 -258.5h5q69 130 111.5 241.5t52.5 219.5h60q-20 -134 -68 -252t-146 -281q10 -89 10 -200h-60q3 51 3 127z" />
    <glyph glyph-name="delta" unicode="&#x3b4;" horiz-adv-x="581" 
d="M183.5 16q-53.5 29 -86.5 84t-33 128q0 98 62.5 166t162.5 95q-55 40 -88 68.5t-55 63t-22 72.5q0 49 42 82t124 33q95 0 226 -44l-16 -51q-128 47 -212 47q-52 0 -78.5 -19.5t-26.5 -48.5q0 -28 17 -53.5t43.5 -47t75.5 -57.5l28 -20q55 -40 92 -76.5t60.5 -85.5
t23.5 -111q0 -116 -60 -185t-167 -69q-59 0 -112.5 29zM421.5 93q42.5 55 42.5 146q0 70 -34.5 120t-97.5 99q-99 -22 -154 -82t-55 -145q0 -57 24.5 -101t64.5 -68t85 -24q82 0 124.5 55z" />
    <glyph glyph-name="epsilon" unicode="&#x3b5;" horiz-adv-x="485" 
d="M114.5 30.5q-58.5 43.5 -58.5 114.5q0 55 32 89t82 46v5q-41 16 -63.5 48.5t-22.5 73.5q0 68 54.5 104t137.5 36q89 0 167 -60l-26 -42q-34 26 -68 39t-73 13q-58 0 -95 -24.5t-37 -70.5q0 -45 35 -72t108 -27q23 0 63 3v-52q-31 2 -80 2q-75 0 -114.5 -28t-39.5 -79
q0 -52 43.5 -82t117.5 -30q45 0 81.5 13.5t76.5 46.5l28 -42q-47 -37 -90.5 -52.5t-101.5 -15.5q-98 0 -156.5 43.5z" />
    <glyph glyph-name="zeta" unicode="&#x3b6;" horiz-adv-x="449" 
d="M335 -178q34 40 44.5 58.5t10.5 40.5q0 18 -10.5 29t-38 20.5t-82.5 20.5q-95 19 -148.5 75.5t-53.5 177.5q0 85 49 183t122 184t142 138q-40 0 -65 -1q-143 0 -215 -4v51h347v-51h-4q-70 -52 -143.5 -139t-122 -183.5t-48.5 -175.5q0 -100 45.5 -146t128.5 -60
q82 -15 117 -38t35 -71q0 -24 -15 -58.5t-46 -74.5z" />
    <glyph glyph-name="eta" unicode="&#x3b7;" horiz-adv-x="588" 
d="M442 333q0 84 -23 123t-75 39t-92 -30t-93 -109v-356h-60v395q0 84 -6 139h56l6 -121h3q43 71 90.5 102.5t108.5 31.5q73 0 107 -51t34 -155v-540h-60q4 236 4 532z" />
    <glyph glyph-name="theta" unicode="&#x3b8;" horiz-adv-x="565" 
d="M71 400q0 196 55.5 302t156.5 106q100 0 155.5 -106.5t55.5 -301.5q0 -211 -54.5 -312t-156.5 -101q-212 0 -212 413zM433 426q-3 163 -43.5 247.5t-106.5 84.5t-107.5 -84.5t-44.5 -247.5h302zM392 119.5q40 81.5 41 259.5h-302q2 -178 42.5 -259.5t109.5 -81.5
t109 81.5z" />
    <glyph glyph-name="iota" unicode="&#x3b9;" horiz-adv-x="271" 
d="M99 86v448h60q0 -64 -2 -188q-2 -182 -2 -267q0 -20 9 -30.5t25 -10.5q13 0 31 6l10 -46q-24 -11 -52 -11q-79 0 -79 99z" />
    <glyph glyph-name="kappa" unicode="&#x3ba;" horiz-adv-x="521" 
d="M356.5 129q-55.5 83 -96.5 160q-30 -38 -71 -103q-18 -30 -25.5 -69.5t-8.5 -90.5v-26h-56v395q0 45 -1.5 77.5t-7.5 61.5h59q9 -39 9 -122v-198h4q69 122 158 215t169 118l5 -57q-91 -33 -197 -158q41 -81 103 -172.5t124 -159.5l-64 -8q-48 54 -103.5 137z" />
    <glyph glyph-name="lambda" unicode="&#x3bb;" horiz-adv-x="520" 
d="M19 0l233 550l-8 26q-30 95 -61 138t-79 43q-31 0 -65 -18l-18 51q38 18 89 18q48 0 81.5 -26t58.5 -76t52 -132l208 -574h-62l-167 481h-4l-196 -489z" />
    <glyph glyph-name="uni03BC" unicode="&#x3bc;" horiz-adv-x="607" 
d="M99 534h60v-334q0 -79 27 -120t85 -41q47 0 85 24t79 95v376h60q-4 -308 -4 -455q0 -20 9.5 -30.5t25.5 -10.5q11 0 32 6l8 -46q-22 -11 -50 -11q-41 0 -58 25.5t-19 84.5h-2q-64 -109 -164 -109q-42 0 -71 13.5t-49 49.5q0 -76 1 -130.5t5 -119.5h-60v733z" />
    <glyph glyph-name="nu" unicode="&#x3bd;" horiz-adv-x="500" 
d="M132 291q-53 138 -122 238l58 18q59 -89 111 -225.5t78 -260.5h5q137 279 155 473h60q-20 -134 -68 -262t-128 -272h-62q-34 153 -87 291z" />
    <glyph glyph-name="xi" unicode="&#x3be;" horiz-adv-x="459" 
d="M345 -178q33 39 43.5 58t10.5 41q0 18 -11 29.5t-38.5 21t-80.5 19.5q-99 19 -155.5 67.5t-56.5 147.5q0 54 23.5 99.5t62.5 77t86 44.5v4q-53 22 -85.5 64.5t-32.5 101.5q0 53 24.5 92t69.5 60h-24q-72 -1 -143 -5v51h409v-51h-124q-39 0 -73.5 -17.5t-55.5 -51
t-21 -79.5q0 -43 24 -77.5t60 -54.5t71 -20q19 0 34 1t34 5v-55q-26 5 -71 5q-52 0 -99.5 -22.5t-77 -65.5t-29.5 -100q0 -83 49 -120t137 -52q82 -15 116 -37.5t34 -71.5q0 -24 -15.5 -58.5t-45.5 -74.5z" />
    <glyph glyph-name="omicron" unicode="&#x3bf;" horiz-adv-x="583" 
d="M171.5 20q-53.5 33 -84.5 96t-31 150q0 88 31 151.5t84.5 96.5t120.5 33t120.5 -33t84.5 -96.5t31 -151.5q0 -87 -31 -150t-84.5 -96t-120.5 -33t-120.5 33zM419.5 99.5q46.5 61.5 46.5 166.5q0 104 -47 167t-127 63q-81 0 -127.5 -63t-46.5 -167q0 -105 46.5 -166.5
t127.5 -61.5t127.5 61.5z" />
    <glyph glyph-name="pi" unicode="&#x3c0;" horiz-adv-x="625" 
d="M445 14.5q-23 27.5 -23 84.5q0 37 1 89t2 111q2 48 4 183h-220q0 -106 -8 -216t-24 -269l-61 3q38 254 38 482h-127v47l75 5h494v-52h-110q-5 -88 -7 -204.5t-2 -185.5q0 -28 12.5 -41t38.5 -13q12 0 45 6l9 -47q-34 -10 -63 -10q-51 0 -74 27.5z" />
    <glyph glyph-name="rho" unicode="&#x3c1;" horiz-adv-x="599" 
d="M94 281q0 85 30.5 145t82 90.5t114.5 30.5q107 0 164 -72.5t57 -199.5q0 -88 -30.5 -153t-81 -100t-107.5 -35q-50 0 -92 19.5t-80 64.5q3 -155 3 -270h-60v480zM400 68q37 30 59 83.5t22 122.5q0 102 -40 162t-123 60q-45 0 -82.5 -25t-60.5 -75.5t-23 -124.5v-148
q40 -49 80 -67t86 -18q45 0 82 30z" />
    <glyph glyph-name="sigma" unicode="&#x3c3;" horiz-adv-x="591" 
d="M172 19.5q-53 32.5 -84.5 94.5t-31.5 147q0 91 32 152t85.5 91t118.5 30h286v-53q-84 5 -176 7v-4q54 -31 84 -89.5t30 -138.5q0 -83 -30 -144t-82 -93t-116 -32q-63 0 -116 32.5zM375.5 65q38.5 27 60.5 77.5t22 116.5q0 60 -20 111.5t-58 82t-90 30.5q-49 0 -88 -25.5
t-61.5 -75.5t-22.5 -121q0 -67 22.5 -117.5t61.5 -78t87 -27.5t86.5 27z" />
    <glyph glyph-name="tau" unicode="&#x3c4;" horiz-adv-x="494" 
d="M238.5 14q-20.5 27 -20.5 85v384h-189v46l74 5h362v-51h-190q-2 -133 -2 -391q0 -28 11 -41t34 -13q18 0 50 8l9 -47q-30 -12 -69 -12q-49 0 -69.5 27z" />
    <glyph glyph-name="upsilon" unicode="&#x3c5;" horiz-adv-x="553" 
d="M130.5 37q-51.5 50 -51.5 154q0 34 2 102t2 102q0 77 -9 139h59q8 -43 8 -122q0 -34 -4 -114q-1 -21 -2 -49t-1 -60q0 -79 38.5 -115t99.5 -36q69 0 112 56t43 166q0 70 -11 136t-38 135l59 16q51 -140 51 -286q0 -88 -28.5 -149.5t-77.5 -93t-111 -31.5q-89 0 -140.5 50
z" />
    <glyph glyph-name="phi" unicode="&#x3c6;" horiz-adv-x="725" 
d="M334 -11q-73 2 -137 36t-102.5 96t-38.5 146q0 85 38.5 147t102.5 95.5t137 35.5v142h56v-142q76 -2 139.5 -35.5t101.5 -95.5t38 -147q0 -84 -39 -146.5t-102.5 -96t-137.5 -35.5v-188h-56v188zM334 497q-59 -2 -108.5 -30.5t-78.5 -80t-29 -119.5q0 -67 29 -119
t78.5 -80.5t108.5 -30.5v460zM499 67.5q50 28.5 79.5 80.5t29.5 119q0 69 -28 120.5t-77.5 79.5t-112.5 30v-460q59 2 109 30.5z" />
    <glyph glyph-name="chi" unicode="&#x3c7;" horiz-adv-x="510" 
d="M11 -199l216 379l-211 349l59 18l179 -312h4l157 299h63l-192 -353l229 -376l-57 -17l-200 341h-4l-184 -341z" />
    <glyph glyph-name="psi" unicode="&#x3c8;" horiz-adv-x="732" 
d="M335 -13q-124 1 -188.5 67.5t-64.5 185.5v155q0 84 -7 139h58q4 -26 5 -57.5t1 -64.5l-1 -115q-1 -25 -1 -60q0 -93 51 -146t147 -54v650h57v-650q102 4 157 67t55 184q0 65 -10 118.5t-37 124.5l57 16q27 -73 39 -131.5t12 -128.5q0 -140 -72.5 -218t-200.5 -82v-186
h-57v186z" />
    <glyph glyph-name="omega" unicode="&#x3c9;" horiz-adv-x="753" 
d="M148 15.5q-40 28.5 -63 86t-23 140.5q0 86 28 159.5t78 145.5l51 -28q-52 -71 -76 -135t-24 -151q0 -93 34 -144t87 -51q46 0 77 35t31 113t-6 144h67q-5 -69 -5 -144q0 -79 31 -113.5t77 -34.5q54 0 86 51.5t32 152.5q0 86 -21.5 145.5t-71.5 133.5l53 26
q52 -74 77 -142.5t25 -160.5q0 -127 -47 -192t-126 -65q-47 0 -84.5 24t-56.5 71h-4q-18 -47 -54.5 -71t-82.5 -24q-49 0 -89 28.5z" />
    <glyph glyph-name="uni311A" unicode="&#x311a;" 
d="M485 495q-147 124 -300 251l34 33q170 -142 293 -240q186 181 271 272l36 -34l-284 -283v-491h-50v492z" />
    <glyph glyph-name="uni311E" unicode="&#x311e;" 
d="M554 -9q61 54 112 162.5t74 237.5h-217q-39 -143 -105.5 -247.5t-172.5 -178.5q-12 16 -37 36q100 65 164 161t101 229h-165q-79 0 -90 -10q-5 22 -18 51q15 4 33 41q13 25 33.5 80.5t30.5 107.5l52 -20q-33 -116 -80 -203h216q27 113 44 291h-352v49h668v-49h-266
q-11 -97 -21 -164.5t-24 -126.5h222l9 2l33 -12q-25 -157 -80.5 -282t-127.5 -193q-9 13 -36 38z" />
    <glyph glyph-name="uni3122" unicode="&#x3122;" 
d="M600 416q32 101 93 329h-403v47h418l9 3l36 -8q-18 -75 -48 -182.5t-58 -195.5zM585 -34q30 56 64 160t54 198h-339q-66 0 -81 -10q-9 33 -18 51q16 4 35 57q14 33 34.5 108.5t29.5 144.5l53 -16q-13 -74 -36 -150.5t-49 -137.5h386l9 3l34 -17q-21 -109 -60.5 -229.5
t-76.5 -192.5q-16 17 -39 31z" />
    <glyph glyph-name="uni3124" unicode="&#x3124;" 
d="M196 -48q-4 8 -14.5 20t-18.5 17q129 106 189.5 239.5t76.5 287.5h-258v47h261q5 53 5 121v122h48v-123q0 -64 -4 -120h338v-47h-342q-8 -57 -10 -70q-54 -316 -271 -494zM551 84q0 -26 7 -35.5t29 -9.5h177q51 0 70 5q4 -23 5 -42q-13 -4 -73 -4h-181q-49 0 -66 18.5
t-17 68.5v360h49v-361z" />
    <glyph glyph-name="uni3120" unicode="&#x3120;" 
d="M736 88q-191 -26 -310.5 -43t-154.5 -24t-50 -14q-3 11 -9 26t-12 25q17 5 41.5 26.5t71.5 69.5q25 25 74 79.5t105 122.5q-157 -10 -206.5 -15.5t-63.5 -11.5q-8 30 -19 53q14 3 31 20.5t44 51.5q34 40 99.5 139.5t111.5 193.5l50 -26q-122 -221 -250 -368l241 14
q88 113 149 211l47 -28q-98 -147 -205.5 -278.5t-214.5 -233.5l408 53q-27 52 -83 148l44 17q50 -81 95.5 -165.5t68.5 -141.5l-47 -22q-11 30 -56 121z" />
    <glyph glyph-name="uni3105" unicode="&#x3105;" 
d="M405 -23q-4 29 -19 49q90 -9 183 -9q21 0 32.5 2.5t20.5 10.5q32 27 55.5 126.5t46.5 310.5h-420q-76 0 -89 -10q-9 32 -18 52q12 2 23.5 15t29.5 40q22 30 64 105t69 147l51 -23q-78 -171 -159 -279h503l-2 -26q-25 -237 -50.5 -346t-62.5 -143q-18 -18 -39 -23.5
t-62 -5.5q-73 0 -157 7z" />
    <glyph glyph-name="uni3118" unicode="&#x3118;" 
d="M575.5 -32q-10.5 9 -20.5 15q35 49 76 137.5t65 167.5h-281q-29 0 -49.5 -3t-26.5 -8q-6 24 -18 52q10 3 20 26t23 67q8 24 23 86h-237v50h248q31 132 44 267l55 -11q-14 -120 -45 -256h395v-50h-407q-22 -91 -50 -173h327l9 3l35 -18q-28 -96 -76 -201.5t-91 -168.5
q-8 9 -18.5 18z" />
    <glyph glyph-name="uni3114" unicode="&#x3114;" 
d="M255 465q116 64 219.5 161t159.5 196l48 -19q-68 -110 -175 -211.5t-228 -168.5q-12 28 -24 42zM557 377q-143 -132 -326 -232q-2 9 -9 24t-14 26q163 82 307.5 208.5t234.5 274.5l44 -19q-76 -124 -188 -236v-491h-49v445z" />
    <glyph glyph-name="uni3109" unicode="&#x3109;" 
d="M462 19q72 -7 142 -7q17 0 26.5 2.5t18.5 10.5q30 28 53 135t43 329h-257q-36 -186 -113.5 -312.5t-204.5 -207.5q-12 15 -38 37q125 70 198.5 189.5t108.5 293.5h-135q-78 0 -91 -10q-7 27 -17 51q19 5 54 53q24 32 66.5 103.5t71.5 139.5l51 -20q-75 -157 -164 -270
h523l-2 -28q-24 -252 -48 -366t-59 -148q-16 -18 -36 -23t-60 -5q-59 0 -115 4q-4 31 -16 49z" />
    <glyph glyph-name="uni311C" unicode="&#x311c;" 
d="M324.5 37.5q-35.5 29.5 -51.5 61.5q-29 58 -29 119q0 64 32 119t87 89t120 38v114h-338v49h338v134h50v-134h332v-49h-332v-161q-74 1 -128.5 -27.5t-83.5 -75.5t-29 -100q0 -41 18 -79q26 -51 68 -76t89 -25q50 0 97.5 22t82 61t45.5 86l43 -16q-42 -104 -111.5 -153.5
t-148.5 -49.5q-36 0 -72 11q-43 13 -78.5 42.5z" />
    <glyph glyph-name="uni311D" unicode="&#x311d;" 
d="M334.5 15q-26.5 27 -26.5 95v358h-180v49h180v274h50v-274h274q11 94 11 238v45h49v-45q0 -134 -11 -238h176v-49h-181q-27 -195 -95 -332q-8 7 -21 15.5t-23 12.5q65 128 89 304h-268v-360q0 -41 14.5 -58.5t52.5 -17.5h238q22 0 48 2t39 5q1 -7 7 -46q-27 -5 -93 -5
h-235q-68 0 -94.5 27z" />
    <glyph glyph-name="uni311F" unicode="&#x311f;" 
d="M575.5 301q-84.5 169 -99.5 417l-221 -18l-4 51l276 22q7 -180 43.5 -312.5t105.5 -233t177 -188.5q-17 -15 -23 -22t-16 -16q-154 131 -238.5 300z" />
    <glyph glyph-name="uni3123" unicode="&#x3123;" 
d="M582 -19q41 62 80 180t58 238h-379q-73 0 -86 -10q-6 25 -17 52q9 2 15.5 17.5t16.5 50.5q12 44 28 131.5t21 167.5l56 -10q-9 -88 -28 -181.5t-43 -170.5h429l10 2l32 -12q-21 -144 -63.5 -278.5t-90.5 -211.5q-21 23 -39 35z" />
    <glyph glyph-name="uni3125" unicode="&#x3125;" 
d="M207.5 18.5q-6.5 16.5 -12.5 26.5q14 5 33.5 37.5t51.5 98.5q39 73 111 251.5t118 344.5l53 -17q-61 -194 -135.5 -380t-150.5 -324l530 33q0 -30 4 -46l-29 -2q-211 -14 -343 -24t-169.5 -14.5t-52.5 -10.5q-2 10 -8.5 26.5z" />
    <glyph glyph-name="uni3126" unicode="&#x3126;" 
d="M587 18q-20 23 -20 83v675h49v-679q0 -33 9.5 -46t33.5 -13h159q42 0 64 5q2 -29 5 -43q-15 -5 -68 -5h-159q-53 0 -73 23zM133 -34q-11 12 -19 18q91 60 138.5 136t62.5 157.5t15 185.5v312h49v-312q0 -113 -16 -201t-66.5 -170t-148.5 -147q-4 9 -15 21z" />
    <glyph glyph-name="uni3108" unicode="&#x3108;" 
d="M217 671h556v-48h-507v-565h547v-49h-596v662z" />
    <glyph glyph-name="uni310D" unicode="&#x310d;" 
d="M352 159.5q-86 119.5 -179 226.5q71 89 148.5 197.5t121.5 180.5l49 -20q-63 -105 -262 -358q85 -96 170 -209.5t126 -185.5l-48 -28q-40 77 -126 196.5zM674 176.5q-87 112.5 -179 211.5q72 84 150.5 187t121.5 171l48 -19q-39 -63 -105.5 -147.5t-155.5 -190.5
q84 -90 169 -197.5t126 -175.5l-46 -27q-42 75 -129 187.5z" />
    <glyph glyph-name="uni310F" unicode="&#x310f;" 
d="M129 -41q-12 9 -22 14q77 94 102.5 216.5t25.5 265.5v280h608v-47h-559v-233q0 -149 -28 -281.5t-109 -230.5q-6 7 -18 16z" />
    <glyph glyph-name="uni3127" unicode="&#x3127;" 
d="M105 408h796v-50h-796v50z" />
    <glyph glyph-name="uni3005" unicode="&#x3005;" 
d="M334 265l34 48l147 -103l189 299h-328l-107 -164l-49 31l241 374l49 -32l-107 -166h397l-238 -376l166 -116l-34 -47z" />
    <glyph glyph-name="uni3129" unicode="&#x3129;" 
d="M191 691h49v-645h548v645h50v-691h-647v691z" />
    <glyph glyph-name="uni3110" unicode="&#x3110;" 
d="M652 277q-241 -58 -308 -76t-84 -30v1q-6 20 -25 48q47 19 47 61v379h48v-411l322 73v487h49v-876h-49v344z" />
    <glyph glyph-name="uni310E" unicode="&#x310e;" 
d="M381 -22q-1 11 -5.5 24t-11.5 23q87 -9 178 -9q22 0 33.5 2t20.5 9q34 28 61.5 116.5t54.5 264.5h-336q-64 0 -79 -11q-13 40 -18 51q19 4 48 52q19 26 51.5 85.5t56.5 119.5h-280v49h698v-49h-359q-65 -146 -140 -251h412l-2 -26q-31 -203 -60 -300.5t-68 -130.5
q-19 -17 -40.5 -21.5t-65.5 -4.5q-84 0 -149 7z" />
    <glyph glyph-name="uni3042" unicode="&#x3042;" 
d="M538 11q133 15 215.5 80.5t82.5 170.5q0 65 -43.5 115t-120.5 68q-41 -104 -98 -187t-124 -141q8 -34 23 -83l-48 -14q-16 52 -19 65q-43 -30 -88.5 -47t-83.5 -17q-48 0 -78 29t-30 83q0 61 33.5 122.5t90 112t123.5 80.5q5 87 12 156l-75 -1q-34 0 -75.5 1.5t-75.5 4.5
l-1 53q24 -4 75 -8t77 -4l81 2l9 87l2 41l58 -2q-6 -13 -10 -39q-8 -42 -13 -86q211 10 349 42l1 -52q-162 -27 -356 -37q-9 -101 -11 -140q43 15 89.5 23t84.5 8l45 -2q13 47 16 69l56 -14q-5 -13 -12 -32t-11 -31q94 -22 147 -85t53 -143q0 -110 -80.5 -188.5
t-240.5 -104.5zM625 451q-11 1 -34 1q-82 0 -173 -35v-46q0 -62 3.5 -98.5t16.5 -100.5q125 115 187 279zM315 89.5q41 17.5 80 46.5q-25 125 -25 230l1 30q-82 -41 -138 -114.5t-56 -143.5q0 -33 17 -49.5t47 -16.5q33 0 74 17.5z" />
    <glyph glyph-name="uni3041" unicode="&#x3041;" 
d="M538 13q70 6 126.5 32.5t90 70t33.5 100.5q0 56 -35 96t-99 54q-34 -85 -80.5 -153.5t-101.5 -115.5q10 -40 19 -67l-46 -13l-15 50q-35 -24 -73 -38t-68 -14q-42 0 -67.5 24.5t-25.5 70.5q0 80 60 152t145 111q1 60 10 125h-58q-28 0 -64 1.5t-64 4.5l-2 48
q20 -4 64.5 -7t65.5 -3h63l8 75l2 33l54 -1l-8 -33l-10 -72q151 8 289 34l1 -47q-150 -23 -296 -30l-9 -110q35 12 73.5 18.5t68.5 6.5l36 -1q2 8 7.5 26.5t6.5 29.5l48 -12q-3 -10 -18 -52q81 -19 124 -72t43 -122q0 -89 -66.5 -155.5t-204.5 -88.5zM610 373l-19 1
q-34 0 -74 -8t-72 -20l-1 -30q0 -81 17 -169q98 92 149 226zM353.5 74.5q32.5 13.5 66.5 38.5q-21 95 -21 212q-66 -35 -112 -93.5t-46 -117.5q0 -27 15 -40t40 -13t57.5 13.5z" />
    <glyph glyph-name="uni3044" unicode="&#x3044;" 
d="M273 40.5q-40 34.5 -70 110.5t-43 195q-11 101 -11 259q0 56 -5 81l65 -2q-5 -28 -7 -81l-1 -48q0 -99 9 -198q14 -134 53.5 -213t95.5 -79q38 0 73 57.5t59 145.5l42 -43q-40 -117 -83.5 -168t-92.5 -51q-44 0 -84 34.5zM787.5 436.5q-42.5 115.5 -106.5 198.5l51 19
q63 -86 108 -205.5t61 -246.5l-54 -21q-17 140 -59.5 255.5z" />
    <glyph glyph-name="uni3043" unicode="&#x3043;" 
d="M275 51.5q-45 60.5 -63 189.5q-6 44 -9.5 124t-3.5 125q0 57 -4 73l58 -1q-5 -50 -5 -73q0 -54 3 -124.5t10 -115.5q12 -90 43.5 -146.5t71.5 -56.5q31 0 59 49.5t48 124.5l43 -41q-35 -98 -71 -143t-79 -45q-56 0 -101 60.5zM734.5 339q-37.5 110 -96.5 180l49 17
q57 -70 95.5 -181t49.5 -200l-52 -20q-8 94 -45.5 204z" />
    <glyph glyph-name="uni3046" unicode="&#x3046;" 
d="M497 685.5q-120 13.5 -198 27.5l9 51q74 -17 201.5 -30.5t202.5 -15.5l-8 -52q-87 6 -207 19.5zM327 17q186 25 296.5 105.5t110.5 215.5q0 69 -50.5 111.5t-131.5 42.5q-75 0 -134 -13.5t-140 -37.5q-29 -7 -75 -25l-19 62q39 5 81 14l34 8q75 19 135.5 30t121.5 11
q66 0 119 -24t83 -70t30 -111q0 -153 -117.5 -244.5t-313.5 -123.5z" />
    <glyph glyph-name="uni3045" unicode="&#x3045;" 
d="M522.5 552q-109.5 13 -171.5 25l8 46q67 -13 172.5 -25t168.5 -13l-7 -49q-61 3 -170.5 16zM373 3q153 19 246 85t93 175q0 63 -43.5 96t-105.5 33q-57 0 -110.5 -12t-119.5 -31q-30 -9 -61 -22l-17 60q30 2 66 10l25 6q65 16 118 25.5t102 9.5q88 0 142.5 -46.5
t54.5 -129.5q0 -122 -96.5 -199.5t-266.5 -106.5z" />
    <glyph glyph-name="uni3048" unicode="&#x3048;" 
d="M504.5 689q-109.5 16 -197.5 33l9 49q72 -17 188.5 -33t192.5 -21l-9 -50q-74 6 -183.5 22zM130 13q13 9 37 33q307 307 442 438q-12 -1 -63 -5t-151 -13l-124 -10q-61 -6 -75 -8l-4 59q26 -2 43 -2l33 1q50 2 182 12.5t183 17.5q30 4 41 9l34 -38q-18 -13 -49 -40
l-42 -40q-132 -126 -154 -150q12 2 23 2l13 -1q60 -3 84 -72q1 -2 16 -53q10 -41 20 -70q9 -31 30 -44t64 -13q42 0 95 6.5t86 15.5l-4 -57q-31 -6 -85 -10.5t-94 -4.5q-57 0 -91 18.5t-48 64.5q-3 9 -16 56q-15 55 -20 68q-19 54 -64 54q-40 0 -76 -33
q-35 -32 -107.5 -108.5t-105.5 -119.5z" />
    <glyph glyph-name="uni3047" unicode="&#x3047;" 
d="M505 552q-103 15 -161 28l8 47q55 -15 160 -29t161 -17l-7 -49q-58 5 -161 20zM199 0q14 11 29 26q-24 -24 147 144q162 158 216 213q-60 -7 -226 -19l-47 -4q-37 -3 -63 -9l-4 57l29 -1l34 1q44 2 156 10.5t151 13.5q17 3 31 8l32 -34l-30 -24q-16 -13 -79 -72.5
t-92 -90.5l12 1q11 0 21 -2q30 -1 43 -17.5t22 -50.5q13 -47 28 -93q8 -23 26.5 -33.5t47.5 -10.5q34 0 79 5.5t71 13.5l-3 -53q-26 -5 -70 -9t-82 -4q-47 0 -75 17t-39 54q-7 18 -13 47q-10 38 -14 48q-9 25 -20.5 37.5t-34.5 12.5q-29 0 -60 -29q-25 -21 -85 -85.5
t-89 -101.5z" />
    <glyph glyph-name="uni304A" unicode="&#x304a;" 
d="M235.5 9.5q-45.5 21.5 -78 56t-32.5 71.5q0 56 62.5 113.5t150.5 95.5q-1 16 -1 47l2 155q-52 -5 -84 -5q-62 0 -117 5l-1 52q57 -8 118 -8q23 0 85 4q2 61 2 130q0 38 -4 58h58q0 -8 -1.5 -24.5t-1.5 -31.5l-3 -126q55 6 112 17t100 24l2 -52q-89 -23 -216 -38
q-3 -82 -3 -157v-33q121 44 232 44q68 0 121 -24t82.5 -66t29.5 -95q0 -87 -54.5 -141.5t-150.5 -76.5q-29 -7 -55 -9t-62 -3l-19 51q27 0 57.5 1t56.5 6q75 13 125.5 56t50.5 115q0 66 -52.5 102.5t-129.5 36.5q-59 0 -114 -11t-117 -34q0 -45 2 -121l2 -105
q0 -101 -75 -101q-34 0 -79.5 21.5zM810.5 561q-59.5 40 -118.5 74l25 40q51 -28 116.5 -72t98.5 -73l-28 -43q-34 34 -93.5 74zM332.5 55q9.5 14 9.5 38l-1 108q-2 60 -2 94q-69 -31 -115.5 -74.5t-46.5 -81.5q0 -24 21.5 -47t51.5 -37t54 -14q19 0 28.5 14z" />
    <glyph glyph-name="uni3049" unicode="&#x3049;" 
d="M281.5 -19q-38.5 18 -66 46.5t-27.5 57.5q0 55 55.5 104t121.5 77l2 160q-37 -3 -74 -3q-30 0 -95 4l-1 51q65 -8 96 -8q38 0 74 3v59v43q0 35 -1 40h55q-1 -10 -3 -41.5t-3 -38.5v-58q103 11 177 35l1 -49q-27 -7 -77 -16.5t-103 -15.5q0 -28 -1 -41l-1 -107
q99 34 188 34q58 0 104 -19.5t72.5 -55t26.5 -82.5q0 -70 -48 -119t-139 -66q-38 -8 -88 -8l-16 47q57 -2 94 6q66 12 107 47.5t41 92.5q0 56 -44.5 85t-110.5 29q-94 0 -187 -36l2 -68q3 -75 3 -125q0 -43 -17 -62.5t-50 -19.5q-29 0 -67.5 18zM761.5 445.5
q-54.5 37.5 -97.5 59.5l25 39q40 -21 96.5 -59t85.5 -63l-29 -42q-26 28 -80.5 65.5zM362.5 23q7.5 12 7.5 29l-2 74q-2 58 -2 93q-52 -25 -91 -60t-39 -69q0 -19 18 -37t42.5 -30t41.5 -12t24.5 12z" />
    <glyph glyph-name="uni304B" unicode="&#x304b;" 
d="M116 8q69 92 126 238t85 265l-34 -3l-113 -11l-76 -10l-7 59l39 -1l39 1q36 1 109 8l53 4q27 119 28 216l62 -5q-9 -42 -17 -97q-11 -69 -20 -109l23 2q88 6 103 6q68 0 109 -34t41 -121q0 -97 -15 -196t-44 -156q-21 -44 -53 -60.5t-81 -16.5q-50 0 -114 15l-8 56
q31 -9 65 -15t56 -6q33 0 55 11t38 44q24 51 36.5 139t12.5 179q0 67 -27.5 90t-80.5 23q-45 0 -127 -8q-81 -321 -209 -529zM819 474.5q-54 105.5 -102 160.5l47 22q43 -52 98.5 -158.5t85.5 -183.5l-50 -25q-25 79 -79 184.5z" />
    <glyph glyph-name="uni304C" unicode="&#x304c;" 
d="M844 815l37 17q21 -27 46 -67.5t39 -68.5l-38 -18q-44 84 -84 137zM782.5 709q-23.5 40 -44.5 69l38 17q21 -30 44.5 -68.5t38.5 -68.5l-39 -18q-14 29 -37.5 69zM99 7q68 91 124.5 235.5t86.5 266.5l-88 -8l-59 -6q-43 -4 -77 -10l-6 60q12 -1 34 -1q28 0 44 1
q50 2 162 12q27 121 27 216l62 -6l-7 -39l-5 -32q-17 -103 -24 -135q85 8 125 8q69 0 109.5 -33.5t40.5 -120.5q0 -98 -14.5 -197t-43.5 -155q-22 -45 -53.5 -61t-80.5 -16q-50 0 -114 15l-8 56q31 -9 65 -15t56 -6q33 0 54.5 11t37.5 44q25 51 37.5 138.5t12.5 178.5
q0 67 -27.5 90.5t-80.5 23.5q-25 0 -127 -8q-81 -322 -210 -529zM844.5 488.5q55.5 -105.5 86.5 -183.5l-50 -25q-25 79 -79 184t-102 160l46 22q43 -52 98.5 -157.5z" />
    <glyph glyph-name="uni304D" unicode="&#x304d;" 
d="M563 218l5 43l136 -17l-74 159q-101 -16 -193 -16q-99 0 -210 16l-1 52q113 -20 207 -20q83 0 176 14l-53 119l-14 32q-85 -9 -146 -9q-90 0 -190 20l-2 50q44 -11 95 -17t91 -6q76 0 132 8q-20 46 -33 73.5t-23 43.5l61 14q20 -60 46 -124q104 16 191 51l9 -50
q-94 -31 -182 -46l11 -26l56 -124q110 21 179 55l12 -49q-72 -31 -170 -52q51 -109 90 -185l-27 -32q-66 10 -179 23zM273 15q-69 43 -69 128q0 42 16 117l50 -4q-7 -23 -11.5 -52.5t-4.5 -49.5q0 -132 215 -132q126 0 218 21l-4 -53q-90 -18 -212 -18q-129 0 -198 43z" />
    <glyph glyph-name="uni304E" unicode="&#x304e;" 
d="M814 810l36 17q18 -25 43.5 -65t42.5 -73l-38 -19q-39 80 -84 140zM712 773l36 17q18 -25 42 -65.5t42 -74.5l-39 -18q-38 82 -81 141zM518 213l4 43q38 -6 64.5 -9t42.5 -5l30 -3l-74 159q-93 -16 -193 -16t-210 16l-2 51q114 -19 208 -19t176 14l-67 151
q-85 -9 -147 -9q-88 0 -190 20l-2 49q46 -11 97 -16.5t90 -5.5q76 0 132 8l-23 54q-23 49 -33 63l61 14q24 -74 46 -124q93 15 187 49l9 -49q-84 -29 -178 -45l11 -26q29 -67 56 -124q110 21 179 55l11 -49q-76 -33 -170 -53l90 -184l-26 -32q-72 11 -179 23zM227.5 10
q-68.5 43 -68.5 128q0 46 15 117l50 -4q-6 -24 -10.5 -53.5t-4.5 -48.5q0 -64 53 -98t161 -34q126 0 218 21l-3 -53q-90 -18 -213 -18q-129 0 -197.5 43z" />
    <glyph glyph-name="uni304F" unicode="&#x304f;" 
d="M631 -6l-25 26q-36 39 -134.5 123t-184.5 154q-32 26 -47 47t-15 41q0 21 16.5 42.5t50.5 51.5l62 50q179 143 235 201q32 32 45 55l50 -45q-29 -23 -56 -48q-44 -39 -210 -176q-31 -24 -84 -68q-26 -22 -37 -35.5t-11 -26.5q0 -12 12 -26.5t40 -36.5
q92 -74 199.5 -166.5t171.5 -156.5l-46 -41q-1 1 -32 35z" />
    <glyph glyph-name="uni3050" unicode="&#x3050;" 
d="M619 -6l-25 26q-36 39 -134.5 123t-184.5 154q-32 26 -47 47t-15 41q0 21 16.5 42.5t50.5 51.5l62 50q179 143 235 201q32 32 45 55l50 -45q-29 -23 -56 -48q-44 -39 -210 -176q-31 -24 -84 -68q-26 -22 -37 -35.5t-11 -26.5q0 -12 12 -26.5t40 -36.5q88 -70 197 -164
t174 -159l-46 -41q-1 1 -32 35zM750 519.5q-25 40.5 -45 67.5l38 19q18 -24 44.5 -66.5t44.5 -74.5l-39 -18q-18 32 -43 72.5zM592 544l37 17q34 -49 87 -143l-40 -17q-57 103 -84 143z" />
    <glyph glyph-name="uni3051" unicode="&#x3051;" 
d="M495 -3q20 8 44 22t40 29q59 48 84.5 106t31 124t5.5 195v25q-73 -5 -132 -5q-41 0 -87.5 2t-75.5 5v54q29 -5 75 -8t88 -3q65 0 131 3q-4 128 -7 159q-3 29 -8 52h64q-1 -8 -1 -28q-1 -7 -1 -23q-1 -28 3 -157q92 8 166 27v-55q-59 -12 -165 -21v-27v-46
q0 -123 -11.5 -200t-56 -146t-138.5 -123zM155 145.5q-15 82.5 -15 165.5q0 87 9 168.5t24 170.5l7 46q4 27 4 54l63 -6l-14 -54q-45 -199 -45 -360q0 -105 20 -195q13 44 38 118q-1 -2 16 51l33 -20q-18 -51 -36.5 -112t-24.5 -92q-4 -22 -4 -35q0 -7 1.5 -16.5t1.5 -18.5
l-44 -6q-19 59 -34 141.5z" />
    <glyph glyph-name="uni3052" unicode="&#x3052;" 
d="M872 785l37 12q14 -26 31.5 -65t28.5 -70l-38 -14q-30 86 -59 137zM805 688.5q-17 39.5 -31 66.5l37 13q29 -54 60 -136l-39 -14q-10 31 -27 70.5zM474 -20q20 8 44 22t40 29q59 47 84.5 105.5t31 124.5t5.5 195v24q-52 -4 -119 -4q-93 0 -163 7v54q29 -5 75 -8t88 -3
q38 0 118 2l-1 43q-1 24 -2.5 64.5t-2.5 52.5q-2 21 -9 52h64q-2 -34 -2 -51q-1 -13 1 -86q2 -48 2 -72q104 8 179 28v-55q-71 -14 -178 -22v-26v-46q0 -123 -11.5 -200t-56 -146t-138.5 -123zM147 131q-15 81 -15 163t8.5 158t22.5 168q6 32 9 59q5 25 5 54l62 -6
q-2 -7 -13 -54q-46 -203 -46 -361q0 -107 21 -195q7 28 21.5 72.5t20.5 64.5q8 22 11 33l33 -20q-16 -47 -35 -109.5t-26 -94.5q-5 -32 -4 -42q3 -24 3 -28l-44 -6q-19 63 -34 144z" />
    <glyph glyph-name="uni3053" unicode="&#x3053;" 
d="M249 630v54q101 -13 255 -13q117 0 253 14v-54q-8 0 -24 -2q-144 -9 -229 -9q-145 0 -255 10zM271.5 38.5q-80.5 45.5 -80.5 131.5q0 32 5.5 61.5t15.5 72.5l54 -5q-21 -68 -21 -118q0 -63 63.5 -99.5t184.5 -36.5q103 0 191.5 10.5t139.5 27.5l1 -55q-49 -15 -139 -25
t-192 -10q-142 0 -222.5 45.5z" />
    <glyph glyph-name="uni3054" unicode="&#x3054;" 
d="M841 809l37 17q21 -28 46.5 -68t39.5 -68l-39 -18q-47 90 -84 137zM780 703q-25 42 -44 69l38 17q19 -27 43 -66t40 -71l-39 -18q-13 27 -38 69zM233 619v54q103 -13 255 -13q117 0 253 14v-54l-21 -1q-158 -10 -231 -10q-146 0 -256 10zM256.5 27.5
q-80.5 45.5 -80.5 131.5q0 33 5 63.5t15 71.5l54 -6q-21 -68 -21 -118q0 -62 64 -99t184 -37q103 0 192 10.5t140 27.5l1 -55q-50 -15 -139.5 -25t-191.5 -10q-142 0 -222.5 45.5z" />
    <glyph glyph-name="uni3055" unicode="&#x3055;" 
d="M649.5 256q-60.5 8 -105.5 12l7 44q90 -9 153 -18q-57 119 -115 251q-101 -16 -221 -16q-43 0 -95.5 4.5t-96.5 9.5l-2 55q104 -20 192 -20q121 0 203 13l-44 98q-19 44 -38 76l60 11q33 -87 71 -176q135 27 204 62l10 -52q-74 -32 -194 -56q94 -204 131 -279l-32 -33
q-27 6 -87.5 14zM255 22.5q-70 48.5 -70 135.5q0 47 21 129l53 -6q-8 -25 -14.5 -57.5t-6.5 -53.5q0 -72 53 -108.5t164 -36.5q139 0 242 20l-1 -53q-91 -18 -242 -18q-129 0 -199 48.5z" />
    <glyph glyph-name="uni3056" unicode="&#x3056;" 
d="M833 834l37 17q20 -27 45.5 -67t40.5 -69l-39 -18q-44 84 -84 137zM771.5 729q-23.5 40 -44.5 69l38 17q21 -30 44.5 -68.5t38.5 -68.5l-39 -19q-14 30 -37.5 70zM832 603q-77 -32 -194 -56l20 -44q77 -168 111 -236l-32 -32q-28 6 -88.5 14t-104.5 12l7 43
q69 -5 153 -17q-80 168 -115 251q-101 -16 -221 -16q-82 0 -192 14l-2 55q104 -20 191 -20q122 0 204 13l-11 24l-33 74q-25 53 -38 76l59 11q30 -83 61 -150q2 -5 11 -26l204 60zM254.5 15.5q-69.5 48.5 -69.5 135.5q0 39 20 129l54 -6q-8 -23 -14.5 -56.5t-6.5 -54.5
q0 -72 52.5 -108.5t164.5 -36.5q146 0 242 20l-2 -53q-91 -18 -241 -18q-130 0 -199.5 48.5z" />
    <glyph glyph-name="uni3057" unicode="&#x3057;" 
d="M255 175q0 90 6 284q4 166 4 214q0 54 -6 80h67q-6 -35 -8 -80q-12 -342 -12 -502q0 -80 47.5 -116.5t128.5 -36.5q129 0 212.5 56t148.5 148l36 -44q-67 -90 -162.5 -151t-237.5 -61q-224 0 -224 209z" />
    <glyph glyph-name="uni3058" unicode="&#x3058;" 
d="M242 168q0 90 6 284q5 138 5 214q0 49 -7 80h67q-4 -21 -8 -80q-12 -342 -12 -502q0 -80 47.5 -116t128.5 -36q128 0 212 56t150 148l35 -45q-67 -90 -163 -151t-237 -61q-224 0 -224 209zM734.5 633.5q-27.5 45.5 -49.5 74.5l38 19q19 -25 49.5 -73.5t48.5 -82.5
l-40 -20q-19 37 -46.5 82.5zM608 583.5q-27 46.5 -50 77.5l40 17q19 -26 48.5 -74.5t46.5 -82.5l-41 -20q-17 36 -44 82.5z" />
    <glyph glyph-name="uni3059" unicode="&#x3059;" 
d="M322 14q110 27 170.5 79.5t78.5 131.5q-16 -26 -41.5 -39.5t-54.5 -13.5q-67 0 -110 42t-43 115q0 44 22 82t59 60t79 22q46 0 76 -21l-1 122q-275 -4 -448 -19l-1 55l150 4q179 6 298 7q0 52 -2 88q0 12 -1.5 26t-3.5 23h62q-4 -36 -4 -49q-1 -19 -1 -87q237 0 311 -2
v-50q-73 4 -311 4l2 -166q30 -48 30 -123q0 -115 -63.5 -203t-217.5 -136zM554 253q27 34 28 95q-14 99 -99 99q-45 0 -78.5 -33t-33.5 -84q0 -52 30.5 -81.5t78.5 -29.5q47 0 74 34z" />
    <glyph glyph-name="uni305A" unicode="&#x305a;" 
d="M798 793l40 17q40 -56 77 -120l-41 -20q-41 79 -76 123zM685 769l40 17q33 -46 77 -122l-41 -19q-37 70 -76 124zM294 5q110 26 170 79t79 132q-16 -26 -41.5 -39.5t-55.5 -13.5q-66 0 -109 42t-43 115q0 44 22 81.5t59 59.5t79 22q46 0 76 -21l-1 123q-275 -4 -448 -19
l-1 55q66 0 186 5q242 6 262 6q0 53 -2 87q-3 38 -5 49h62q-2 -9 -3 -23t-1 -25q-1 -19 -1 -87q170 0 268 -2h43v-50q-73 4 -311 4l2 -166q29 -48 29 -123q0 -115 -63 -203.5t-217 -135.5zM526 243.5q27 33.5 28 94.5q-14 100 -99 100q-45 0 -78.5 -33t-33.5 -85t30.5 -81
t78.5 -29q47 0 74 33.5z" />
    <glyph glyph-name="uni305B" unicode="&#x305b;" 
d="M361 18.5q-48 18.5 -63 58.5t-18 124q-1 42 -1 252l-126 -14l-90 -13l-6 58q47 0 92 5l130 12l1 157q0 34 -5 69h59q-3 -25 -3 -68l-1 -153l338 31l1 156q0 39 -5 64h58q-4 -32 -4 -63l-1 -153q38 3 127 8l66 4v-55q-11 1 -22 0.5t-19 -0.5h-25q-28 0 -128 -6
q-5 -156 -16 -210q-6 -29 -22 -40.5t-47 -11.5q-45 0 -120 13l2 49q25 -6 53.5 -10t48.5 -4q21 0 29.5 5.5t10.5 23.5q9 43 13 182q-90 -6 -276 -25l-63 -6v-153q0 -81 1 -98q2 -69 10.5 -97.5t45.5 -43.5t126 -15q79 0 161 6.5t130 14.5l-1 -55q-160 -17 -288 -17
q-105 0 -153 18.5z" />
    <glyph glyph-name="uni305C" unicode="&#x305c;" 
d="M855 771l37 11q15 -27 33.5 -67.5t30.5 -71.5l-39 -13q-37 99 -62 141zM790 672q-18 41 -32 68l37 12q14 -26 32.5 -68t29.5 -72l-38 -13q-11 32 -29 73zM342 4.5q-48 18.5 -63 58.5t-18 123q-1 42 -1 252l-126 -14l-90 -12l-6 58q38 0 92 4l130 13l1 156q0 34 -5 69h59
q-3 -25 -3 -67l-1 -153l338 31l1 156q0 37 -5 64h58q-4 -34 -4 -63l-1 -154q67 6 127 9l66 3v-55q-13 1 -66 1q-41 0 -128 -7q-5 -156 -16 -210q-6 -29 -22 -40.5t-47 -11.5q-25 0 -62 4.5t-58 9.5l2 48q57 -13 102 -13q21 0 29.5 5.5t10.5 22.5q9 43 13 182
q-153 -11 -339 -31v-152q0 -81 1 -99q2 -68 10.5 -97t46 -44t125.5 -15q79 0 161 6.5t130 14.5l-1 -54q-55 -7 -136 -12t-152 -5q-105 0 -153 18.5z" />
    <glyph glyph-name="uni305D" unicode="&#x305d;" 
d="M682 -26q-155 0 -235.5 53.5t-80.5 155.5q0 67 43.5 122t96.5 81q-242 -23 -385 -47l-5 50l123 14l44 6q77 55 176.5 138.5t174.5 149.5l-134 -7q-43 -3 -84 -5t-69 -4l-24 -2q-30 -2 -45 -4l-3 57q30 -3 70 -3q34 0 152.5 5t157.5 9q28 3 46 8l34 -36q-9 -7 -19 -13
l-19 -14q-61 -53 -164 -138.5t-164 -132.5q283 32 496 32v-49q-64 2 -94 2q-90 0 -152 -8q-50 -8 -96.5 -38t-76 -74t-29.5 -92q0 -75 49.5 -110.5t130.5 -47.5q45 -7 83 -7q14 0 30 1.5t23 1.5l-11 -53q-14 -1 -40 -1z" />
    <glyph glyph-name="uni305E" unicode="&#x305e;" 
d="M652 -26q-155 0 -235.5 53.5t-80.5 155.5q0 67 43.5 122t96.5 81q-242 -23 -385 -47l-5 50l123 14l44 6q77 55 176.5 138.5t174.5 149.5l-134 -7q-43 -3 -84 -5t-69 -4l-24 -2q-30 -2 -45 -4l-3 57q30 -3 70 -3q34 0 152.5 5t157.5 9q28 3 46 8l34 -36q-9 -8 -19 -13
l-19 -14q-61 -53 -164 -138.5t-164 -132.5q283 32 496 32v-49q-64 2 -94 2q-90 0 -152 -8q-50 -8 -96.5 -38t-76 -74t-29.5 -92q0 -75 49.5 -110.5t130.5 -47.5q45 -7 83 -7q14 0 30 1.5t23 1.5l-11 -53q-14 -1 -40 -1zM783 662l36 17q19 -25 42.5 -61.5t39.5 -68.5l-38 -18
q-38 76 -80 131zM681 626l37 16q52 -75 79 -131l-38 -18q-35 74 -78 133z" />
    <glyph glyph-name="uni305F" unicode="&#x305f;" 
d="M143 8q41 70 85 192t76 241q6 23 11 43l9 36l9 39q-62 -5 -104 -5q-65 0 -110 4l-2 52q49 -7 114 -7q44 0 112 5q15 79 18 102q5 42 4 69l64 -5q-10 -38 -15 -68l-18 -92q120 14 198 36v-52q-105 -23 -209 -34q-16 -77 -31 -133q-30 -114 -73 -242.5t-79 -199.5zM715 437
q-78 0 -175 -10v50q77 8 172 8q101 0 166 -8l-2 -52q-84 12 -161 12zM538 39.5q-57 33.5 -57 103.5q0 41 14 106l50 -5q-14 -51 -14 -91q0 -44 36 -71t142 -27q101 0 183 17l-2 -52q-87 -14 -182 -14q-113 0 -170 33.5z" />
    <glyph glyph-name="uni3060" unicode="&#x3060;" 
d="M816 750l37 17q21 -28 46 -68t39 -68l-38 -18q-44 84 -84 137zM113 -8q41 70 85 192.5t76 241.5l19 74q7 32 10 43q-62 -5 -104 -5q-65 0 -110 4l-2 52q49 -7 114 -7q50 0 112 6q15 83 18 101q5 42 4 69l64 -5q-10 -38 -15 -68l-18 -92q110 13 198 36v-52
q-105 -23 -209 -34q-16 -77 -31 -133q-30 -114 -73 -242.5t-79 -199.5zM754 645.5q-24 40.5 -44 67.5l38 17q20 -28 44 -67.5t39 -69.5l-39 -18q-14 30 -38 70.5zM685 421q-78 0 -175 -10v50q77 8 172 8q101 0 166 -8l-2 -52q-84 12 -161 12zM508 23.5q-57 33.5 -57 103.5
q0 41 14 106l50 -5q-14 -51 -14 -91q0 -44 36 -71t142 -27q104 0 183 18l-2 -53q-87 -14 -182 -14q-113 0 -170 33.5z" />
    <glyph glyph-name="uni3061" unicode="&#x3061;" 
d="M325 37q66 -9 130 -9q144 0 234.5 48t90.5 147q0 64 -49.5 102.5t-140.5 38.5q-93 0 -172.5 -30t-129.5 -89q-21 -25 -32 -46l-48 18q34 68 63.5 163t48.5 187q-88 0 -194 10l-1 52q73 -13 205 -15q7 34 14 88q5 32 5 52q0 12 -1 18l61 -3q-5 -18 -15 -72l-15 -81
q99 4 204 16t190 31l1 -52q-92 -17 -201 -28.5t-204 -14.5q-43 -192 -69 -256q66 53 134.5 76t159.5 23q114 0 176 -51t62 -135q0 -123 -100.5 -185.5t-273.5 -62.5q-45 0 -119 7z" />
    <glyph glyph-name="uni3062" unicode="&#x3062;" 
d="M868 749q-23 38 -44 66l37 17q22 -30 47.5 -69.5t38.5 -66.5l-39 -19q-17 34 -40 72zM762.5 710q-23.5 40 -43.5 68l38 17q21 -30 44.5 -68.5t38.5 -68.5l-39 -19q-15 31 -38.5 71zM297 26q66 -9 130 -9q144 0 234.5 48t90.5 147q0 64 -49.5 102.5t-141.5 38.5
q-93 0 -172.5 -30t-128.5 -89q-21 -25 -32 -46l-48 18q34 68 62.5 161.5t49.5 188.5q-89 0 -195 10l-1 52q73 -13 206 -15q7 34 14 88q5 44 4 70l61 -3q-6 -19 -16 -72l-15 -81q97 4 201.5 16t190.5 30l1 -52q-93 -16 -201.5 -27.5t-201.5 -14.5q-40 -187 -69 -256
q67 53 135.5 76t158.5 23q114 0 176.5 -51.5t62.5 -134.5q0 -123 -100.5 -185.5t-273.5 -62.5q-45 0 -119 7z" />
    <glyph glyph-name="uni3064" unicode="&#x3064;" 
d="M342 85q212 7 346.5 79t134.5 224q0 55 -26.5 99.5t-77 70.5t-119.5 26q-89 0 -206.5 -37.5t-242.5 -88.5l-35 -14l-25 63q30 6 60.5 15.5t40.5 12.5q16 5 60 20q109 36 192 57.5t158 21.5q78 0 141 -29.5t99.5 -85.5t36.5 -131q0 -170 -143 -257t-372 -100z" />
    <glyph glyph-name="uni3063" unicode="&#x3063;" 
d="M383 45q178 6 287 64.5t109 182.5q0 43 -21.5 78t-62.5 56t-97 21q-73 0 -170 -31.5t-205 -74.5l-22 -9l-23 58q32 5 83 22l21 7q97 34 175.5 55.5t140.5 21.5q69 0 122 -25.5t82 -72t29 -107.5q0 -138 -116.5 -212.5t-309.5 -84.5z" />
    <glyph glyph-name="uni3065" unicode="&#x3065;" 
d="M814 790l38 17q21 -29 46.5 -69t38.5 -67l-39 -18q-41 82 -84 137zM753.5 684q-23.5 40 -44.5 69l38 17q20 -27 44 -67t39 -70l-39 -18q-14 29 -37.5 69zM330 66q212 7 347 79t135 224q0 55 -27 99.5t-77.5 70.5t-119.5 26q-89 0 -204.5 -37.5t-242.5 -88.5l-36 -14
l-26 63q24 5 49 12t52 16l62 20q103 36 188 58t161 22q78 0 140.5 -30t99 -86t36.5 -131q0 -170 -142.5 -257t-371.5 -100z" />
    <glyph glyph-name="uni3066" unicode="&#x3066;" 
d="M597.5 20q-87.5 34 -145.5 104.5t-58 175.5q0 76 28.5 143.5t75 117t100.5 78.5l-93 -10q-320 -33 -399 -49l-6 60q46 1 82 5q29 4 86 8q236 24 349 34q141 12 256 17v-53q-141 0 -193 -17q-72 -25 -125.5 -78.5t-81 -118.5t-27.5 -125q0 -98 52 -158.5t130.5 -87
t166.5 -29.5l-18 -53q-92 2 -179.5 36z" />
    <glyph glyph-name="uni3067" unicode="&#x3067;" 
d="M589.5 12q-87.5 34 -145.5 104.5t-58 175.5q0 76 28.5 143t75 117t100.5 78q-12 -2 -100 -10q-149 -15 -245.5 -26.5t-146.5 -21.5l-7 59q45 1 83 5q214 24 434 42q151 14 256 17l1 -53q-134 2 -194 -17q-72 -25 -125.5 -78t-81 -118t-27.5 -125q0 -98 52 -159t131 -87.5
t167 -29.5l-18 -52q-92 2 -179.5 36zM796 540l36 17q18 -23 43.5 -64t43.5 -75l-38 -19q-41 85 -85 141zM732.5 432q-22.5 39 -44.5 70l37 16q54 -78 84 -140l-38 -19q-16 34 -38.5 73z" />
    <glyph glyph-name="uni3068" unicode="&#x3068;" 
d="M280.5 36q-81.5 47 -81.5 143q0 72 43 133t131 120q-50 86 -146 307l52 22q29 -80 66 -160.5t71 -140.5q73 45 199 109q18 10 37.5 19.5t38.5 20.5q36 21 58 39l29 -47q-30 -19 -62 -35q-15 -8 -32 -16.5t-35 -18.5q-163 -82 -246 -136q-151 -100 -151 -210
q0 -68 63 -106.5t184 -38.5q84 0 172 9t139 23v-59q-55 -10 -139 -17t-169 -7q-140 0 -221.5 47z" />
    <glyph glyph-name="uni3069" unicode="&#x3069;" 
d="M827 779l38 17q21 -29 46.5 -69t38.5 -67l-39 -18q-41 82 -84 137zM766 674.5q-24 40.5 -44 67.5l38 17q20 -28 44 -67.5t39 -69.5l-39 -18q-14 30 -38 70.5zM265.5 24q-81.5 47 -81.5 143q0 72 43.5 132.5t130.5 120.5q-52 91 -146 307l52 22q29 -80 66 -160.5
t71 -140.5q73 46 180 99q47 23 72 38q41 25 58 39l27 -47q-22 -14 -62 -35l-60 -31q-151 -78 -228 -128q-151 -100 -151 -210q0 -68 63 -106t184 -38q85 0 172.5 8.5t138.5 22.5v-59q-55 -10 -139 -17t-169 -7q-140 0 -221.5 47z" />
    <glyph glyph-name="uni306A" unicode="&#x306a;" 
d="M123 192q59 67 115.5 171t92.5 202q-57 -5 -105 -5q-33 0 -110 7l-4 53q24 -4 54.5 -8t60.5 -4q68 0 121 6q28 96 32 164l60 -6l-11 -45q-17 -71 -28 -107q86 13 164 38l2 -51q-90 -25 -182 -37q-36 -106 -93.5 -217.5t-116.5 -188.5zM786 535.5q-64 38.5 -119 63.5
l26 41q52 -23 119.5 -63t102.5 -67l-30 -44q-35 31 -99 69.5zM388.5 2.5q-51.5 32.5 -51.5 97.5q0 62 54 98t130 36q57 0 110 -14l-4 98q-4 82 -6 161h53q-2 -40 -2 -50l1 -44l5 -98l4 -81q96 -35 201 -121l-29 -45q-90 79 -171 113l1 -51q0 -57 -42 -94.5t-121 -37.5
q-81 0 -132.5 32.5zM605 46q29 28 29 67l-1 60q-56 16 -112 16q-60 0 -97.5 -23.5t-37.5 -62.5q0 -40 32 -62.5t97 -22.5q61 0 90 28z" />
    <glyph glyph-name="uni306B" unicode="&#x306b;" 
d="M151.5 117.5q-9.5 81.5 -9.5 176.5q0 76 10 155.5t28 186.5l9 54q5 35 5 54l61 -6q-6 -15 -14 -52q-20 -98 -35 -202.5t-15 -184.5q0 -87 11 -175q43 120 61 165l32 -24q-21 -52 -42 -114.5t-27 -93.5q-5 -23 -4 -42l3 -31l-48 -4q-16 56 -25.5 137.5zM461 658
q69 -13 192 -13t201 13v-54q-72 -9 -196 -9q-123 0 -197 9v54zM414 165q0 35 15 108l48 -5q-14 -46 -14 -94q0 -99 180 -99q133 0 241 26l1 -56q-98 -20 -239 -20q-232 0 -232 140z" />
    <glyph glyph-name="uni306C" unicode="&#x306c;" 
d="M534.5 35q-38.5 32 -38.5 87q0 32 19 59.5t53 43.5t76 16q76 0 155 -43q20 66 20 154q0 72 -30.5 125t-86 81.5t-126.5 28.5q-15 0 -23 -1q-17 -127 -52 -223q-52 -145 -129 -239t-165 -94q-49 0 -81 39t-32 102q0 128 79 242q18 28 44 56q-24 68 -32 93l-6 19
q-16 50 -28 75l50 21q18 -73 54 -172q111 102 253 123q2 14 4 40l2 23q2 15 2 39t-2 38l61 -2q-5 -34 -9 -72l-8 -61l22 1q83 0 148.5 -35t103 -99t37.5 -147q0 -102 -25 -183q54 -41 104 -98l-33 -41q-43 52 -90 92q-58 -120 -185 -120q-67 0 -105.5 32zM456 382
q25 67 45 198q-67 -12 -125 -43t-104 -77q25 -67 46 -110q37 -76 67 -118q40 64 71 150zM282.5 109q38.5 27 74.5 77q-47 67 -77 129q-10 23 -43 105q-48 -61 -71.5 -120t-23.5 -124q0 -41 19.5 -67.5t45.5 -26.5q37 0 75.5 27zM784 153q-72 44 -139 44q-49 0 -75.5 -21.5
t-26.5 -50.5q0 -35 25 -55t71 -20q98 0 145 103z" />
    <glyph glyph-name="uni306D" unicode="&#x306d;" 
d="M280 27q0 120 1 185t5 150q-33 -52 -161 -235l-21 -29l-35 45q44 55 116.5 155.5t105.5 152.5l7 111l-198 -27l-6 57q17 -1 53 1q79 5 155 18q5 87 5 103q0 42 -3 64l65 -3q-7 -31 -16 -130l-3 -24l33 -23q-17 -24 -40 -63l-5 -71q77 70 164 121.5t162 51.5
q94 0 143.5 -75t49.5 -199q0 -93 -14 -168q51 -35 114 -99l-30 -43q-50 55 -98 91q-23 -68 -68.5 -102.5t-117.5 -34.5q-71 0 -117 31t-46 96q0 55 44.5 90.5t113.5 35.5q82 0 158 -39q11 56 11 157q0 66 -20 114t-54.5 73.5t-77.5 25.5q-65 0 -157.5 -57.5t-163.5 -133.5
q-5 -87 -5 -145v-82q0 -87 3 -144q2 -38 4 -52h-59q3 30 3 50zM733 85q35 31 53 88q-72 42 -152 42q-44 0 -75.5 -22.5t-31.5 -56.5q0 -41 31.5 -61.5t81.5 -20.5q58 0 93 31z" />
    <glyph glyph-name="uni306E" unicode="&#x306e;" 
d="M495 36q43 3 79 10q69 15 128.5 53t97.5 102t38 151q0 79 -35 145.5t-101 107.5t-157 45q-23 -170 -58 -291q-44 -150 -99.5 -223.5t-118.5 -73.5q-38 0 -75.5 30t-61.5 87t-24 133q0 102 56 191.5t152.5 143t209.5 53.5q108 0 191.5 -47t128.5 -127t45 -175
q0 -102 -44.5 -179.5t-127 -125t-194.5 -60.5zM354 181q44 61 83 190q39 131 55 278q-97 -8 -173 -59t-118 -125.5t-42 -148.5q0 -65 18 -109t44 -65.5t50 -21.5q39 0 83 61z" />
    <glyph glyph-name="uni306F" unicode="&#x306f;" 
d="M134 288q0 80 11 169.5t29 199.5l6 37q5 35 5 55l61 -6q-10 -28 -14 -52q-20 -92 -35 -203.5t-15 -192.5q0 -91 12 -176q27 81 61 167l31 -24q-58 -152 -69 -206q-6 -24 -4 -42q0 -11 1 -18.5t2 -12.5l-47 -4q-35 124 -35 309zM435.5 19q-49.5 35 -49.5 96
q0 37 22.5 67.5t66 49t104.5 18.5q54 0 104 -14q0 10 -2 32q-1 34 -4.5 115t-4.5 133q-72 -2 -106 -2q-48 0 -160 6l-1 50q88 -8 163 -8q36 0 104 2v127q0 41 -3 57h61q-5 -31 -6 -56q-2 -33 -2 -125q96 6 181 23v-51q-86 -15 -181 -21q1 -94 8 -212l4 -85q54 -20 101 -53
t97 -77l-29 -43q-89 84 -168 119q3 -93 -32 -138t-123 -45q-95 0 -144.5 35zM660 62.5q26 29.5 26 86.5l-1 39q-57 18 -111 18q-62 0 -101 -24t-39 -62q0 -41 36 -64t97 -23q67 0 93 29.5z" />
    <glyph glyph-name="uni3070" unicode="&#x3070;" 
d="M860 795l38 12q29 -53 64 -138l-40 -15q-37 99 -62 141zM793.5 698.5q-17.5 40.5 -31.5 66.5l38 13q14 -26 33 -67.5t30 -71.5l-40 -16q-12 35 -29.5 75.5zM112 278q0 78 10.5 163t28.5 197l8 46q3 18 5 54l60 -5q-8 -22 -13 -53q-20 -93 -35.5 -204t-15.5 -192
q0 -79 12 -175q31 91 61 167l31 -24q-57 -150 -69 -207q-5 -24 -4 -42l3 -31l-47 -3q-35 131 -35 309zM413.5 9q-49.5 35 -49.5 96q0 37 22.5 67.5t66 49t104.5 18.5q54 0 104 -14l-4 98q-6 124 -7 182q-53 -3 -106 -3q-48 0 -160 6v51q86 -8 162 -8q70 0 104 2q0 93 1 126
q0 33 -3 57h60q-5 -29 -6 -55q-2 -68 -2 -125q98 6 181 23v-52q-89 -14 -181 -20q1 -58 7 -179q4 -83 5 -118q54 -20 99.5 -52t98.5 -78l-28 -43q-90 85 -169 118q4 -92 -31.5 -137t-123.5 -45q-95 0 -144.5 35zM638.5 52q25.5 29 25.5 86l-1 40q-54 17 -110 17
q-63 0 -102 -23.5t-39 -61.5q0 -41 36 -64t97 -23q68 0 93.5 29z" />
    <glyph glyph-name="uni3071" unicode="&#x3071;" 
d="M792 652q-29 29 -29 72t29 73t72 30t73 -30t30 -73t-30 -72t-73 -29t-72 29zM911.5 678q19.5 19 19.5 46q0 28 -19.5 47.5t-47.5 19.5q-27 0 -46 -19.5t-19 -47.5q0 -27 19 -46t46 -19q28 0 47.5 19zM112 278q0 78 10.5 163t28.5 197l8 46q3 18 5 54l60 -5
q-8 -22 -13 -53q-20 -93 -35.5 -204t-15.5 -192q0 -79 12 -175q31 91 61 167l31 -24q-57 -150 -69 -207q-5 -24 -4 -42l3 -31l-47 -3q-35 131 -35 309zM413.5 9q-49.5 35 -49.5 96q0 37 22.5 67.5t66 49t104.5 18.5q54 0 104 -14l-4 98q-6 124 -7 182q-53 -3 -106 -3
q-48 0 -160 6v51q86 -8 162 -8q70 0 104 2q0 93 1 126q0 33 -3 57h60q-5 -29 -6 -55q-2 -68 -2 -125q98 6 181 23v-52q-89 -14 -181 -20q1 -58 7 -179q4 -83 5 -118q54 -20 99.5 -52t98.5 -78l-28 -43q-90 85 -169 118q4 -92 -31.5 -137t-123.5 -45q-95 0 -144.5 35z
M638.5 52q25.5 29 25.5 86l-1 40q-54 17 -110 17q-63 0 -102 -23.5t-39 -61.5q0 -41 36 -64t97 -23q68 0 93.5 29z" />
    <glyph glyph-name="uni3072" unicode="&#x3072;" 
d="M248 39.5q-64 67.5 -64 181.5q0 121 57.5 234t130.5 185l-83 -14q-72 -11 -98 -17q-43 -9 -52 -11l-7 58q23 0 49 3q60 5 163 23.5t140 32.5l16 -49q-7 -2 -25.5 -7t-26.5 -9q-35 -25 -86.5 -91.5t-89.5 -155t-38 -175.5q0 -104 55 -154t138 -50q86 0 150 51.5t98.5 147
t34.5 223.5q0 82 -15 175q-15 43 -26 82l52 16q20 -103 70.5 -209.5t135.5 -190.5l-40 -41q-86 105 -140 221q5 -48 5 -87q0 -119 -36 -219t-110 -160.5t-181 -60.5q-113 0 -177 67.5z" />
    <glyph glyph-name="uni3073" unicode="&#x3073;" 
d="M856 787l36 15q48 -77 75 -136l-39 -16q-40 89 -72 137zM757 749l36 14q18 -29 39.5 -68.5t34.5 -67.5l-39 -17q-39 88 -71 139zM230.5 24.5q-64.5 67.5 -64.5 181.5q0 121 57.5 233.5t130.5 185.5q-10 -2 -106 -18q-69 -12 -74 -13l-52 -11l-8 58q24 0 50 3
q60 5 162.5 23.5t140.5 32.5l15 -49q-8 -2 -26 -7t-26 -9q-35 -25 -86.5 -91.5t-89.5 -155t-38 -175.5q0 -105 55 -154.5t139 -49.5q86 0 150 51.5t98.5 147t34.5 223.5q0 82 -15 175q-12 31 -26 82l51 16q20 -102 71 -209t135 -191l-40 -41q-88 110 -140 221q5 -50 5 -89
q0 -119 -36.5 -218.5t-110 -159.5t-179.5 -60q-113 0 -177.5 67.5z" />
    <glyph glyph-name="uni3074" unicode="&#x3074;" 
d="M791.5 622q-30.5 31 -30.5 75t31 75t74 31q44 0 75.5 -31t31.5 -75t-31.5 -75t-75.5 -31t-74.5 31zM915.5 648q20.5 20 20.5 49t-20.5 49.5t-49.5 20.5q-28 0 -48.5 -20.5t-20.5 -49.5t20 -49t49 -20t49.5 20zM230.5 24.5q-64.5 67.5 -64.5 181.5q0 121 57.5 233.5
t130.5 185.5q-10 -2 -106 -18q-69 -12 -74 -13l-52 -11l-8 58q24 0 50 3q60 5 162.5 23.5t140.5 32.5l15 -49q-8 -2 -26 -7t-26 -9q-35 -25 -86.5 -91.5t-89.5 -155t-38 -175.5q0 -105 55 -154.5t139 -49.5q86 0 150 51.5t98.5 147t34.5 223.5q0 82 -15 175q-12 31 -26 82
l51 16q20 -102 71 -209t135 -191l-40 -41q-88 110 -140 221q5 -50 5 -89q0 -119 -36.5 -218.5t-110 -159.5t-179.5 -60q-113 0 -177.5 67.5z" />
    <glyph glyph-name="uni3075" unicode="&#x3075;" 
d="M523 538q36 22 72 52q-31 27 -93 62t-125 63l32 39q58 -26 127.5 -65.5t107.5 -69.5l13 -38q-51 -42 -101 -76zM328 5l-7 55q37 -11 74.5 -16t88.5 -5q42 0 74.5 20.5t32.5 70.5q0 47 -37 103t-97 124q-37 39 -73 72l40 34l45 -49l22 -24q75 -82 114 -144t39 -121
q0 -76 -49 -106t-106 -30q-79 0 -161 16zM827.5 205.5q-48.5 88.5 -97.5 140.5l42 25q51 -58 100.5 -145t75.5 -156l-48 -25q-24 72 -72.5 160.5zM57 84q60 32 136 90t117 103l31 -39q-49 -49 -118.5 -104t-133.5 -93z" />
    <glyph glyph-name="uni3076" unicode="&#x3076;" 
d="M497 530q36 23 71 52q-31 27 -93 62t-125 63l32 39q57 -25 127 -64.5t109 -70.5l12 -37q-49 -42 -101 -77zM822 673l37 17q21 -28 46.5 -68t39.5 -68l-39 -18q-41 82 -84 137zM759.5 570q-23.5 40 -42.5 66l38 17q19 -27 43 -66t40 -71l-39 -18q-16 32 -39.5 72zM302 -3
l-7 55q36 -11 74 -16t88 -5q42 0 74.5 20.5t32.5 70.5q0 47 -37.5 104t-96.5 123q-33 34 -72 72l39 34l67 -73q74 -80 113.5 -142.5t39.5 -122.5q0 -76 -48.5 -106t-106.5 -30q-78 0 -160 16zM800.5 198.5q-48.5 88.5 -97.5 139.5l43 25q50 -56 99 -143t76 -158l-48 -25
q-24 73 -72.5 161.5zM30 77q59 31 135 88.5t118 103.5l31 -39q-47 -48 -117.5 -103.5t-134.5 -93.5z" />
    <glyph glyph-name="uni3077" unicode="&#x3077;" 
d="M497 530q36 23 71 52q-31 27 -93 62t-125 63l32 39q57 -25 127 -64.5t109 -70.5l12 -37q-49 -42 -101 -77zM755.5 517q-31.5 31 -31.5 76t31.5 76.5t75.5 31.5q45 0 77 -31.5t32 -76.5t-32 -76t-77 -31q-44 0 -75.5 31zM881.5 543q21.5 21 21.5 50t-21.5 50t-50.5 21
t-49.5 -21t-20.5 -50t20.5 -50t49.5 -21t50.5 21zM302 -3l-7 55q36 -11 74 -16t88 -5q42 0 74.5 20.5t32.5 70.5q0 47 -37.5 104t-96.5 123q-33 34 -72 72l39 34l67 -73q74 -80 113.5 -142.5t39.5 -122.5q0 -76 -48.5 -106t-106.5 -30q-78 0 -160 16zM800.5 198.5
q-48.5 88.5 -97.5 139.5l43 25q50 -56 99 -143t76 -158l-48 -25q-24 73 -72.5 161.5zM30 77q59 31 135 88.5t118 103.5l31 -39q-47 -48 -117.5 -103.5t-134.5 -93.5z" />
    <glyph glyph-name="uni3078" unicode="&#x3078;" 
d="M774 184q-66 68 -114 126q-127 153 -178 208q-31 32 -55 32q-26 0 -54 -34q-125 -155 -196 -236q-17 -18 -55 -64l-49 49q18 12 38.5 31.5t27.5 25.5q31 31 83 93t61 73l62 74q41 47 84 47q40 0 80 -43q37 -39 144 -166l39 -45q130 -148 245 -245l-39 -47
q-58 53 -124 121z" />
    <glyph glyph-name="uni3079" unicode="&#x3079;" 
d="M816.5 608.5q-27.5 45.5 -50.5 75.5l39 18q19 -26 49.5 -74t48.5 -82l-41 -20q-18 37 -45.5 82.5zM689.5 559.5q-27.5 46.5 -49.5 76.5l40 18q21 -31 50 -78t45 -80l-41 -19q-17 36 -44.5 82.5zM766 161.5q-66 68.5 -116 127.5q-127 153 -178 208q-31 32 -55 32
q-25 0 -53 -34q-125 -155 -196 -236q-24 -26 -56 -64l-49 49q23 15 66 57q33 32 136 156l71 84q39 47 83 47q41 0 81 -43q23 -25 118 -136l65 -75q49 -57 114 -124t130 -122l-39 -46q-56 51 -122 119.5z" />
    <glyph glyph-name="uni307A" unicode="&#x307a;" 
d="M685 499q-34 34 -34 82q0 49 34 83t83 34q48 0 82 -34t34 -83q0 -48 -34 -82t-82 -34q-49 0 -83 34zM823.5 526q23.5 23 23.5 55q0 33 -23.5 56t-55.5 23q-33 0 -56 -23t-23 -56q0 -32 23 -55t56 -23q32 0 55.5 23zM766 161.5q-66 68.5 -116 127.5q-127 153 -178 208
q-31 32 -55 32q-25 0 -53 -34q-125 -155 -196 -236q-24 -26 -56 -64l-49 49q23 15 66 57q33 32 136 156l71 84q39 47 83 47q41 0 81 -43q23 -25 118 -136l65 -75q49 -57 114 -124t130 -122l-39 -46q-56 51 -122 119.5z" />
    <glyph glyph-name="uni307B" unicode="&#x307b;" 
d="M134 288q0 76 10.5 161.5t26.5 188.5q6 31 9 58q5 35 5 54l61 -5q-8 -22 -13 -53q-20 -90 -35 -203t-15 -194q0 -92 12 -176q31 91 61 167l30 -24q-59 -161 -68 -206q-5 -22 -5 -42l4 -31l-48 -4q-35 124 -35 309zM441 26q-49 33 -49 95q0 32 19 60.5t59.5 46.5t101.5 18
q51 0 98 -11l-1 25l-8 162q-74 -2 -113 -2q-65 0 -130 3l-1 49q59 -5 144 -5q34 0 100 2v182q-61 -3 -125 -3q-53 0 -103 3v48q55 -4 130 -4q84 0 168 5t146 14v-48q-49 -6 -168 -13v-182q118 7 192 16v-49q-78 -9 -192 -15q5 -127 7 -161l2 -39q111 -37 212 -128l-28 -47
q-82 83 -181 123l1 -61q0 -56 -40 -86.5t-111 -30.5q-81 0 -130 33zM651.5 65.5q22.5 25.5 22.5 72.5l-2 51q-48 13 -101 13q-59 0 -95.5 -22t-36.5 -57q0 -42 34.5 -62.5t96.5 -20.5q59 0 81.5 25.5z" />
    <glyph glyph-name="uni307C" unicode="&#x307c;" 
d="M872 787l37 13q13 -25 31.5 -66t31.5 -74l-38 -14q-37 99 -62 141zM412 12q-49 33 -49 95q0 31 19.5 60t60 47t101.5 18q49 0 98 -11l-1 25l-8 162q-74 -2 -113 -2q-67 0 -131 3v49q59 -5 143 -5q35 0 101 2v181q-74 -2 -115 -2q-58 0 -113 3v48q56 -5 139 -5
q140 0 260 15q-17 38 -30 62l37 12q14 -27 32.5 -68.5t29.5 -70.5l-36 -14l-18 32q-43 -4 -138 -10v-181q116 7 191 16v-49q-77 -9 -191 -15q3 -96 8 -200q109 -36 213 -128l-29 -47q-83 84 -181 123l2 -61q0 -56 -40.5 -86.5t-110.5 -30.5q-82 0 -131 33zM106 274
q0 80 11 167.5t29 201.5l6 39q5 35 5 54l61 -5q-10 -27 -14 -53q-20 -90 -35 -203t-15 -194t12 -176q34 101 62 167l30 -24q-21 -54 -41.5 -114.5t-27.5 -91.5q-6 -24 -4 -42l3 -31l-47 -4q-35 124 -35 309zM623.5 51.5q22.5 25.5 22.5 72.5l-2 51q-49 13 -101 13
q-59 0 -95.5 -22t-36.5 -57q0 -42 34 -62.5t96 -20.5q60 0 82.5 25.5z" />
    <glyph glyph-name="uni307D" unicode="&#x307d;" 
d="M412 12q-49 33 -49 95q0 31 19.5 60t60 47t101.5 18q49 0 98 -11l-1 25l-8 162q-74 -2 -113 -2q-67 0 -131 3v49q59 -5 143 -5q35 0 101 2v180q-31 -1 -94 -1q-66 0 -134 3v48q75 -6 150 -6q125 0 242 15q-15 23 -15 52q0 43 29 73t72 30t73 -30t30 -73t-30 -72t-73 -29
q-23 0 -43 9t-34 26v-33q-43 -5 -125 -10v-180q116 7 191 16v-49q-77 -9 -191 -15q3 -96 8 -200q109 -36 213 -128l-29 -47q-83 84 -181 123l2 -61q0 -56 -40.5 -86.5t-110.5 -30.5q-82 0 -131 33zM930.5 699.5q19.5 18.5 19.5 46.5q0 27 -19.5 46.5t-47.5 19.5
q-27 0 -46 -19.5t-19 -46.5q0 -28 19 -46.5t46 -18.5q28 0 47.5 18.5zM106 274q0 80 11 167.5t29 201.5l6 39q5 35 5 54l61 -5q-10 -27 -14 -53q-20 -90 -35 -203t-15 -194t12 -176q34 101 62 167l30 -24q-21 -54 -41.5 -114.5t-27.5 -91.5q-6 -24 -4 -42l3 -31l-47 -4
q-35 124 -35 309zM623.5 51.5q22.5 25.5 22.5 72.5l-2 51q-49 13 -101 13q-59 0 -95.5 -22t-36.5 -57q0 -42 34 -62.5t96 -20.5q60 0 82.5 25.5z" />
    <glyph glyph-name="uni307E" unicode="&#x307e;" 
d="M250.5 5.5q-53.5 34.5 -53.5 100.5q0 63 59 101t161 38q49 0 94 -9l-4 146l-59 -1q-54 0 -125.5 4t-126.5 10v52q50 -8 121.5 -13t130.5 -5l57 1v166l-51 -1q-51 0 -122.5 4.5t-118.5 10.5v51q42 -8 114.5 -13.5t125.5 -5.5l52 1v78q0 38 -3 54h57q-3 -21 -4 -63l-1 -68
q137 5 262 25v-50q-26 -2 -38 -4q-148 -14 -224 -17v-166q145 5 279 26l1 -50q-154 -21 -279 -25l4 -123q2 -24 2 -35q146 -39 292 -155l-30 -46q-123 110 -260 151q3 -48 3 -72q0 -54 -37.5 -93t-124.5 -39q-100 0 -153.5 34.5zM482.5 39q31.5 20 31.5 72l-1 79
q-55 10 -102 10q-79 0 -122 -26t-43 -66q0 -41 36.5 -65t117.5 -24q51 0 82.5 20z" />
    <glyph glyph-name="uni307F" unicode="&#x307f;" 
d="M490 -9q111 46 173 122.5t88 174.5q-156 84 -307 92l-26 -58q-36 -82 -59.5 -130.5t-44.5 -77.5q-24 -33 -49.5 -46.5t-58.5 -13.5q-49 0 -82 34.5t-33 87.5q0 70 41 127t114.5 90.5t166.5 34.5l39 87q10 22 34 74.5t43 87.5q-67 -5 -224 -12q-52 -5 -68 -7l-3 58
q23 -2 69 -2q33 0 109.5 4t122.5 7q19 1 37 8l34 -29q-14 -14 -22 -29q-16 -25 -39.5 -75t-61.5 -134l-18 -41q144 -9 298 -86l12 95q2 42 2 81l53 -5q-6 -119 -21 -195q47 -26 125 -81l-24 -54q-50 42 -115 82q-29 -106 -90.5 -179.5t-170.5 -127.5zM241 113.5
q14 7.5 29 27.5q18 24 36 59.5t50 104.5q14 34 34 75q-76 -4 -133 -33t-87 -73t-30 -93q0 -35 19.5 -55t47.5 -20q20 0 34 7.5z" />
    <glyph glyph-name="uni3080" unicode="&#x3080;" 
d="M358 -15q-47 11 -65 34t-18 63l2 66l-40 -8q-26 0 -53 14.5t-45.5 47t-18.5 82.5q0 46 18.5 89.5t52.5 70.5t78 27l38 -11v122l-44 -1q-89 0 -154 10l-1 51q83 -14 152 -14l47 2v72q0 47 -5 75h59q-5 -34 -5 -144q92 9 195 35v-51q-95 -22 -195 -31v-160q22 -33 22 -80
q0 -46 -11.5 -92t-39.5 -76l-3 -74q0 -34 11 -50t47 -23.5t114 -7.5q46 0 98.5 5t77.5 12q42 12 64 37t22 77q0 63 -6 105l56 -18l1 -29q1 -14 1 -34q0 -22 -1 -37q-2 -68 -30.5 -101t-87.5 -48q-30 -7 -90 -12.5t-108 -5.5q-88 0 -135 11zM776.5 555q-55.5 53 -98.5 84
l34 35q42 -29 98.5 -82.5t89.5 -94.5l-38 -38q-30 43 -85.5 96zM308 234.5q22 45.5 22 107.5q0 38 -18 61t-46 23q-26 0 -49.5 -18.5t-37.5 -51t-14 -72.5q0 -44 22.5 -69.5t54.5 -25.5q44 0 66 45.5z" />
    <glyph glyph-name="uni3081" unicode="&#x3081;" 
d="M507 18q151 14 240 91t89 201q0 68 -28.5 123.5t-81 91t-122.5 44.5q-62 -216 -148 -347q34 -45 64 -73l-40 -33q-25 27 -54 65q-48 -62 -96 -97.5t-99 -35.5q-56 0 -91.5 44.5t-35.5 123.5q0 82 43.5 163.5t111.5 136.5q-13 35 -31 96q-19 60 -28 82l56 17q4 -23 18 -82
q14 -49 27 -86q62 39 125.5 57t141.5 19l20 85q5 39 4 63l59 -5q-3 -8 -5 -20.5t-4 -19.5q-1 -5 -2 -11.5t-3 -12.5l-20 -83q80 -11 141 -52.5t95 -107t34 -147.5q0 -139 -92.5 -227t-255.5 -109zM556 572q-130 -1 -239 -74q58 -156 110 -231q79 134 129 305zM397 223
q-34 48 -62.5 108t-57.5 136q-56 -48 -90.5 -116.5t-34.5 -132.5q0 -56 22.5 -87.5t60.5 -31.5q71 0 162 124z" />
    <glyph glyph-name="uni3082" unicode="&#x3082;" 
d="M377 21.5q-64 51.5 -64 161.5q0 33 7 113q-126 9 -214 36l3 52q89 -32 216 -39q14 130 24 199q-126 7 -218 34l3 51q86 -29 220 -37l14 123q2 26 2 35q0 14 -1 22l61 -2q-7 -30 -10 -57l-16 -123q112 0 211 12l-1 -51q-107 -9 -216 -9q-17 -123 -24 -200h25q124 0 209 12
l-1 -51q-101 -10 -203 -10l-35 1q-7 -73 -7 -104q0 -78 45 -123.5t133 -45.5q119 0 190 47t71 132q0 52 -28 107t-83 99l59 12q53 -55 78.5 -108t25.5 -115q0 -71 -39.5 -121.5t-110 -77t-162.5 -26.5q-100 0 -164 51.5z" />
    <glyph glyph-name="uni3084" unicode="&#x3084;" 
d="M423 757l37 29q82 -61 128 -110l-37 -31q-71 71 -128 112zM418 177q-32 98 -72 187l-43 92l-89 -43q-72 -36 -107 -51l-28 57q39 10 72 23q32 12 132 58q-37 78 -64 121q-16 28 -41 60l55 22q10 -22 32 -59q31 -58 63 -124q111 50 201.5 80t159.5 30q94 0 149.5 -48
t55.5 -126q0 -81 -52.5 -133t-162.5 -52q-73 0 -143 28l1 53q68 -32 141 -32q88 0 126.5 39.5t38.5 99.5q0 52 -39 87.5t-117 35.5q-63 0 -148.5 -28t-190.5 -76l45 -93q35 -79 66.5 -169t70.5 -208l9 -28l-57 -16q-32 115 -64 213z" />
    <glyph glyph-name="uni3083" unicode="&#x3083;" 
d="M424 587l36 30q70 -53 105 -92l-35 -31q-43 47 -106 93zM362 258l-16 35l-22 46q-79 -38 -109 -53l-56 -27l-27 55q29 6 59 18q14 5 75 33l38 17q-35 72 -49 93q-19 33 -35 49l53 21l21 -40q29 -52 54 -103q95 40 169.5 64.5t127.5 24.5q87 0 133 -42.5t46 -107.5
q0 -71 -47 -113t-140 -42q-32 0 -64.5 7.5t-56.5 17.5l3 48q58 -27 118 -27q74 0 106.5 32t32.5 78q0 41 -31 72t-100 31q-88 0 -277 -85q8 -18 13 -27q18 -38 25 -55q46 -104 107 -292l11 -32l-53 -16q-59 206 -109 320z" />
    <glyph glyph-name="uni3086" unicode="&#x3086;" 
d="M365 -19q95 51 143 146q-56 17 -100.5 57t-73.5 99l32 38q55 -119 160 -149q37 96 37 255q0 88 -8 166q-84 -12 -153.5 -59t-115.5 -114t-65 -138q-9 -39 -8 -68q4 -51 14 -90l-45 -8q-13 46 -22 112t-9 132q0 60 6.5 125.5t16.5 149.5l4 31q1 8 1 20t-1 18l58 -4
q-1 -7 -3.5 -16.5t-5.5 -22.5q-10 -54 -20 -142.5t-10 -151.5q0 -27 1 -38q24 81 77 147.5t124.5 108.5t151.5 52q-8 60 -14 85q-5 33 -15 54l55 3q11 -52 22 -137q90 0 156 -32t101 -89t35 -131q0 -80 -33 -143t-99 -99t-162 -36q-21 0 -40 3q-46 -104 -145 -163zM598 162
q113 0 178 60t65 165q0 96 -62.5 152t-175.5 57q9 -95 9 -168q0 -158 -37 -265z" />
    <glyph glyph-name="uni3085" unicode="&#x3085;" 
d="M395 -41q78 41 119 115q-45 15 -81.5 48.5t-60.5 81.5l29 38q46 -99 132 -124q31 84 31 206q0 65 -6 135q-71 -10 -128.5 -49t-95 -94t-52.5 -113q-8 -29 -7 -55q4 -42 13 -77l-46 -7q-10 40 -18 94.5t-8 106.5q0 69 9.5 150.5t10.5 94.5l3 20q1 7 1 18t-1 16l58 -5
l-9 -32q-10 -51 -19 -137t-6 -133q33 99 112.5 165.5t176.5 79.5q-4 32 -10 57q-6 28 -12 42l53 2q9 -43 16 -96q116 -1 179.5 -58.5t63.5 -153.5q0 -66 -26.5 -119.5t-82.5 -85t-139 -31.5q-16 0 -33 3q-42 -85 -120 -132zM601 108q89 0 141.5 49.5t52.5 134.5
q0 80 -49 124t-143 46q7 -62 7 -140q0 -128 -31 -213q7 -1 22 -1z" />
    <glyph glyph-name="uni3088" unicode="&#x3088;" 
d="M204 5q-60 35 -60 108q0 64 59.5 106t175.5 42q49 0 97 -9l-3 71l-3 81t-2 86v192q0 24 -2 50t-5 38h65q-3 -13 -5 -39.5t-2 -48.5v-115q182 2 300 19l2 -51q-67 -7 -153 -11.5t-149 -5.5q0 -96 9 -276q89 -23 169.5 -68.5t139.5 -98.5l-31 -50q-52 53 -124 96.5
t-151 67.5q1 -31 1 -81q0 -60 -42 -99t-122 -39q-104 0 -164 35zM480 125q0 16 -2 78q-45 11 -103 11q-86 0 -133 -27t-47 -73q0 -44 43 -69t124 -25q118 0 118 105z" />
    <glyph glyph-name="uni3087" unicode="&#x3087;" 
d="M253 -15.5q-50 31.5 -50 88.5t52.5 90t149.5 33q40 0 66 -5q0 15 -2 47q-1 27 -2 61t-1 72v168q0 19 -2 41t-4 30h60q-2 -9 -4 -30.5t-2 -40.5v-83q55 1 128.5 5.5t125.5 10.5l1 -47q-108 -11 -255 -15q0 -29 4 -161l3 -68q74 -18 140 -55.5t115 -82.5l-28 -46
q-42 43 -101 79t-123 55l1 -67q0 -47 -34.5 -79t-100.5 -32q-87 0 -137 31.5zM452 20q23 22 23 59l-2 67q-32 7 -72 7q-69 0 -110 -20t-41 -59q0 -33 35.5 -54.5t99.5 -21.5q44 0 67 22z" />
    <glyph glyph-name="uni3089" unicode="&#x3089;" 
d="M506.5 673.5q-125.5 25.5 -181.5 41.5l14 51q58 -19 182 -44t191 -32l-13 -51q-67 9 -192.5 34.5zM315 36q63 -7 124 -7q113 0 190 26.5t115 74t38 108.5q0 43 -24.5 76.5t-67.5 52t-97 18.5q-203 0 -321 -139q-16 -20 -25 -45l-52 13q14 62 30 191t19 199l58 -7
q-9 -55 -24 -170q-11 -93 -17 -128q142 133 334 133q69 0 123.5 -25t85.5 -70t31 -101q0 -120 -103 -189t-301 -69q-53 0 -101 4z" />
    <glyph glyph-name="uni308A" unicode="&#x308a;" 
d="M338 14q176 26 280 113.5t104 263.5q0 125 -43 204.5t-126 79.5q-60 0 -117.5 -49t-97 -121.5t-48.5 -138.5q-4 -28 -4 -60q0 -37 5 -70l-51 -4q-9 81 -9 151q0 62 10 153t21 167q4 28 8 74l60 -2q-17 -58 -30 -149.5t-19 -162.5q18 61 60 121t99.5 99.5t119.5 39.5
q63 0 111.5 -41t75.5 -115.5t27 -173.5q0 -190 -107.5 -291t-298.5 -135z" />
    <glyph glyph-name="uni308B" unicode="&#x308b;" 
d="M356.5 9.5q-48.5 36.5 -48.5 92.5q0 30 17 56.5t48.5 42.5t72.5 16q84 0 134.5 -50t62.5 -123q67 24 106 71t39 113q0 49 -30 89t-82.5 62.5t-116.5 22.5q-76 0 -138 -22.5t-118 -64.5t-127 -113l-39 38q132 116 269 232q117 102 147 129l83 73l-315 -15q-37 -2 -58 -5
l-2 56q20 -2 60 -2t167.5 5t162.5 9q30 3 41 7l36 -41q-34 -24 -48 -35q-36 -29 -172 -151q-19 -16 -93 -82q75 27 150 27q80 0 142.5 -28t97 -78.5t34.5 -113.5q0 -79 -44.5 -136.5t-122 -87.5t-174.5 -30q-93 0 -141.5 36.5zM595 31q-9 65 -48 103.5t-102 38.5
q-38 0 -63.5 -19.5t-25.5 -48.5q0 -40 38 -62t100 -22q55 0 101 10z" />
    <glyph glyph-name="uni308C" unicode="&#x308c;" 
d="M280 27q0 120 1 185t5 150q-33 -52 -161 -235l-21 -29l-35 45q44 55 116.5 155.5t105.5 152.5l7 111l-198 -27l-6 57q17 -1 53 1q79 5 155 18q5 87 5 103q0 42 -3 64l65 -3q-7 -31 -16 -130l-3 -24l33 -23q-17 -24 -40 -63q-2 -18 -4 -52l-2 -25q69 67 155 121.5
t154 54.5q62 0 95 -32.5t33 -91.5q0 -55 -19 -188q-1 -11 -10 -78.5t-9 -111.5q0 -31 14.5 -50t43.5 -19q80 0 160 87l10 -54q-40 -43 -85.5 -65t-91.5 -22t-74 28.5t-28 82.5q0 38 5 85t15 116q7 50 12.5 99t5.5 80q0 45 -21.5 65.5t-63.5 20.5q-60 0 -143 -55.5
t-162 -140.5q-4 -96 -4 -135v-82q0 -87 3 -144q2 -38 4 -52h-59q3 30 3 50z" />
    <glyph glyph-name="uni308D" unicode="&#x308d;" 
d="M339 30q50 -6 97 -6q100 0 178.5 25.5t123 74t44.5 115.5q0 51 -27.5 90.5t-77.5 61.5t-117 22q-86 0 -153 -26.5t-118.5 -68.5t-120.5 -112l-39 40q116 109 409 359q32 27 52 44t30 26q-68 -2 -157.5 -6t-149.5 -7q-10 0 -62 -6l-2 57q27 -3 62 -3q36 0 145 3.5t178 6.5
q25 2 45 8l36 -41q-6 -3 -18.5 -12t-18.5 -13q-132 -106 -285 -238q48 19 89.5 27t85.5 8q76 0 137 -27.5t95.5 -78t34.5 -116.5q0 -84 -52 -143.5t-143.5 -90t-210.5 -30.5q-36 0 -75 3z" />
    <glyph glyph-name="uni308F" unicode="&#x308f;" 
d="M280 27q0 120 1 185t5 150q-33 -52 -161 -235l-21 -29l-35 45q44 55 116.5 155.5t105.5 152.5l7 111l-198 -27l-6 57q17 -1 53 1q79 5 155 18q5 87 5 103q0 42 -3 64l65 -3q-7 -31 -16 -130l-3 -24l33 -23q-17 -24 -40 -63l-6 -85q80 70 163.5 103t160.5 33
q65 0 122.5 -29t93 -83.5t35.5 -126.5q1 -139 -94.5 -219.5t-257.5 -109.5l-22 49q138 20 230.5 88.5t92.5 190.5q0 42 -21.5 86.5t-68.5 75t-117 30.5q-85 0 -167.5 -40t-153.5 -109q-4 -98 -4 -134v-82q0 -87 3 -144q2 -38 4 -52h-59q3 30 3 50z" />
    <glyph glyph-name="uni308E" unicode="&#x308e;" 
d="M332 18v125q0 100 2 146q-104 -160 -146 -219l-32 42q33 40 92 123.5t89 130.5l8 82q-31 -4 -55 -9q-85 -14 -110 -17l-6 49l39 1q62 5 135 17q6 64 8 93q1 8 1 29q0 20 -1 24l60 -2q-6 -24 -22 -137l31 -17q-26 -39 -39 -61l-4 -53q63 56 130.5 84.5t126.5 28.5
q58 0 107.5 -24.5t78.5 -70t29 -104.5q0 -117 -77.5 -186t-218.5 -93l-21 46q122 17 195.5 75t73.5 159q0 35 -18.5 70.5t-57.5 59.5t-96 24q-65 0 -131.5 -33t-124.5 -88q-2 -50 -2 -72q0 -121 4 -222l3 -41h-54q3 24 3 40z" />
    <glyph glyph-name="uni3090" unicode="&#x3090;" 
d="M466.5 8q-43.5 33 -43.5 87q0 49 38.5 81t92.5 32q69 0 112.5 -39.5t65.5 -97.5q43 28 66 75.5t23 108.5q0 69 -29.5 125.5t-87 89.5t-138.5 33q-37 0 -70 -6l-61 -183q-31 -85 -64.5 -150t-65.5 -98q-21 -23 -44.5 -33.5t-55.5 -10.5q-41 0 -68.5 30.5t-27.5 86.5
q0 83 46.5 165t127 144.5t177.5 86.5q26 82 44 158l-60 -4q-169 -10 -221 -16l-3 58q19 -3 48 -3q34 1 95.5 3.5t118.5 5.5q33 3 50 11l39 -27q-14 -21 -18 -38l-42 -139l59 5q92 0 160 -39t104.5 -106t36.5 -149q0 -74 -30.5 -137.5t-95 -103t-161.5 -39.5q-74 0 -117.5 33
zM241.5 81.5q15.5 5.5 30.5 21.5q54 59 121 236l50 144q-82 -26 -148 -82.5t-102.5 -124.5t-36.5 -129q0 -34 15 -52.5t37 -18.5q18 0 33.5 5.5zM694 42q-17 58 -51.5 90.5t-86.5 32.5q-38 0 -62.5 -18t-24.5 -48q0 -37 31.5 -57.5t80.5 -20.5q64 0 113 21z" />
    <glyph glyph-name="uni3091" unicode="&#x3091;" 
d="M74 -1q66 72 152 150t152 126q-35 13 -52.5 35.5t-17.5 51.5q0 43 42.5 69.5t95.5 26.5q57 0 92.5 -24t35.5 -65q0 -20 -13.5 -38.5t-37.5 -32.5q64 1 114 18.5t78 47.5t28 68q0 58 -53.5 91t-130.5 33q-44 0 -93 -8t-86 -23q-77 -34 -202 -128l-34 39q72 51 203 130
t235 137q-256 -7 -325 -13l-3 51q34 -2 57 -2q49 1 156.5 3.5t138.5 4.5q39 1 62 9l34 -40q-30 -11 -104 -52t-144 -83q61 14 117 14q60 -1 110.5 -19.5t81.5 -55t31 -87.5q0 -57 -38.5 -98t-102.5 -62t-139 -21q-45 0 -81 6l-121 -93q16 3 30 3q52 0 88 -30.5t57 -83.5
q27 56 80 95t112 39q75 0 134.5 -54t99.5 -145l-52 -21q-33 87 -81 130.5t-105 43.5q-47 0 -90.5 -35.5t-64.5 -90.5q-5 -13 -8 -40h-53q-2 26 -7 40q-34 112 -127 112q-50 0 -99 -42t-105 -115zM505.5 330.5q21.5 18.5 21.5 38.5q0 25 -24 38.5t-60 13.5q-35 0 -62.5 -14.5
t-27.5 -42.5q0 -53 99 -64q32 12 53.5 30.5z" />
    <glyph glyph-name="uni3092" unicode="&#x3092;" 
d="M361 2.5q-66 30.5 -66 110.5q0 65 54 121.5t173 122.5q-3 35 -28.5 54t-65.5 19q-97 0 -179 -74q-18 -18 -64 -71l-25 -29l-45 34q161 160 230 318l-57 -1q-68 0 -158 5v52q76 -10 161 -10l73 1q24 69 29 127l54 -4q-17 -79 -31 -121q179 7 312 30l-1 -50
q-134 -23 -329 -28q-39 -98 -107 -181q31 21 72 33.5t79 12.5q51 0 86 -26t41 -72q45 22 136 61q23 10 72 32q35 14 65 31l21 -51q-30 -9 -69 -26q-111 -41 -222 -96l2 -195h-52q3 51 3 141v31q-94 -50 -136.5 -93.5t-42.5 -91.5q0 -61 51.5 -80t146.5 -19q55 0 126.5 6
t134.5 16l-2 -54q-58 -7 -129.5 -11.5t-132.5 -4.5q-114 0 -180 30.5z" />
    <glyph glyph-name="uni3093" unicode="&#x3093;" 
d="M95 -1q46 128 158.5 346t195.5 365l12.5 25t16.5 38l59 -24l-12 -18t-20 -31q-28 -46 -90 -158t-110 -201q75 75 162 75q48 0 80 -30.5t33 -84.5q1 -32 1 -99l2 -92q2 -40 26 -59.5t62 -19.5q58 0 102.5 38.5t73 94t42.5 110.5l43 -34q-42 -124 -106.5 -192.5
t-162.5 -68.5q-69 0 -98 35t-31 83q-2 30 -2 97q0 36 -2 98q-2 36 -23 56t-58 20q-60 0 -117.5 -49.5t-90.5 -113.5q-22 -41 -51 -114t-40 -111z" />
    <glyph glyph-name="uni30A2" unicode="&#x30a2;" 
d="M599 408q69 38 138.5 112.5t99.5 132.5h-597q-51 0 -109 -5v62q58 -7 109 -7h595q32 0 50 5l33 -33q-16 -19 -21 -26q-35 -61 -103 -141t-150 -136zM195 14q18 6 41 17t39 21q81 47 123 113.5t55.5 143t13.5 174.5q0 40 -3 62h59q0 -157 -20 -258.5t-80.5 -179
t-179.5 -133.5z" />
    <glyph glyph-name="uni30A1" unicode="&#x30a1;" 
d="M587 288q53 30 106.5 88.5t82.5 107.5l-504 1q-52 0 -88 -4v58q39 -6 88 -6h512q25 0 38 4l30 -28q-3 -4 -7 -9t-8 -12q-100 -161 -205 -231zM240 -29q36 11 61 28q70 47 106 103t47.5 115.5t11.5 136.5q0 28 -4 53h58q-1 -125 -18 -208t-66.5 -149t-146.5 -119z" />
    <glyph glyph-name="uni30A4" unicode="&#x30a4;" 
d="M523 70v407q-80 -46 -184.5 -90.5t-209.5 -76.5l-31 52q117 29 236.5 79.5t206.5 105.5q78 48 150 108t113 111l43 -40q-50 -52 -122.5 -111t-147.5 -106v-439q0 -65 5 -93h-64q5 27 5 93z" />
    <glyph glyph-name="uni30A3" unicode="&#x30a3;" 
d="M485 3v334q-164 -89 -333 -140l-29 50q88 20 180 58t163 79q75 43 147.5 100.5t110.5 103.5l41 -37q-36 -39 -98.5 -90t-129.5 -94v-364q0 -58 4 -74h-60q4 48 4 74z" />
    <glyph glyph-name="uni30A6" unicode="&#x30a6;" 
d="M323 24q32 5 81 20q86 26 168 85.5t129 134.5q39 64 65.5 153t32.5 158h-594v-197q0 -33 3 -51h-58q4 26 4 52v177q0 44 -4 72q35 -4 89 -4h226v103q0 33 -4 65h61q-4 -32 -4 -65v-103h253q43 0 60 7l35 -23q-3 -10 -12 -50q-10 -70 -35.5 -157t-65.5 -152
q-56 -94 -154 -165t-234 -109z" />
    <glyph glyph-name="uni30A5" unicode="&#x30a5;" 
d="M346 -19q39 6 78 19q86 31 148.5 73.5t105.5 113.5q31 53 51 120t24 122h-500v-156q0 -27 3 -42h-55q3 33 3 43v142q0 39 -3 64q40 -2 78 -2h189v81q0 27 -4 52h59q-4 -19 -4 -52v-81h215q25 0 49 3l34 -19q-4 -13 -10 -41q-8 -57 -27.5 -126.5t-49.5 -122.5
q-45 -79 -129.5 -141t-211.5 -95z" />
    <glyph glyph-name="uni30A8" unicode="&#x30a8;" 
d="M90 111q37 -4 82 -4h298v490h-243q-30 0 -78 -4v59q32 -5 78 -5h552q44 0 81 5v-59q-46 4 -81 4h-255v-490h310q26 0 76 4v-59q-26 3 -76 3h-662q-39 0 -82 -3v59z" />
    <glyph glyph-name="uni30A7" unicode="&#x30a7;" 
d="M160 61q29 -4 66 -4h246v394h-201q-33 0 -63 -3v55q28 -4 62 -4h463q30 0 66 4v-55q-29 3 -66 3h-209v-394h255q24 0 62 4v-56l-62 2h-553q-20 0 -66 -2v56z" />
    <glyph glyph-name="uni30AA" unicode="&#x30aa;" 
d="M417 -13l-4 55q71 -13 146 -13q22 0 30 9.5t8 30.5q0 199 -3 415q-65 -96 -192 -210t-263 -186l-37 43q99 49 192.5 120.5t166 147t113.5 139.5h-364q-39 0 -82 -3v57q40 -4 82 -4h382l-2 111q-2 43 -8 73h63q-5 -42 -5 -73l1 -111h177q45 0 75 5v-58q-57 3 -74 3h-176
q0 -28 1 -42q4 -298 4 -447q1 -34 -19.5 -51t-58.5 -17q-85 0 -153 6z" />
    <glyph glyph-name="uni30A9" unicode="&#x30a9;" 
d="M441 -45l-3 50q59 -10 127 -10q13 0 20.5 7.5t7.5 20.5q0 97 -4 331q-51 -78 -153 -168.5t-209 -146.5l-38 40q112 54 220.5 148.5t160.5 178.5h-298q-33 0 -66 -3v54q23 -3 65 -3h316l-1 47q0 38 -1 46q0 30 -6 58h59q-3 -19 -3 -58l1 -93h160q40 0 58 3v-54
q-42 3 -58 3h-159l3 -270q2 -102 2 -130q0 -27 -17.5 -42t-44.5 -15q-28 0 -139 6z" />
    <glyph glyph-name="uni30AB" unicode="&#x30ab;" 
d="M125 22q43 23 85 60q85 71 142 180t76 279h-189q-74 0 -106 -3v57q52 -5 105 -5h195q4 68 4 110q0 48 -5 78h61q-2 -17 -4 -77q-2 -52 -4 -80l-2 -31h267q30 0 56 4l40 -20q-5 -30 -5 -47q-7 -148 -20 -283.5t-42 -195.5q-14 -28 -36 -39.5t-59 -11.5q-69 0 -157 5l-7 55
q81 -10 154 -10q44 0 59 31q28 56 42 202.5t14 260.5h-312q-17 -147 -58 -251.5t-101.5 -176.5t-145.5 -130z" />
    <glyph glyph-name="uni30F5" unicode="&#x30f5;" 
d="M181 -15q22 10 71 46q149 116 178 374h-160q-59 0 -84 -2v54q42 -5 83 -5h164q4 40 4 94q0 33 -4 58h56l-3 -55l-5 -97h232q23 0 45 4l33 -19q-2 -13 -4 -39q-3 -98 -15 -222t-37 -173q-12 -22 -31 -33t-49 -11q-61 0 -137 6l-5 51q30 -5 68 -7.5t64 -2.5q36 0 48 26
q23 44 34 163t11 210h-262q-20 -172 -79 -276.5t-170 -180.5z" />
    <glyph glyph-name="uni30AC" unicode="&#x30ac;" 
d="M811 794l37 17q21 -28 46.5 -68t39.5 -68l-39 -18q-41 82 -84 137zM748.5 691q-23.5 40 -42.5 66l38 17q19 -27 43 -66t40 -71l-39 -18q-16 32 -39.5 72zM105 11q19 10 43 26.5t42 33.5q85 71 142 179.5t76 278.5h-189q-74 0 -106 -3v57q52 -5 105 -5h195q4 70 4 110
q0 49 -5 78h61q-1 -16 -4 -77q-2 -52 -4 -77l-2 -34h267q30 0 56 4l40 -20q-5 -30 -5 -46q-7 -148 -20 -284t-42 -195q-14 -29 -36 -40.5t-59 -11.5q-77 0 -157 6l-7 54q81 -10 154 -10q44 0 59 31q28 55 42 202.5t14 260.5h-312q-17 -147 -58 -251.5t-102 -176.5t-145 -129
z" />
    <glyph glyph-name="uni30AD" unicode="&#x30ad;" 
d="M521 53l-36 218q-227 -37 -276 -46q-44 -7 -82 -18l-12 61q45 2 79 8q62 7 282 43l-35 216q-72 -11 -132 -20.5t-101 -16.5l-75 -15l-12 61l78 7q78 9 233 33l-20 119q-5 34 -15 66l59 9q1 -25 7 -64l7 -42l13 -79q168 26 248 42q32 6 59 14l12 -57q-13 -1 -60 -9
q-103 -15 -189 -30l-62 -10l36 -216l272 47q56 10 80 18l12 -57q-25 -3 -82 -12l-273 -44l37 -217q12 -60 21 -89l-61 -10q-4 41 -12 90z" />
    <glyph glyph-name="uni30AE" unicode="&#x30ae;" 
d="M813 826l37 17q20 -27 45.5 -67t40.5 -69l-39 -18q-44 84 -84 137zM751.5 720q-23.5 40 -44.5 69l38 17q21 -30 44.5 -68.5t38.5 -68.5l-39 -19q-14 30 -37.5 70zM781 575l-60 -9l-250 -40l36 -216q135 22 272 47q58 11 80 18l11 -57q-20 -2 -82 -12l-273 -44
q32 -191 38 -217q8 -47 21 -89l-62 -11q-4 43 -12 90l-36 218q-188 -29 -276 -45q-56 -11 -81 -18l-13 61q46 2 80 8q59 7 282 43l-35 216l-108 -17l-126 -21q-40 -6 -74 -14l-13 61q36 2 79 7q48 5 232 33l-20 119q-7 43 -15 66l60 9q2 -28 7 -64q5 -38 20 -122
q184 31 247 43q25 4 60 14z" />
    <glyph glyph-name="uni30AF" unicode="&#x30af;" 
d="M265 15q94 36 183.5 100.5t162.5 148.5q58 68 101.5 159t66.5 176h-364q-102 -153 -239 -251l-47 34q108 73 185.5 170.5t113.5 180.5q5 11 11 30t8 34l66 -21q-5 -9 -29 -56l-28 -53l-12 -20h315q32 0 53 8l40 -26q-16 -29 -20 -44q-29 -94 -74 -187.5t-103 -162.5
q-73 -85 -156.5 -149t-188.5 -110z" />
    <glyph glyph-name="uni30B0" unicode="&#x30b0;" 
d="M824 809l38 17q21 -29 46.5 -69t38.5 -67l-39 -18q-41 82 -84 137zM761.5 706q-23.5 40 -42.5 66l38 17q20 -28 44 -67.5t39 -69.5l-39 -18q-16 32 -39.5 72zM786 560q-29 -93 -73.5 -187t-103.5 -164q-72 -84 -156 -148.5t-189 -110.5l-45 40q94 36 183.5 100.5
t162.5 148.5q58 68 101.5 158.5t67.5 176.5h-365q-102 -153 -239 -251l-47 34q109 73 186.5 170.5t112.5 179.5q5 11 11 30t9 35l65 -21q-16 -28 -36 -70l-20 -39l-12 -20h314q37 0 53 8l40 -26q-15 -28 -20 -44z" />
    <glyph glyph-name="uni30B1" unicode="&#x30b1;" 
d="M281 9q38 14 74 42q214 159 228 485h-282q-31 -59 -79.5 -121t-89.5 -95l-51 31q48 35 99 100t81 120q35 66 55 142q9 29 12 66l63 -12l-21 -63q-8 -27 -19 -58t-25 -60h496q54 0 88 5v-57q-56 2 -88 2h-186q-10 -212 -87 -346t-212 -220z" />
    <glyph glyph-name="uni30F6" unicode="&#x30f6;" 
d="M310 -36q13 4 36 17.5t36 24.5q170 132 183 387h-235q-28 -48 -68.5 -97.5t-72.5 -75.5l-49 28q42 30 82 79t70 98q36 61 52 127q8 30 10 52l59 -13q-3 -8 -8 -22.5t-8 -26.5q-25 -67 -41 -101h420q50 0 72 4v-54q-23 2 -72 2h-161q-10 -174 -74.5 -286t-177.5 -179z" />
    <glyph glyph-name="uni30B2" unicode="&#x30b2;" 
d="M821 799l37 17q21 -28 46.5 -68.5t39.5 -67.5l-39 -18q-41 82 -84 137zM759 694.5q-23 39.5 -43 67.5l38 17q18 -26 42 -65.5t41 -71.5l-39 -18q-16 31 -39 70.5zM264 -9q34 11 73 41q215 162 229 486h-282q-31 -58 -79 -120.5t-90 -96.5l-52 31q49 35 100 101t80 120
q33 61 56 141q8 31 11 67l64 -12q-19 -57 -21 -64q-3 -9 -15.5 -44.5t-29.5 -72.5h496q61 0 88 5v-58q-42 3 -88 3h-185q-11 -213 -87.5 -346.5t-211.5 -219.5z" />
    <glyph glyph-name="uni30B3" unicode="&#x30b3;" 
d="M778 19.5q1 17.5 1 37.5h-507q-35 0 -104 -3v60q50 -5 103 -5h508v506h-496q-39 0 -102 -3v59q50 -5 101 -5h485q45 0 67 1q-2 -42 -2 -68v-516q0 -25 1.5 -52t1.5 -32h-58q0 3 1 20.5z" />
    <glyph glyph-name="uni30B4" unicode="&#x30b4;" 
d="M810 829l39 17q17 -24 41.5 -63t41.5 -68l-40 -18q-47 88 -82 132zM731 738q-24 40 -42 65l38 16q17 -23 41.5 -62.5t40.5 -69.5l-39 -19q-15 30 -39 70zM817 639q-2 -44 -2 -69v-515q0 -27 1.5 -53.5t1.5 -31.5h-58q0 3 1 20.5t1 37.5h-507q-69 0 -104 -3v60
q53 -5 103 -5h508v506h-496q-39 0 -102 -3v60q46 -6 101 -6h486q24 0 66 2z" />
    <glyph glyph-name="uni30B5" unicode="&#x30b5;" 
d="M363 16q97 34 160 84t99 139.5t36 232.5v38h-321v-164q0 -24 1.5 -51t1.5 -31h-58q0 3 2 30t2 52v164h-113q-31 0 -57.5 -1.5t-37.5 -2.5v58q11 -2 40.5 -3.5t54.5 -1.5h113v141q0 21 -1.5 38t-2.5 24h58q0 -3 -1.5 -20.5t-1.5 -40.5v-142h321v133q0 29 -2 50.5t-2 24.5
h59q0 -3 -2 -24.5t-2 -50.5v-133h121q29 0 53 2t28 2v-56q-3 0 -27 1.5t-54 1.5h-121v-30q0 -142 -29 -236.5t-94.5 -159t-179.5 -112.5z" />
    <glyph glyph-name="uni30B6" unicode="&#x30b6;" 
d="M845 772l37 12q15 -27 33.5 -67.5t30.5 -71.5l-39 -13q-39 100 -62 140zM779.5 675.5q-17.5 41.5 -31.5 67.5l37 11q14 -27 32.5 -68.5t29.5 -71.5l-38 -13q-12 33 -29.5 74.5zM344 -3q97 34 160 84t99 139.5t36 232.5v38h-322v-164q0 -26 1.5 -49t2.5 -33h-59q1 10 3 35
t2 47v164h-114q-31 0 -57.5 -1.5t-37.5 -2.5v58q11 -1 40.5 -3t54.5 -2h114v141q0 21 -1.5 38t-2.5 24h58q-1 -7 -2.5 -24t-1.5 -37v-142h322v133q0 25 -2 46t-3 29h60q-1 -8 -3 -29t-2 -46v-133h122q29 0 52.5 2t27.5 2v-56q-3 0 -26.5 1.5t-53.5 1.5h-122v-30
q0 -143 -29 -237.5t-94.5 -158.5t-178.5 -112z" />
    <glyph glyph-name="uni30B7" unicode="&#x30b7;" 
d="M377.5 641q-67.5 46 -109.5 71l28 43q38 -21 107.5 -68t104.5 -73l-32 -44q-31 25 -98.5 71zM228.5 424q-68.5 43 -109.5 64l29 44q42 -23 114 -67.5t100 -64.5l-30 -46q-35 27 -103.5 70zM166 37q84 15 173 46t160 72q121 70 216 162.5t157 199.5l32 -52
q-64 -100 -162.5 -193t-215.5 -163q-71 -42 -161.5 -75t-168.5 -49z" />
    <glyph glyph-name="uni30B8" unicode="&#x30b8;" 
d="M845 690.5q-27 44.5 -49 73.5l39 17q19 -25 49 -72.5t48 -81.5l-40 -19q-20 38 -47 82.5zM364 634q-68 46 -108 69l29 43q38 -22 108.5 -69t102.5 -72l-31 -43q-33 26 -101 72zM718.5 640.5q-26.5 45.5 -48.5 75.5l39 18q20 -28 48.5 -75.5t45.5 -80.5l-41 -19
q-17 36 -43.5 81.5zM216.5 415q-68.5 43 -108.5 64l28 44q43 -23 114.5 -67.5t99.5 -64.5l-29 -46q-36 27 -104.5 70zM155 28q83 14 172 46t161 73q122 71 216.5 163t155.5 198l32 -51q-63 -100 -161.5 -193.5t-215.5 -162.5q-70 -42 -160 -74.5t-170 -50.5z" />
    <glyph glyph-name="uni30B9" unicode="&#x30b9;" 
d="M707.5 138q-79.5 85 -154.5 151q-194 -208 -398 -299l-41 43q114 45 220 125t193 178q53 60 104.5 146t71.5 151h-419q-24 0 -55.5 -1.5t-35.5 -1.5v60q12 -2 41.5 -4t49.5 -2h405q39 0 58 6l33 -26q-14 -21 -18 -33q-28 -73 -76 -157.5t-99 -146.5q77 -66 160 -152
t139 -154l-44 -38q-55 70 -134.5 155z" />
    <glyph glyph-name="uni30BA" unicode="&#x30ba;" 
d="M863 756.5q-23 37.5 -44 64.5l37 18q21 -29 46 -68.5t40 -67.5l-39 -19q-17 35 -40 72.5zM756 718.5q-24 40.5 -44 67.5l38 18q21 -30 44.5 -68.5t38.5 -68.5l-39 -19q-14 30 -38 70.5zM742 617q-28 -73 -76 -157.5t-99 -146.5q77 -66 160 -152t139 -154l-44 -38
q-55 70 -134.5 155t-154.5 151q-194 -208 -398 -299l-41 43q114 45 220 125t193 178q53 60 104.5 146t71.5 152h-419q-24 0 -55.5 -2t-35.5 -2v60q12 -2 41.5 -4t49.5 -2h405q39 0 58 6l33 -26q-14 -21 -18 -33z" />
    <glyph glyph-name="uni30BB" unicode="&#x30bb;" 
d="M394 8.5q-43 14.5 -59 42.5t-16 75v319l-241 -49l-11 56q63 7 252 45v187q0 45 -6 79h64q-6 -34 -6 -79v-177q137 26 251 49t170 36q25 4 42 14l38 -29q-8 -10 -21 -32q-48 -84 -97.5 -157.5t-105.5 -132.5l-47 28q55 51 108 126t82 132l-420 -85v-317q0 -37 13 -57.5
t46 -29t96 -8.5q91 0 162.5 6.5t147.5 20.5l-3 -57q-74 -10 -146.5 -15t-169.5 -5q-80 0 -123 14.5z" />
    <glyph glyph-name="uni30BC" unicode="&#x30bc;" 
d="M823 803l37 17q22 -29 47.5 -68.5t38.5 -67.5l-39 -18q-41 82 -84 137zM760.5 700q-23.5 40 -42.5 66l38 17q19 -27 43 -66t40 -71l-39 -18q-16 32 -39.5 72zM382 -8.5q-43 14.5 -59 43t-16 74.5v320q-143 -29 -242 -50l-11 56q61 8 253 45v188q0 44 -6 78h63
q-6 -42 -6 -78v-178q137 26 251 49t170 36q30 7 42 14l38 -29q-4 -5 -20 -32q-48 -84 -97.5 -157.5t-106.5 -132.5l-46 28q55 51 108.5 126.5t80.5 131.5l-420 -85v-317q0 -37 13 -57.5t46.5 -29t96.5 -8.5q89 0 161 6.5t148 21.5l-2 -57q-72 -11 -145.5 -16t-171.5 -5
q-79 0 -122 14.5z" />
    <glyph glyph-name="uni30BD" unicode="&#x30bd;" 
d="M280 24q147 66 248 175t156 227.5t79 233.5q8 40 8 60l63 -12q-11 -30 -16 -55q-109 -473 -489 -669zM226 548q-54 92 -85 137l49 25q28 -41 80 -129t86 -149l-50 -29q-26 53 -80 145z" />
    <glyph glyph-name="uni30BE" unicode="&#x30be;" 
d="M810 829l39 17q17 -24 41.5 -63t41.5 -68l-40 -18q-47 88 -82 132zM731 738q-24 40 -42 65l38 16q17 -23 41.5 -62.5t40.5 -69.5l-39 -19q-15 30 -39 70zM201 529q-53 91 -84 133l50 26q29 -43 82.5 -134t82.5 -145l-50 -28q-28 57 -81 148zM783 586
q-50 -191 -163.5 -355.5t-314.5 -269.5l-48 41q209 94 320 260.5t152 330.5q3 11 5.5 30t2.5 30l63 -12q-3 -7 -17 -55z" />
    <glyph glyph-name="uni30BF" unicode="&#x30bf;" 
d="M242 4q85 26 181.5 89.5t178.5 155.5q-87 68 -234 157l33 39q130 -76 236 -154q51 67 88 148t57 162h-367q-108 -160 -250 -262l-47 34q78 51 144 119.5t110.5 136t61.5 115.5q7 18 15 53l64 -21q-12 -19 -24 -45q-9 -18 -31 -58l-14 -25h318q33 0 52 8l42 -27
q-13 -21 -18 -39q-36 -110 -79.5 -199t-103.5 -159q-72 -86 -167 -157.5t-198 -112.5z" />
    <glyph glyph-name="uni30C0" unicode="&#x30c0;" 
d="M868 752.5q-23 37.5 -44 64.5l38 18q59 -84 85 -136l-39 -19q-17 35 -40 72.5zM763 712.5q-24 40.5 -44 67.5l38 17q20 -28 44 -67.5t39 -69.5l-39 -18q-14 30 -38 70.5zM802 567q-37 -111 -80.5 -200t-103.5 -158q-71 -86 -166.5 -157.5t-198.5 -112.5l-47 42
q85 26 181 89.5t178 155.5q-84 67 -233 157l33 39q131 -77 235 -154q52 67 89 148t57 162h-368q-105 -157 -250 -262l-47 34q78 51 144 119.5t110.5 136t61.5 115.5q5 13 15 53l65 -21q-6 -9 -33 -61l-26 -50l-10 -17h318q34 0 52 9l42 -28q-11 -16 -18 -39z" />
    <glyph glyph-name="uni30C1" unicode="&#x30c1;" 
d="M238 12q115 54 178.5 148t73.5 232h-288q-53 0 -86 -3v56q38 -4 85 -4h291v206q-137 -16 -291 -18l-13 50q13 -1 44 -1q60 0 135 5t140 14q64 8 137.5 25t110.5 32l36 -46q-16 -3 -25 -7q-11 -4 -19 -5l-28 -7q-106 -26 -175 -36v-212h266q42 0 72 3v-55q-28 3 -71 3
h-269q-9 -143 -69.5 -243.5t-184.5 -172.5z" />
    <glyph glyph-name="uni30C2" unicode="&#x30c2;" 
d="M210 -1q115 54 178.5 148t73.5 232h-288q-52 0 -87 -3v56q40 -4 86 -4h291v206q-137 -16 -291 -18l-13 50q13 -1 44 -1q60 0 135 5t140 14q64 8 138 25t110 32l36 -46q-16 -3 -25 -7q-11 -4 -19 -5l-28 -7q-106 -26 -175 -36v-212h266q42 0 73 3v-55q-30 3 -72 3h-269
q-9 -143 -69.5 -243.5t-184.5 -172.5zM811 646l36 18q49 -67 83 -131l-38 -19q-36 73 -81 132zM708 610l37 17q48 -67 80 -132l-38 -18q-36 76 -79 133z" />
    <glyph glyph-name="uni30C4" unicode="&#x30c4;" 
d="M446 594q-33 92 -49 125l48 17q16 -36 51 -129t46 -131l-51 -17q-12 43 -45 135zM269 21q110 32 213 103.5t178 166.5q61 79 104.5 188t58.5 220l60 -18q-8 -24 -13 -44q-55 -230 -166 -375q-75 -99 -179.5 -174t-212.5 -112zM173 529q-40 98 -57 129l51 19
q17 -39 54.5 -131t55.5 -140l-52 -18q-12 43 -52 141z" />
    <glyph glyph-name="uni30C3" unicode="&#x30c3;" 
d="M465.5 441q-27.5 76 -42.5 108l48 17q18 -44 43.5 -114.5t33.5 -99.5l-49 -18q-6 31 -33.5 107zM309 -20q91 28 176 83.5t145 130.5q55 67 93 156.5t51 185.5l55 -17q-4 -12 -6.5 -21t-4.5 -15q-45 -191 -144 -316q-65 -81 -149 -139.5t-173 -91.5zM236 393
q-32 81 -45 104l47 20q19 -44 48 -116t42 -108l-49 -19q-11 38 -43 119z" />
    <glyph glyph-name="uni30C5" unicode="&#x30c5;" 
d="M823 829l39 17q17 -23 41 -61t42 -70l-39 -18q-52 93 -83 132zM744 738.5q-24 39.5 -42 64.5l39 16q16 -24 39.5 -62t41.5 -70l-39 -18q-15 30 -39 69.5zM427 572q-33 92 -49 125l48 17q15 -34 50 -127t47 -133l-51 -17q-12 43 -45 135zM153 508q-40 98 -56 128l50 19
q17 -37 54.5 -128.5t56.5 -142.5l-52 -18q-13 44 -53 142zM250 -1q110 32 213 103.5t178 166.5q60 78 99.5 171.5t54.5 190.5l59 -16l-13 -44q-27 -95 -63 -175t-93 -156q-75 -99 -179.5 -174t-212.5 -112z" />
    <glyph glyph-name="uni30C6" unicode="&#x30c6;" 
d="M224 724q52 -4 81 -4h407q50 0 85 4v-56q-40 3 -85 3h-405q-48 0 -83 -3v56zM248 0q62 26 113 67.5t80 90.5q31 51 42 117t12 157h-302q-55 0 -82 -2v55q39 -3 82 -3h637q35 0 70 3v-55q-40 2 -70 2h-283q-2 -195 -55 -293q-29 -50 -81.5 -97.5t-113.5 -78.5z" />
    <glyph glyph-name="uni30C7" unicode="&#x30c7;" 
d="M850 826l38 17q21 -29 46.5 -69t38.5 -67l-39 -18q-41 82 -84 137zM788.5 721q-23.5 40 -43.5 68l38 17q19 -28 43 -67t40 -70l-39 -19q-15 31 -38.5 71zM214 721q54 -4 81 -4h355q50 0 86 4v-56q-41 3 -86 3h-353q-49 0 -83 -3v56zM239 -4q62 27 112.5 68.5t79.5 90.5
q31 51 42 117t12 157h-302q-54 0 -82 -2v55q52 -4 82 -4h637q24 0 70 4v-55q-40 2 -70 2h-282q-2 -92 -14.5 -165.5t-41.5 -127.5q-29 -49 -81.5 -97t-113.5 -80z" />
    <glyph glyph-name="uni30C8" unicode="&#x30c8;" 
d="M350 84v585q0 61 -6 95h65q-6 -56 -6 -95v-173q100 -30 223 -78.5t209 -90.5l-22 -54q-79 43 -200 91.5t-210 75.5l1 -356q0 -68 4 -107h-62q4 37 4 107z" />
    <glyph glyph-name="uni30C9" unicode="&#x30c9;" 
d="M766.5 663q-25.5 42 -48.5 72l38 18q20 -25 48.5 -69.5t45.5 -78.5l-40 -20q-18 36 -43.5 78zM318 72v585q0 52 -6 95h64q-6 -56 -6 -95v-173q98 -30 222 -78.5t211 -90.5l-23 -54q-79 43 -199.5 91t-210.5 75l1 -355q0 -72 5 -107h-63q5 35 5 107zM650 614
q-25 43 -47 74l39 17q20 -29 47.5 -73t43.5 -77l-41 -19q-17 35 -42 78z" />
    <glyph glyph-name="uni30CA" unicode="&#x30ca;" 
d="M230 11q144 69 206.5 180t63.5 285h-313q-55 0 -83 -2v56q56 -4 81 -4h316v140q0 23 -2.5 51.5t-5.5 38.5h66q-2 -16 -4 -43t-2 -47v-140h290q35 0 74 3v-55q-26 2 -75 2h-289q-1 -124 -27.5 -215t-86 -161.5t-158.5 -126.5z" />
    <glyph glyph-name="uni30CB" unicode="&#x30cb;" 
d="M183 635q58 -4 87 -4h437q38 0 92 4v-58q-54 2 -92 2h-436q-30 0 -88 -2v58zM96 136q62 -4 93 -4h613q45 0 80 4v-63q-35 4 -80 4h-613q-31 0 -93 -4v63z" />
    <glyph glyph-name="uni30CC" unicode="&#x30cc;" 
d="M148 11q105 31 205.5 96.5t176.5 149.5q-153 112 -281 179l33 39q123 -64 283 -179q56 71 98.5 160.5t62.5 175.5h-439q-40 0 -94 -2v57q45 -5 94 -5h431q27 0 44 7l37 -29q-13 -19 -22 -48q-24 -90 -71 -185.5t-98 -160.5q113 -84 202 -163l-38 -44q-89 84 -198 166
q-77 -88 -176 -154.5t-204 -105.5z" />
    <glyph glyph-name="uni30CD" unicode="&#x30cd;" 
d="M479 71v262q-152 -95 -356 -167l-31 50q126 38 223 85t181 101q67 43 131 97.5t95 90.5h-440q-59 0 -117 -4v58q35 -5 117 -5h200v65q0 60 -5 85h61q-5 -33 -5 -85v-65h195q39 0 52 5l32 -34l-44 -46q-35 -39 -92 -87.5t-119 -91.5q71 -32 170.5 -89t171.5 -105l-35 -44
q-70 50 -165 107t-169 89v-272q0 -23 5 -101h-61q5 50 5 101z" />
    <glyph glyph-name="uni30CE" unicode="&#x30ce;" 
d="M157 42q109 38 208.5 109t169.5 159q66 85 116 197.5t72 221.5l61 -17q-5 -11 -19 -52q-2 -7 -4 -12t-3 -10q-82 -234 -180 -361q-68 -88 -169 -162.5t-206 -119.5z" />
    <glyph glyph-name="uni30CF" unicode="&#x30cf;" 
d="M803 178q-33 94 -68 180q-34 85 -74 171.5t-71 137.5l51 18q31 -57 72 -144t73 -166q31 -74 66 -172t56 -166l-55 -18q-17 65 -50 159zM90 41q45 59 85 131t68 138q33 75 61.5 180t38.5 185l57 -11l-15 -57q-47 -210 -94 -320q-61 -145 -148 -269z" />
    <glyph glyph-name="uni30D0" unicode="&#x30d0;" 
d="M825 789l37 17q21 -27 46 -67.5t39 -68.5l-39 -18q-40 81 -83 137zM763.5 683q-23.5 40 -44.5 69l38 17q21 -30 44.5 -68.5t38.5 -68.5l-39 -19q-14 30 -37.5 70zM725 343q-36 86 -75.5 172t-69.5 137l51 18q30 -55 71 -142.5t73 -167.5q30 -73 65.5 -171t57.5 -168
l-55 -17q-31 121 -118 339zM79 26q45 59 85 130.5t68 137.5q33 74 61.5 179t39.5 187l57 -11q-8 -27 -16 -57q-48 -215 -93 -320q-61 -143 -148 -269z" />
    <glyph glyph-name="uni30D1" unicode="&#x30d1;" 
d="M766.5 608.5q-31.5 31.5 -31.5 75.5q0 45 31.5 77t75.5 32q45 0 77 -32t32 -77q0 -44 -32 -75.5t-77 -31.5q-44 0 -75.5 31.5zM893 634.5q21 20.5 21 49.5t-21 50.5t-51 21.5q-29 0 -49.5 -21.5t-20.5 -50.5t20.5 -49.5t49.5 -20.5q30 0 51 20.5zM725 343
q-36 86 -75.5 172t-69.5 137l51 18q30 -55 71 -142.5t73 -167.5q30 -73 65.5 -171t57.5 -168l-55 -17q-31 121 -118 339zM79 26q45 59 85 130.5t68 137.5q33 74 61.5 179t39.5 187l57 -11q-8 -27 -16 -57q-48 -215 -93 -320q-61 -143 -148 -269z" />
    <glyph glyph-name="uni30D2" unicode="&#x30d2;" 
d="M356 18q-56 10 -82.5 36.5t-26.5 82.5v554q0 44 -6 68h62q-4 -40 -4 -68v-247q94 22 214 60t201 73q54 26 76 41l25 -54q-60 -26 -83 -34q-81 -34 -204 -73t-229 -68v-240q0 -40 16 -56t57 -24q48 -9 141 -9q90 0 185 8t154 23v-61q-60 -9 -158 -14.5t-182 -5.5
q-109 0 -156 8z" />
    <glyph glyph-name="uni30D3" unicode="&#x30d3;" 
d="M790 787l37 18q21 -29 46 -68.5t40 -67.5l-39 -19q-41 80 -84 137zM728 682.5q-24 40.5 -44 67.5l38 17q20 -28 44 -67.5t39 -69.5l-39 -18q-14 30 -38 70.5zM317 0q-57 10 -83.5 36.5t-26.5 83.5v553q0 43 -5 68h62q-5 -33 -5 -68v-247q94 22 214 60t201 73q50 23 76 41
l25 -54l-31 -13q-9 -4 -21.5 -9.5t-29.5 -11.5q-82 -34 -205 -73t-229 -68v-240q0 -39 16.5 -55.5t56.5 -24.5q48 -9 142 -9q89 0 184.5 8t153.5 23v-60q-59 -9 -157 -15t-183 -6q-109 0 -155 8z" />
    <glyph glyph-name="uni30D4" unicode="&#x30d4;" 
d="M745 614.5q-31 31.5 -31 75.5q0 45 31 76.5t76 31.5q44 0 76 -31.5t32 -76.5q0 -44 -32 -75.5t-76 -31.5q-45 0 -76 31.5zM871 640.5q21 20.5 21 49.5t-21 50.5t-50 21.5t-50 -21.5t-21 -50.5t21 -49.5t50 -20.5t50 20.5zM317 0q-57 10 -83.5 36.5t-26.5 83.5v553
q0 43 -5 68h62q-5 -33 -5 -68v-247q94 22 214 60t201 73q54 26 75 40l26 -53l-31 -13q-9 -4 -21.5 -9.5t-29.5 -11.5q-82 -34 -205 -73t-229 -68v-240q0 -39 16.5 -55.5t56.5 -24.5q48 -9 142 -9q89 0 184.5 8t153.5 23v-60q-59 -9 -157 -15t-183 -6q-109 0 -155 8z" />
    <glyph glyph-name="uni30D5" unicode="&#x30d5;" 
d="M266 41q125 32 216.5 93t158.5 149q52 66 89.5 167t49.5 185h-538q-38 0 -88 -2v58q43 -5 89 -5h524q25 0 40 4l38 -26q-7 -16 -11 -39q-19 -97 -57 -201t-91 -171q-72 -91 -161.5 -155.5t-215.5 -106.5z" />
    <glyph glyph-name="uni30D6" unicode="&#x30d6;" 
d="M917 789q24 -38 42 -70l-39 -18q-52 93 -83 132l39 17q17 -23 41 -61zM797 675l39 -26q-5 -11 -11 -39q-19 -97 -57 -201t-91 -171q-72 -91 -161.5 -155.5t-215.5 -106.5l-43 50q126 32 217.5 93.5t157.5 148.5q52 66 89.5 167t49.5 185h-538q-38 0 -88 -2v58
q43 -5 89 -5h524q25 0 37 3q-14 30 -37.5 68.5t-42.5 65.5l38 17q17 -25 41.5 -64.5t40.5 -67.5z" />
    <glyph glyph-name="uni30D7" unicode="&#x30d7;" 
d="M257 26q126 32 217.5 93.5t157.5 148.5q52 66 89.5 167t49.5 185h-538q-38 0 -88 -2v58q43 -5 89 -5l543 -2q-8 19 -8 40q0 45 31.5 77t76.5 32q44 0 76 -32t32 -77q0 -44 -32 -75.5t-76 -31.5q-28 0 -52 16q-10 -87 -51.5 -199t-96.5 -181q-72 -91 -161.5 -155.5
t-215.5 -106.5zM927 659.5q21 20.5 21 49.5t-21 50.5t-50 21.5t-50 -21.5t-21 -50.5t21 -49.5t50 -20.5t50 20.5z" />
    <glyph glyph-name="uni30D8" unicode="&#x30d8;" 
d="M769.5 187q-68.5 68 -116.5 123l-51 59q-105 120 -134 149q-16 16 -26.5 23.5t-18.5 7.5q-9 0 -18.5 -8t-23.5 -25q-82 -97 -204 -235q-17 -18 -55 -64l-49 48q18 12 38.5 31.5t27.5 25.5q34 34 97 105.5t115 133.5q40 46 74 46q33 0 71 -42l60 -67l130 -143
q49 -55 116.5 -122.5t132.5 -122.5l-37 -46q-60 55 -128.5 123z" />
    <glyph glyph-name="uni30D9" unicode="&#x30d9;" 
d="M816.5 608.5q-27.5 45.5 -50.5 75.5l39 18q19 -26 49.5 -74t48.5 -82l-41 -20q-18 37 -45.5 82.5zM689.5 559.5q-27.5 46.5 -49.5 76.5l40 18q21 -31 50 -78t45 -80l-41 -19q-17 36 -44.5 82.5zM755.5 172.5q-68.5 68.5 -118.5 124.5l-51 59q-105 120 -134 149
q-17 17 -26.5 24t-17.5 7q-9 0 -18 -7.5t-25 -25.5q-82 -97 -204 -235q-26 -28 -55 -64l-49 48q23 15 66 57q60 60 213 239q40 46 73 46t71 -42l125 -137l65 -73q48 -53 116 -121t133 -124l-37 -46q-58 53 -126.5 121.5z" />
    <glyph glyph-name="uni30DA" unicode="&#x30da;" 
d="M685 499q-34 34 -34 82q0 49 34 83t83 34q48 0 82 -34t34 -83q0 -48 -34 -82t-82 -34q-49 0 -83 34zM823.5 526q23.5 23 23.5 55q0 33 -23.5 56t-55.5 23q-33 0 -56 -23t-23 -56q0 -32 23 -55t56 -23q32 0 55.5 23zM755.5 172.5q-68.5 68.5 -118.5 124.5l-51 59
q-105 120 -134 149q-17 17 -26.5 24t-17.5 7q-9 0 -18 -7.5t-25 -25.5q-82 -97 -204 -235q-26 -28 -55 -64l-49 48q23 15 66 57q60 60 213 239q40 46 73 46t71 -42l125 -137l65 -73q48 -53 116 -121t133 -124l-37 -46q-58 53 -126.5 121.5z" />
    <glyph glyph-name="uni30DB" unicode="&#x30db;" 
d="M337 -13l-5 53q62 -11 119 -11q39 0 40 39v469h-292q-40 0 -79 -3v57q45 -5 78 -5h293v118q0 14 -2 32t-5 30h62q-4 -28 -4 -62v-118h283q42 0 72 5v-56q-24 2 -71 2h-284v-486q0 -37 -17 -54t-58 -17q-69 0 -130 7zM98 136q49 44 106.5 123t85.5 139l45 -23
q-28 -59 -86 -139t-105 -131zM791.5 247.5q-50.5 79.5 -89.5 124.5l45 24q37 -44 87.5 -121t86.5 -140l-49 -27q-30 60 -80.5 139.5z" />
    <glyph glyph-name="uni30DC" unicode="&#x30dc;" 
d="M861 726.5q-23 37.5 -43 64.5l37 17q20 -26 45 -66t40 -69l-39 -18q-17 34 -40 71.5zM749.5 695q-23.5 39 -43.5 68l38 17q53 -76 82 -136l-39 -18q-14 30 -37.5 69zM312 -28l-4 54q66 -12 118 -12q40 0 40 40v468h-292q-40 0 -79 -3v57q36 -4 79 -4h292v118
q0 16 -1.5 33t-4.5 29h62q-5 -35 -5 -62v-118h283q40 0 72 4v-55q-24 1 -71 1h-284v-485q0 -38 -17 -54.5t-57 -16.5q-61 0 -131 6zM74 122q48 44 105.5 122.5t86.5 139.5l45 -23q-29 -60 -86.5 -139.5t-105.5 -130.5zM766.5 233.5q-50.5 79.5 -88.5 124.5l44 23
q38 -45 89 -122t85 -138l-48 -27q-31 60 -81.5 139.5z" />
    <glyph glyph-name="uni30DD" unicode="&#x30dd;" 
d="M737 641q-31 31 -31 75t31 75t75 31t75 -31t31 -75t-31 -75t-75 -31t-75 31zM861.5 667q20.5 20 20.5 49t-20.5 49.5t-49.5 20.5t-49 -20.5t-20 -49.5t20 -49t49 -20t49.5 20zM312 -28l-4 54q66 -12 118 -12q40 0 40 40v468h-292q-40 0 -79 -3v57q36 -4 79 -4h292v118
q0 16 -1.5 33t-4.5 29h62q-5 -35 -5 -62v-118h283q40 0 72 4v-55q-24 1 -71 1h-284v-485q0 -38 -17 -54.5t-57 -16.5q-61 0 -131 6zM74 122q48 44 105.5 122.5t86.5 139.5l45 -23q-29 -60 -86.5 -139.5t-105.5 -130.5zM766.5 233.5q-50.5 79.5 -88.5 124.5l44 23
q38 -45 89 -122t85 -138l-48 -27q-31 60 -81.5 139.5z" />
    <glyph glyph-name="uni30DE" unicode="&#x30de;" 
d="M477 164q-46 43 -123 105t-117 87l41 34q29 -19 90.5 -66.5t110.5 -89.5q110 88 208 197.5t141 182.5h-615q-30 0 -58.5 -2t-35.5 -2v60q56 -6 94 -6h619q30 0 47 5l36 -33q-10 -10 -20 -24q-60 -93 -160 -205.5t-217 -207.5q140 -132 187 -187l-46 -39q-49 65 -182 191z
" />
    <glyph glyph-name="uni30DF" unicode="&#x30df;" 
d="M534.5 644.5q-156.5 35.5 -264.5 49.5l19 48q104 -14 263 -49t249 -66l-21 -50q-89 32 -245.5 67.5zM483.5 381q-148.5 35 -260.5 51l20 49q123 -21 266 -54t228 -65l-22 -49q-83 33 -231.5 68zM482 73q-175 44 -315 66l20 49q135 -22 310.5 -66.5t271.5 -84.5l-22 -49
q-90 41 -265 85z" />
    <glyph glyph-name="uni30E0" unicode="&#x30e0;" 
d="M808 110q-122 -16 -332 -39.5t-308 -31.5l-77 -10l-10 61q37 -1 84 2l62 5q35 82 101 282t92 290q13 48 18 86l66 -14q-3 -6 -12 -27.5t-19 -54.5q-26 -87 -90 -282.5t-96 -274.5q120 10 269 27t229 29q-77 146 -133 218l48 23q53 -75 123 -202t99 -200l-54 -25
q-21 59 -60 138z" />
    <glyph glyph-name="uni30E1" unicode="&#x30e1;" 
d="M122 21q207 106 391 335q-193 146 -285 200l33 41q53 -33 136.5 -91.5t147.5 -106.5q53 70 97.5 145t69.5 139q13 29 21 62l60 -22q-7 -12 -16.5 -33t-13.5 -28q-75 -165 -175 -296q121 -94 263 -232l-41 -45q-54 57 -121.5 119.5t-133.5 114.5q-85 -105 -179.5 -193
t-207.5 -150z" />
    <glyph glyph-name="uni30E2" unicode="&#x30e2;" 
d="M461.5 28q-43.5 31 -43.5 87v245h-212q-33 0 -85 -4v57q52 -4 85 -4h212v235h-145q-36 0 -86 -2v54q50 -4 86 -4h471q50 0 79 4v-54q-46 2 -79 2h-273v-235h357q44 0 75 3v-54q-42 2 -74 2h-358v-228q0 -39 32 -61.5t102 -22.5q153 0 265 14l-2 -54q-134 -11 -268 -11
q-95 0 -138.5 31z" />
    <glyph glyph-name="uni30E4" unicode="&#x30e4;" 
d="M472 45q-79 291 -125 455q-225 -44 -258 -53l-17 56q36 3 93 12l169 31q-18 66 -42 150q-15 49 -26 67l61 15q1 -13 10 -47q1 -5 5 -22l15 -53q26 -92 28 -100q410 77 446 86q23 4 35 11l36 -25q-35 -71 -113 -171.5t-141 -158.5l-48 30q58 46 124.5 126.5t100.5 139.5
q-98 -17 -427 -84q102 -370 127 -451q4 -16 11.5 -38.5t10.5 -30.5l-59 -15q-10 51 -16 70z" />
    <glyph glyph-name="uni30E3" unicode="&#x30e3;" 
d="M493 -20q-22 74 -99 361l-219 -44l-16 52q28 2 80 11l142 26q-28 101 -36 126q-10 36 -21 54l57 14l13 -57l35 -127q327 61 370 71q20 4 31 11l34 -24q-30 -61 -95.5 -146.5t-118.5 -134.5l-47 26q50 42 103 105t82 114l-126 -25q-58 -11 -113.5 -21.5t-106.5 -20.5
q85 -311 101 -359q12 -41 19 -60l-56 -16q-3 34 -13 64z" />
    <glyph glyph-name="uni30E6" unicode="&#x30e6;" 
d="M84 129q47 -5 81 -5h472q16 86 41 256.5t26 221.5h-421q-43 0 -85 -3v59q47 -5 84 -5h400q26 0 44 6l45 -20q-5 -10 -7 -26q-7 -63 -30.5 -223.5t-40.5 -265.5h152q21 0 44.5 2t32.5 3v-60q-35 4 -77 4h-680q-23 0 -81 -4v60z" />
    <glyph glyph-name="uni30E5" unicode="&#x30e5;" 
d="M153 78q46 -4 74 -4h385q13 74 31 201t19 166h-344q-19 0 -49 -2l-20 -1v57q37 -5 68 -5h331q27 0 35 5l41 -20q-5 -17 -5 -24q-6 -57 -24.5 -186t-29.5 -191h119q41 0 69 3v-54q-34 2 -66 2h-560q-24 0 -74 -2v55z" />
    <glyph glyph-name="uni30E8" unicode="&#x30e8;" 
d="M766 33h-508q-42 0 -99 -3v58q38 -4 98 -4h509v257h-470q-53 0 -97 -2v56q50 -5 95 -5h472v244h-482q-25 0 -57 -1t-53 -2v56q21 -2 53 -3t57 -1h474q31 0 61 2q-1 -12 -1 -48v-603l2 -52h-55q1 11 1 51z" />
    <glyph glyph-name="uni30E7" unicode="&#x30e7;" 
d="M712 -4h-415l-54 -1q-11 -1 -27 -1v55q32 -4 80 -4h416v204h-385q-43 0 -79 -2v53q6 0 29.5 -2t48.5 -2h386v193h-393l-90 -2v53q17 -2 43 -3t47 -1h390q30 0 54 2q-1 -9 -1 -41v-497l2 -46h-53q1 9 1 42z" />
    <glyph glyph-name="uni30E9" unicode="&#x30e9;" 
d="M236 732q31 -5 81 -5h399q53 0 80 5v-56q-22 2 -81 2h-398q-31 0 -81 -2v56zM310 16q104 21 196.5 68.5t158.5 118.5q46 49 79.5 116.5t48.5 133.5h-559q-43 0 -86 -4v58q53 -5 86 -5h546q33 0 44 6l39 -24q-9 -15 -10 -23q-20 -81 -56 -156t-89 -132q-75 -81 -163 -128
t-195 -76z" />
    <glyph glyph-name="uni30EA" unicode="&#x30ea;" 
d="M387 14q72 21 131 53t102 83q36 43 54 90.5t24 112.5t6 176v141q0 34 -4 78h60q-3 -33 -3 -78v-142q0 -126 -9.5 -200t-30 -120t-58.5 -93q-42 -54 -103 -88.5t-132 -58.5zM240 341v331q0 37 -4 69h60q-3 -24 -3 -69v-332q0 -47 3 -70h-60q4 28 4 71z" />
    <glyph glyph-name="uni30EB" unicode="&#x30eb;" 
d="M536 20q6 28 6 47v598q0 23 -4 67h60q-3 -16 -3 -67v-598q83 39 172 110t145 156l31 -44q-63 -86 -155 -159t-187 -120q-16 -8 -30 -19zM84 22q61 44 105 107t68 140q20 62 25 165t5 232q0 39 -5 61h60q-1 -8 -2.5 -26.5t-1.5 -34.5q0 -302 -31 -412q-22 -77 -68.5 -147
t-108.5 -120z" />
    <glyph glyph-name="uni30EC" unicode="&#x30ec;" 
d="M238 27q7 19 7 40v589q0 19 -2 43t-4 35h65q-3 -16 -4.5 -37t-1.5 -41v-594q105 25 213 76t201 121t152 149l30 -44q-95 -121 -245.5 -212t-342.5 -143q-21 -7 -32 -12z" />
    <glyph glyph-name="uni30ED" unicode="&#x30ed;" 
d="M158 43l1 67v495q0 44 -1 66q38 -2 80 -2h528q55 0 82 2q-2 -21 -2 -66v-495q0 -80 2 -110h-56l1 58h-582l2 -58h-56q0 24 1 43zM793 108v511h-582v-511h582z" />
    <glyph glyph-name="uni30EF" unicode="&#x30ef;" 
d="M323 20q118 32 215 99t159 163q42 65 65.5 157.5t31.5 196.5h-593v-220q0 -11 2 -53h-58q3 21 3 53v215q0 30 -3 58q36 -3 97 -3h534q30 0 45 5l40 -26q-3 -5 -6 -16t-4 -18q-18 -130 -39.5 -216.5t-67.5 -158.5q-60 -96 -159 -169t-219 -110z" />
    <glyph glyph-name="uni30EE" unicode="&#x30ee;" 
d="M347 -24q91 23 168 73t131 122q40 53 64.5 128t34.5 178h-494v-172l1 -46h-55q3 26 3 46v172q0 12 -1 27t-2 23q20 -2 83 -2h455q26 0 38 4l36 -24q-3 -6 -5.5 -14t-3.5 -15q-13 -102 -37 -184.5t-67 -141.5q-113 -154 -306 -217z" />
    <glyph glyph-name="uni30F0" unicode="&#x30f0;" 
d="M636 69v119h-459q-53 0 -82 -3v57q35 -5 82 -5h137v314h-100q-25 0 -83 -2v55q37 -4 83 -4h422v90q0 30 -4 66h58q-3 -40 -3 -66v-90h123q44 0 77 4v-55q-26 2 -77 2h-123v-314h149q13 0 30.5 1t26.5 2l20 2v-57q-26 3 -77 3h-149v-117q0 -49 4 -95h-59q4 46 4 93z
M636 237v314h-272v-314h272z" />
    <glyph glyph-name="uni30F1" unicode="&#x30f1;" 
d="M602 404q60 39 116 99t89 117h-564q-33 0 -100 -3v58q50 -5 98 -5h562q27 0 49 6l36 -26q-17 -22 -22 -29q-36 -62 -95 -131t-122 -119zM87 107q36 -5 84 -5h286v374q0 28 -3 59h59q-3 -31 -3 -60v-373h333q21 0 45 2t34 3v-60q-26 3 -79 3h-672q-39 0 -84 -3v60z" />
    <glyph glyph-name="uni30F2" unicode="&#x30f2;" 
d="M288 15q261 61 405 273q27 41 49 107h-459q-23 0 -59 -2l-27 -1v56q43 -5 85 -5h476q28 93 41 206h-531q-55 0 -97 -4v60q67 -7 97 -7h510q26 0 44 5l43 -28q-1 -3 -4.5 -11.5t-5.5 -19.5q-46 -271 -115 -377q-73 -109 -171.5 -181t-237.5 -118z" />
    <glyph glyph-name="uni30F3" unicode="&#x30f3;" 
d="M308.5 569q-75.5 61 -128.5 94l34 39q49 -31 131 -95t120 -100l-39 -40q-42 41 -117.5 102zM156 44q127 20 226 61t183 95q104 67 188.5 165t127.5 191l32 -54q-54 -97 -134.5 -188.5t-182.5 -157.5q-88 -57 -184.5 -99t-221.5 -66z" />
    <glyph glyph-name="uni30F4" unicode="&#x30f4;" 
d="M811 819l37 18q21 -29 46 -68.5t40 -67.5l-39 -19q-44 86 -84 137zM743 724.5q-24 40.5 -44 67.5l38 17q20 -28 44 -67.5t39 -69.5l-39 -18q-14 30 -38 70.5zM301 12q35 5 82 21q86 26 168 85.5t129 134.5q39 64 65.5 153t32.5 158h-595v-198q0 -34 4 -51h-58q3 20 3 53
v177q0 51 -3 71q52 -4 89 -4h225v103q0 33 -4 65h62q-5 -40 -5 -65v-103h253q37 0 60 7l36 -23q-7 -16 -12 -49q-11 -72 -36.5 -158.5t-64.5 -151.5q-55 -94 -153.5 -164.5t-234.5 -108.5z" />
    <glyph glyph-name="uni310C" unicode="&#x310c;" 
d="M144 -5q143 73 225 188t125 287h-165q-75 0 -90 -10q-3 11 -17 51q9 2 19 14.5t25 36.5q19 33 50 99t51 130l51 -19q-25 -69 -57 -136t-66 -119h209q24 111 41 294l49 -4q-16 -169 -41 -290h259l-3 -28q-24 -252 -48 -365t-59 -147q-17 -18 -37 -23.5t-60 -5.5
q-58 0 -115 4q-1 11 -5 25.5t-10 23.5q71 -7 140 -7q18 0 27.5 2.5t17.5 11.5q31 27 54.5 133.5t43.5 328.5h-215q-44 -184 -129 -307.5t-233 -206.5q-10 15 -37 39z" />
    <glyph glyph-name="uni3107" unicode="&#x3107;" 
d="M188 689h648v-691h-51v643h-548v-643h-49v691z" />
    <glyph glyph-name="uni310B" unicode="&#x310b;" 
d="M376 30q74 -8 152 -8q21 0 32.5 2t21.5 10q44 35 84.5 132t78.5 272h-350q93 105 222 286h-412v45h500q-108 -149 -218 -286h317l-5 -25q-44 -204 -86.5 -310t-93.5 -147q-21 -16 -40.5 -20.5t-57.5 -4.5q-54 0 -129 6q-4 27 -16 48z" />
    <glyph glyph-name="uni311B" unicode="&#x311b;" 
d="M344.5 50q-56.5 31 -78.5 77q-33 60 -33 124q0 65 33 121t89 91t120 39v193h-331v50h717v-50h-336v-242q-73 1 -128 -30.5t-84.5 -81t-29.5 -101.5q0 -42 20 -77q28 -47 70 -70t90 -23q21 0 32 2q67 11 121.5 57t69.5 108l43 -15q-42 -106 -112 -154.5t-149 -48.5
q-67 0 -123.5 31z" />
    <glyph glyph-name="uni3121" unicode="&#x3121;" 
d="M191 2q-10 13 -18 20q101 40 191 114t159 178q-136 161 -257 279l36 32q126 -123 251 -268q89 148 129 345h-447v48h464l9 3l33 -13q-41 -238 -152 -421q146 -172 216 -287l-39 -40q-73 120 -208 283q-137 -202 -352 -296q-5 10 -15 23z" />
    <glyph glyph-name="uni3106" unicode="&#x3106;" 
d="M181.5 -7.5q-7.5 12.5 -14.5 19.5q231 52 378 185q-123 93 -249 173l31 35q140 -88 255 -173q108 114 156 269h-347q-68 0 -83 -10v1q-3 16 -17 52q10 1 20.5 13t27.5 36q22 32 58 98t59 129l52 -19q-68 -151 -141 -253h390l10 3l32 -14q-51 -199 -179 -334
q139 -105 220 -189l-34 -43q-84 88 -222 196q-151 -140 -391 -198q-4 11 -11.5 23.5z" />
    <glyph glyph-name="uni3111" unicode="&#x3111;" 
d="M503.5 173.5q-122.5 123.5 -248.5 229.5q102 89 215 201.5t178 186.5l47 -25q-108 -121 -376 -363q116 -98 235.5 -213.5t176.5 -188.5l-45 -32q-60 81 -182.5 204.5z" />
    <glyph glyph-name="uni3116" unicode="&#x3116;" 
d="M219 765h563v-740h-563v740zM732 74v642h-464v-642h464zM500.5 377q-56.5 78 -111.5 144l40 23q59 -69 116 -144.5t86 -124.5l-42 -29q-32 53 -88.5 131z" />
    <glyph glyph-name="uni3119" unicode="&#x3119;" 
d="M742 81l-14 37q-204 -32 -331 -52t-164 -28t-52 -16q-3 11 -9 27t-12 26q15 5 35 37.5t51 94.5q39 73 110 245t117 332l53 -17q-61 -188 -133.5 -365t-146.5 -309l464 69q-34 81 -83 179l46 16q45 -88 86 -183.5t62 -161.5l-48 -18q-9 30 -31 87z" />
    <glyph glyph-name="uni3115" unicode="&#x3115;" 
d="M150.5 -48q-12.5 9 -21.5 13q75 73 100.5 167t25.5 206v211h521v187h-524v47h573v-281h-521v-165q0 -122 -27 -223t-107 -178q-7 7 -19.5 16z" />
    <glyph glyph-name="uni310A" unicode="&#x310a;" 
d="M731 74q-178 -25 -290 -41.5t-145 -23t-46 -13.5q-11 33 -20 51q14 5 32 40t46 103q17 35 47 116.5t61 178.5h-252v49h267q41 130 72 265l52 -13q-26 -106 -69 -252h374v-49h-389q-79 -245 -162 -421l403 54q-45 87 -73 133l45 14q42 -71 80.5 -145t57.5 -126l-48 -19
q-16 45 -43 99z" />
    <glyph glyph-name="uni3128" unicode="&#x3128;" 
d="M179.5 6.5q-11.5 13.5 -19.5 19.5q197 135 352 351q-151 169 -302 307l37 31q148 -136 295 -295q114 169 201 379l48 -16q-91 -221 -215 -401q173 -191 261 -325l-43 -37q-88 139 -249 318q-154 -213 -348 -354q-6 9 -17.5 22.5z" />
    <glyph glyph-name="uni4E00" unicode="&#x4e00;" 
d="M68 405h868v-42h-868v42z" />
    <glyph glyph-name="uni4E01" unicode="&#x4e01;" 
d="M277 -13h196v721h-396v43h849v-43h-392v-764h-257v43z" />
    <glyph glyph-name="uni4E03" unicode="&#x4e03;" 
d="M384 415l-309 -43l-6 43l315 43v332h61v-323l482 66l6 -43l-488 -67v-449h491v-42h-552v483z" />
    <glyph glyph-name="uni4E07" unicode="&#x4e07;" 
d="M84 -37l205 351v396h-205v43h835v-43h-569v-244h457v-512h-282v42h222v427h-397v-123l-212 -363z" />
    <glyph glyph-name="uni4E08" unicode="&#x4e08;" 
d="M70 -8l350 269l-262 173l32 50l280 -185l152 116v174h-554v43h554v180h60v-180h254v-43h-254v-201l-160 -123l411 -271l-32 -50l-428 283l-367 -282z" />
    <glyph glyph-name="uni4E09" unicode="&#x4e09;" 
d="M100 742h802v-42h-802v42zM176 396h651v-44h-651v44zM68 44h868v-42h-868v42z" />
    <glyph glyph-name="uni4E0A" unicode="&#x4e0a;" 
d="M68 17h367v795h60v-316h373v-43h-373v-436h441v-43h-868v43z" />
    <glyph glyph-name="uni4E0B" unicode="&#x4e0b;" 
d="M444 735h-370v42h868v-42h-437v-791h-61v791zM574 460l33 44l305 -224l-34 -44z" />
    <glyph glyph-name="uni4E0C" unicode="&#x4e0c;" 
d="M86 -20l180 296v447h-198v43h868v-43h-192v-771h-61v771h-356l-2 -464l-188 -308z" />
    <glyph glyph-name="uni4E0D" unicode="&#x4e0d;" 
d="M77 243l444 497h-446v42h868v-42h-350l-475 -534zM478 596h62v-652h-62v652zM584 558l42 37l313 -352l-41 -36z" />
    <glyph glyph-name="uni4E0E" unicode="&#x4e0e;" 
d="M490 -8h309v383h-603v437h62v-147h648v-43h-648v-205h601l1 -467h-370v42zM68 204h599v-42h-599v42z" />
    <glyph glyph-name="uni4E10" unicode="&#x4e10;" 
d="M471 0h352v283h-668v303h60l1 -261h252v409h-393v42h854v-42h-400v-192h352v-42h-352v-175h354v-368h-412v43z" />
    <glyph glyph-name="uni4E11" unicode="&#x4e11;" 
d="M68 -2h213l27 367h-174v43h177l23 318h-213v43h712l-43 -771h146v-43h-868v43zM752 408l18 318h-376l-23 -318h381zM729 -2l21 367h-381l-27 -367h387z" />
    <glyph glyph-name="uni4E13" unicode="&#x4e13;" 
d="M252 99l16 49l260 -83l190 213h-470l67 167h-226v42h242l66 162h-262v43h278l51 125l53 -21l-42 -104h396v-43h-412l-66 -162h522v-42h-539l-49 -124h497l-239 -274l167 -54l-15 -50z" />
    <glyph glyph-name="uni4E14" unicode="&#x4e14;" 
d="M68 10h155v766h558v-766h155v-42h-868v42zM720 10v723h-436v-222h409v-42h-409v-211h409v-43h-409v-205h436z" />
    <glyph glyph-name="uni4E15" unicode="&#x4e15;" 
d="M69 264l445 482h-446v42h868v-42h-347l-478 -518zM471 606h62v-521h-62v521zM577 568l42 37l313 -339l-42 -38zM68 18h868v-42h-868v42z" />
    <glyph glyph-name="uni4E16" unicode="&#x4e16;" 
d="M191 522h-123v43h123v206h60v-206h197v247h61v-247h237v247h61v-247h129v-43h-129v-344h-359v344h-197v-510h667v-43h-727v553zM746 221v301h-237v-301h237z" />
    <glyph glyph-name="uni4E18" unicode="&#x4e18;" 
d="M68 17h118v751l666 37l3 -43l-608 -33v-268h637v-42h-164v-402h216v-43h-868v43zM659 17v402h-412v-402h412z" />
    <glyph glyph-name="uni4E19" unicode="&#x4e19;" 
d="M124 583h354v165h-390v43h842v-43h-390v-165h354v-639h-218v43h158v553h-294v-152l229 -222l-37 -41l-223 214l-223 -214l-37 41l229 221v153h-293v-596h-61v639z" />
    <glyph glyph-name="uni4E1A" unicode="&#x4e1a;" 
d="M68 8h272v806h60v-806h192v806h60v-806h284v-43h-868v43zM92 611l53 13l127 -399l-53 -14zM725 225l127 399l53 -13l-127 -400z" />
    <glyph glyph-name="uni4E1B" unicode="&#x4e1b;" 
d="M137 70l-59 16l220 724l59 -16l-94 -309l48 17l182 -415l-56 -20l-178 404zM570 70l-59 16l220 724l59 -16l-94 -308l48 16l182 -415l-57 -20l-178 403zM936 11v-43h-868v43h868z" />
    <glyph glyph-name="uni4E1C" unicode="&#x4e1c;" 
d="M348 -13h150v356h-361l133 279h-181v43h200l73 154l54 -23l-63 -131h562v-43h-581l-113 -236h277v130h61v-130h316v-43h-316v-399h-211v43zM87 -4l165 272l49 -26l-165 -271zM704 242l49 26l166 -272l-49 -25z" />
    <glyph glyph-name="uni4E1D" unicode="&#x4e1d;" 
d="M333 419h-220l241 397l48 -29l-197 -325h224l-225 -321h263v-44h-359zM767 419h-218l241 397l48 -29l-197 -325h222l-223 -321h263v-44h-360zM68 12h868v-43h-868v43z" />
    <glyph glyph-name="uni4E1E" unicode="&#x4e1e;" 
d="M690 739h-546v43h694l-258 -199l109 -139l168 152l37 -42l-170 -154l210 -264l-42 -35l-357 448l-3 -3v-465h-239v43h179v450zM69 128l240 382h-234v42h323l-280 -451zM936 10v-43h-867v43h867z" />
    <glyph glyph-name="uni4E22" unicode="&#x4e22;" 
d="M332 302h-264v43h403v170h-351v43h351v187l-358 -15l-2 42l786 33l1 -42l-365 -16v-189h351v-43h-351v-170h403v-43h-533l-201 -309h599l-125 193l52 32l172 -267h-795z" />
    <glyph glyph-name="uni4E24" unicode="&#x4e24;" 
d="M120 587h205v149h-257v42h868v-42h-256v-149h205v-643h-240v43h178v558h-143v-123l114 -263l-46 -18l-97 208l-96 -208l-47 18l114 263v123h-240v-123l114 -264l-46 -17l-97 208l-96 -208l-47 17l115 264v123h-145v-601h-60v643zM622 587v149h-240v-149h240z" />
    <glyph glyph-name="uni4E25" unicode="&#x4e25;" 
d="M68 -38l63 183v283h236v316h-243v42h788v-42h-242v-316h264v-43h-743v-248l-66 -192zM609 428v316h-182v-316h182zM144 664l53 19l91 -182l-54 -19zM748 501l91 182l53 -19l-91 -182z" />
    <glyph glyph-name="uni4E27" unicode="&#x4e27;" 
d="M217 338h-149v42h403v290h-367v44h367v100h60v-100h370v-44h-370v-290h407v-42h-348l154 -150l146 102l28 -45l-137 -97l156 -153l-41 -40l-388 383h-230v-345h208v-43h-269v388zM171 592l45 31l119 -176l-46 -31zM668 447l119 176l46 -31l-118 -176z" />
    <glyph glyph-name="uni4E28" unicode="&#x4e28;" 
d="M471 812h61v-868h-61v868z" />
    <glyph glyph-name="uni4E2A" unicode="&#x4e2a;" 
d="M68 478l434 334l434 -334l-32 -43l-402 310l-401 -310zM472 507h60v-563h-60v563z" />
    <glyph glyph-name="uni4E2B" unicode="&#x4e2b;" 
d="M119 766l39 44l289 -254l-38 -44zM470 482l372 328l39 -44l-350 -307v-515h-61v538z" />
    <glyph glyph-name="uni4E2C" unicode="&#x4e2c;" 
d="M507 812h60v-868h-60v868zM259 726l47 21l156 -282l-47 -22zM259 30l156 282l47 -20l-156 -283z" />
    <glyph glyph-name="uni4E2D" unicode="&#x4e2d;" 
d="M471 176h-354v435h354v203h60v-203h355v-435h-355v-232h-60v232zM471 219v350h-294v-350h294zM825 219v350h-294v-350h294z" />
    <glyph glyph-name="uni4E30" unicode="&#x4e30;" 
d="M477 149h-394v43h394v199h-316v43h316v199h-370v43h370v149h61v-149h371v-43h-371v-199h318v-43h-318v-199h393v-43h-393v-194h-61v194z" />
    <glyph glyph-name="uni4E32" unicode="&#x4e32;" 
d="M472 47h-339v298h339v70h-311v293h311v106h61v-106h311v-293h-311v-70h339v-298h-339v-103h-61v103zM472 459v206h-250v-206h250zM783 459v206h-250v-206h250zM472 89v213h-279v-213h279zM812 89v213h-279v-213h279z" />
    <glyph glyph-name="uni4E34" unicode="&#x4e34;" 
d="M499 814l53 -22l-57 -125h441v-42h-522zM279 812h59v-868h-59v868zM89 706h54v-646h-54v646zM587 538l28 46l233 -151l-27 -46zM424 340h495v-390h-495v390zM642 -7v304h-160v-304h160zM860 -7v304h-161v-304h161z" />
    <glyph glyph-name="uni4E36" unicode="&#x4e36;" 
d="M350 538l49 35l247 -303l-49 -35z" />
    <glyph glyph-name="uni4E38" unicode="&#x4e38;" 
d="M76 -17l238 256l-213 104l23 50l206 -102v275h-220v43h220v205h61v-205h365v-602h182v-43h-243v602h-304v-303l193 -95l-23 -48l-191 93l-252 -270z" />
    <glyph glyph-name="uni4E39" unicode="&#x4e39;" 
d="M143 -35l84 228v139h-159v44h159v415h566v-415h143v-44h-143v-384h-275v42h213v342h-442v-152l-89 -237zM731 376v372h-442v-372h442zM411 643l47 28l138 -199l-47 -28z" />
    <glyph glyph-name="uni4E3A" unicode="&#x4e3a;" 
d="M82 -22l300 468v81h-284v43h284v244h61v-244h438v-617h-293v42h232v532h-377v-96l-310 -484zM141 750l46 35l114 -132l-46 -35zM510 344l49 29l134 -181l-50 -28z" />
    <glyph glyph-name="uni4E3B" unicode="&#x4e3b;" 
d="M420 785l50 32l100 -160l-50 -32zM68 6h403v264h-329v43h329v252h-371v43h802v-43h-371v-252h331v-43h-331v-264h405v-43h-868v43z" />
    <glyph glyph-name="uni4E3D" unicode="&#x4e3d;" 
d="M68 775h868v-43h-868v43zM110 623h338v-678h-156v43h100v593h-227v-636h-55v678zM551 623h339v-678h-156v43h100v593h-228v-636h-55v678zM213 420l48 14l83 -242l-48 -14zM654 420l49 14l82 -242l-48 -14z" />
    <glyph glyph-name="uni4E3E" unicode="&#x4e3e;" 
d="M795 816l50 -23l-97 -178h188v-43h-228l232 -242l-41 -37l-265 279h-268l-265 -279l-41 37l232 242h-224v43h618zM212 813l87 -161l-50 -23l-87 161zM463 813l88 -161l-50 -23l-87 161zM469 120h-358v42h358v159h-233v42h233v115h61v-115h233v-42h-233v-159h359v-42h-359
v-176h-61v176z" />
    <glyph glyph-name="uni4E3F" unicode="&#x4e3f;" 
d="M301 -27l188 310v529h61v-542l-197 -326z" />
    <glyph glyph-name="uni4E43" unicode="&#x4e43;" 
d="M78 -21l168 287v478h-137v43h702l-186 -368h261v-466l-330 1v42h269v381h-288l186 367h-416v-490l-177 -304z" />
    <glyph glyph-name="uni4E45" unicode="&#x4e45;" 
d="M510 236l-407 -298l-33 45l664 486v134h-438l-145 -243l-50 28l252 423l50 -27l-83 -139h474v-202l-238 -174l376 -289l-36 -43z" />
    <glyph glyph-name="uni4E47" unicode="&#x4e47;" 
d="M448 332h-379v42h379v356l-328 -18l-3 44l762 39l2 -42l-372 -20v-359h427v-42h-427v-331h413v-43h-474v374z" />
    <glyph glyph-name="uni4E48" unicode="&#x4e48;" 
d="M76 317l375 496l47 -35l-376 -496zM613 609l46 -34l-433 -576h593l-145 223l49 29l192 -295h-793z" />
    <glyph glyph-name="uni4E49" unicode="&#x4e49;" 
d="M419 777l55 19l97 -214l-54 -19zM68 -10l388 308l-290 231v237h61v-212l275 -218l275 219v211h60v-237l-289 -231l387 -308l-36 -45l-397 317l-397 -317z" />
    <glyph glyph-name="uni4E4B" unicode="&#x4e4b;" 
d="M80 -2l728 499v88h-680v43h342v188h60v-189h338v-159l-543 -373l106 -87h505v-43h-521l-127 105l-176 -121z" />
    <glyph glyph-name="uni4E4C" unicode="&#x4e4c;" 
d="M488 -13h372v307h-659v426h155l52 108l56 -22l-43 -86h405l-1 -304h-280v43h219l1 218h-504v-340h659l1 -393h-433v43zM76 171h617v-43h-617v43z" />
    <glyph glyph-name="uni4E4D" unicode="&#x4e4d;" 
d="M342 582h-244l122 230l57 -27l-89 -160h731v-43h-516v-184h466v-43h-466v-187h466v-43h-466v-187h-61v644z" />
    <glyph glyph-name="uni4E4E" unicode="&#x4e4e;" 
d="M270 -13h201v318h-403v43h403v390l-370 -19l-1 43l787 38l2 -43l-357 -17v-392h404v-43h-404v-361h-262v43zM146 629l50 24l131 -227l-49 -24zM677 426l131 227l50 -24l-132 -227z" />
    <glyph glyph-name="uni4E4F" unicode="&#x4e4f;" 
d="M105 770l797 41l2 -43l-797 -40zM88 4l725 401v64h-680v43h342v148h62v-148h338l-1 -137l-537 -296l99 -68h505v-42h-519l-127 87l-181 -101z" />
    <glyph glyph-name="uni4E50" unicode="&#x4e50;" 
d="M331 -13h153v392h-333v375l717 42l3 -44l-660 -37v-294h273v210h61v-210h358v-42h-358v-435h-214v43zM83 3l172 266l49 -29l-172 -267zM699 240l50 29l172 -266l-49 -30z" />
    <glyph glyph-name="uni4E52" unicode="&#x4e52;" 
d="M68 260h117v503l667 42l2 -42l-607 -40v-177h632v-43h-160v-243h217v-43h-868v43zM658 260v243h-412v-243h412zM83 -7l255 174l32 -48l-255 -174z" />
    <glyph glyph-name="uni4E53" unicode="&#x4e53;" 
d="M68 260h117v503l667 37l2 -42l-607 -35v-177h633v-43h-161v-243h217v-43h-868v43zM658 260v243h-411v-243h411zM630 118l32 49l255 -174l-32 -48z" />
    <glyph glyph-name="uni4E54" unicode="&#x4e54;" 
d="M75 324l396 190v14h-387v43h387v160l-330 -16l-2 43l731 36l3 -43l-341 -17v-163h395v-43h-395v-15l397 -189l-26 -50l-401 193l-402 -193zM99 -12l172 150v193h61v-218l-197 -170zM664 331h61v-386h-61v386z" />
    <glyph glyph-name="uni4E56" unicode="&#x4e56;" 
d="M471 553h-403v43h403v137l-357 -15l-1 42l772 32l2 -43l-354 -15v-138h403v-43h-403v-616h-62v616zM287 150l-201 -47l-11 42l212 50v155h-212v44h212v93h58v-437h-58v100zM648 487h59v-128l214 47l9 -42l-223 -48v-209h229v-43h-288v423z" />
    <glyph glyph-name="uni4E58" unicode="&#x4e58;" 
d="M70 12l402 251v311h-404v42h404v125l-353 -13l-1 43l770 27l1 -43l-356 -12v-127h403v-42h-403v-311l401 -251l-28 -45l-373 234v-264h-61v264l-374 -234zM288 286l-202 -37l-10 41l212 40v88h-213v43h213v66h58v-307h-58v66zM643 527h57v-96l222 36l7 -42l-229 -37v-128
h236v-42h-293v309z" />
    <glyph glyph-name="uni4E59" unicode="&#x4e59;" 
d="M757 710h-647v43h720v-46l-623 -708l713 1v-43h-825z" />
    <glyph glyph-name="uni4E5C" unicode="&#x4e5c;" 
d="M250 468l-171 -46l-11 42l182 49v299h60v-283l534 143v-497h-290v42h229v394l-473 -127v-478h626v-43h-686v505z" />
    <glyph glyph-name="uni4E5D" unicode="&#x4e5d;" 
d="M66 -23l254 260v333h-217v42h217v193h61v-193h377v-612h182v-43h-242v613h-317v-354l-273 -280z" />
    <glyph glyph-name="uni4E5E" unicode="&#x4e5e;" 
d="M199 815l53 -24l-68 -133h734v-43h-818zM762 418l-669 -1v42l749 1v-52l-576 -408h665v-43h-818z" />
    <glyph glyph-name="uni4E5F" unicode="&#x4e5f;" 
d="M217 456l-133 -35l-12 41l145 38v227h60v-211l233 60v238h60v-222l309 80v-502h-206v43h145v399l-248 -64v-402h-60v386l-233 -61v-465h659v-43h-719v493z" />
    <glyph glyph-name="uni4E60" unicode="&#x4e60;" 
d="M587 -8h226v736h-699v43h760v-821l-287 -1v43zM201 586l33 48l287 -191l-33 -47zM105 -6l532 355l31 -49l-531 -354z" />
    <glyph glyph-name="uni4E61" unicode="&#x4e61;" 
d="M100 -10l472 144l103 122h-529l338 248h-331l346 315l37 -41l-254 -232h258l194 142l33 -44l-471 -345h417l124 145l42 -36l-267 -315l-499 -150z" />
    <glyph glyph-name="uni4E66" unicode="&#x4e66;" 
d="M387 328h-321v43h321v256h-246v43h246v142h61v-142h332v-299h138v-349h-278v43h218v263h-410v-384h-61v384zM738 755l39 36l146 -155l-39 -36zM719 371v256h-271v-256h271z" />
    <glyph glyph-name="uni4E69" unicode="&#x4e69;" 
d="M97 373h171v439h60v-187h196v-43h-196v-209h168v-419h-399v419zM615 812h61v-821h260v-42h-321v863zM435 -4v334h-277v-334h277z" />
    <glyph glyph-name="uni4E70" unicode="&#x4e70;" 
d="M849 732h-775v43h836v-224h-61v181zM71 -3l420 221v42h-423v44h423v355h61v-355h384v-44h-384v-43l380 -224l-27 -49l-384 227l-426 -224zM139 595l16 48l246 -83l-14 -48zM123 437l14 48l247 -84l-15 -47z" />
    <glyph glyph-name="uni4E71" unicode="&#x4e71;" 
d="M613 812h60v-820h263v-43h-323v863zM106 335h170v174h-208v43h208v192l-188 -11l-2 42l436 27l2 -43l-188 -11v-196h208v-43h-208v-174h171v-386h-401v386zM447 -9v301h-282v-301h282z" />
    <glyph glyph-name="uni4E73" unicode="&#x4e73;" 
d="M614 812h60v-825h262v-43h-322v868zM88 774l456 25l2 -42l-455 -25zM98 667l47 16l71 -190l-48 -17zM236 667l48 16l72 -190l-48 -17zM406 493l71 190l48 -16l-72 -191zM161 -13h135v181l-223 -24l-4 43l225 23v45l128 131h-313v44h429l-183 -189v-24l200 21l5 -43
l-205 -21v-230h-194v43z" />
    <glyph glyph-name="uni4E7E" unicode="&#x4e7e;" 
d="M243 64h-175v42h175v119h-151v351h152v101h-176v43h176v94h60v-94h176v-43h-176v-101h152v-351h-153v-119h175v-42h-175v-120h-60v120zM581 809l54 -20l-47 -133h342v-43h-419zM398 268v266h-248v-112h225v-43h-225v-111h248zM861 418h-347v42l409 1v-50l-304 -410h317
v-42h-415z" />
    <glyph glyph-name="uni4E86" unicode="&#x4e86;" 
d="M246 -13h235v491l311 266h-679v44h766v-43l-337 -288v-512h-296v42z" />
    <glyph glyph-name="uni4E88" unicode="&#x4e88;" 
d="M263 -7h205v418h-400v42h360l-140 146l43 38l170 -178l262 285h-638v43h753l-305 -334l343 1v-229h-61v186h-327v-461h-265v43z" />
    <glyph glyph-name="uni4E89" unicode="&#x4e89;" 
d="M249 -13h201v172h-322v44h322v124h-382v43h382v125h-322v43h545l49 108h-591l77 173l55 -24l-49 -106h592l-69 -151h110v-168h89v-43h-89v-168h-337v-215h-261v43zM787 370v125h-277v-125h277zM787 203v124h-277v-124h277z" />
    <glyph glyph-name="uni4E8B" unicode="&#x4e8b;" 
d="M294 -13h177v99h-345v43h345v84h-403v43h403v83h-345v44h345v68h-316v187h316v62h-403v42h403v70h60v-70h405v-42h-405v-62h317v-187h-317v-68h329v-127h76v-43h-76v-127h-329v-142h-237v43zM471 493v102h-256v-102h256zM787 493v102h-256v-102h256zM799 256v83h-268v-83
h268zM799 129v84h-268v-84h268z" />
    <glyph glyph-name="uni4E8C" unicode="&#x4e8c;" 
d="M144 683h716v-43h-716v43zM68 73h868v-43h-868v43z" />
    <glyph glyph-name="uni4E8D" unicode="&#x4e8d;" 
d="M137 770h736v-43h-736v43zM267 -7h205v448h-403v43h867v-43h-404v-490h-265v42z" />
    <glyph glyph-name="uni4E8E" unicode="&#x4e8e;" 
d="M263 -11h208v363h-403v43h403v340h-354v43h770v-43h-355v-340h404v-43h-404v-406h-269v43z" />
    <glyph glyph-name="uni4E8F" unicode="&#x4e8f;" 
d="M147 781h709v-43h-709v43zM389 -13h385v248h-563l82 240h-225v44h868v-44h-580l-67 -198h545v-333h-445v43z" />
    <glyph glyph-name="uni4E91" unicode="&#x4e91;" 
d="M142 782h719v-43h-719v43zM311 411h-243v43h868v-43h-561l-182 -417h615l-117 269l55 22l145 -334h-781z" />
    <glyph glyph-name="uni4E92" unicode="&#x4e92;" 
d="M68 6h566l43 193h-487l119 544h-219v42h824v-42h-544l-43 -196h488l-119 -541h240v-43h-868v43zM685 242l59 263h-426l-58 -263h425z" />
    <glyph glyph-name="uni4E93" unicode="&#x4e93;" 
d="M144 792h717v-43h-717v43zM684 450h-356v-194l-189 -303l-52 30l181 286v181h-199v43h867v-43h-192v-497h-60v497z" />
    <glyph glyph-name="uni4E94" unicode="&#x4e94;" 
d="M68 6h205l50 396h-181v43h186l36 289h-259v43h792v-43h-473l-35 -289h403v-439h144v-43h-868v43zM731 6v396h-348l-49 -396h397z" />
    <glyph glyph-name="uni4E95" unicode="&#x4e95;" 
d="M83 -25l164 273h-183v42h200v287h-160v43h160v194h61v-194h344v194h61v-194h168v-43h-168v-287h208v-42h-208v-302h-61v302h-354l-180 -301zM669 290v287h-344v-287h344z" />
    <glyph glyph-name="uni4E98" unicode="&#x4e98;" 
d="M94 778h815v-43h-815v43zM181 627h641v-514h-641v514zM761 156v428h-519v-193h496v-42h-496v-193h519zM68 17h868v-42h-868v42z" />
    <glyph glyph-name="uni4E9A" unicode="&#x4e9a;" 
d="M68 7h277v736h-252v43h817v-43h-252v-736h278v-42h-868v42zM598 7v736h-192v-736h192zM110 560l54 13l101 -396l-54 -13zM738 177l102 396l54 -13l-102 -396z" />
    <glyph glyph-name="uni4E9B" unicode="&#x4e9b;" 
d="M68 296l60 9v410h59v-402l115 17v482h61v-197h141v-43h-141v-234l137 21l6 -42l-431 -64zM558 812h61v-192l287 61l9 -41l-296 -63v-242h305v-43h-366v520zM151 175h702v-42h-702v42zM68 6h868v-43h-868v43z" />
    <glyph glyph-name="uni4E9F" unicode="&#x4e9f;" 
d="M532 69h-184v44h124v461l234 165h-562v43h678v-25l-290 -211v-477zM106 566h272v-404h-272v404zM885 433l-100 -120l130 -157l-42 -34l-122 147l-123 -147l-42 34l129 157l-98 118l42 34l92 -110l79 95v73l-219 1v42h274v-133zM322 205v319h-161v-319h161zM69 5h867v-50
l-867 8v42z" />
    <glyph glyph-name="uni4EA0" unicode="&#x4ea0;" 
d="M68 631h403v156h61v-156h404v-42h-868v42z" />
    <glyph glyph-name="uni4EA1" unicode="&#x4ea1;" 
d="M221 613h-153v43h403v164h61v-164h404v-43h-655v-611h592v-43h-652v654z" />
    <glyph glyph-name="uni4EA2" unicode="&#x4ea2;" 
d="M68 678h403v129h61v-129h404v-43h-868v43zM81 -15l186 168v390h445v-554h224v-43h-285v555h-323v-372l-210 -188z" />
    <glyph glyph-name="uni4EA4" unicode="&#x4ea4;" 
d="M68 713h403v101h60v-101h405v-42h-868v42zM97 401l258 227l36 -42l-257 -227zM612 586l37 42l258 -227l-38 -42zM81 -5l375 246l-168 110l31 47l189 -124l189 124l30 -47l-168 -110l375 -246l-30 -47l-397 259l-395 -259z" />
    <glyph glyph-name="uni4EA5" unicode="&#x4ea5;" 
d="M99 212l349 195h-317v43l264 242h-327v42h399v80h61v-80h400v-42h-451l-266 -242h312l223 128l29 -47l-647 -366zM96 -11l752 426l29 -47l-317 -179l354 -200l-28 -47l-380 215l-382 -215z" />
    <glyph glyph-name="uni4EA6" unicode="&#x4ea6;" 
d="M200 -34l132 314v346h-264v43h403v145h60v-145h405v-43h-261v-678h-209v43h148v635h-222v-353l-136 -328zM74 107l107 409l51 -11l-107 -409zM758 505l51 11l106 -409l-51 -11z" />
    <glyph glyph-name="uni4EA7" unicode="&#x4ea7;" 
d="M155 730h349v84h60v-84h347v-42h-756v42zM77 -30l90 193v305h186l-92 144l53 30l110 -174h220l109 174l53 -30l-92 -144h229v-42h-715v-275l-95 -205z" />
    <glyph glyph-name="uni4EA8" unicode="&#x4ea8;" 
d="M68 734h403v80h61v-80h404v-42h-868v42zM187 624h630v-209h-630v209zM756 457v124h-508v-124h508zM270 -13h203v197l274 120h-633v43h766v-40l-347 -153v-209h-263v42z" />
    <glyph glyph-name="uni4EA9" unicode="&#x4ea9;" 
d="M68 692h403v122h60v-122h405v-43h-868v43zM147 542h709v-584h-709v584zM471 271v228h-263v-228h263zM795 1v498h-264v-228h241v-43h-241v-227h264zM471 1v227h-263v-227h263z" />
    <glyph glyph-name="uni4EAB" unicode="&#x4eab;" 
d="M936 738v-43h-868v43h403v76h60v-76h405zM817 625v-206h-630v206h630zM756 582h-509v-120h509v120zM525 173h411v-43h-411v-185h-240v43h180v142h-397v43h397v35l235 108h-550v43h680v-40l-305 -141v-5z" />
    <glyph glyph-name="uni4EAC" unicode="&#x4eac;" 
d="M68 706h403v108h61v-108h404v-42h-868v42zM324 -13h147v303h-288v303h638v-303h-289v-346h-208v43zM759 333v216h-515v-216h515zM85 -8l171 242l46 -30l-170 -243zM703 204l45 30l171 -242l-47 -31z" />
    <glyph glyph-name="uni4EAD" unicode="&#x4ead;" 
d="M68 741h403v72h60v-72h405v-43h-868v43zM185 636h634v-195h-634v195zM758 484v109h-513v-109h513zM83 379h838v-132h-62v90h-716v-90h-60v132zM304 -14h167v196h-341v43h743v-43h-342v-238h-227v42z" />
    <glyph glyph-name="uni4EAE" unicode="&#x4eae;" 
d="M68 741h403v75h61v-75h404v-44h-868v44zM187 630h630v-197h-630v197zM755 476v111h-506v-111h506zM83 374h838v-135h-61v93h-716v-93h-61v135zM80 -1l193 70v174h440v-249h221v-42h-282v248h-318v-167l-235 -87z" />
    <glyph glyph-name="uni4EB2" unicode="&#x4eb2;" 
d="M122 710h349v104h61v-104h350v-42h-760v42zM327 -13h144v263h-368v44h368v125h-403v43h226l-65 135l55 22l75 -157h285l75 157l56 -22l-65 -135h226v-43h-404v-125h369v-44h-369v-306h-205v43zM94 -7l173 204l42 -35l-173 -205zM694 162l42 35l173 -204l-42 -36z" />
    <glyph glyph-name="uni4EB3" unicode="&#x4eb3;" 
d="M81 751h390v63h61v-63h391v-42h-842v42zM185 661h634v-184h-634v184zM758 521v97h-512v-97h512zM82 427h840v-106h-60v64h-720v-64h-60v106zM444 97h-376v43h376v105l-335 -9l-1 43l782 20l1 -43l-386 -10v-106h431v-43h-431v-110h402v-43h-463v153z" />
    <glyph glyph-name="uni4EB5" unicode="&#x4eb5;" 
d="M68 742h403v72h61v-72h404v-42h-868v42zM107 323h118v77l-123 -25l-8 42l131 26v100h-134v43h134v71h60v-71h130v-43h-130v-90l117 23l8 -42l-125 -25v-129h-178v43zM441 302l86 104l-80 21l11 41l83 -22v97h-93v43h93v71h61v-71h221v-264h99v-43h-159v264h-161v-115
l94 -26l-12 -41l-96 27l-95 -117zM268 136l-178 -74l-17 46l366 145l17 -45l-127 -51v-168h194v-43h-255v190zM505 197l28 47l173 -109l151 72l25 -45l-124 -57l177 -110l-27 -47z" />
    <glyph glyph-name="uni4EBA" unicode="&#x4eba;" 
d="M64 -8l407 393v425h62v-425l407 -393l-41 -41l-397 385l-397 -385z" />
    <glyph glyph-name="uni4EBB" unicode="&#x4ebb;" 
d="M316 590h32v-646h-60v594l-83 -153l-49 25l216 401l50 -25z" />
    <glyph glyph-name="uni4EBF" unicode="&#x4ebf;" 
d="M325 787l-103 -201h34v-642h-60v592l-78 -152l-50 22l207 405zM936 -2v-43h-569l454 759h-440v43h505v-44l-428 -716z" />
    <glyph glyph-name="uni4EC0" unicode="&#x4ec0;" 
d="M936 451v-43h-264v-464h-61v464h-264v43h264v363h61v-363h264zM214 564h49v-620h-60v603l-87 -131l-47 26l244 371l48 -27z" />
    <glyph glyph-name="uni4EC1" unicode="&#x4ec1;" 
d="M253 594h33v-650h-61v607l-109 -167l-47 29l261 401l47 -29zM886 640h-463v43h463v-43zM938 74v-44h-565v44h565z" />
    <glyph glyph-name="uni4EC2" unicode="&#x4ec2;" 
d="M910 634v-688h-250v43h190v603h-272v-320l-174 -328l-54 24l168 314v310h-169v42h169v178h60v-178h332zM324 787l-104 -204h42v-639h-60v604l-84 -164l-50 23l206 404z" />
    <glyph glyph-name="uni4EC3" unicode="&#x4ec3;" 
d="M330 786l-103 -193h31v-649h-61v592l-80 -151l-49 24l212 402zM938 776v-43h-240v-789h-228v43h166v746h-245v43h547z" />
    <glyph glyph-name="uni4EC4" unicode="&#x4ec4;" 
d="M69 -31l73 216v613h794v-43h-734v-578l-74 -225zM251 -11l312 367v334h60v-333l311 -368l-42 -34l-299 352l-299 -352z" />
    <glyph glyph-name="uni4EC5" unicode="&#x4ec5;" 
d="M335 787l-104 -193h35v-650h-61v602l-87 -162l-50 23l217 404zM928 -19l-44 -34l-247 311l-246 -311l-44 34l255 323l-207 263l45 34l198 -250l187 236l1 132h-453v43h513v-188l-213 -270z" />
    <glyph glyph-name="uni4EC6" unicode="&#x4ec6;" 
d="M555 814h61v-870h-61v870zM371 784l-119 -184h29v-656h-60v608l-109 -168l-48 27l259 401zM935 195l-47 -23l-205 376l48 23z" />
    <glyph glyph-name="uni4EC7" unicode="&#x4ec7;" 
d="M940 7v-43h-186v620h-208v-368l-135 -270l-56 24l130 259v355h-123v42h123v188h61v-188h269v-619h125zM250 599h29v-655h-61v605l-103 -159l-46 29l254 392l46 -29z" />
    <glyph glyph-name="uni4EC9" unicode="&#x4ec9;" 
d="M325 787l-101 -197h31v-646h-60v590l-77 -150l-50 23l207 404zM940 -6v-43h-193v795h-242v-533l-110 -266l-57 22l105 256v565h364v-796h133z" />
    <glyph glyph-name="uni4ECA" unicode="&#x4eca;" 
d="M71 483l431 335l431 -335l-32 -43l-399 311l-399 -311zM470 -18l299 326h-626v42h328v164h61v-164h318v-40l-340 -367z" />
    <glyph glyph-name="uni4ECB" unicode="&#x4ecb;" 
d="M73 469l429 343l429 -343l-33 -43l-396 318l-396 -318zM140 -21l144 212v239h61v-257l-158 -229zM665 430h61v-487h-61v487z" />
    <glyph glyph-name="uni4ECD" unicode="&#x4ecd;" 
d="M311 787l-98 -202h34v-641h-59v589l-72 -148l-50 22l194 403zM921 447v-493h-244v42h184l-1 409h-172l106 339h-279v-500l-110 -301l-57 21l107 291v489h-104v43h515l-105 -340h160z" />
    <glyph glyph-name="uni4ECE" unicode="&#x4ece;" 
d="M312 451l186 -491l-52 -17l-181 479l-131 -477l-56 14l233 854l57 -14l-99 -362zM879 -57l-181 481l-131 -479l-56 14l233 854l56 -14l-99 -364l46 16l185 -491z" />
    <glyph glyph-name="uni4ED1" unicode="&#x4ed1;" 
d="M69 477l433 337l433 -337l-33 -45l-400 314l-400 -314zM221 411h61v-187l554 138l11 -42l-565 -139v-184h582v-42h-643v456z" />
    <glyph glyph-name="uni4ED3" unicode="&#x4ed3;" 
d="M70 468l432 338l433 -338l-33 -43l-400 314l-400 -314zM237 448h534v-319h-244v43h182v233h-410l-1 -426l558 1v-43h-619v511z" />
    <glyph glyph-name="uni4ED4" unicode="&#x4ed4;" 
d="M307 788l-94 -200h32v-644h-60v583l-67 -143l-51 21l190 405zM936 404v-42h-268v-417h-213v42h152v375h-282v42h282v64l196 276h-421v42h520l-234 -331v-51h268z" />
    <glyph glyph-name="uni4ED5" unicode="&#x4ed5;" 
d="M674 481v-476h228v-43h-518v43h229v476h-266v44h266v287h61v-287h266v-44h-266zM234 583h29v-639h-60v590l-86 -137l-48 26l244 388l48 -26z" />
    <glyph glyph-name="uni4ED6" unicode="&#x4ed6;" 
d="M936 -13v-43h-529v509l-67 -24l-15 39l82 30v226h58v-206l154 56v237h58v-216l230 82v-521h-158v42h100v413l-172 -61v-425h-58v404l-154 -55v-487h471zM307 788l-95 -203h31v-641h-61v577l-64 -137l-51 21l190 404z" />
    <glyph glyph-name="uni4ED7" unicode="&#x4ed7;" 
d="M774 395l-107 -130l265 -279l-43 -41l-260 273l-227 -273l-46 37l233 279l-184 193l43 41l178 -188l88 106v177h-358v42h358v180h60v-180h164v-42h-164v-195zM335 787l-104 -193h31v-650h-61v595l-84 -155l-49 23l217 404z" />
    <glyph glyph-name="uni4ED8" unicode="&#x4ed8;" 
d="M367 786l-115 -185h30v-657h-62v605l-103 -166l-48 26l250 403zM936 624v-43h-126v-637h-257v43h196v594h-377v43h377v188h61v-188h126zM594 182l-52 -18l-114 275l52 18z" />
    <glyph glyph-name="uni4ED9" unicode="&#x4ed9;" 
d="M326 787l-101 -196h30v-647h-61v587l-76 -148l-50 23l208 405zM889 635v-672h-517v672h61v-630h168v795h60v-795h168v630h60z" />
    <glyph glyph-name="uni4EDD" unicode="&#x4edd;" 
d="M73 448l429 361l429 -361l-34 -42l-395 333l-396 -333zM68 6h403v314h-301v42h664v-42h-303v-314h405v-42h-868v42z" />
    <glyph glyph-name="uni4EDE" unicode="&#x4ede;" 
d="M337 787l-109 -199h35v-644h-60v598l-86 -158l-49 24l220 403zM905 755v-809h-211v43h151v723h-237v-463l-197 -304l-52 30l189 288v449h-171v43h528zM398 246l-50 12l91 298l49 -12z" />
    <glyph glyph-name="uni4EDF" unicode="&#x4edf;" 
d="M333 788l-101 -188h31v-656h-60v603l-88 -163l-49 23l216 404zM936 415v-42h-264v-429h-61v429h-271v42h271v328l-239 -15l-2 42l540 33l2 -42l-240 -14v-332h264z" />
    <glyph glyph-name="uni4EE1" unicode="&#x4ee1;" 
d="M338 787l-105 -193h31v-650h-61v596l-85 -156l-50 24l220 403zM930 613h-537l85 197l56 -21l-58 -133h454v-43zM936 3v-42h-528l440 457h-454v42h523l-1 -50l-392 -407h412z" />
    <glyph glyph-name="uni4EE3" unicode="&#x4ee3;" 
d="M251 601h29v-657h-61v607l-104 -162l-46 27l254 396l46 -28zM941 -6v-43h-129l-169 520h-286v42h273l-92 281l56 17l96 -298h246v-42h-233l155 -477h83zM847 577l-106 191l46 21l106 -190z" />
    <glyph glyph-name="uni4EE4" unicode="&#x4ee4;" 
d="M69 487l432 319l432 -319l-32 -44l-400 296l-399 -296zM227 75l12 47l230 -62l320 220v32h-645v42h326v161h60v-161h319v-98l-311 -213l207 -55l-11 -47z" />
    <glyph glyph-name="uni4EE5" unicode="&#x4ee5;" 
d="M452 -35l300 842l55 -16l-125 -351l36 11l207 -484l-51 -20l-202 459l-165 -457zM134 793h60v-775l206 96l16 -39l-282 -128v846zM309 678l53 16l130 -370l-53 -15z" />
    <glyph glyph-name="uni4EE8" unicode="&#x4ee8;" 
d="M336 787l-105 -193h31v-650h-61v596l-85 -156l-49 24l220 403zM917 687h-530v42h530v-42zM437 344v43h430v-43h-430zM938 36v-43h-572v43h572z" />
    <glyph glyph-name="uni4EEA" unicode="&#x4eea;" 
d="M316 787l-98 -198h33v-645h-60v589l-73 -148l-51 23l199 402zM631 566l-72 211l55 15l72 -210zM936 -16l-43 -38l-266 299l-266 -299l-44 38l271 304l-208 235v237h60v-220l187 -208l185 209v219h61v-237l-209 -235z" />
    <glyph glyph-name="uni4EEB" unicode="&#x4eeb;" 
d="M338 787l-105 -193h30v-650h-60v596l-85 -156l-50 24l220 403zM403 284l-52 27l254 494l51 -27zM930 -45h-543l329 641l51 -26l-294 -573h379l-96 228l54 18z" />
    <glyph glyph-name="uni4EEC" unicode="&#x4eec;" 
d="M307 788l-94 -200h31v-644h-59v583l-67 -143l-51 21l190 405zM891 781v-837h-170v42h108v752h-254v43h316zM372 780l168 -62l-17 -45l-167 62zM369 609h62v-665h-62v665z" />
    <glyph glyph-name="uni4EF0" unicode="&#x4ef0;" 
d="M303 789l-89 -196h26v-649h-57v581l-64 -141l-52 20l186 406zM413 731v-597l143 48l13 -40l-215 -73v700l219 19l4 -43zM900 787v-693h-167v42h108v608h-162v-800h-59v843h280z" />
    <glyph glyph-name="uni4EF2" unicode="&#x4ef2;" 
d="M913 606v-435h-247v-227h-61v227h-248v435h248v206h61v-206h247zM314 787l-94 -194h29v-649h-61v584l-70 -144l-51 21l197 405zM605 563h-188v-349h188v349zM853 563h-187v-349h187v349z" />
    <glyph glyph-name="uni4EF3" unicode="&#x4ef3;" 
d="M330 787l-103 -195h31v-648h-61v590l-79 -150l-50 23l213 404zM449 514h176v-42h-176v-471h176v-43h-238v845h62v-289zM737 1h184v-43h-245v845h61v-308l172 76l16 -39l-188 -83v-448z" />
    <glyph glyph-name="uni4EF5" unicode="&#x4ef5;" 
d="M936 346v-42h-263v-360h-61v360h-269v42h269v269h-229l84 201l52 -21l-58 -138h437v-42h-225v-269h263zM336 785l-105 -193h31v-648h-61v593l-83 -153l-49 25l218 402z" />
    <glyph glyph-name="uni4EF6" unicode="&#x4ef6;" 
d="M936 288v-43h-266v-301h-60v301h-273v43h273v253h-247l76 220l53 -16l-57 -160h175v227h60v-227h233v-44h-233v-253h266zM335 787l-104 -193h31v-650h-60v596l-84 -156l-50 23l217 404z" />
    <glyph glyph-name="uni4EF7" unicode="&#x4ef7;" 
d="M933 495l-39 -37l-264 282l-263 -284l-39 39l301 322zM231 594h33v-650h-60v600l-86 -160l-50 22l217 405l50 -24zM448 423h61v-249l-111 -224l-55 24l105 213v236zM743 423h60v-478h-60v478z" />
    <glyph glyph-name="uni4EFB" unicode="&#x4efb;" 
d="M337 786l-106 -192h34v-650h-61v600l-88 -160l-50 24l222 403zM671 357v-343h237v-43h-534v43h237v343h-266v43h266v332l-218 -17l-3 43l501 37l3 -42l-223 -17v-336h267v-43h-267z" />
    <glyph glyph-name="uni4EFD" unicode="&#x4efd;" 
d="M335 798l-102 -194h31v-649h-60v593l-80 -153l-51 22l212 405zM396 470l-51 20l149 329l52 -20zM941 490l-51 -20l-150 329l51 20zM368 441h515v-485h-203v43h145v400h-277v-242l-166 -203l-46 33l154 186v226h-122v42z" />
    <glyph glyph-name="uni4EFF" unicode="&#x4eff;" 
d="M557 632v-185h328v-478h-261v42h201v393h-268v-142l-152 -306l-56 23l147 295v358h-150v43h267v148h61v-148h267v-43h-384zM341 798l-104 -193h30v-650h-60v594l-83 -154l-51 22l217 405z" />
    <glyph glyph-name="uni4F01" unicode="&#x4f01;" 
d="M73 484l429 326l429 -326l-33 -43l-396 302l-397 -302zM68 7h158v373h61v-373h187v494h61v-213h318v-43h-318v-238h401v-43h-868v43z" />
    <glyph glyph-name="uni4F09" unicode="&#x4f09;" 
d="M936 688v-43h-584v43h262v126h60v-126h262zM330 787l-102 -194h31v-649h-61v592l-80 -152l-50 23l212 404zM829 -4h107v-43h-165v557h-249v-368l-112 -192l-52 26l106 180v397h365v-557z" />
    <glyph glyph-name="uni4F0A" unicode="&#x4f0a;" 
d="M325 786l-101 -196h31v-646h-61v588l-76 -148l-50 23l207 403zM936 533v-43h-56v-233h-268v-59l-221 -253l-48 32l208 236v44h-167v42h167v191h-200v43h200v190h-167v43h496v-233h56zM818 723h-206v-190h206v190zM818 490h-206v-191h206v191z" />
    <glyph glyph-name="uni4F0D" unicode="&#x4f0d;" 
d="M316 788l-98 -199h30v-645h-60v583l-70 -143l-51 22l198 404zM936 7v-44h-591v44h127l34 404h-112v42h116l23 281h-167v44h545v-44h-317l-24 -281h284v-446h82zM794 411h-228l-33 -404h261v404z" />
    <glyph glyph-name="uni4F0E" unicode="&#x4f0e;" 
d="M671 628v-156h213v-145l-211 -150l258 -184l-32 -46l-273 197l-276 -197l-33 46l261 185l-197 141l32 45l212 -152l198 140l1 78h-445v43h232v155h-265v43h265v143h60v-143h265v-43h-265zM231 594h32v-650h-60v598l-85 -158l-50 23l217 404l50 -24z" />
    <glyph glyph-name="uni4F0F" unicode="&#x4f0f;" 
d="M940 -18l-48 -27l-263 424l-262 -424l-48 27l280 454v71h-265v43h265v275h60v-275h267v-43h-267v-69zM239 604h29v-649h-60v593l-85 -154l-50 25l223 402l49 -25zM867 595l-98 180l47 22l98 -180z" />
    <glyph glyph-name="uni4F10" unicode="&#x4f10;" 
d="M257 612h31v-657h-61v610l-106 -166l-47 27l254 396l46 -27zM832 -3h102v-42h-147l-60 207l-305 -198l-24 40l316 205l-87 302l-257 -32l-5 42l250 31l-74 259l56 10l75 -262l260 33l5 -42l-253 -32l79 -278l153 100l25 -40l-165 -107zM841 617l-120 164l47 25l119 -164z
" />
    <glyph glyph-name="uni4F11" unicode="&#x4f11;" 
d="M937 542h-173l173 -550l-54 -13l-176 563h-35v-597h-61v597h-34l-177 -563l-53 13l172 550h-171v42h263v230h61v-230h265v-42zM330 788l-102 -194h31v-649h-60v595l-82 -156l-49 23l213 404z" />
    <glyph glyph-name="uni4F17" unicode="&#x4f17;" 
d="M72 476l430 336l428 -336l-32 -43l-396 311l-397 -311zM73 -25l179 257v217h61v-217l180 -257l-48 -31l-162 230l-162 -230zM510 -25l179 257v217h61v-217l180 -257l-48 -31l-162 230l-162 -230z" />
    <glyph glyph-name="uni4F18" unicode="&#x4f18;" 
d="M934 523h-302v-93l-245 -484l-53 24l237 467v86h-232v43h232v248h61v-248h302v-43zM324 787l-101 -197h30v-646h-60v587l-75 -147l-50 24l206 402zM829 623l-104 148l46 26l105 -149zM936 -2v-42h-295v481h61v-439h234z" />
    <glyph glyph-name="uni4F19" unicode="&#x4f19;" 
d="M932 -25l-47 -33l-246 342l-245 -342l-48 33l263 368v471h60v-471zM335 787l-102 -189h31v-654h-60v600l-86 -160l-50 23l217 404zM433 356l-62 374l52 7l62 -374zM845 356l-52 7l62 374l52 -7z" />
    <glyph glyph-name="uni4F1A" unicode="&#x4f1a;" 
d="M73 501l429 308l429 -308l-30 -45l-399 287l-399 -287zM234 462h536v-43h-536v43zM330 253h-233v43h810v-43h-508l-163 -260h531l-102 162l52 31l148 -236h-726z" />
    <glyph glyph-name="uni4F1B" unicode="&#x4f1b;" 
d="M336 787l-104 -193h31v-650h-61v595l-84 -155l-49 23l217 404zM927 1v-44h-539v819h538v-42h-478v-733h479zM886 648l-156 -282l156 -281l-49 -25l-138 244l-138 -244l-50 25l157 282l-157 281l50 25l138 -244l138 244z" />
    <glyph glyph-name="uni4F1E" unicode="&#x4f1e;" 
d="M74 542l428 266l427 -266l-28 -47l-399 250l-401 -250zM471 147h-403v43h403v354h60v-354h405v-43h-405v-203h-60v203zM173 431l44 33l151 -184l-44 -33zM635 280l150 184l44 -33l-150 -184z" />
    <glyph glyph-name="uni4F1F" unicode="&#x4f1f;" 
d="M907 318v-317h-164v43h104v232h-201v-332h-60v332h-247v42h247v141h-203v43h203v145h-227v43h227v124h60v-124h254v-43h-254v-145h230v-43h-230v-141h261zM322 787l-99 -195h31v-648h-60v590l-76 -150l-50 22l204 404z" />
    <glyph glyph-name="uni4F20" unicode="&#x4f20;" 
d="M551 431l-38 -119h386l-205 -266l121 -55l-21 -47l-342 155l21 47l169 -77l156 200h-360l53 162h-159v44h172l52 162h-190v43h204l44 136l55 -16l-39 -120h273v-43h-286l-53 -162h374v-44h-387zM237 599h27v-652h-60v595l-88 -152l-47 26l228 395l47 -27z" />
    <glyph glyph-name="uni4F22" unicode="&#x4f22;" 
d="M330 787l-102 -194h31v-649h-60v594l-81 -154l-50 23l213 404zM809 738v-318h127v-43h-127v-433h-204v43h144v390h-94l-228 -412l-51 25l214 387h-208l98 295l55 -15l-80 -237h294v318h-373v42h560v-42h-127z" />
    <glyph glyph-name="uni4F24" unicode="&#x4f24;" 
d="M936 654v-42h-574l95 205l54 -23l-66 -140h491zM224 593h30v-649h-61v589l-75 -149l-50 22l204 405l50 -23zM554 422h344v-479h-266v42h206v394h-284v-190l-181 -248l-52 29l172 236v173h-134v43h134v117h61v-117z" />
    <glyph glyph-name="uni4F25" unicode="&#x4f25;" 
d="M936 377h-273l269 -388l-50 -28l-287 416h-73v-390h140v-43h-202v433h-126v44h126v393h62v-393h414v-44zM330 787l-102 -194h31v-649h-60v594l-81 -154l-50 23l213 404zM610 476l-41 38l279 284l41 -37z" />
    <glyph glyph-name="uni4F26" unicode="&#x4f26;" 
d="M936 470l-39 -36l-273 302l-273 -302l-40 36l313 346zM231 594h33v-650h-60v600l-86 -160l-50 23l217 404l50 -24zM483 -10h405v-42h-466v459h61v-185l380 132l13 -40l-393 -136v-188z" />
    <glyph glyph-name="uni4F27" unicode="&#x4f27;" 
d="M623 739l-273 -281l-37 39l310 318l312 -318l-38 -39zM228 593h31v-649h-60v594l-81 -154l-50 23l213 404l49 -24zM477 -13h430v-43h-491v504h408v-317h-192v43h132v230h-287v-417z" />
    <glyph glyph-name="uni4F2A" unicode="&#x4f2a;" 
d="M903 561v-609h-225v42l163 1v524h-250l-186 -569l-57 17l183 552h-193v42h194v251h60v-251h311zM320 787l-98 -196h29v-647h-60v586l-73 -146l-50 22l202 404zM435 607l-70 152l45 18l71 -152zM716 166l-93 184l49 18l93 -183z" />
    <glyph glyph-name="uni4F2B" unicode="&#x4f2b;" 
d="M434 419h-59v249h238v144h60v-144h240v-249h-61v207h-418v-207zM331 787l-103 -194h32v-649h-61v593l-81 -153l-49 24l212 403zM938 12v-42h-588v42h588z" />
    <glyph glyph-name="uni4F2F" unicode="&#x4f2f;" 
d="M342 785l-120 -192h27v-649h-60v595l-73 -117l-47 26l226 364zM883 672v-722h-509v722h165l39 140l57 -14l-36 -126h284zM824 629h-390v-293h367v-43h-367v-301h390v637z" />
    <glyph glyph-name="uni4F30" unicode="&#x4f30;" 
d="M676 583v-210h206v-419h-473v419h206v210h-260v42h260v189h61v-189h260v-42h-260zM335 788l-104 -194h31v-650h-61v595l-83 -155l-50 23l217 404zM470 331v-334h352v334h-352z" />
    <glyph glyph-name="uni4F32" unicode="&#x4f32;" 
d="M320 787l-98 -197h31v-646h-61v586l-73 -146l-51 23l202 403zM898 532h-451v-378l-62 -208l-54 14l60 206v622h507v-256zM842 745h-395v-170h395v170zM915 4v-44h-351v492h61v-206l271 92l13 -41l-284 -95v-198h290z" />
    <glyph glyph-name="uni4F34" unicode="&#x4f34;" 
d="M942 175v-42h-272v-195h-61v195h-272v42h272v206h-253v43h253v383h61v-383h254v-43h-254v-206h272zM220 579h32v-641h-61v592l-68 -113l-48 27l216 360l49 -26zM459 493l-80 233l53 15l80 -233zM820 493l-53 15l80 233l53 -15z" />
    <glyph glyph-name="uni4F36" unicode="&#x4f36;" 
d="M231 594h31v-650h-60v595l-84 -156l-50 24l217 404l50 -24zM934 479l-38 -38l-271 286l-269 -286l-39 38l308 326zM655 354h220v-113l-225 -197l146 -55l-15 -45l-376 139l16 45l170 -64l224 194l-1 54h-440v42h221v156h60v-156z" />
    <glyph glyph-name="uni4F38" unicode="&#x4f38;" 
d="M907 673v-521h-233v-208h-60v208h-234v521h234v141h60v-141h233zM335 787l-104 -193h31v-650h-61v594l-83 -155l-50 23l217 405zM614 631h-173v-197h173v197zM847 631h-173v-197h150v-43h-150v-197h173v437zM614 391h-173v-197h173v197z" />
    <glyph glyph-name="uni4F3A" unicode="&#x4f3a;" 
d="M314 788l-96 -198h33v-646h-60v590l-73 -150l-51 22l196 404zM900 773v-820h-291v42l230 1v735h-471v42h532zM751 563h-397v43h397v-43zM723 88h-339v362h339v-362zM667 407h-227v-276h227v276z" />
    <glyph glyph-name="uni4F3C" unicode="&#x4f3c;" 
d="M298 788l-90 -192h27v-652h-60v580l-57 -122l-51 21l180 387zM934 -37l-52 -16l-112 356l-130 -357l-52 15l153 440v407h61v-412zM596 86l-223 -130v842h57v-765l147 90zM604 367l-80 336l50 10l79 -337z" />
    <glyph glyph-name="uni4F3D" unicode="&#x4f3d;" 
d="M433 651h191v-706h-164v43h109v620h-136v-373l-89 -289l-52 13l86 283v366h-70v43h70v161h55v-161zM215 594h22v-650h-55v578l-63 -138l-51 20l185 406l51 -21zM915 724v-747h-238v747h238zM863 681h-135v-661h135v661z" />
    <glyph glyph-name="uni4F43" unicode="&#x4f43;" 
d="M323 788l-99 -196h31v-648h-60v592l-77 -152l-50 22l205 405zM906 780v-820h-534v820h534zM612 737h-179v-344h179v344zM845 737h-178v-344h155v-42h-155v-348h178v734zM612 351h-179v-348h179v348z" />
    <glyph glyph-name="uni4F46" unicode="&#x4f46;" 
d="M335 787l-103 -191h30v-652h-61v594l-83 -154l-49 23l217 404zM875 100h-445v667h445v-667zM813 725h-323v-268h301v-43h-301v-272h323v583zM936 4v-43h-567v43h567z" />
    <glyph glyph-name="uni4F4D" unicode="&#x4f4d;" 
d="M336 787l-105 -190h33v-653h-61v602l-89 -162l-51 23l223 405zM922 633h-561v42h251v137h61v-137h249v-42zM424 526l54 11l108 -443l-54 -12zM700 94l107 443l55 -11l-108 -444zM938 5v-43h-593v43h593z" />
    <glyph glyph-name="uni4F4E" unicode="&#x4f4e;" 
d="M339 786l-105 -192h29v-650h-59v596l-86 -157l-49 25l221 403zM940 -8v-42h-128l-86 442h-273v-386l129 44l13 -40l-202 -65v820l516 24l2 -42l-191 -9l60 -304h156v-42h-149l79 -400h74zM718 434l-59 301l-206 -10v-291h265zM630 221l96 -261l-45 -16l-96 261z" />
    <glyph glyph-name="uni4F4F" unicode="&#x4f4f;" 
d="M346 785l-108 -189h28v-652h-60v597l-90 -157l-48 26l229 402zM646 639l-75 150l53 23l76 -151zM936 8v-43h-584v43h262v266h-215v43h215v261h-240v42h539v-42h-239v-261h215v-43h-215v-266h262z" />
    </font>
</defs>
</svg>
