<?xml version="1.0" encoding="utf-8"?>
<!-- Generator: Adobe Illustrator 23.0.0, SVG Export Plug-In . SVG Version: 6.00 Build 0)  -->
<svg version="1.1" id="图层_1" xmlns="http://www.w3.org/2000/svg" xmlns:xlink="http://www.w3.org/1999/xlink" x="0px" y="0px"
	 width="226px" height="364px" style="enable-background:new 0 0 226 364;" xml:space="preserve">
<style type="text/css">
	.st0{opacity:0.3;}
	.st1{fill-rule:evenodd;clip-rule:evenodd;fill:url(#SVGID_1_);}
	.st2{fill:#005A82;}
	.st3{fill-rule:evenodd;clip-rule:evenodd;fill:url(#SVGID_2_);}
	.st4{fill-rule:evenodd;clip-rule:evenodd;fill:#1095FF;}
	.st5{fill-rule:evenodd;clip-rule:evenodd;fill:#FFFFFF;}
</style>
<g class="st0">
	
		<radialGradient id="SVGID_1_" cx="28.9999" cy="328" r="13.0047" gradientTransform="matrix(1 0 0 -1 0 365)" gradientUnits="userSpaceOnUse">
		<stop  offset="0" style="stop-color:#FFFFFF"/>
		<stop  offset="1" style="stop-color:#1095FF"/>
	</radialGradient>
	<path class="st1" d="M29,49.8c-7.1,0-12.8-5.8-12.8-12.8c0-5.5,3.4-10.4,8.4-12.1c1.5-0.5,3-0.8,4.5-0.8c3.5,0,6.7,1.4,9.1,3.8
		c2.4,2.5,3.7,5.7,3.7,9.2c-0.1,6.7-5.6,12.4-12.3,12.7C29.3,49.8,29.2,49.8,29,49.8z"/>
	<path class="st2" d="M29,24.2c7.1,0,12.9,5.8,12.8,12.9c-0.1,6.7-5.6,12.4-12.3,12.6c-0.2,0-0.3,0-0.5,0c-7.1,0-12.8-5.7-12.8-12.8
		l0,0c0-5.3,3.3-10.3,8.3-12C26.1,24.5,27.6,24.2,29,24.2 M29,24.1c-1.5,0-3,0.3-4.5,0.8c-5,1.7-8.4,6.6-8.4,12.1
		c0,7.1,5.8,12.9,12.9,12.9c0.2,0,0.3,0,0.5,0c6.7-0.3,12.3-6,12.4-12.7c0-3.5-1.3-6.7-3.7-9.2C35.7,25.5,32.5,24.1,29,24.1L29,24.1
		z"/>
</g>
<g>
	<g>
		
			<radialGradient id="SVGID_2_" cx="-95.7902" cy="332.6191" r="13.5346" gradientTransform="matrix(0.6824 0.7511 0.8043 -0.7156 -172.743 347.6434)" gradientUnits="userSpaceOnUse">
			<stop  offset="0.5224" style="stop-color:#004777"/>
			<stop  offset="0.6926" style="stop-color:#FFFFFF;stop-opacity:0"/>
		</radialGradient>
		<path class="st3" d="M20,37.6c0,5.4,4.5,9.7,10,9.5c5-0.2,9.1-4.4,9.2-9.4c0.1-6.4-6.2-11.3-12.9-9C22.5,29.9,20,33.6,20,37.6
			L20,37.6z"/>
	</g>
	<g>
		<path class="st4" d="M20.5,37c0,4.8,4,8.7,8.8,8.5c4.4-0.2,8.1-3.9,8.1-8.4C37.5,31.4,31.9,27,26,29C22.6,30.2,20.5,33.5,20.5,37
			L20.5,37z"/>
	</g>
</g>
<circle class="st5" cx="29" cy="37" r="2.5"/>
</svg>
