<?xml version="1.0" encoding="utf-8"?>
<!-- Generator: Adobe Illustrator 24.3.0, SVG Export Plug-In . SVG Version: 6.00 Build 0)  -->
<svg version="1.1" id="图层_1" xmlns="http://www.w3.org/2000/svg" xmlns:xlink="http://www.w3.org/1999/xlink" x="0px" y="0px"
	 width="226px" height="364px" style="enable-background:new 0 0 226 364;" xml:space="preserve">
<style type="text/css">
	.st0{fill:url(#SVGID_1_);}
	.st1{fill:#FFFFFF;}
	.st2{fill:#E62520;}
	.st3{fill:url(#SVGID_2_);}
	.st4{opacity:0.75;}
	.st5{fill:#7E7B7A;}
	.st6{fill:#586984;}
	.st7{fill:#2F3950;}
	.st8{fill:url(#SVGID_3_);}
	.st9{fill:#F54336;}
	.st10{fill:#870300;}
	.st11{font-family:'SimHei';}
	.st12{font-size:11.7043px;}
	.st13{fill:url(#SVGID_4_);}
	.st14{fill:#4383C4;}
	.st15{fill:#2B81FF;}
	.st16{fill:#004FAD;}
	.st17{font-size:11.5237px;}
	.st18{fill:url(#SVGID_5_);}
	.st19{fill:#E95517;}
	.st20{fill:#5A2C1C;}
	.st21{fill:url(#SVGID_6_);}
	.st22{fill:#BA247F;}
	.st23{fill:#582C63;}
	.st24{fill:url(#SVGID_7_);}
	.st25{fill:#2EA4A0;}
	.st26{fill:#094842;}
	.st27{fill:url(#SVGID_8_);}
	.st28{fill:#62B500;}
	.st29{fill:#315400;}
	.st30{font-size:11.6372px;}
	.st31{fill:url(#SVGID_9_);}
	.st32{fill:#56B032;}
	.st33{fill:url(#SVGID_10_);}
	.st34{fill:#FF8500;}
	.st35{fill:url(#SVGID_11_);}
	.st36{fill:url(#SVGID_12_);}
	.st37{fill:url(#SVGID_13_);}
	.st38{fill:url(#SVGID_14_);}
	.st39{fill:#165D9C;}
	.st40{fill:#143244;}
	.st41{fill:url(#SVGID_15_);}
	.st42{fill:#4B5CC4;}
	.st43{fill:#212B60;}
	.st44{fill:url(#SVGID_16_);}
	.st45{fill:#ED5564;}
	.st46{fill:#751F2F;}
	.st47{fill:url(#SVGID_17_);}
	.st48{fill:url(#SVGID_18_);}
	.st49{fill:#3795E2;}
	.st50{fill:#24506D;}
	.st51{fill:url(#SVGID_19_);}
	.st52{fill:url(#SVGID_20_);}
	.st53{fill:url(#SVGID_21_);}
	.st54{fill:#BF2114;}
	.st55{fill:url(#SVGID_22_);}
	.st56{fill:url(#SVGID_23_);}
	.st57{fill:url(#SVGID_24_);}
	.st58{fill:#1E8E4B;}
	.st59{fill:url(#SVGID_25_);}
	.st60{fill:url(#SVGID_26_);}
	.st61{fill:url(#SVGID_27_);}
	.st62{fill:#D37C26;}
	.st63{fill:url(#SVGID_28_);}
	.st64{fill:#F90B0B;}
	.st65{fill:#6B0000;}
	.st66{fill:none;stroke:#F90B0B;stroke-width:0.25;stroke-miterlimit:10;}
	.st67{fill:url(#SVGID_29_);}
	.st68{fill:#0FB579;}
	.st69{fill:#117B55;}
	.st70{fill:#0FB579;stroke:#117B55;stroke-miterlimit:10;}
	.st71{fill-rule:evenodd;clip-rule:evenodd;fill:#3795E2;}
	.st72{fill:none;stroke:#ED5564;stroke-width:0.2;stroke-miterlimit:10;}
</style>
<g>
	
		<radialGradient id="SVGID_1_" cx="-690.869" cy="-1329.7955" r="5.6025" fx="-691.1461" fy="-1329.7972" gradientTransform="matrix(0 0.6662 -1.3516 0 -1768.4061 515.3701)" gradientUnits="userSpaceOnUse">
		<stop  offset="0.0256" style="stop-color:#040000;stop-opacity:0.55"/>
		<stop  offset="0.8602" style="stop-color:#040000;stop-opacity:0"/>
	</radialGradient>
	<ellipse class="st0" cx="29" cy="54.2" rx="7.2" ry="3.8"/>
	<path class="st1" d="M33.61,23.52c0,2.61-2,4.61-4.61,4.61c-2.51,0-4.41-1.9-4.61-4.31c0-0.1,0-0.1,0-0.2c0-0.1,0-0.1,0-0.2
		c0.1-1.6,1-3.01,2.31-3.71l0,0c0.1-0.1,0.3-0.2,0.5-0.2c0.5-0.2,1.1-0.3,1.7-0.3C31.61,18.91,33.61,20.91,33.61,23.52z"/>
	<path class="st2" d="M39.68,26.72c0,5.51-4.31,10.12-9.72,10.72v18.54h-2.1V37.25c-5.31-0.6-9.52-5.11-9.52-10.62
		C18.23,20.81,23.04,16,28.95,16S39.68,20.81,39.68,26.72z"/>
	<circle class="st1" cx="29" cy="26.72" r="4.81"/>
</g>
<g>
	
		<radialGradient id="SVGID_2_" cx="-663.3769" cy="2540.668" r="5.3444" fx="-663.6411" fy="2540.6663" gradientTransform="matrix(0 0.6662 1.3516 0 -3363.1746 613.1851)" gradientUnits="userSpaceOnUse">
		<stop  offset="0.0256" style="stop-color:#231815;stop-opacity:0.55"/>
		<stop  offset="0.8602" style="stop-color:#231815;stop-opacity:0"/>
	</radialGradient>
	<ellipse class="st3" cx="70.79" cy="170.29" rx="6.9" ry="3.7"/>
	<g>
		<g class="st4">
			<path class="st5" d="M68.29,164.09h-4.7c-2.7,0-5-2.2-5-5v-14.6c0-2.7,2.2-5,5-5h14.6c2.7,0,5,2.2,5,5v14.6c0,2.7-2.2,5-5,5h-4.6
				l-2.7,7L68.29,164.09z"/>
			<path class="st5" d="M78.39,139.69c2.6,0,4.8,2.1,4.8,4.8v14.6c0,2.6-2.1,4.8-4.8,4.8h-4.5h-0.3l-0.1,0.3l-2.4,6.2l-2.4-6.2
				l-0.1-0.3h-0.3h-4.5c-2.6,0-4.8-2.1-4.8-4.8v-14.6c0-2.6,2.1-4.8,4.8-4.8H78.39 M78.39,139.19h-14.7c-2.9,0-5.3,2.3-5.3,5.3v14.6
				c0,2.9,2.3,5.3,5.3,5.3h4.5l2.8,7.4l2.9-7.4h4.5c2.9,0,5.3-2.3,5.3-5.3v-14.6C83.69,141.59,81.29,139.19,78.39,139.19
				L78.39,139.19z"/>
		</g>
		<g>
			<path class="st6" d="M68.19,163.29h-4.7c-2.7,0-5-2.2-5-5v-14.6c0-2.7,2.2-5,5-5h14.6c2.7,0,5,2.2,5,5v14.6c0,2.7-2.2,5-5,5h-4.6
				l-2.7,7L68.19,163.29z"/>
			<g>
				<path class="st7" d="M78.29,138.89c2.6,0,4.8,2.1,4.8,4.8v14.6c0,2.6-2.1,4.8-4.8,4.8h-4.5h-0.3l-0.1,0.3l-2.4,6.2l-2.4-6.2
					l-0.1-0.3h-0.3h-4.5c-2.6,0-4.8-2.1-4.8-4.8v-14.6c0-2.6,2.1-4.8,4.8-4.8H78.29 M78.29,138.39h-14.7c-2.9,0-5.3,2.3-5.3,5.3
					v14.6c0,2.9,2.3,5.3,5.3,5.3h4.5l2.8,7.4l2.9-7.4h4.5c2.9,0,5.3-2.3,5.3-5.3v-14.6C83.59,140.69,81.19,138.39,78.29,138.39
					L78.29,138.39z"/>
			</g>
		</g>
	</g>
	<path class="st1" d="M77.39,160.99h-12.9c-1.8,0-3.3-1.4-3.3-3.3v-12.8c0-1.8,1.4-3.3,3.3-3.3h12.8c1.8,0,3.3,1.4,3.3,3.3v12.8
		C80.59,159.59,79.19,160.99,77.39,160.99z"/>
	<g>
		<path class="st6" d="M69.59,158.89h-4.5v-6l5.8-5.2l5.8,5.2v6h-4.5v-4.3h-2.6C69.59,154.69,69.59,158.89,69.59,158.89z
			 M63.49,153.29l-1.1-1.3l8.4-7.5l3.3,2.9v-2.4h2.5v4.7l2.6,2.3l-1.1,1.3l-7.3-6.5L63.49,153.29z"/>
	</g>
</g>
<radialGradient id="SVGID_3_" cx="-873.9821" cy="2484.3706" r="5.3029" fx="-874.2445" fy="2484.3691" gradientTransform="matrix(0 0.6662 1.3516 0 -3160.6697 637.4514)" gradientUnits="userSpaceOnUse">
	<stop  offset="0.0256" style="stop-color:#231815;stop-opacity:0.55"/>
	<stop  offset="0.8602" style="stop-color:#231815;stop-opacity:0"/>
</radialGradient>
<ellipse class="st8" cx="197.25" cy="54.4" rx="6.9" ry="3.6"/>
<g>
	<g class="st4">
		<path class="st5" d="M197.25,54.4c-0.3-1.1-0.7-2.2-1.3-3.2c-0.5-2.8-2.3-8.8-5.1-11.1c-0.4-0.3-0.8-0.6-1.2-0.8
			c-3-2.3-4.8-6-4.8-9.9c0-6.9,5.5-12.4,12.4-12.4s12.4,5.5,12.4,12.4c0,3.9-1.8,7.6-4.9,9.9l0,0l-0.1,0.1c-0.3,0.1-0.5,0.3-0.8,0.6
			c-2.9,2.2-4.8,8.3-5.3,11.1C197.85,52.2,197.45,53.3,197.25,54.4z"/>
		<path class="st5" d="M197.15,17.3c6.8,0,12.2,5.4,12.2,12.2c0,3.8-1.7,7.4-4.7,9.7l0,0l-0.1,0.1c-0.3,0.2-0.6,0.4-0.8,0.6
			c-3,2.2-4.8,8.3-5.4,11.2c-0.4,0.8-0.7,1.6-0.9,2.4c-0.3-0.8-0.6-1.5-1-2.3c-0.5-2.9-2.3-9-5.2-11.2c-0.4-0.3-0.8-0.6-1.2-0.8
			c-3-2.3-4.7-5.9-4.7-9.7C184.95,22.7,190.35,17.3,197.15,17.3 M197.15,16.8c-7,0-12.7,5.7-12.7,12.7c0,4.1,1.9,7.8,4.9,10.1
			c0.4,0.2,0.8,0.5,1.2,0.8c2.6,2,4.4,7.5,5.1,11c0.8,1.4,1.3,3,1.5,4.7c0.1-1.7,0.6-3.4,1.4-4.8c0.7-3.5,2.6-9,5.2-11
			c0.3-0.2,0.6-0.4,0.8-0.6l0,0c3.1-2.3,5-6.1,5-10.2C209.85,22.5,204.15,16.8,197.15,16.8L197.15,16.8z"/>
	</g>
	<g>
		<path class="st9" d="M197.15,53.6c-0.3-1.1-0.7-2.2-1.3-3.2c-0.5-2.8-2.3-8.8-5.1-11.1c-0.4-0.3-0.8-0.6-1.2-0.8
			c-3-2.3-4.8-6-4.8-9.9c0-6.9,5.5-12.4,12.4-12.4s12.4,5.5,12.4,12.4c0,3.9-1.8,7.6-4.9,9.9l0,0l-0.1,0.1c-0.3,0.1-0.5,0.3-0.8,0.6
			c-2.9,2.2-4.8,8.3-5.3,11.1C197.75,51.4,197.35,52.5,197.15,53.6z"/>
		<g>
			<path class="st10" d="M197.05,16.5c6.8,0,12.2,5.4,12.2,12.2c0,3.8-1.7,7.4-4.7,9.7l0,0l-0.1,0.1c-0.3,0.2-0.6,0.4-0.8,0.6
				c-3,2.2-4.8,8.3-5.4,11.2c-0.4,0.8-0.7,1.6-0.9,2.4c-0.3-0.8-0.6-1.5-1-2.3c-0.5-2.9-2.3-9-5.2-11.2c-0.4-0.3-0.8-0.6-1.2-0.8
				c-3-2.3-4.7-5.9-4.7-9.7C184.85,21.9,190.25,16.5,197.05,16.5 M197.05,16c-7,0-12.7,5.7-12.7,12.7c0,4.1,1.9,7.8,4.9,10.1
				c0.4,0.2,0.8,0.5,1.2,0.8c2.6,2,4.4,7.5,5.1,11c0.8,1.4,1.3,3,1.5,4.7c0.1-1.7,0.6-3.4,1.4-4.8c0.7-3.5,2.6-9,5.2-11
				c0.3-0.2,0.6-0.4,0.8-0.6l0,0c3.1-2.3,5-6.1,5-10.2C209.75,21.7,204.05,16,197.05,16L197.05,16z"/>
		</g>
	</g>
</g>
<circle class="st1" cx="197.15" cy="28.8" r="9"/>
<text transform="matrix(1 0 0 1 191.2518 31.9729)" class="st9 st11 st12">终</text>
<g>
	
		<radialGradient id="SVGID_4_" cx="-847.9693" cy="2328.7388" r="5.2256" fx="-848.2276" fy="2328.7373" gradientTransform="matrix(0 0.6662 1.3516 0 -3118.5735 678.1494)" gradientUnits="userSpaceOnUse">
		<stop  offset="0.0256" style="stop-color:#231815;stop-opacity:0.55"/>
		<stop  offset="0.8602" style="stop-color:#231815;stop-opacity:0"/>
	</radialGradient>
	<ellipse class="st13" cx="28.95" cy="112.4" rx="6.8" ry="3.6"/>
	<path class="st14" d="M40.15,86.2c0,3.6-1.8,7.4-4.5,9.8c-0.6,0.4-1.1,0.8-1.6,1.3c-2.3,2.2-3.7,5.5-3.7,9c0,0.3,0,0.5,0,0.8
		c-0.9,2-1.4,4.3-1.4,6.7c0-2.4-0.5-4.7-1.4-6.7c0-0.3,0-0.5,0-0.8c0-3.9-1.7-7.4-4.3-9.5c-0.2-0.1-0.3-0.3-0.5-0.4l0,0
		c-3-2.5-5.2-6.5-5.2-10.3c0-6.3,5.1-11.4,11.2-11.4S40.15,79.9,40.15,86.2z"/>
	<g>
		<g class="st4">
			<path class="st5" d="M29.15,111.2c-0.2-1.3-0.7-2.4-1.2-3.5c0-0.2,0-0.5,0-0.7c0-3.8-1.6-7.4-4.4-9.7c-0.2-0.1-0.3-0.3-0.5-0.4
				l0,0c-3-2.7-5-6.7-5-10.2c0-6.2,4.9-11.1,10.9-11.1s10.9,5,10.9,11.1c0,3.4-1.7,7.2-4.4,9.7c-0.6,0.4-1.1,0.8-1.7,1.3
				c-2.4,2.4-3.8,5.8-3.8,9.2c0,0.2,0,0.5,0,0.7C29.75,108.9,29.35,109.9,29.15,111.2z"/>
			<path class="st5" d="M29.05,75.8c5.9,0,10.7,4.9,10.7,10.9c0,3.3-1.6,7-4.3,9.5c-0.6,0.4-1.2,0.9-1.7,1.4
				c-2.5,2.4-3.9,5.9-3.9,9.4c0,0.2,0,0.5,0,0.7c-0.4,0.8-0.7,1.6-0.9,2.5c-0.2-0.8-0.5-1.6-0.9-2.4c0-0.2,0-0.5,0-0.7
				c0-3.9-1.6-7.5-4.5-9.9c-0.2-0.1-0.3-0.3-0.5-0.4l0,0l0,0c-3-2.6-5-6.5-5-9.9C18.45,80.7,23.15,75.8,29.05,75.8 M29.05,75.3
				c-6.2,0-11.2,5.1-11.2,11.4c0,3.9,2.2,7.8,5.2,10.3l0,0c0.2,0.1,0.3,0.3,0.5,0.4c2.6,2.2,4.3,5.7,4.3,9.5c0,0.3,0,0.5,0,0.8
				c0.9,2,1.4,3.7,1.4,6.2c0-2.4,0.5-4.2,1.4-6.2c0-0.3,0-0.5,0-0.8c0-3.6,1.4-6.9,3.7-9c0.5-0.5,1.1-1,1.6-1.3
				c2.6-2.5,4.5-6.3,4.5-9.8C40.25,80.4,35.25,75.3,29.05,75.3L29.05,75.3z"/>
		</g>
		<g>
			<path class="st15" d="M29.05,110.4c-0.2-1.3-0.7-2.4-1.2-3.5c0-0.2,0-0.5,0-0.7c0-3.8-1.6-7.4-4.4-9.7c-0.2-0.1-0.3-0.3-0.5-0.4
				l0,0c-3.1-2.6-5.1-6.7-5.1-10.1c0-6.2,4.9-11.1,10.9-11.1s10.9,5,10.9,11.1c0,3.4-1.7,7.2-4.4,9.7c-0.6,0.4-1.1,0.8-1.7,1.3
				c-2.4,2.4-3.8,5.8-3.8,9.2c0,0.2,0,0.5,0,0.7C29.65,108.1,29.25,109.1,29.05,110.4z"/>
			<g>
				<path class="st16" d="M28.95,75c5.9,0,10.7,4.9,10.7,10.9c0,3.3-1.6,7-4.3,9.5c-0.6,0.4-1.2,0.9-1.7,1.4
					c-2.5,2.4-3.9,5.9-3.9,9.4c0,0.2,0,0.5,0,0.7c-0.4,0.8-0.7,1.6-0.9,2.5c-0.2-0.8-0.5-1.6-0.9-2.4c0-0.2,0-0.5,0-0.7
					c0-3.9-1.6-7.5-4.5-9.9c-0.2-0.1-0.3-0.3-0.5-0.4l0,0l0,0c-3-2.6-5-6.5-5-9.9C18.35,79.9,23.05,75,28.95,75 M28.95,74.5
					c-6.2,0-11.2,5.1-11.2,11.4c0,3.9,2.2,7.8,5.2,10.3l0,0c0.2,0.1,0.3,0.3,0.5,0.4c2.6,2.2,4.3,5.7,4.3,9.5c0,0.3,0,0.5,0,0.8
					c0.9,2,1.4,3.7,1.4,6.2c0-2.4,0.5-4.2,1.4-6.2c0-0.3,0-0.5,0-0.8c0-3.6,1.4-6.9,3.7-9c0.5-0.5,1.1-1,1.6-1.3
					c2.6-2.5,4.5-6.3,4.5-9.8C40.15,79.6,35.15,74.5,28.95,74.5L28.95,74.5z"/>
			</g>
		</g>
	</g>
	<circle class="st1" cx="29.05" cy="85.5" r="7.8"/>
	<text transform="matrix(1 0 0 1 23.2788 89.6041)" class="st15 st11 st17">途</text>
</g>
<g>
	
		<radialGradient id="SVGID_5_" cx="-787.0945" cy="2540.1482" r="5.3382" fx="-787.3583" fy="2540.1467" gradientTransform="matrix(0 0.6662 1.3516 0 -3278.3594 695.5374)" gradientUnits="userSpaceOnUse">
		<stop  offset="0.0256" style="stop-color:#231815;stop-opacity:0.55"/>
		<stop  offset="0.8602" style="stop-color:#231815;stop-opacity:0"/>
	</radialGradient>
	<ellipse class="st18" cx="155" cy="170.3" rx="6.9" ry="3.7"/>
	<g>
		<g class="st4">
			<path class="st5" d="M152.3,163.9h-4.7c-2.7,0-5-2.2-5-5v-14.6c0-2.7,2.2-5,5-5h14.6c2.7,0,5,2.2,5,5v14.6c0,2.7-2.2,5-5,5h-4.6
				l-2.7,7L152.3,163.9z"/>
			<path class="st5" d="M162.3,139.5c2.6,0,4.8,2.1,4.8,4.8v14.6c0,2.6-2.1,4.8-4.8,4.8h-4.5h-0.3l-0.1,0.3l-2.4,6.2l-2.4-6.2
				l-0.1-0.3h-0.3h-4.5c-2.6,0-4.8-2.1-4.8-4.8v-14.6c0-2.6,2.1-4.8,4.8-4.8H162.3 M162.3,139h-14.6c-2.9,0-5.3,2.3-5.3,5.3v14.6
				c0,2.9,2.3,5.3,5.3,5.3h4.5l2.8,7.4l2.9-7.4h4.5c2.9,0,5.3-2.3,5.3-5.3v-14.6C167.5,141.3,165.2,139,162.3,139L162.3,139z"/>
		</g>
		<g>
			<path class="st19" d="M152.2,163.1h-4.7c-2.7,0-5-2.2-5-5v-14.6c0-2.7,2.2-5,5-5h14.6c2.7,0,5,2.2,5,5v14.6c0,2.7-2.2,5-5,5h-4.6
				l-2.7,7L152.2,163.1z"/>
			<path class="st20" d="M162.2,138.7c2.6,0,4.8,2.1,4.8,4.8v14.6c0,2.6-2.1,4.8-4.8,4.8h-4.5h-0.3l-0.1,0.3l-2.4,6.2l-2.4-6.2
				l-0.1-0.3h-0.3h-4.5c-2.6,0-4.8-2.1-4.8-4.8v-14.6c0-2.6,2.1-4.8,4.8-4.8H162.2 M162.2,138.2h-14.6c-2.9,0-5.3,2.3-5.3,5.3v14.6
				c0,2.9,2.3,5.3,5.3,5.3h4.5l2.8,7.4l2.9-7.4h4.5c2.9,0,5.3-2.3,5.3-5.3v-14.6C167.4,140.5,165.1,138.2,162.2,138.2L162.2,138.2z"
				/>
		</g>
	</g>
	<path class="st1" d="M161.2,160.7h-12.8c-1.8,0-3.3-1.4-3.3-3.3v-12.8c0-1.8,1.4-3.3,3.3-3.3h12.8c1.8,0,3.3,1.4,3.3,3.3v12.8
		C164.5,159.3,163,160.7,161.2,160.7z"/>
	<path class="st19" d="M151.3,157c-0.9,0-1.6,0.7-1.6,1.5s0.7,1.5,1.6,1.5s1.6-0.7,1.6-1.5C153,157.7,152.3,157,151.3,157L151.3,157
		z M146.6,145v1.5h1.6l2.8,5.7l-1.1,1.8c-0.1,0.2-0.2,0.4-0.2,0.7c0,0.8,0.7,1.5,1.6,1.5h9.5v-1.4h-9.2c-0.1,0-0.2-0.1-0.2-0.2v-0.1
		l0.7-1.2h6c0.6,0,1.1-0.3,1.4-0.8l2.8-4.9c0.1-0.1,0.1-0.2,0.1-0.4c0-0.4-0.4-0.7-0.8-0.7h-11.8l-0.7-1.5L146.6,145L146.6,145
		L146.6,145z M159.4,157c-0.9,0-1.6,0.7-1.6,1.5s0.7,1.5,1.6,1.5c0.9,0,1.6-0.7,1.6-1.5S160.2,157,159.4,157L159.4,157z"/>
</g>
<g>
	
		<radialGradient id="SVGID_6_" cx="-725.5168" cy="2540.208" r="5.3422" fx="-725.781" fy="2540.2065" gradientTransform="matrix(0 0.6662 1.3516 0 -3320.5444 654.5291)" gradientUnits="userSpaceOnUse">
		<stop  offset="0.0256" style="stop-color:#231815;stop-opacity:0.55"/>
		<stop  offset="0.8602" style="stop-color:#231815;stop-opacity:0"/>
	</radialGradient>
	<ellipse class="st21" cx="112.85" cy="170.3" rx="6.9" ry="3.7"/>
	<g>
		<g class="st4">
			<path class="st5" d="M110.25,164.5h-4.7c-2.7,0-5-2.2-5-5v-14.7c0-2.7,2.2-5,5-5h14.6c2.7,0,5,2.2,5,5v14.6c0,2.7-2.2,5-5,5h-4.6
				l-2.7,7L110.25,164.5z"/>
			<path class="st5" d="M120.35,140c2.6,0,4.8,2.1,4.8,4.8v14.6c0,2.6-2.1,4.8-4.8,4.8h-4.5h-0.3l-0.1,0.3l-2.4,6.2l-2.4-6.2
				l-0.1-0.3h-0.3h-4.5c-2.6,0-4.8-2.1-4.8-4.8v-14.6c0-2.6,2.1-4.8,4.8-4.8H120.35 M120.35,139.5h-14.6c-2.9,0-5.3,2.3-5.3,5.3
				v14.6c0,2.9,2.3,5.3,5.3,5.3h4.5l2.8,7.4l2.9-7.4h4.5c2.9,0,5.3-2.3,5.3-5.3v-14.6C125.55,141.9,123.25,139.5,120.35,139.5
				L120.35,139.5z"/>
		</g>
		<g>
			<path class="st22" d="M110.15,163.7h-4.7c-2.7,0-5-2.2-5-5V144c0-2.7,2.2-5,5-5h14.6c2.7,0,5,2.2,5,5v14.6c0,2.7-2.2,5-5,5h-4.6
				l-2.7,7L110.15,163.7z"/>
			<path class="st23" d="M120.15,139.2c2.6,0,4.8,2.1,4.8,4.8v14.6c0,2.6-2.1,4.8-4.8,4.8h-4.5h-0.3l-0.1,0.3l-2.4,6.2l-2.4-6.2
				l-0.1-0.3h-0.3h-4.5c-2.6,0-4.8-2.1-4.8-4.8V144c0-2.6,2.1-4.8,4.8-4.8H120.15 M120.15,138.7h-14.6c-2.9,0-5.3,2.3-5.3,5.3v14.6
				c0,2.9,2.3,5.3,5.3,5.3h4.5l2.8,7.4l2.9-7.4h4.5c2.9,0,5.3-2.3,5.3-5.3V144C125.45,141,123.15,138.7,120.15,138.7L120.15,138.7z"
				/>
		</g>
	</g>
	<path class="st1" d="M119.25,160.8h-12.8c-1.8,0-3.3-1.4-3.3-3.3v-12.8c0-1.8,1.4-3.3,3.3-3.3h12.8c1.8,0,3.3,1.4,3.3,3.3v12.8
		C122.55,159.3,121.05,160.8,119.25,160.8z"/>
	<g>
		<path class="st22" d="M119.85,144h-8.9c-0.5,0-1,0.4-1,1v13.3c0,0.5,0.4,1,1,1h8.9c0.5,0,1-0.4,1-1V145
			C120.95,144.5,120.45,144,119.85,144z M113.95,148.3c0,0.3-0.2,0.5-0.5,0.5h-1.1c-0.3,0-0.5-0.2-0.5-0.5v-1.1
			c0-0.3,0.2-0.5,0.5-0.5h1.1c0.3,0,0.5,0.2,0.5,0.5V148.3z M118.75,156.3c0,0.3-0.2,0.5-0.5,0.5h-1.2c-0.3,0-0.5-0.2-0.5-0.5v-1.1
			c0-0.3,0.2-0.5,0.5-0.5h1.1c0.3,0,0.5,0.2,0.5,0.5L118.75,156.3L118.75,156.3z M118.75,152.2c0,0.3-0.2,0.5-0.5,0.5h-1.2
			c-0.3,0-0.5-0.2-0.5-0.5v-1.1c0-0.3,0.2-0.5,0.5-0.5h1.1c0.3,0,0.5,0.2,0.5,0.5L118.75,152.2L118.75,152.2z M118.75,148.3
			c0,0.3-0.2,0.5-0.5,0.5h-1.2c-0.3,0-0.5-0.2-0.5-0.5v-1.1c0-0.3,0.2-0.5,0.5-0.5h1.1c0.3,0,0.5,0.2,0.5,0.5L118.75,148.3
			L118.75,148.3z"/>
		<path class="st22" d="M108.45,159.3h-2.6v-3.6l3.5-3l3.5,3v3.6h-2.7v-2.5h-1.5v2.5H108.45z M104.85,156l-0.6-0.8l5-4.5l1.9,1.7
			V151h1.5v2.7l1.5,1.3l-0.6,0.8l-4.4-3.9L104.85,156z"/>
		<polygon class="st1" points="112.55,155.8 112.55,159.3 109.95,159.3 109.95,156.9 109.95,156.9 109.95,153.4 		"/>
		<polygon class="st1" points="114.25,155.2 113.45,156 109.95,152.8 109.95,151.4 111.15,152.5 111.15,151.1 112.55,151.1 
			112.55,153.8 		"/>
	</g>
</g>
<g>
	
		<radialGradient id="SVGID_7_" cx="-602.2407" cy="2540.6311" r="5.3431" fx="-602.5048" fy="2540.6296" gradientTransform="matrix(0 0.6662 1.3516 0 -3405.0627 572.4658)" gradientUnits="userSpaceOnUse">
		<stop  offset="0.0256" style="stop-color:#231815;stop-opacity:0.55"/>
		<stop  offset="0.8602" style="stop-color:#231815;stop-opacity:0"/>
	</radialGradient>
	<ellipse class="st24" cx="28.89" cy="170.3" rx="6.9" ry="3.7"/>
	<g>
		<g class="st4">
			<path class="st5" d="M26.19,164.3h-4.7c-2.7,0-5-2.2-5-5v-14.7c0-2.7,2.2-5,5-5h14.6c2.7,0,5,2.2,5,5v14.6c0,2.7-2.2,5-5,5h-4.6
				l-2.7,7L26.19,164.3z"/>
			<path class="st5" d="M36.29,139.8c2.6,0,4.8,2.1,4.8,4.8v14.6c0,2.6-2.1,4.8-4.8,4.8h-4.5h-0.3l-0.1,0.3l-2.4,6.2l-2.4-6.2
				l-0.1-0.3h-0.3h-4.5c-2.6,0-4.8-2.1-4.8-4.8v-14.6c0-2.6,2.1-4.8,4.8-4.8H36.29 M36.29,139.3h-14.6c-2.9,0-5.3,2.3-5.3,5.3v14.6
				c0,2.9,2.3,5.3,5.3,5.3h4.5l2.8,7.4l2.9-7.4h4.5c2.9,0,5.3-2.3,5.3-5.3v-14.6C41.59,141.7,39.29,139.3,36.29,139.3L36.29,139.3z"
				/>
		</g>
		<g>
			<path class="st25" d="M26.09,163.5h-4.7c-2.7,0-5-2.2-5-5v-14.7c0-2.7,2.2-5,5-5h14.6c2.7,0,5,2.2,5,5v14.6c0,2.7-2.2,5-5,5h-4.6
				l-2.7,7L26.09,163.5z"/>
			<path class="st26" d="M36.19,139c2.6,0,4.8,2.1,4.8,4.8v14.6c0,2.6-2.1,4.8-4.8,4.8h-4.5h-0.3l-0.1,0.3l-2.4,6.2l-2.4-6.2
				l-0.1-0.3h-0.4h-4.5c-2.6,0-4.8-2.1-4.8-4.8v-14.6c0-2.6,2.1-4.8,4.8-4.8H36.19 M36.19,138.5h-14.6c-2.9,0-5.3,2.3-5.3,5.3v14.6
				c0,2.9,2.3,5.3,5.3,5.3h4.4l2.8,7.4l2.9-7.4h4.5c2.9,0,5.3-2.3,5.3-5.3v-14.6C41.49,140.9,39.19,138.5,36.19,138.5L36.19,138.5z"
				/>
		</g>
	</g>
	<path class="st1" d="M35.29,160.9h-12.8c-1.8,0-3.3-1.4-3.3-3.3v-12.9c0-1.8,1.4-3.3,3.3-3.3h12.8c1.8,0,3.3,1.4,3.3,3.3v12.8
		C38.59,159.4,37.09,160.9,35.29,160.9z"/>
	<path class="st25" d="M34.89,157.3v-9.8h-3.7v9.8h-1.2V144h-7.2v13.3h-1.2v1.1h14.4v-1.1H34.89z M32.19,149.7h1.6v1.6h-1.6V149.7z
		 M32.19,152.9h1.6v1.6h-1.6V152.9z M27.69,153.7h-2.4v-2.4h2.4V153.7z M27.69,148.8h-2.4v-2.4h2.4V148.8z"/>
</g>
<g>
	
		<radialGradient id="SVGID_8_" cx="-812.6996" cy="2484.2878" r="5.2725" fx="-812.9602" fy="2484.2861" gradientTransform="matrix(0 0.6662 1.3516 0 -3202.8044 596.694)" gradientUnits="userSpaceOnUse">
		<stop  offset="0.0256" style="stop-color:#231815;stop-opacity:0.55"/>
		<stop  offset="0.8602" style="stop-color:#231815;stop-opacity:0"/>
	</radialGradient>
	<ellipse class="st27" cx="155" cy="54.37" rx="6.8" ry="3.6"/>
	<g>
		<g class="st4">
			<path class="st5" d="M155.2,54.37c-0.3-1.1-0.7-2.2-1.3-3.2c-0.5-2.8-2.3-8.7-5.1-11c-0.4-0.3-0.8-0.6-1.2-0.8
				c-3-2.3-4.8-5.9-4.8-9.8c0-6.8,5.5-12.3,12.3-12.3s12.3,5.5,12.3,12.3c0,3.9-1.8,7.5-4.9,9.8l0,0l-0.1,0.1
				c-0.3,0.1-0.5,0.3-0.8,0.6c-2.9,2.2-4.8,8.2-5.3,11C155.8,52.17,155.4,53.27,155.2,54.37z"/>
			<path class="st5" d="M155.1,17.47c6.7,0,12.1,5.4,12.1,12.1c0,3.8-1.7,7.3-4.7,9.6l0,0l-0.1,0.1c-0.3,0.2-0.6,0.4-0.8,0.6
				c-3,2.2-4.8,8.2-5.4,11.1c-0.4,0.8-0.7,1.6-0.9,2.4c-0.3-0.8-0.6-1.5-1-2.3c-0.5-2.9-2.3-8.9-5.2-11.1c-0.4-0.3-0.8-0.6-1.2-0.8
				c-3-2.3-4.7-5.8-4.7-9.6C143,22.97,148.4,17.47,155.1,17.47 M155.1,16.97c-6.9,0-12.6,5.6-12.6,12.6c0,4.1,1.9,7.7,4.9,10
				c0.4,0.2,0.8,0.5,1.2,0.8c2.6,2,4.4,7.4,5.1,10.9c0.8,1.4,1.3,3,1.5,4.7c0.1-1.7,0.6-3.4,1.4-4.8c0.7-3.5,2.6-8.9,5.2-10.9
				c0.3-0.2,0.6-0.4,0.8-0.6l0,0c3.1-2.3,5-6,5-10.1C167.7,22.67,162,16.97,155.1,16.97L155.1,16.97z"/>
		</g>
		<g>
			<path class="st28" d="M155.1,53.57c-0.3-1.1-0.7-2.2-1.3-3.2c-0.5-2.8-2.3-8.7-5.1-11c-0.4-0.3-0.8-0.6-1.2-0.8
				c-3-2.3-4.8-5.9-4.8-9.8c0-6.8,5.5-12.3,12.3-12.3s12.3,5.5,12.3,12.3c0,3.9-1.8,7.5-4.9,9.8l0,0l-0.1,0.1
				c-0.3,0.1-0.5,0.3-0.8,0.6c-2.9,2.2-4.8,8.2-5.3,11C155.7,51.37,155.3,52.47,155.1,53.57z"/>
			<g>
				<path class="st29" d="M155,16.67c6.7,0,12.1,5.4,12.1,12.1c0,3.8-1.7,7.3-4.7,9.6l0,0l-0.1,0.1c-0.3,0.2-0.6,0.4-0.8,0.6
					c-3,2.2-4.8,8.2-5.4,11.1c-0.4,0.8-0.7,1.6-0.9,2.4c-0.3-0.8-0.6-1.5-1-2.3c-0.5-2.9-2.3-8.9-5.2-11.1c-0.4-0.3-0.8-0.6-1.2-0.8
					c-3-2.3-4.7-5.8-4.7-9.6C142.9,22.17,148.3,16.67,155,16.67 M155,16.17c-6.9,0-12.6,5.6-12.6,12.6c0,4.1,1.9,7.7,4.9,10
					c0.4,0.2,0.8,0.5,1.2,0.8c2.6,2,4.4,7.4,5.1,10.9c0.8,1.4,1.3,3,1.5,4.7c0.1-1.7,0.6-3.4,1.4-4.8c0.7-3.5,2.6-8.9,5.2-10.9
					c0.3-0.2,0.6-0.4,0.8-0.6l0,0c3.1-2.3,5-6,5-10.1C167.6,21.87,161.9,16.17,155,16.17L155,16.17z"/>
			</g>
		</g>
	</g>
	<circle class="st1" cx="155" cy="28.77" r="8.9"/>
	<text transform="matrix(1 0 0 1 149.0773 32.3723)" class="st28 st11 st30">起</text>
</g>
<g>
	<path class="st1" d="M75.6,23.5c0,2.6-2,4.6-4.6,4.6c-2.5,0-4.4-1.9-4.6-4.3c0-0.1,0-0.1,0-0.2s0-0.1,0-0.2c0.1-1.6,1-3,2.3-3.7
		l0,0c0.1-0.1,0.3-0.2,0.5-0.2c0.5-0.2,1.1-0.3,1.7-0.3C73.6,18.9,75.6,20.9,75.6,23.5z"/>
	
		<radialGradient id="SVGID_9_" cx="-690.869" cy="-1360.7449" r="5.6025" fx="-691.1461" fy="-1360.7465" gradientTransform="matrix(0 0.6662 -1.3516 0 -1768.4061 515.3701)" gradientUnits="userSpaceOnUse">
		<stop  offset="0.0256" style="stop-color:#040000;stop-opacity:0.55"/>
		<stop  offset="0.8602" style="stop-color:#040000;stop-opacity:0"/>
	</radialGradient>
	<ellipse class="st31" cx="70.85" cy="54.2" rx="7.2" ry="3.8"/>
	<g>
		<path class="st32" d="M81.65,26.8c0,5.5-4.3,10.1-9.7,10.7V56h-2.1V37.3c-5.3-0.6-9.5-5.1-9.5-10.6c-0.1-5.8,4.7-10.6,10.6-10.6
			S81.65,20.9,81.65,26.8z"/>
	</g>
	<circle class="st1" cx="71" cy="26.8" r="4.8"/>
</g>
<g>
	
		<radialGradient id="SVGID_10_" cx="-690.869" cy="-1391.9297" r="5.6025" fx="-691.1461" fy="-1391.9313" gradientTransform="matrix(0 0.6662 -1.3516 0 -1768.4061 515.3701)" gradientUnits="userSpaceOnUse">
		<stop  offset="0.0256" style="stop-color:#040000;stop-opacity:0.55"/>
		<stop  offset="0.8602" style="stop-color:#040000;stop-opacity:0"/>
	</radialGradient>
	<ellipse class="st33" cx="113" cy="54.2" rx="7.2" ry="3.8"/>
	<g>
		<path class="st34" d="M123.65,26.8c0,5.5-4.3,10.1-9.7,10.7V56h-2.1V37.3c-5.3-0.6-9.5-5.1-9.5-10.6c0-5.9,4.8-10.7,10.7-10.7
			S123.65,20.9,123.65,26.8z"/>
	</g>
	<circle class="st1" cx="113" cy="26.8" r="4.8"/>
</g>
<g>
	
		<radialGradient id="SVGID_11_" cx="-638.3852" cy="2478.054" r="5.3422" fx="-638.6494" fy="2478.0525" gradientTransform="matrix(0 0.6662 1.3516 0 -3320.5444 654.5291)" gradientUnits="userSpaceOnUse">
		<stop  offset="0.0256" style="stop-color:#231815;stop-opacity:0.55"/>
		<stop  offset="0.8602" style="stop-color:#231815;stop-opacity:0"/>
	</radialGradient>
	<ellipse class="st35" cx="28.85" cy="228.3" rx="6.9" ry="3.7"/>
	<g>
		<g class="st4">
			<path class="st5" d="M26.25,222.5h-4.7c-2.7,0-5-2.2-5-5v-14.7c0-2.7,2.2-5,5-5h14.6c2.7,0,5,2.2,5,5v14.6c0,2.7-2.2,5-5,5h-4.6
				l-2.7,7L26.25,222.5z"/>
			<path class="st5" d="M36.35,198c2.6,0,4.8,2.1,4.8,4.8v14.6c0,2.6-2.1,4.8-4.8,4.8h-4.5h-0.3l-0.1,0.3l-2.4,6.2l-2.4-6.2
				l-0.1-0.3h-0.3h-4.5c-2.6,0-4.8-2.1-4.8-4.8v-14.6c0-2.6,2.1-4.8,4.8-4.8H36.35 M36.35,197.5h-14.6c-2.9,0-5.3,2.3-5.3,5.3v14.6
				c0,2.9,2.3,5.3,5.3,5.3h4.5l2.8,7.4l2.9-7.4h4.5c2.9,0,5.3-2.3,5.3-5.3v-14.6C41.55,199.9,39.25,197.5,36.35,197.5L36.35,197.5z"
				/>
		</g>
		<g>
			<path class="st22" d="M26.15,221.7h-4.7c-2.7,0-5-2.2-5-5V202c0-2.7,2.2-5,5-5h14.6c2.7,0,5,2.2,5,5v14.6c0,2.7-2.2,5-5,5h-4.6
				l-2.7,7L26.15,221.7z"/>
			<path class="st23" d="M36.15,197.2c2.6,0,4.8,2.1,4.8,4.8v14.6c0,2.6-2.1,4.8-4.8,4.8h-4.5h-0.3l-0.1,0.3l-2.4,6.2l-2.4-6.2
				l-0.1-0.3h-0.3h-4.5c-2.6,0-4.8-2.1-4.8-4.8V202c0-2.6,2.1-4.8,4.8-4.8L36.15,197.2 M36.15,196.7h-14.6c-2.9,0-5.3,2.3-5.3,5.3
				v14.6c0,2.9,2.3,5.3,5.3,5.3h4.5l2.8,7.4l2.9-7.4h4.5c2.9,0,5.3-2.3,5.3-5.3V202C41.45,199,39.15,196.7,36.15,196.7L36.15,196.7z
				"/>
		</g>
	</g>
	<path class="st1" d="M35.25,218.8h-12.8c-1.8,0-3.3-1.4-3.3-3.3v-12.8c0-1.8,1.4-3.3,3.3-3.3h12.8c1.8,0,3.3,1.4,3.3,3.3v12.8
		C38.55,217.3,37.05,218.8,35.25,218.8z"/>
	<path class="st22" d="M28.85,215.8c0.1,0.1,0.2,0.1,0.3,0.1s0.2-0.1,0.3-0.1c1-0.6,1.9-1.4,2.7-2.3c1.4-1.5,2.5-3.4,2.6-5.5l0,0
		c0-2.1-1-4-2.8-5c-1.7-1.1-3.9-1.1-5.7,0c-1.7,1-2.8,2.8-2.8,4.8v0.2c0.1,1.5,0.6,3,1.5,4.2C25.95,213.6,27.25,214.8,28.85,215.8z
		 M27.95,206.5L27.95,206.5l1.2-2.3l1.1,2.3l2.5,0.4l-1.8,1.8l0.4,2.6l-2.3-1.2l-2.3,1.2l0.4-2.6l-1.8-1.8L27.95,206.5z"/>
	<path class="st22" d="M29.05,216.3c-1.7,0-3,0.2-3,0.5s1.4,0.5,3,0.5c1.7,0,3-0.2,3-0.5C32.15,216.6,30.75,216.3,29.05,216.3z"/>
</g>
<g>
	
		<radialGradient id="SVGID_12_" cx="-700.0673" cy="2477.9807" r="5.3382" fx="-700.3314" fy="2477.9792" gradientTransform="matrix(0 0.6662 1.3516 0 -3278.3594 695.5374)" gradientUnits="userSpaceOnUse">
		<stop  offset="0.0256" style="stop-color:#231815;stop-opacity:0.55"/>
		<stop  offset="0.8602" style="stop-color:#231815;stop-opacity:0"/>
	</radialGradient>
	<ellipse class="st36" cx="70.97" cy="228.3" rx="6.9" ry="3.7"/>
	<g>
		<g class="st4">
			<path class="st5" d="M68.27,221.9h-4.7c-2.7,0-5-2.2-5-5v-14.6c0-2.7,2.2-5,5-5h14.6c2.7,0,5,2.2,5,5v14.6c0,2.7-2.2,5-5,5h-4.6
				l-2.7,7L68.27,221.9z"/>
			<path class="st5" d="M78.27,197.5c2.6,0,4.8,2.1,4.8,4.8v14.6c0,2.6-2.1,4.8-4.8,4.8h-4.5h-0.3l-0.1,0.3l-2.4,6.2l-2.4-6.2
				l-0.1-0.3h-0.3h-4.5c-2.6,0-4.8-2.1-4.8-4.8v-14.6c0-2.6,2.1-4.8,4.8-4.8H78.27 M78.27,197h-14.6c-2.9,0-5.3,2.3-5.3,5.3v14.6
				c0,2.9,2.3,5.3,5.3,5.3h4.5l2.8,7.4l2.9-7.4h4.5c2.9,0,5.3-2.3,5.3-5.3v-14.6C83.47,199.3,81.17,197,78.27,197L78.27,197z"/>
		</g>
		<g>
			<path class="st19" d="M68.17,221.1h-4.7c-2.7,0-5-2.2-5-5v-14.6c0-2.7,2.2-5,5-5h14.6c2.7,0,5,2.2,5,5v14.6c0,2.7-2.2,5-5,5h-4.6
				l-2.7,7L68.17,221.1z"/>
			<path class="st20" d="M78.17,196.7c2.6,0,4.8,2.1,4.8,4.8v14.6c0,2.6-2.1,4.8-4.8,4.8h-4.5h-0.3l-0.1,0.3l-2.4,6.2l-2.4-6.2
				l-0.1-0.3h-0.3h-4.5c-2.6,0-4.8-2.1-4.8-4.8v-14.6c0-2.6,2.1-4.8,4.8-4.8L78.17,196.7 M78.17,196.2h-14.6c-2.9,0-5.3,2.3-5.3,5.3
				v14.6c0,2.9,2.3,5.3,5.3,5.3h4.5l2.8,7.4l2.9-7.4h4.5c2.9,0,5.3-2.3,5.3-5.3v-14.6C83.37,198.5,81.07,196.2,78.17,196.2
				L78.17,196.2z"/>
		</g>
	</g>
	<path class="st1" d="M77.17,218.7h-12.8c-1.8,0-3.3-1.4-3.3-3.3v-12.8c0-1.8,1.4-3.3,3.3-3.3h12.8c1.8,0,3.3,1.4,3.3,3.3v12.8
		C80.47,217.3,78.97,218.7,77.17,218.7z"/>
	<g>
		<g>
			<path class="st19" d="M77.77,215h-1.5l-0.9-6.3h0.6c0.1,0,0.2-0.1,0.2-0.2v-2.2c0-0.1-0.1-0.2-0.2-0.2h-1l0,0
				c0.1-1.6-1.8-2.4-1.8-2.4c-0.2-0.1-0.4,0-0.5,0.2s0,0.4,0.2,0.5c0,0,1.5,0.6,1.4,1.7v0.1h-0.6v-0.1c-1.4-2.5-4.2-1.6-4.2-1.6
				c-0.2,0.1-0.3,0.3-0.2,0.4c0.1,0.2,0.3,0.3,0.4,0.2c0.1,0,2.1-0.6,3.2,1.1h-2.2c-0.1,0-0.2,0.1-0.2,0.2v2.2
				c0,0.1,0.1,0.2,0.2,0.2h0.6l-0.9,6.3l0,0l-0.5-3.7h0.1c0.2,0,0.4-0.2,0.4-0.4v-1.5c0-0.2-0.2-0.4-0.4-0.4h-3.4
				c-0.2,0-0.4,0.2-0.4,0.4v1.5c0,0.2,0.2,0.4,0.4,0.4h0.1l-0.5,3.7h-1.8c-0.3,0-0.5,0.2-0.5,0.5s0.2,0.5,0.5,0.5h13.6
				c0.3,0,0.5-0.2,0.5-0.5C78.27,215.3,78.07,215,77.77,215L77.77,215z M67.17,210.8c-0.1-0.1-0.2-0.1-0.3-0.1h-0.1V210h2.7v0.7
				h-0.1c-0.1,0-0.2,0-0.3,0.1s-0.1,0.2-0.1,0.3l0.6,4h-2.9l0.6-4C67.27,211,67.17,210.9,67.17,210.8L67.17,210.8z M67.67,205.3
				c0.1,0,0.3,0,0.5,0s0.3-0.2,0.3-0.4c0-0.2-0.2-0.3-0.4-0.3c-3,0.2-3.6-1.4-3.6-1.5c-0.1-0.2-0.3-0.3-0.4-0.2
				c-0.2,0.1-0.3,0.3-0.2,0.4C63.87,203.4,64.47,205.3,67.67,205.3L67.67,205.3z"/>
		</g>
	</g>
</g>
<g>
	
		<radialGradient id="SVGID_13_" cx="-515.1205" cy="2602.7395" r="5.3466" fx="-515.3848" fy="2602.7378" gradientTransform="matrix(0 0.6662 1.3516 0 -3405.0627 572.4658)" gradientUnits="userSpaceOnUse">
		<stop  offset="0.0256" style="stop-color:#231815;stop-opacity:0.55"/>
		<stop  offset="0.8602" style="stop-color:#231815;stop-opacity:0"/>
	</radialGradient>
	<ellipse class="st37" cx="112.8" cy="228.3" rx="6.9" ry="3.7"/>
	<g>
		<g class="st4">
			<path class="st5" d="M110.1,222.3h-4.7c-2.7,0-5-2.2-5-5v-14.7c0-2.7,2.2-5,5-5H120c2.7,0,5,2.2,5,5v14.6c0,2.7-2.2,5-5,5h-4.6
				l-2.7,7L110.1,222.3z"/>
			<path class="st5" d="M120.2,197.8c2.6,0,4.8,2.1,4.8,4.8v14.6c0,2.6-2.1,4.8-4.8,4.8h-4.5h-0.3l-0.1,0.3l-2.4,6.2l-2.4-6.2
				l-0.1-0.3h-0.3h-4.5c-2.6,0-4.8-2.1-4.8-4.8v-14.6c0-2.6,2.1-4.8,4.8-4.8H120.2 M120.2,197.3h-14.6c-2.9,0-5.3,2.3-5.3,5.3v14.6
				c0,2.9,2.3,5.3,5.3,5.3h4.5l2.8,7.4l2.9-7.4h4.5c2.9,0,5.3-2.3,5.3-5.3v-14.6C125.5,199.7,123.2,197.3,120.2,197.3L120.2,197.3z"
				/>
		</g>
		<g>
			<path class="st25" d="M110,221.5h-4.7c-2.7,0-5-2.2-5-5v-14.7c0-2.7,2.2-5,5-5h14.6c2.7,0,5,2.2,5,5v14.6c0,2.7-2.2,5-5,5h-4.6
				l-2.7,7L110,221.5z"/>
			<path class="st26" d="M120.1,197c2.6,0,4.8,2.1,4.8,4.8v14.6c0,2.6-2.1,4.8-4.8,4.8h-4.5h-0.3l-0.1,0.3l-2.4,6.2l-2.4-6.2
				l-0.1-0.3h-0.4h-4.5c-2.6,0-4.8-2.1-4.8-4.8v-14.6c0-2.6,2.1-4.8,4.8-4.8H120.1 M120.1,196.5h-14.6c-2.9,0-5.3,2.3-5.3,5.3v14.6
				c0,2.9,2.3,5.3,5.3,5.3h4.4l2.8,7.4l2.9-7.4h4.5c2.9,0,5.3-2.3,5.3-5.3v-14.6C125.4,198.9,123.1,196.5,120.1,196.5L120.1,196.5z"
				/>
		</g>
	</g>
	<path class="st1" d="M119.2,218.9h-12.8c-1.8,0-3.3-1.4-3.3-3.3v-12.9c0-1.8,1.4-3.3,3.3-3.3h12.8c1.8,0,3.3,1.4,3.3,3.3v12.8
		C122.5,217.4,121,218.9,119.2,218.9z"/>
	<g>
		<g>
			<path class="st25" d="M119.7,208.1h0.6l-1.8-4.7l-1.8,4.7h0.6l-0.6,1.6h0.6l-0.6,1.6h1.4v4h-12.6v1.4H120v-1.4h-1.1v-4h1.4
				l-0.6-1.6h0.6L119.7,208.1z"/>
			<path class="st25" d="M106.2,214.9h9.3v-5.5h0.8c0.3,0,0.4-0.3,0.2-0.5l-5.4-5.5c-0.1-0.1-0.2-0.1-0.3-0.1s-0.2,0-0.3,0.1
				l-5.4,5.5c-0.2,0.2-0.1,0.5,0.2,0.5h0.8L106.2,214.9L106.2,214.9z M111.2,209.4h1.9v1.9h-1.9V209.4z M111.2,211.8h1.9v1.9h-1.9
				V211.8z M108.1,209.4h1.9v1.9h-1.9V209.4z M108.1,211.8h1.9v1.9h-1.9V211.8z"/>
		</g>
	</g>
</g>
<radialGradient id="SVGID_14_" cx="-551.3578" cy="2478.054" r="5.3422" fx="-551.622" fy="2478.0525" gradientTransform="matrix(0 0.6662 1.3516 0 -3320.5444 654.5291)" gradientUnits="userSpaceOnUse">
	<stop  offset="0.0256" style="stop-color:#231815;stop-opacity:0.55"/>
	<stop  offset="0.8602" style="stop-color:#231815;stop-opacity:0"/>
</radialGradient>
<ellipse class="st38" cx="28.85" cy="286.28" rx="6.9" ry="3.7"/>
<g class="st4">
	<path class="st5" d="M26.25,280.48h-4.7c-2.7,0-5-2.2-5-5v-14.7c0-2.7,2.2-5,5-5h14.6c2.7,0,5,2.2,5,5v14.6c0,2.7-2.2,5-5,5h-4.6
		l-2.7,7L26.25,280.48z"/>
	<path class="st5" d="M36.35,255.98c2.6,0,4.8,2.1,4.8,4.8v14.6c0,2.6-2.1,4.8-4.8,4.8h-4.5h-0.3l-0.1,0.3l-2.4,6.2l-2.4-6.2
		l-0.1-0.3h-0.3h-4.5c-2.6,0-4.8-2.1-4.8-4.8v-14.6c0-2.6,2.1-4.8,4.8-4.8H36.35 M36.35,255.48h-14.6c-2.9,0-5.3,2.3-5.3,5.3v14.6
		c0,2.9,2.3,5.3,5.3,5.3h4.5l2.8,7.4l2.9-7.4h4.5c2.9,0,5.3-2.3,5.3-5.3v-14.6C41.55,257.88,39.25,255.48,36.35,255.48L36.35,255.48
		z"/>
</g>
<path class="st39" d="M26.15,279.68h-4.7c-2.7,0-5-2.2-5-5v-14.7c0-2.7,2.2-5,5-5h14.6c2.7,0,5,2.2,5,5v14.6c0,2.7-2.2,5-5,5h-4.6
	l-2.7,7L26.15,279.68z"/>
<path class="st40" d="M36.15,255.18c2.6,0,4.8,2.1,4.8,4.8v14.6c0,2.6-2.1,4.8-4.8,4.8h-4.5h-0.3l-0.1,0.3l-2.4,6.2l-2.4-6.2
	l-0.1-0.3h-0.3h-4.5c-2.6,0-4.8-2.1-4.8-4.8v-14.6c0-2.6,2.1-4.8,4.8-4.8L36.15,255.18 M36.15,254.68h-14.6c-2.9,0-5.3,2.3-5.3,5.3
	v14.6c0,2.9,2.3,5.3,5.3,5.3h4.5l2.8,7.4l2.9-7.4h4.5c2.9,0,5.3-2.3,5.3-5.3v-14.6C41.45,256.98,39.15,254.68,36.15,254.68
	L36.15,254.68z"/>
<path class="st1" d="M35.25,276.78h-12.8c-1.8,0-3.3-1.4-3.3-3.3v-12.8c0-1.8,1.4-3.3,3.3-3.3h12.8c1.8,0,3.3,1.4,3.3,3.3v12.8
	C38.55,275.28,37.05,276.78,35.25,276.78z"/>
<radialGradient id="SVGID_15_" cx="-613.04" cy="2477.9807" r="5.3382" fx="-613.304" fy="2477.9792" gradientTransform="matrix(0 0.6662 1.3516 0 -3278.3594 695.5374)" gradientUnits="userSpaceOnUse">
	<stop  offset="0.0256" style="stop-color:#231815;stop-opacity:0.55"/>
	<stop  offset="0.8602" style="stop-color:#231815;stop-opacity:0"/>
</radialGradient>
<ellipse class="st41" cx="70.97" cy="286.28" rx="6.9" ry="3.7"/>
<g class="st4">
	<path class="st5" d="M68.27,279.88h-4.7c-2.7,0-5-2.2-5-5v-14.6c0-2.7,2.2-5,5-5h14.6c2.7,0,5,2.2,5,5v14.6c0,2.7-2.2,5-5,5h-4.6
		l-2.7,7L68.27,279.88z"/>
	<path class="st5" d="M78.27,255.48c2.6,0,4.8,2.1,4.8,4.8v14.6c0,2.6-2.1,4.8-4.8,4.8h-4.5h-0.3l-0.1,0.3l-2.4,6.2l-2.4-6.2
		l-0.1-0.3h-0.3h-4.5c-2.6,0-4.8-2.1-4.8-4.8v-14.6c0-2.6,2.1-4.8,4.8-4.8H78.27 M78.27,254.98h-14.6c-2.9,0-5.3,2.3-5.3,5.3v14.6
		c0,2.9,2.3,5.3,5.3,5.3h4.5l2.8,7.4l2.9-7.4h4.5c2.9,0,5.3-2.3,5.3-5.3v-14.6C83.47,257.28,81.17,254.98,78.27,254.98L78.27,254.98
		z"/>
</g>
<g>
	<path class="st42" d="M68.17,279.08h-4.7c-2.7,0-5-2.2-5-5v-14.6c0-2.7,2.2-5,5-5h14.6c2.7,0,5,2.2,5,5v14.6c0,2.7-2.2,5-5,5h-4.6
		l-2.7,7L68.17,279.08z"/>
	<path class="st43" d="M78.17,254.68c2.6,0,4.8,2.1,4.8,4.8v14.6c0,2.6-2.1,4.8-4.8,4.8h-4.5h-0.3l-0.1,0.3l-2.4,6.2l-2.4-6.2
		l-0.1-0.3h-0.3h-4.5c-2.6,0-4.8-2.1-4.8-4.8v-14.6c0-2.6,2.1-4.8,4.8-4.8L78.17,254.68 M78.17,254.18h-14.6c-2.9,0-5.3,2.3-5.3,5.3
		v14.6c0,2.9,2.3,5.3,5.3,5.3h4.5l2.8,7.4l2.9-7.4h4.5c2.9,0,5.3-2.3,5.3-5.3v-14.6C83.37,256.48,81.07,254.18,78.17,254.18
		L78.17,254.18z"/>
</g>
<path class="st1" d="M77.17,276.68h-12.8c-1.8,0-3.3-1.4-3.3-3.3v-12.8c0-1.8,1.4-3.3,3.3-3.3h12.8c1.8,0,3.3,1.4,3.3,3.3v12.8
	C80.47,275.28,78.97,276.68,77.17,276.68z"/>
<radialGradient id="SVGID_16_" cx="-428.0931" cy="2602.7395" r="5.3466" fx="-428.3575" fy="2602.7378" gradientTransform="matrix(0 0.6662 1.3516 0 -3405.0627 572.4658)" gradientUnits="userSpaceOnUse">
	<stop  offset="0.0256" style="stop-color:#231815;stop-opacity:0.55"/>
	<stop  offset="0.8602" style="stop-color:#231815;stop-opacity:0"/>
</radialGradient>
<ellipse class="st44" cx="112.8" cy="286.28" rx="6.9" ry="3.7"/>
<g class="st4">
	<path class="st5" d="M110.1,280.28h-4.7c-2.7,0-5-2.2-5-5v-14.7c0-2.7,2.2-5,5-5H120c2.7,0,5,2.2,5,5v14.6c0,2.7-2.2,5-5,5h-4.6
		l-2.7,7L110.1,280.28z"/>
	<path class="st5" d="M120.2,255.78c2.6,0,4.8,2.1,4.8,4.8v14.6c0,2.6-2.1,4.8-4.8,4.8h-4.5h-0.3l-0.1,0.3l-2.4,6.2l-2.4-6.2
		l-0.1-0.3h-0.3h-4.5c-2.6,0-4.8-2.1-4.8-4.8v-14.6c0-2.6,2.1-4.8,4.8-4.8H120.2 M120.2,255.28h-14.6c-2.9,0-5.3,2.3-5.3,5.3v14.6
		c0,2.9,2.3,5.3,5.3,5.3h4.5l2.8,7.4l2.9-7.4h4.5c2.9,0,5.3-2.3,5.3-5.3v-14.6C125.5,257.68,123.2,255.28,120.2,255.28L120.2,255.28
		z"/>
</g>
<path class="st45" d="M110,279.48h-4.7c-2.7,0-5-2.2-5-5v-14.7c0-2.7,2.2-5,5-5h14.6c2.7,0,5,2.2,5,5v14.6c0,2.7-2.2,5-5,5h-4.6
	l-2.7,7L110,279.48z"/>
<path class="st46" d="M120.1,254.98c2.6,0,4.8,2.1,4.8,4.8v14.6c0,2.6-2.1,4.8-4.8,4.8h-4.5h-0.3l-0.1,0.3l-2.4,6.2l-2.4-6.2
	l-0.1-0.3h-0.4h-4.5c-2.6,0-4.8-2.1-4.8-4.8v-14.6c0-2.6,2.1-4.8,4.8-4.8H120.1 M120.1,254.48h-14.6c-2.9,0-5.3,2.3-5.3,5.3v14.6
	c0,2.9,2.3,5.3,5.3,5.3h4.4l2.8,7.4l2.9-7.4h4.5c2.9,0,5.3-2.3,5.3-5.3v-14.6C125.4,256.88,123.1,254.48,120.1,254.48L120.1,254.48z
	"/>
<path class="st1" d="M119.2,276.88h-12.8c-1.8,0-3.3-1.4-3.3-3.3v-12.9c0-1.8,1.4-3.3,3.3-3.3h12.8c1.8,0,3.3,1.4,3.3,3.3v12.8
	C122.5,275.38,121,276.88,119.2,276.88z"/>
<g>
	
		<radialGradient id="SVGID_17_" cx="-576.2389" cy="2602.7483" r="5.3432" fx="-576.5032" fy="2602.7468" gradientTransform="matrix(0 0.6662 1.3516 0 -3363.1746 613.1851)" gradientUnits="userSpaceOnUse">
		<stop  offset="0.0256" style="stop-color:#231815;stop-opacity:0.55"/>
		<stop  offset="0.8602" style="stop-color:#231815;stop-opacity:0"/>
	</radialGradient>
	<ellipse class="st47" cx="154.7" cy="228.3" rx="6.9" ry="3.7"/>
	<g>
		<g class="st4">
			<path class="st5" d="M152.2,222.1h-4.7c-2.7,0-5-2.2-5-5v-14.6c0-2.7,2.2-5,5-5h14.6c2.7,0,5,2.2,5,5v14.6c0,2.7-2.2,5-5,5h-4.6
				l-2.7,7L152.2,222.1z"/>
			<path class="st5" d="M162.3,197.7c2.6,0,4.8,2.1,4.8,4.8v14.6c0,2.6-2.1,4.8-4.8,4.8h-4.5h-0.3l-0.1,0.3l-2.4,6.2l-2.4-6.2
				l-0.1-0.3h-0.3h-4.5c-2.6,0-4.8-2.1-4.8-4.8v-14.6c0-2.6,2.1-4.8,4.8-4.8H162.3 M162.3,197.2h-14.7c-2.9,0-5.3,2.3-5.3,5.3v14.6
				c0,2.9,2.3,5.3,5.3,5.3h4.5l2.8,7.4l2.9-7.4h4.5c2.9,0,5.3-2.3,5.3-5.3v-14.6C167.6,199.6,165.2,197.2,162.3,197.2L162.3,197.2z"
				/>
		</g>
		<g>
			<path class="st6" d="M152.1,221.3h-4.7c-2.7,0-5-2.2-5-5v-14.6c0-2.7,2.2-5,5-5H162c2.7,0,5,2.2,5,5v14.6c0,2.7-2.2,5-5,5h-4.6
				l-2.7,7L152.1,221.3z"/>
			<g>
				<path class="st7" d="M162.2,196.9c2.6,0,4.8,2.1,4.8,4.8v14.6c0,2.6-2.1,4.8-4.8,4.8h-4.5h-0.3l-0.1,0.3l-2.4,6.2l-2.4-6.2
					l-0.1-0.3h-0.3h-4.5c-2.6,0-4.8-2.1-4.8-4.8v-14.6c0-2.6,2.1-4.8,4.8-4.8H162.2 M162.2,196.4h-14.7c-2.9,0-5.3,2.3-5.3,5.3v14.6
					c0,2.9,2.3,5.3,5.3,5.3h4.5l2.8,7.4l2.9-7.4h4.5c2.9,0,5.3-2.3,5.3-5.3v-14.6C167.5,198.7,165.1,196.4,162.2,196.4L162.2,196.4z
					"/>
			</g>
		</g>
	</g>
	<path class="st1" d="M161.3,219h-12.9c-1.8,0-3.3-1.4-3.3-3.3v-12.8c0-1.8,1.4-3.3,3.3-3.3h12.8c1.8,0,3.3,1.4,3.3,3.3v12.8
		C164.5,217.6,163.1,219,161.3,219z"/>
	<g>
		<g>
			<path class="st6" d="M153.9,202.1c0-0.1-0.2-0.1-0.2,0c-0.5,4.2-3.2,5.1-3.2,8.1c0,1.8,1.5,3.3,3.3,3.3c1.8,0,3.3-1.5,3.3-3.3
				C157.1,207.2,154.5,206.4,153.9,202.1L153.9,202.1z M154.5,212.7c-0.2,0-0.3-0.2-0.3-0.3s0.2-0.3,0.3-0.3c0.5,0,0.9-0.4,0.9-0.9
				c0-0.2,0.2-0.3,0.3-0.3s0.3,0.1,0.3,0.2v0.1C156,212,155.3,212.7,154.5,212.7L154.5,212.7z M158.1,203.6
				C158.1,203.5,158,203.5,158.1,203.6c-0.3,1.5-1.2,1.8-1.2,2.9c0,0.6,0.5,1.2,1.2,1.2c0.6,0,1.2-0.5,1.2-1.2
				C159.3,205.4,158.3,205.1,158.1,203.6L158.1,203.6z M158.3,207.3L158.3,207.3c-0.1-0.1-0.1-0.1-0.1-0.1c0-0.1,0.1-0.1,0.1-0.1
				c0.2,0,0.3-0.1,0.3-0.3v-0.1h0.1h0.1v0.1C158.9,207.1,158.6,207.3,158.3,207.3L158.3,207.3z M161.8,214.2c-0.3-0.1-0.6,0-0.7,0.3
				c-0.3,0.7-1,1.1-1.7,1.1c-0.8,0-1.4-0.5-1.7-1.2c-0.1-0.3-0.4-0.4-0.7-0.3c-0.1,0-0.2,0.1-0.2,0.2l-0.1,0.1
				c-0.3,0.7-1,1.1-1.7,1.1c-0.7,0-1.4-0.4-1.7-1.1c0-0.1-0.1-0.3-0.3-0.3c-0.3-0.1-0.6,0-0.7,0.3c-0.3,0.7-1,1.2-1.7,1.2
				c-0.8,0-1.5-0.5-1.7-1.2c-0.1-0.3-0.4-0.4-0.7-0.3c-0.3,0.1-0.4,0.4-0.3,0.7c0.4,1.1,1.5,1.8,2.7,1.8c0.9,0,1.7-0.4,2.2-1
				c0.5,0.6,1.3,1,2.2,1s1.7-0.4,2.2-1c0.5,0.6,1.3,1,2.2,1c1.2,0,2.2-0.7,2.6-1.8C162.2,214.6,162.1,214.3,161.8,214.2L161.8,214.2
				z"/>
		</g>
	</g>
</g>
<radialGradient id="SVGID_18_" cx="-576.2389" cy="2633.8225" r="5.3432" fx="-576.5032" fy="2633.821" gradientTransform="matrix(0 0.6662 1.3516 0 -3363.1746 613.1851)" gradientUnits="userSpaceOnUse">
	<stop  offset="0.0256" style="stop-color:#231815;stop-opacity:0.55"/>
	<stop  offset="0.8602" style="stop-color:#231815;stop-opacity:0"/>
</radialGradient>
<ellipse class="st48" cx="196.7" cy="228.3" rx="6.9" ry="3.7"/>
<g>
	<path class="st5" d="M194.2,222.1h-4.7c-2.7,0-5-2.2-5-5v-14.6c0-2.7,2.2-5,5-5h14.6c2.7,0,5,2.2,5,5v14.6c0,2.7-2.2,5-5,5h-4.6
		l-2.7,7L194.2,222.1z"/>
	<path class="st5" d="M204.3,197.7c2.6,0,4.8,2.1,4.8,4.8v14.6c0,2.6-2.1,4.8-4.8,4.8h-4.5h-0.3l-0.1,0.3l-2.4,6.2l-2.4-6.2
		l-0.1-0.3h-0.3h-4.5c-2.6,0-4.8-2.1-4.8-4.8v-14.6c0-2.6,2.1-4.8,4.8-4.8H204.3 M204.3,197.2h-14.7c-2.9,0-5.3,2.3-5.3,5.3v14.6
		c0,2.9,2.3,5.3,5.3,5.3h4.5l2.8,7.4l2.9-7.4h4.5c2.9,0,5.3-2.3,5.3-5.3v-14.6C209.6,199.6,207.2,197.2,204.3,197.2L204.3,197.2z"/>
</g>
<g>
	<path class="st49" d="M194.1,221.3h-4.7c-2.7,0-5-2.2-5-5v-14.6c0-2.7,2.2-5,5-5H204c2.7,0,5,2.2,5,5v14.6c0,2.7-2.2,5-5,5h-4.6
		l-2.7,7L194.1,221.3z"/>
	<g>
		<path class="st50" d="M204.2,196.9c2.6,0,4.8,2.1,4.8,4.8v14.6c0,2.6-2.1,4.8-4.8,4.8h-4.5h-0.3l-0.1,0.3l-2.4,6.2l-2.4-6.2
			l-0.1-0.3h-0.3h-4.5c-2.6,0-4.8-2.1-4.8-4.8v-14.6c0-2.6,2.1-4.8,4.8-4.8H204.2 M204.2,196.4h-14.7c-2.9,0-5.3,2.3-5.3,5.3v14.6
			c0,2.9,2.3,5.3,5.3,5.3h4.5l2.8,7.4l2.9-7.4h4.5c2.9,0,5.3-2.3,5.3-5.3v-14.6C209.5,198.7,207.1,196.4,204.2,196.4L204.2,196.4z"
			/>
	</g>
</g>
<path class="st1" d="M203.3,219h-12.9c-1.8,0-3.3-1.4-3.3-3.3v-12.8c0-1.8,1.4-3.3,3.3-3.3h12.8c1.8,0,3.3,1.4,3.3,3.3v12.8
	C206.5,217.6,205.1,219,203.3,219z"/>
<g>
	
		<radialGradient id="SVGID_19_" cx="-750.4305" cy="2541.0361" r="5.3449" fx="-750.6947" fy="2541.0344" gradientTransform="matrix(0 0.6662 1.3516 0 -3363.1746 613.1851)" gradientUnits="userSpaceOnUse">
		<stop  offset="0.0256" style="stop-color:#231815;stop-opacity:0.55"/>
		<stop  offset="0.8602" style="stop-color:#231815;stop-opacity:0"/>
	</radialGradient>
	<ellipse class="st51" cx="71.29" cy="112.3" rx="6.9" ry="3.7"/>
	
		<linearGradient id="SVGID_20_" gradientUnits="userSpaceOnUse" x1="71" y1="282.5764" x2="71" y2="266.407" gradientTransform="matrix(1 0 0 -1 0 365.748)">
		<stop  offset="1.582268e-03" style="stop-color:#FB3C3A"/>
		<stop  offset="1" style="stop-color:#FA8C7A"/>
	</linearGradient>
	<polygon class="st52" points="61.29,89.72 71.29,95.24 80.71,88.26 70.51,83.21 	"/>
	
		<linearGradient id="SVGID_21_" gradientUnits="userSpaceOnUse" x1="66.29" y1="272.5971" x2="66.29" y2="253.9276" gradientTransform="matrix(1 0 0 -1 0 365.748)">
		<stop  offset="1.582268e-03" style="stop-color:#FB3C3A"/>
		<stop  offset="1" style="stop-color:#F68472"/>
	</linearGradient>
	<polygon class="st53" points="61.29,89.72 71.29,95.24 71.29,112.99 	"/>
	<polygon class="st54" points="80.71,88.26 71.29,95.24 71.29,112.99 	"/>
</g>
<g>
	
		<radialGradient id="SVGID_22_" cx="-750.4305" cy="2572.1548" r="5.3422" fx="-750.6946" fy="2572.1531" gradientTransform="matrix(0 0.6662 1.3516 0 -3363.1746 613.1851)" gradientUnits="userSpaceOnUse">
		<stop  offset="0.0256" style="stop-color:#231815;stop-opacity:0.55"/>
		<stop  offset="0.8602" style="stop-color:#231815;stop-opacity:0"/>
	</radialGradient>
	<ellipse class="st55" cx="113.35" cy="112.3" rx="6.9" ry="3.7"/>
	<g>
		
			<linearGradient id="SVGID_23_" gradientUnits="userSpaceOnUse" x1="113" y1="282.4937" x2="113" y2="266.5451" gradientTransform="matrix(1 0 0 -1 0 365.748)">
			<stop  offset="1.582268e-03" style="stop-color:#1EAF5C"/>
			<stop  offset="1" style="stop-color:#9AF4A1"/>
		</linearGradient>
		<polygon class="st56" points="103.29,89.71 113.29,95.16 122.71,88.27 112.52,83.29 		"/>
		
			<linearGradient id="SVGID_24_" gradientUnits="userSpaceOnUse" x1="108.295" y1="272.6251" x2="108.295" y2="253.9291" gradientTransform="matrix(1 0 0 -1 0 365.748)">
			<stop  offset="1.582268e-03" style="stop-color:#1EAF5C"/>
			<stop  offset="1" style="stop-color:#9AF4A1"/>
		</linearGradient>
		<polygon class="st57" points="103.29,89.69 113.29,95.16 113.3,112.99 		"/>
		<polygon class="st58" points="122.71,88.27 113.3,95.16 113.3,112.99 		"/>
	</g>
</g>
<g>
	<g>
		
			<radialGradient id="SVGID_25_" cx="-750.4305" cy="2603.1958" r="5.3456" fx="-750.6948" fy="2603.1941" gradientTransform="matrix(0 0.6662 1.3516 0 -3363.1746 613.1851)" gradientUnits="userSpaceOnUse">
			<stop  offset="0.0256" style="stop-color:#231815;stop-opacity:0.55"/>
			<stop  offset="0.8602" style="stop-color:#231815;stop-opacity:0"/>
		</radialGradient>
		<ellipse class="st59" cx="155.31" cy="112.3" rx="6.9" ry="3.7"/>
	</g>
	<g>
		<g>
			
				<linearGradient id="SVGID_26_" gradientUnits="userSpaceOnUse" x1="155" y1="282.4937" x2="155" y2="266.5451" gradientTransform="matrix(1 0 0 -1 0 365.748)">
				<stop  offset="1.582268e-03" style="stop-color:#FF7800"/>
				<stop  offset="1" style="stop-color:#FFBB83"/>
			</linearGradient>
			<polygon class="st60" points="145.29,89.71 155.29,95.16 164.71,88.27 154.51,83.29 			"/>
			
				<linearGradient id="SVGID_27_" gradientUnits="userSpaceOnUse" x1="150.29" y1="272.6028" x2="150.29" y2="253.9278" gradientTransform="matrix(1 0 0 -1 0 365.748)">
				<stop  offset="1.582268e-03" style="stop-color:#FF7800"/>
				<stop  offset="1" style="stop-color:#FFBB83"/>
			</linearGradient>
			<polygon class="st61" points="145.29,89.71 155.29,95.16 155.29,112.99 			"/>
			<polygon class="st62" points="164.71,88.27 155.29,95.16 155.29,112.99 			"/>
		</g>
	</g>
</g>
<g>
	
		<radialGradient id="SVGID_28_" cx="-602.2405" cy="2664.9355" r="5.3431" fx="-602.5049" fy="2664.9341" gradientTransform="matrix(0 0.6662 1.3516 0 -3405.0627 572.4658)" gradientUnits="userSpaceOnUse">
		<stop  offset="0.0256" style="stop-color:#231815;stop-opacity:0.55"/>
		<stop  offset="0.8602" style="stop-color:#231815;stop-opacity:0"/>
	</radialGradient>
	<ellipse class="st63" cx="196.9" cy="170.3" rx="6.9" ry="3.7"/>
	<path class="st5" d="M194.2,164.3h-4.7c-2.7,0-5-2.2-5-5v-14.7c0-2.7,2.2-5,5-5h14.6c2.7,0,5,2.2,5,5v14.6c0,2.7-2.2,5-5,5h-4.6
		l-2.7,7L194.2,164.3z"/>
	<path class="st5" d="M204.3,139.8c2.6,0,4.8,2.1,4.8,4.8v14.6c0,2.6-2.1,4.8-4.8,4.8h-4.5h-0.3l-0.1,0.3l-2.4,6.2l-2.4-6.2
		l-0.1-0.3h-0.3h-4.5c-2.6,0-4.8-2.1-4.8-4.8v-14.6c0-2.6,2.1-4.8,4.8-4.8H204.3 M204.3,139.3h-14.6c-2.9,0-5.3,2.3-5.3,5.3v14.6
		c0,2.9,2.3,5.3,5.3,5.3h4.5l2.8,7.4l2.9-7.4h4.5c2.9,0,5.3-2.3,5.3-5.3v-14.6C209.6,141.7,207.3,139.3,204.3,139.3L204.3,139.3z"/>
	<path class="st64" d="M194.1,163.5h-4.7c-2.7,0-5-2.2-5-5v-14.7c0-2.7,2.2-5,5-5H204c2.7,0,5,2.2,5,5v14.6c0,2.7-2.2,5-5,5h-4.6
		l-2.7,7L194.1,163.5z"/>
	<path class="st65" d="M204.2,139c2.6,0,4.8,2.1,4.8,4.8v14.6c0,2.6-2.1,4.8-4.8,4.8h-4.5h-0.3l-0.1,0.3l-2.4,6.2l-2.4-6.2l-0.1-0.3
		H194h-4.5c-2.6,0-4.8-2.1-4.8-4.8v-14.6c0-2.6,2.1-4.8,4.8-4.8H204.2 M204.2,138.5h-14.6c-2.9,0-5.3,2.3-5.3,5.3v14.6
		c0,2.9,2.3,5.3,5.3,5.3h4.4l2.8,7.4l2.9-7.4h4.5c2.9,0,5.3-2.3,5.3-5.3v-14.6C209.5,140.9,207.2,138.5,204.2,138.5L204.2,138.5z"/>
	<path class="st1" d="M203.25,160.93h-12.8c-1.8,0-3.3-1.4-3.3-3.3v-12.9c0-1.8,1.4-3.3,3.3-3.3h12.8c1.8,0,3.3,1.4,3.3,3.3v12.8
		C206.55,159.43,205.05,160.93,203.25,160.93z"/>
	<g>
		<g>
			<path class="st64" d="M201.17,156.9c-0.19,0.09-0.72,0.33-1.29,0.6c-0.3,0.13-0.77-0.13-0.74-0.47c0.02-0.67,0.1-1.46,0.1-1.46
				s-0.59-0.6-1.05-1.14c-0.21-0.25-0.14-0.71,0.32-0.8c0.39-0.08,0.61-0.13,0.98-0.19c-0.08-0.05-0.07-0.06-0.13-0.11
				c-0.15-0.14-0.26-0.28-0.33-0.43c-0.08-0.15-0.12-0.29-0.13-0.44c0-0.15,0-0.3,0.03-0.44c0.04-0.24,0.12-0.41,0.23-0.51
				c0.12-0.1,0.27-0.22,0.45-0.37c0.07-0.06,0.14-0.16,0.21-0.28c0.06-0.11,0.11-0.24,0.16-0.36c0.05-0.14,0.1-0.3,0.14-0.46
				c0.1-0.03,0.19-0.08,0.28-0.16c0.07-0.07,0.14-0.16,0.2-0.28c0.07-0.12,0.11-0.28,0.13-0.48c0.02-0.15,0.01-0.28-0.01-0.39
				c-0.02-0.1-0.06-0.19-0.09-0.25c-0.04-0.08-0.09-0.14-0.16-0.19c0-0.39-0.03-0.78-0.07-1.16c-0.05-0.34-0.13-0.69-0.25-1.06
				c-0.11-0.37-0.29-0.7-0.54-1.01c-0.11-0.13-0.25-0.27-0.44-0.4s-0.4-0.25-0.64-0.36c-0.24-0.1-0.49-0.19-0.77-0.25
				c-0.27-0.06-0.54-0.09-0.82-0.09c-0.22,0-0.45,0.01-0.68,0.05c-0.24,0.03-0.47,0.09-0.71,0.19c-0.23,0.1-0.46,0.23-0.68,0.39
				c-0.23,0.17-0.43,0.39-0.61,0.66c-0.21,0.27-0.36,0.59-0.46,0.94c-0.1,0.36-0.17,0.69-0.2,0.99c-0.05,0.37-0.07,0.73-0.06,1.09
				c-0.09,0.1-0.15,0.2-0.19,0.31c-0.04,0.09-0.06,0.21-0.08,0.34c-0.01,0.13,0.01,0.28,0.07,0.45c0.05,0.16,0.1,0.28,0.17,0.37
				c0.07,0.08,0.13,0.15,0.19,0.2s0.13,0.08,0.2,0.1c0.04,0.16,0.09,0.32,0.14,0.46c0.05,0.12,0.1,0.25,0.16,0.36
				c0.06,0.12,0.12,0.22,0.2,0.28c0.16,0.14,0.31,0.27,0.44,0.4c0.14,0.13,0.21,0.3,0.23,0.52c0.01,0.16,0.02,0.29,0.02,0.42
				c0,0.12-0.03,0.24-0.07,0.36c-0.05,0.11-0.13,0.23-0.23,0.34c-0.11,0.12-0.26,0.24-0.46,0.36c-0.26,0.16-0.56,0.29-0.89,0.37
				c-0.34,0.09-0.66,0.19-0.97,0.3s-0.58,0.26-0.82,0.44c-0.23,0.19-0.37,0.46-0.42,0.81c-0.1,0.63-0.12,1.13-0.07,1.52
				c0.06,0.4,0.13,0.63,0.23,0.71c0.05,0.05,0.19,0.09,0.41,0.14s0.49,0.1,0.81,0.14c0.31,0.05,0.66,0.1,1.05,0.14
				s0.78,0.08,1.17,0.12c0.39,0.03,0.77,0.06,1.14,0.07c0.37,0.02,0.69,0.03,0.97,0.03s0.6-0.01,0.98-0.03
				c0.38-0.01,0.77-0.04,1.19-0.07c0.41-0.04,0.82-0.08,1.22-0.13c0.41-0.04,0.78-0.1,1.11-0.16s0.6-0.13,0.83-0.2
				c0.21-0.06,0.35-0.12,0.4-0.19C202.13,157.31,201.34,156.98,201.17,156.9z"/>
		</g>
	</g>
	<path class="st66" d="M203.06,154.53c-0.28,0.32-0.78,0.85-0.78,0.85s0.08,0.58,0.13,0.98c0.02,0.2-0.14,0.29-0.31,0.21
		c-0.34-0.16-0.85-0.4-0.96-0.46c-0.12,0.05-0.63,0.3-0.97,0.45c-0.18,0.08-0.34-0.01-0.32-0.21c0.05-0.4,0.13-0.97,0.13-0.97
		s-0.5-0.53-0.79-0.85c-0.1-0.12-0.03-0.28,0.16-0.31c0.4-0.07,1.03-0.19,1.03-0.19s0.34-0.59,0.56-0.95
		c0.12-0.22,0.2-0.19,0.22-0.19c0.04,0.01,0.1,0.06,0.17,0.19c0.21,0.36,0.55,0.95,0.55,0.95s0.62,0.11,1.02,0.19
		C203.09,154.25,203.15,154.42,203.06,154.53L203.06,154.53z"/>
</g>
<g>
	
		<radialGradient id="SVGID_29_" cx="-750.4305" cy="2634.0444" r="5.3456" fx="-750.6948" fy="2634.0427" gradientTransform="matrix(0 0.6662 1.3516 0 -3363.1746 613.1851)" gradientUnits="userSpaceOnUse">
		<stop  offset="0.0256" style="stop-color:#231815;stop-opacity:0.55"/>
		<stop  offset="0.8602" style="stop-color:#231815;stop-opacity:0"/>
	</radialGradient>
	<ellipse class="st67" cx="197" cy="112.3" rx="6.9" ry="3.7"/>
	<g>
		<g>
			<path class="st68" d="M197,113.43c-0.29,0-0.57-0.13-0.75-0.34l-8.65-9.99c-0.87-1.57-1.33-3.36-1.33-5.18
				c0-5.92,4.81-10.73,10.73-10.73s10.73,4.81,10.73,10.73c0.01,1.79-0.44,3.56-1.3,5.13l-8.68,10.04
				C197.56,113.3,197.29,113.43,197,113.43z M197,92.17c-3.17,0-5.74,2.57-5.74,5.74s2.57,5.74,5.74,5.74s5.74-2.58,5.74-5.74
				S200.16,92.17,197,92.17z"/>
			<path class="st69" d="M197,87.68c5.64,0,10.23,4.59,10.23,10.24c0.01,1.68-0.41,3.35-1.22,4.84l-8.65,10.01
				c-0.09,0.11-0.22,0.17-0.37,0.17c-0.14,0-0.28-0.06-0.37-0.17l-8.61-9.95c-0.81-1.49-1.24-3.18-1.24-4.89
				C186.77,92.27,191.36,87.68,197,87.68 M197,104.15c3.44,0,6.24-2.8,6.24-6.24s-2.8-6.24-6.24-6.24c-3.44,0-6.24,2.8-6.24,6.24
				S193.56,104.15,197,104.15 M197,86.68c-6.2,0-11.23,5.03-11.23,11.23c0,1.94,0.49,3.81,1.42,5.47l8.68,10.03
				c0.28,0.33,0.7,0.52,1.13,0.52c0.44,0,0.85-0.19,1.13-0.52l8.71-10.08c0.92-1.66,1.4-3.52,1.39-5.42
				C208.23,91.71,203.2,86.68,197,86.68L197,86.68z M197,103.15c-2.89,0-5.24-2.34-5.24-5.24c0-2.89,2.35-5.24,5.24-5.24
				c2.9,0,5.24,2.35,5.24,5.24C202.24,100.81,199.9,103.15,197,103.15L197,103.15z"/>
		</g>
		<path class="st70" d="M200.05,97.91c0,1.68-1.37,3.05-3.05,3.05c-1.68,0-3.04-1.37-3.04-3.05c0-1.68,1.36-3.04,3.04-3.04
			C198.69,94.86,200.05,96.22,200.05,97.91z"/>
	</g>
</g>
<g>
	<polygon class="st39" points="26.11,272.17 24.45,274.8 25.68,274.8 26.09,274.16 31.41,274.16 31.82,274.8 33.05,274.8 
		31.4,272.17 30.16,272.17 30.79,273.16 26.71,273.16 27.34,272.17 	"/>
	<path class="st39" d="M34.69,262.4c0-0.28-0.08-0.54-0.23-0.75l-2.94-1.06c-0.2-0.27-0.49-0.43-0.8-0.43h-3.94
		c-0.31,0-0.6,0.16-0.8,0.43l-2.93,1.06c-0.15,0.21-0.24,0.48-0.24,0.75v5.67h11.88V262.4z M28.4,265.64c0,0.38-0.31,0.69-0.69,0.69
		h-3.14c-0.38,0-0.69-0.31-0.69-0.69v-1.92c0-0.38,0.31-0.69,0.69-0.69h3.14c0.38,0,0.69,0.31,0.69,0.69V265.64z M33.62,265.64
		c0,0.38-0.31,0.69-0.69,0.69h-3.14c-0.38,0-0.69-0.31-0.69-0.69v-1.92c0-0.38,0.31-0.69,0.69-0.69h3.14c0.38,0,0.69,0.31,0.69,0.69
		V265.64z"/>
	<path class="st39" d="M23.85,271.9h2.26l0,0h1.23l0,0l0,0l0,0h2.82l0,0l0.12-0.06l-0.12,0.06l0,0h1.23l0,0h2.26
		c0.57,0,1.04-0.53,1.04-1.19v-1.42H22.81v1.42C22.81,271.37,23.27,271.9,23.85,271.9z M32.22,269.77c0.41,0,0.74,0.33,0.74,0.74
		s-0.33,0.74-0.74,0.74c-0.41,0-0.74-0.33-0.74-0.74S31.81,269.77,32.22,269.77z M25.28,269.77c0.41,0,0.74,0.33,0.74,0.74
		s-0.33,0.74-0.74,0.74c-0.41,0-0.74-0.33-0.74-0.74S24.87,269.77,25.28,269.77z"/>
</g>
<path class="st71" d="M197.14,200.98c-0.33-0.01-0.64,0.12-0.88,0.34c-0.24,0.23-0.37,0.54-0.38,0.86l-0.1,5.02l-4.84,3.66
	c-0.21,0.16-0.37,0.48-0.38,0.74l-0.02,1.18c0,0.2,0.08,0.36,0.23,0.46c0.15,0.1,0.33,0.1,0.51,0.02l4.42-2.09l-0.05,2.63
	l-1.74,1.54c-0.07,0.06-0.11,0.15-0.11,0.24l-0.02,0.91c0,0.1,0.05,0.2,0.13,0.27c0.08,0.06,0.19,0.08,0.29,0.05l2.63-0.76l2.6,0.87
	c0.1,0.03,0.21,0.02,0.29-0.04c0.01-0.01,0.03-0.02,0.04-0.03c0.06-0.06,0.1-0.14,0.1-0.23l0.02-0.78c0-0.09-0.03-0.17-0.09-0.24
	l-1.68-1.74l0.05-2.64l4.34,2.27c0.21,0.11,0.44,0.09,0.6-0.06c0.1-0.09,0.15-0.23,0.16-0.38l0.02-1.03
	c0.01-0.27-0.14-0.58-0.34-0.75l-4.69-3.99l0.1-5.04C198.36,201.55,197.82,200.99,197.14,200.98L197.14,200.98z"/>
<path class="st42" d="M68.62,272.76c0,0.21,0,0.42,0,0.62c0,0.07-0.01,0.13-0.02,0.2c-0.07,0.29-0.33,0.49-0.62,0.49
	c-0.45,0-0.9,0-1.35,0c-0.35,0-0.64-0.29-0.64-0.65c0-0.2,0-0.39,0-0.59c0-0.02,0-0.05,0-0.08c-0.11,0-0.21,0-0.3,0
	c-0.4,0-0.68-0.28-0.68-0.68c0-1.28,0-2.56,0-3.84c0-0.03,0-0.06,0-0.09c-0.06-0.01-0.12-0.02-0.18-0.03
	c-0.29-0.08-0.48-0.33-0.48-0.65c0-0.39,0-0.78,0-1.17c0-0.13,0.01-0.27,0-0.4c-0.02-0.41,0.27-0.71,0.66-0.73c0-0.03,0-0.06,0-0.09
	c0-0.96,0-1.92,0-2.89c0-0.61,0.41-1.12,0.99-1.27c0.11-0.03,0.23-0.04,0.35-0.04c3.06,0,6.13,0,9.19,0c0.68,0,1.22,0.46,1.33,1.14
	c0.01,0.08,0.01,0.15,0.01,0.23c0,0.94,0,1.88,0,2.82c0,0.03,0,0.06,0,0.09c0.06,0.01,0.11,0.01,0.16,0.03
	c0.29,0.07,0.5,0.33,0.5,0.63c0,0.56,0,1.11,0,1.67c0,0.34-0.27,0.62-0.61,0.65c-0.01,0-0.02,0-0.04,0c0,0.03,0,0.06,0,0.09
	c0,1.28,0,2.55,0,3.83c0,0.36-0.22,0.63-0.56,0.68c-0.11,0.02-0.22,0.01-0.33,0.01c-0.03,0-0.06,0-0.1,0c0,0.03,0,0.06,0,0.08
	c0,0.19,0,0.38,0,0.56c0,0.39-0.28,0.67-0.68,0.67c-0.43,0-0.85,0-1.28,0c-0.39,0-0.67-0.28-0.68-0.67c0-0.19,0-0.38,0-0.56
	c0-0.02,0-0.05,0-0.08C71.69,272.76,70.16,272.76,68.62,272.76z M65.65,268.79c3.53,0,7.04,0,10.56,0c0-0.03,0-0.05,0-0.07
	c0-2.17,0-4.33,0-6.5c0-0.04,0-0.09-0.01-0.13c-0.06-0.34-0.33-0.55-0.69-0.55c-3.06,0-6.11,0-9.17,0c-0.42,0-0.7,0.28-0.7,0.7
	c0,2.16,0,4.31,0,6.47C65.65,268.73,65.65,268.76,65.65,268.79z M68.61,270.45c-0.88,0-1.76,0-2.63,0c0,0.22,0,0.44,0,0.65
	c0.88,0,1.76,0,2.63,0C68.61,270.88,68.61,270.67,68.61,270.45z M75.87,270.45c-0.88,0-1.76,0-2.63,0c0,0.22,0,0.44,0,0.66
	c0.88,0,1.75,0,2.63,0C75.87,270.88,75.87,270.67,75.87,270.45z"/>
<g>
	<g>
		
			<rect x="112.01" y="257.09" transform="matrix(1.024399e-03 -1 1 1.024399e-03 -152.4656 377.4788)" class="st72" width="1.39" height="15.92"/>
		<g>
			
				<rect x="107.42" y="263.95" transform="matrix(1.024318e-03 -1 1 1.024318e-03 -157.0443 372.8861)" class="st45" width="1.39" height="2.19"/>
			
				<rect x="111.96" y="263.96" transform="matrix(1.024318e-03 -1 1 1.024318e-03 -152.5059 377.4384)" class="st45" width="1.39" height="2.19"/>
			
				<rect x="116.51" y="263.96" transform="matrix(1.024318e-03 -1 1 1.024318e-03 -147.9675 381.9908)" class="st45" width="1.39" height="2.19"/>
		</g>
	</g>
	<polygon class="st45" points="112.2,260.47 111.7,260.47 110.66,263.7 112.2,263.7 	"/>
	<polygon class="st45" points="112.2,266.98 109.93,266.98 107.55,274.4 112.2,274.4 	"/>
	<polygon class="st45" points="113.15,260.47 113.66,260.47 114.69,263.7 113.15,263.7 	"/>
	<polygon class="st45" points="113.16,266.98 115.42,266.98 117.8,274.4 113.16,274.4 	"/>
</g>
</svg>
