<?xml version="1.0" encoding="utf-8"?>
<!-- Generator: Adobe Illustrator 23.0.0, SVG Export Plug-In . SVG Version: 6.00 Build 0)  -->
<svg version="1.1" id="图层_1" xmlns="http://www.w3.org/2000/svg" xmlns:xlink="http://www.w3.org/1999/xlink" x="0px" y="0px"
	 width="720px" height="46px" style="enable-background:new 0 0 720 46;" xml:space="preserve">
<style type="text/css">
	.st0{fill:url(#SVGID_1_);}
	.st1{fill:url(#SVGID_2_);}
	.st2{fill:url(#SVGID_3_);}
	.st3{fill:url(#SVGID_4_);}
	.st4{fill:url(#SVGID_5_);}
	.st5{fill:url(#SVGID_6_);}
	.st6{fill:url(#SVGID_7_);}
	.st7{fill:url(#SVGID_8_);}
	.st8{fill:url(#SVGID_9_);}
	.st9{fill:url(#SVGID_10_);}
	.st10{fill:url(#SVGID_11_);}
	.st11{fill:url(#SVGID_12_);}
	.st12{fill:url(#SVGID_13_);}
	.st13{fill:url(#SVGID_14_);}
	.st14{fill:url(#SVGID_15_);}
	.st15{fill:url(#SVGID_16_);}
	.st16{fill:url(#SVGID_17_);}
	.st17{fill:url(#SVGID_18_);}
	.st18{fill:url(#SVGID_19_);}
	.st19{fill:url(#SVGID_20_);}
	.st20{fill:#E62520;}
	.st21{fill:url(#SVGID_21_);}
	.st22{fill:url(#SVGID_22_);}
	.st23{fill:url(#SVGID_23_);}
	.st24{fill:url(#SVGID_24_);}
	.st25{fill:url(#SVGID_25_);}
	.st26{fill:url(#SVGID_26_);}
	.st27{fill:url(#SVGID_27_);}
	.st28{fill:url(#SVGID_28_);}
	.st29{fill:url(#SVGID_29_);}
	.st30{fill:url(#SVGID_30_);}
	.st31{fill:url(#SVGID_31_);}
	.st32{fill:url(#SVGID_32_);}
	.st33{fill:url(#SVGID_33_);}
	.st34{fill:url(#SVGID_34_);}
	.st35{fill:url(#SVGID_35_);}
	.st36{fill:url(#SVGID_36_);}
	.st37{fill:url(#SVGID_37_);}
	.st38{fill:url(#SVGID_38_);}
	.st39{fill:url(#SVGID_39_);}
	.st40{fill:url(#SVGID_40_);}
	.st41{fill:#2B81FF;}
	.st42{fill:#2B81FF;stroke:#00376D;stroke-miterlimit:10;}
	.st43{fill:url(#SVGID_41_);}
	.st44{fill:#4383C4;}
	.st45{opacity:0.75;}
	.st46{fill:#7E7B7A;}
	.st47{fill:#004FAD;}
	.st48{fill:#FFFFFF;}
	.st49{fill:url(#SVGID_42_);}
	.st50{fill:url(#SVGID_43_);}
	.st51{fill:url(#SVGID_44_);}
	.st52{fill:url(#SVGID_45_);}
	.st53{fill:url(#SVGID_46_);}
	.st54{fill:url(#SVGID_47_);}
	.st55{fill:url(#SVGID_48_);}
	.st56{fill:url(#SVGID_49_);}
	.st57{fill:url(#SVGID_50_);}
	.st58{fill:url(#SVGID_51_);}
	.st59{fill:url(#SVGID_52_);}
	.st60{fill:url(#SVGID_53_);}
	.st61{fill:url(#SVGID_54_);}
	.st62{fill:url(#SVGID_55_);}
	.st63{fill:url(#SVGID_56_);}
	.st64{fill:url(#SVGID_57_);}
	.st65{fill:url(#SVGID_58_);}
	.st66{fill:url(#SVGID_59_);}
	.st67{fill:url(#SVGID_60_);}
	.st68{fill:url(#SVGID_61_);}
	.st69{font-family:'SimHei';}
	.st70{font-size:11.5237px;}
	.st71{fill:url(#SVGID_62_);}
	.st72{fill:url(#SVGID_63_);}
	.st73{fill:url(#SVGID_64_);}
	.st74{fill:url(#SVGID_65_);}
	.st75{fill:url(#SVGID_66_);}
	.st76{fill:url(#SVGID_67_);}
	.st77{fill:url(#SVGID_68_);}
	.st78{fill:url(#SVGID_69_);}
	.st79{fill:url(#SVGID_70_);}
	.st80{fill:url(#SVGID_71_);}
	.st81{fill:url(#SVGID_72_);}
	.st82{fill:url(#SVGID_73_);}
	.st83{fill:url(#SVGID_74_);}
	.st84{fill:url(#SVGID_75_);}
	.st85{fill:url(#SVGID_76_);}
	.st86{fill:url(#SVGID_77_);}
	.st87{fill:url(#SVGID_78_);}
	.st88{fill:url(#SVGID_79_);}
	.st89{fill:url(#SVGID_80_);}
	.st90{fill:#B2908E;}
	.st91{fill:url(#SVGID_81_);}
	.st92{fill:url(#SVGID_82_);}
	.st93{fill:url(#SVGID_83_);}
	.st94{fill:url(#SVGID_84_);}
	.st95{fill:url(#SVGID_85_);}
	.st96{fill:url(#SVGID_86_);}
	.st97{fill:url(#SVGID_87_);}
	.st98{fill:url(#SVGID_88_);}
	.st99{fill:url(#SVGID_89_);}
	.st100{fill:url(#SVGID_90_);}
	.st101{fill:url(#SVGID_91_);}
	.st102{fill:url(#SVGID_92_);}
	.st103{fill:url(#SVGID_93_);}
	.st104{fill:url(#SVGID_94_);}
	.st105{fill:url(#SVGID_95_);}
	.st106{fill:url(#SVGID_96_);}
	.st107{fill:url(#SVGID_97_);}
	.st108{fill:url(#SVGID_98_);}
	.st109{fill:url(#SVGID_99_);}
	.st110{fill:url(#SVGID_100_);}
</style>
<circle class="st41" cx="29.2" cy="7.1" r="6"/>
<radialGradient id="SVGID_1_" cx="224.7069" cy="-289.345" r="5.2256" fx="224.4485" fy="-289.3465" gradientTransform="matrix(0 0.6662 -1.3516 0 -378.8787 -106.4676)" gradientUnits="userSpaceOnUse">
	<stop  offset="2.560353e-02" style="stop-color:#231815;stop-opacity:0.55"/>
	<stop  offset="0.8602" style="stop-color:#231815;stop-opacity:0"/>
</radialGradient>
<ellipse class="st0" cx="12.2" cy="42.4" rx="6.8" ry="3.6"/>
<path class="st44" d="M23,16.2c0,3.6-1.8,7.4-4.5,9.8c-0.6,0.4-1.1,0.8-1.6,1.3c-2.3,2.2-3.7,5.5-3.7,9c0,0.3,0,0.5,0,0.8
	c-0.9,2-1.4,4.3-1.4,6.7c0-2.4-0.5-4.7-1.4-6.7c0-0.3,0-0.5,0-0.8c0-3.9-1.7-7.4-4.3-9.5c-0.2-0.1-0.3-0.3-0.5-0.4l0,0
	c-3-2.5-5.2-6.5-5.2-10.3c0-6.3,5.1-11.4,11.2-11.4S23,9.9,23,16.2z"/>
<g>
	<g class="st45">
		<path class="st46" d="M12,41.2c-0.2-1.3-0.7-2.4-1.2-3.5c0-0.2,0-0.5,0-0.7c0-3.8-1.6-7.4-4.4-9.7c-0.2-0.1-0.3-0.3-0.5-0.4l0,0
			c-3-2.7-5-6.7-5-10.2c0-6.2,4.9-11.1,10.9-11.1s10.9,5,10.9,11.1c0,3.4-1.7,7.2-4.4,9.7c-0.6,0.4-1.1,0.8-1.7,1.3
			c-2.4,2.4-3.8,5.8-3.8,9.2c0,0.2,0,0.5,0,0.7C12.6,38.9,12.2,39.9,12,41.2z"/>
		<path class="st46" d="M11.9,5.8c5.9,0,10.7,4.9,10.7,10.9c0,3.3-1.6,7-4.3,9.5c-0.6,0.4-1.2,0.9-1.7,1.4c-2.5,2.4-3.9,5.9-3.9,9.4
			c0,0.2,0,0.5,0,0.7c-0.4,0.8-0.7,1.6-0.9,2.5c-0.2-0.8-0.5-1.6-0.9-2.4c0-0.2,0-0.5,0-0.7c0-3.9-1.6-7.5-4.5-9.9
			c-0.2-0.1-0.3-0.3-0.5-0.4l0,0l0,0c-3-2.6-5-6.5-5-9.9C1.3,10.7,6,5.8,11.9,5.8 M11.9,5.3c-6.2,0-11.2,5.1-11.2,11.4
			c0,3.9,2.2,7.8,5.2,10.3l0,0c0.2,0.1,0.3,0.3,0.5,0.4c2.6,2.2,4.3,5.7,4.3,9.5c0,0.3,0,0.5,0,0.8c0.9,2,1.4,3.7,1.4,6.2
			c0-2.4,0.5-4.2,1.4-6.2c0-0.3,0-0.5,0-0.8c0-3.6,1.4-6.9,3.7-9c0.5-0.5,1.1-1,1.6-1.3c2.6-2.5,4.5-6.3,4.5-9.8
			C23.1,10.4,18.1,5.3,11.9,5.3L11.9,5.3z"/>
	</g>
	<g>
		<path class="st41" d="M11.9,40.4c-0.2-1.3-0.7-2.4-1.2-3.5c0-0.2,0-0.5,0-0.7c0-3.8-1.6-7.4-4.4-9.7c-0.2-0.1-0.3-0.3-0.5-0.4l0,0
			C2.7,23.5,0.7,19.4,0.7,16c0-6.2,4.9-11.1,10.9-11.1s10.9,5,10.9,11.1c0,3.4-1.7,7.2-4.4,9.7c-0.6,0.4-1.1,0.8-1.7,1.3
			c-2.4,2.4-3.8,5.8-3.8,9.2c0,0.2,0,0.5,0,0.7C12.5,38.1,12.1,39.1,11.9,40.4z"/>
		<g>
			<path class="st47" d="M11.8,5c5.9,0,10.7,4.9,10.7,10.9c0,3.3-1.6,7-4.3,9.5c-0.6,0.4-1.2,0.9-1.7,1.4c-2.5,2.4-3.9,5.9-3.9,9.4
				c0,0.2,0,0.5,0,0.7c-0.4,0.8-0.7,1.6-0.9,2.5c-0.2-0.8-0.5-1.6-0.9-2.4c0-0.2,0-0.5,0-0.7c0-3.9-1.6-7.5-4.5-9.9
				C6.1,26.3,6,26.1,5.8,26l0,0l0,0c-3-2.6-5-6.5-5-9.9C1.2,9.9,5.9,5,11.8,5 M11.8,4.5C5.6,4.5,0.6,9.6,0.6,15.9
				c0,3.9,2.2,7.8,5.2,10.3l0,0c0.2,0.1,0.3,0.3,0.5,0.4c2.6,2.2,4.3,5.7,4.3,9.5c0,0.3,0,0.5,0,0.8c0.9,2,1.4,3.7,1.4,6.2
				c0-2.4,0.5-4.2,1.4-6.2c0-0.3,0-0.5,0-0.8c0-3.6,1.4-6.9,3.7-9c0.5-0.5,1.1-1,1.6-1.3c2.6-2.5,4.5-6.3,4.5-9.8
				C23,9.6,18,4.5,11.8,4.5L11.8,4.5z"/>
		</g>
	</g>
</g>
<circle class="st48" cx="12.1" cy="15.5" r="7.8"/>
<text transform="matrix(1 0 0 1 6.3286 19.604)" class="st41 st69 st70">途</text>
<g>
	<path class="st48" d="M27.5,9.2h1.6V4.8l-1.5,0.9V4.9l1.5-1h0.9v5.4h1.4v0.8h-4V9.2z"/>
</g>
<circle class="st41" cx="65.2" cy="7.1" r="6"/>
<radialGradient id="SVGID_2_" cx="224.7069" cy="-315.9801" r="5.2256" fx="224.4485" fy="-315.9816" gradientTransform="matrix(0 0.6662 -1.3516 0 -378.8787 -106.4676)" gradientUnits="userSpaceOnUse">
	<stop  offset="2.560353e-02" style="stop-color:#231815;stop-opacity:0.55"/>
	<stop  offset="0.8602" style="stop-color:#231815;stop-opacity:0"/>
</radialGradient>
<ellipse class="st1" cx="48.2" cy="42.4" rx="6.8" ry="3.6"/>
<path class="st44" d="M59,16.2c0,3.6-1.8,7.4-4.5,9.8c-0.6,0.4-1.1,0.8-1.6,1.3c-2.3,2.2-3.7,5.5-3.7,9c0,0.3,0,0.5,0,0.8
	c-0.9,2-1.4,4.3-1.4,6.7c0-2.4-0.5-4.7-1.4-6.7c0-0.3,0-0.5,0-0.8c0-3.9-1.7-7.4-4.3-9.5c-0.2-0.1-0.3-0.3-0.5-0.4l0,0
	c-3-2.5-5.2-6.5-5.2-10.3c0-6.3,5.1-11.4,11.2-11.4S59,9.9,59,16.2z"/>
<g>
	<g class="st45">
		<path class="st46" d="M48,41.2c-0.2-1.3-0.7-2.4-1.2-3.5c0-0.2,0-0.5,0-0.7c0-3.8-1.6-7.4-4.4-9.7c-0.2-0.1-0.3-0.3-0.5-0.4l0,0
			c-3-2.7-5-6.7-5-10.2c0-6.2,4.9-11.1,10.9-11.1s10.9,5,10.9,11.1c0,3.4-1.7,7.2-4.4,9.7c-0.6,0.4-1.1,0.8-1.7,1.3
			c-2.4,2.4-3.8,5.8-3.8,9.2c0,0.2,0,0.5,0,0.7C48.6,38.9,48.2,39.9,48,41.2z"/>
		<path class="st46" d="M47.9,5.8c5.9,0,10.7,4.9,10.7,10.9c0,3.3-1.6,7-4.3,9.5c-0.6,0.4-1.2,0.9-1.7,1.4c-2.5,2.4-3.9,5.9-3.9,9.4
			c0,0.2,0,0.5,0,0.7c-0.4,0.8-0.7,1.6-0.9,2.5c-0.2-0.8-0.5-1.6-0.9-2.4c0-0.2,0-0.5,0-0.7c0-3.9-1.6-7.5-4.5-9.9
			c-0.2-0.1-0.3-0.3-0.5-0.4l0,0l0,0c-3-2.6-5-6.5-5-9.9C37.3,10.7,42,5.8,47.9,5.8 M47.9,5.3c-6.2,0-11.2,5.1-11.2,11.4
			c0,3.9,2.2,7.8,5.2,10.3l0,0c0.2,0.1,0.3,0.3,0.5,0.4c2.6,2.2,4.3,5.7,4.3,9.5c0,0.3,0,0.5,0,0.8c0.9,2,1.4,3.7,1.4,6.2
			c0-2.4,0.5-4.2,1.4-6.2c0-0.3,0-0.5,0-0.8c0-3.6,1.4-6.9,3.7-9c0.5-0.5,1.1-1,1.6-1.3c2.6-2.5,4.5-6.3,4.5-9.8
			C59.1,10.4,54.1,5.3,47.9,5.3L47.9,5.3z"/>
	</g>
	<g>
		<path class="st41" d="M47.9,40.4c-0.2-1.3-0.7-2.4-1.2-3.5c0-0.2,0-0.5,0-0.7c0-3.8-1.6-7.4-4.4-9.7c-0.2-0.1-0.3-0.3-0.5-0.4l0,0
			c-3.1-2.6-5.1-6.7-5.1-10.1c0-6.2,4.9-11.1,10.9-11.1s10.9,5,10.9,11.1c0,3.4-1.7,7.2-4.4,9.7c-0.6,0.4-1.1,0.8-1.7,1.3
			c-2.4,2.4-3.8,5.8-3.8,9.2c0,0.2,0,0.5,0,0.7C48.5,38.1,48.1,39.1,47.9,40.4z"/>
		<g>
			<path class="st47" d="M47.8,5c5.9,0,10.7,4.9,10.7,10.9c0,3.3-1.6,7-4.3,9.5c-0.6,0.4-1.2,0.9-1.7,1.4c-2.5,2.4-3.9,5.9-3.9,9.4
				c0,0.2,0,0.5,0,0.7c-0.4,0.8-0.7,1.6-0.9,2.5c-0.2-0.8-0.5-1.6-0.9-2.4c0-0.2,0-0.5,0-0.7c0-3.9-1.6-7.5-4.5-9.9
				c-0.2-0.1-0.3-0.3-0.5-0.4l0,0l0,0c-3-2.6-5-6.5-5-9.9C37.2,9.9,41.9,5,47.8,5 M47.8,4.5c-6.2,0-11.2,5.1-11.2,11.4
				c0,3.9,2.2,7.8,5.2,10.3l0,0c0.2,0.1,0.3,0.3,0.5,0.4c2.6,2.2,4.3,5.7,4.3,9.5c0,0.3,0,0.5,0,0.8c0.9,2,1.4,3.7,1.4,6.2
				c0-2.4,0.5-4.2,1.4-6.2c0-0.3,0-0.5,0-0.8c0-3.6,1.4-6.9,3.7-9c0.5-0.5,1.1-1,1.6-1.3c2.6-2.5,4.5-6.3,4.5-9.8
				C59,9.6,54,4.5,47.8,4.5L47.8,4.5z"/>
		</g>
	</g>
</g>
<circle class="st48" cx="48.1" cy="15.5" r="7.8"/>
<text transform="matrix(1 0 0 1 42.3286 19.604)" class="st41 st69 st70">途</text>
<g>
	<path class="st48" d="M63.3,10.1V9.3c0.1-0.3,0.4-0.7,0.6-1s0.6-0.7,1.1-1.1c0.5-0.5,0.9-0.8,1.1-1c0.2-0.2,0.3-0.5,0.3-0.7
		c0-0.3-0.1-0.5-0.3-0.7c-0.2-0.2-0.4-0.2-0.7-0.2c-0.6,0-0.9,0.3-1,0.9l-1-0.1c0.1-0.5,0.3-0.9,0.6-1.2c0.3-0.3,0.8-0.4,1.4-0.4
		c0.6,0,1.1,0.2,1.5,0.5c0.4,0.3,0.5,0.7,0.5,1.3c0,0.3-0.1,0.5-0.2,0.7c-0.1,0.2-0.2,0.4-0.4,0.7c-0.2,0.2-0.5,0.5-0.9,0.8
		c-0.8,0.6-1.2,1.1-1.4,1.5h3v0.8H63.3z"/>
</g>
<circle class="st41" cx="101.2" cy="7.1" r="6"/>
<radialGradient id="SVGID_3_" cx="224.7069" cy="-342.6152" r="5.2256" fx="224.4485" fy="-342.6167" gradientTransform="matrix(0 0.6662 -1.3516 0 -378.8787 -106.4676)" gradientUnits="userSpaceOnUse">
	<stop  offset="2.560353e-02" style="stop-color:#231815;stop-opacity:0.55"/>
	<stop  offset="0.8602" style="stop-color:#231815;stop-opacity:0"/>
</radialGradient>
<ellipse class="st2" cx="84.2" cy="42.4" rx="6.8" ry="3.6"/>
<path class="st44" d="M95,16.2c0,3.6-1.8,7.4-4.5,9.8c-0.6,0.4-1.1,0.8-1.6,1.3c-2.3,2.2-3.7,5.5-3.7,9c0,0.3,0,0.5,0,0.8
	c-0.9,2-1.4,4.3-1.4,6.7c0-2.4-0.5-4.7-1.4-6.7c0-0.3,0-0.5,0-0.8c0-3.9-1.7-7.4-4.3-9.5c-0.2-0.1-0.3-0.3-0.5-0.4l0,0
	c-3-2.5-5.2-6.5-5.2-10.3c0-6.3,5.1-11.4,11.2-11.4S95,9.9,95,16.2z"/>
<g>
	<g class="st45">
		<path class="st46" d="M84,41.2c-0.2-1.3-0.7-2.4-1.2-3.5c0-0.2,0-0.5,0-0.7c0-3.8-1.6-7.4-4.4-9.7c-0.2-0.1-0.3-0.3-0.5-0.4l0,0
			c-3-2.7-5-6.7-5-10.2c0-6.2,4.9-11.1,10.9-11.1s10.9,5,10.9,11.1c0,3.4-1.7,7.2-4.4,9.7c-0.6,0.4-1.1,0.8-1.7,1.3
			c-2.4,2.4-3.8,5.8-3.8,9.2c0,0.2,0,0.5,0,0.7C84.6,38.9,84.2,39.9,84,41.2z"/>
		<path class="st46" d="M83.9,5.8c5.9,0,10.7,4.9,10.7,10.9c0,3.3-1.6,7-4.3,9.5c-0.6,0.4-1.2,0.9-1.7,1.4c-2.5,2.4-3.9,5.9-3.9,9.4
			c0,0.2,0,0.5,0,0.7c-0.4,0.8-0.7,1.6-0.9,2.5c-0.2-0.8-0.5-1.6-0.9-2.4c0-0.2,0-0.5,0-0.7c0-3.9-1.6-7.5-4.5-9.9
			c-0.2-0.1-0.3-0.3-0.5-0.4l0,0l0,0c-3-2.6-5-6.5-5-9.9C73.3,10.7,78,5.8,83.9,5.8 M83.9,5.3c-6.2,0-11.2,5.1-11.2,11.4
			c0,3.9,2.2,7.8,5.2,10.3l0,0c0.2,0.1,0.3,0.3,0.5,0.4c2.6,2.2,4.3,5.7,4.3,9.5c0,0.3,0,0.5,0,0.8c0.9,2,1.4,3.7,1.4,6.2
			c0-2.4,0.5-4.2,1.4-6.2c0-0.3,0-0.5,0-0.8c0-3.6,1.4-6.9,3.7-9c0.5-0.5,1.1-1,1.6-1.3c2.6-2.5,4.5-6.3,4.5-9.8
			C95.1,10.4,90.1,5.3,83.9,5.3L83.9,5.3z"/>
	</g>
	<g>
		<path class="st41" d="M83.9,40.4c-0.2-1.3-0.7-2.4-1.2-3.5c0-0.2,0-0.5,0-0.7c0-3.8-1.6-7.4-4.4-9.7c-0.2-0.1-0.3-0.3-0.5-0.4l0,0
			c-3.1-2.6-5.1-6.7-5.1-10.1c0-6.2,4.9-11.1,10.9-11.1s10.9,5,10.9,11.1c0,3.4-1.7,7.2-4.4,9.7c-0.6,0.4-1.1,0.8-1.7,1.3
			c-2.4,2.4-3.8,5.8-3.8,9.2c0,0.2,0,0.5,0,0.7C84.5,38.1,84.1,39.1,83.9,40.4z"/>
		<g>
			<path class="st47" d="M83.8,5c5.9,0,10.7,4.9,10.7,10.9c0,3.3-1.6,7-4.3,9.5c-0.6,0.4-1.2,0.9-1.7,1.4c-2.5,2.4-3.9,5.9-3.9,9.4
				c0,0.2,0,0.5,0,0.7c-0.4,0.8-0.7,1.6-0.9,2.5c-0.2-0.8-0.5-1.6-0.9-2.4c0-0.2,0-0.5,0-0.7c0-3.9-1.6-7.5-4.5-9.9
				c-0.2-0.1-0.3-0.3-0.5-0.4l0,0l0,0c-3-2.6-5-6.5-5-9.9C73.2,9.9,77.9,5,83.8,5 M83.8,4.5c-6.2,0-11.2,5.1-11.2,11.4
				c0,3.9,2.2,7.8,5.2,10.3l0,0c0.2,0.1,0.3,0.3,0.5,0.4c2.6,2.2,4.3,5.7,4.3,9.5c0,0.3,0,0.5,0,0.8c0.9,2,1.4,3.7,1.4,6.2
				c0-2.4,0.5-4.2,1.4-6.2c0-0.3,0-0.5,0-0.8c0-3.6,1.4-6.9,3.7-9c0.5-0.5,1.1-1,1.6-1.3c2.6-2.5,4.5-6.3,4.5-9.8
				C95,9.6,90,4.5,83.8,4.5L83.8,4.5z"/>
		</g>
	</g>
</g>
<circle class="st48" cx="84.1" cy="15.5" r="7.8"/>
<text transform="matrix(1 0 0 1 78.3286 19.604)" class="st41 st69 st70">途</text>
<g>
	<path class="st48" d="M103.5,8.3c0,0.6-0.2,1-0.5,1.3c-0.4,0.3-0.9,0.5-1.6,0.5c-0.6,0-1.1-0.1-1.5-0.4c-0.4-0.3-0.6-0.7-0.7-1.3
		l1-0.1c0,0.3,0.2,0.6,0.4,0.8c0.2,0.2,0.4,0.2,0.8,0.2c0.3,0,0.6-0.1,0.8-0.3c0.2-0.2,0.3-0.4,0.3-0.8c0-0.3-0.1-0.5-0.3-0.7
		c-0.2-0.2-0.6-0.3-1-0.3h-0.5V6.5h0.4c0.4,0,0.7-0.1,0.9-0.2c0.2-0.2,0.3-0.4,0.3-0.7c0-0.3-0.1-0.6-0.2-0.7
		c-0.2-0.2-0.4-0.2-0.7-0.2c-0.6,0-0.9,0.3-1,0.9l-1-0.1c0.1-0.5,0.3-0.9,0.6-1.2c0.4-0.3,0.8-0.4,1.4-0.4c0.6,0,1.1,0.1,1.4,0.4
		c0.3,0.3,0.5,0.7,0.5,1.2c0,0.4-0.1,0.7-0.3,0.9c-0.2,0.3-0.5,0.4-1,0.5v0c0.5,0.1,0.8,0.2,1.1,0.5S103.5,7.9,103.5,8.3z"/>
</g>
<circle class="st41" cx="137.2" cy="7.1" r="6"/>
<radialGradient id="SVGID_4_" cx="224.7069" cy="-369.2503" r="5.2256" fx="224.4485" fy="-369.2518" gradientTransform="matrix(0 0.6662 -1.3516 0 -378.8787 -106.4676)" gradientUnits="userSpaceOnUse">
	<stop  offset="2.560353e-02" style="stop-color:#231815;stop-opacity:0.55"/>
	<stop  offset="0.8602" style="stop-color:#231815;stop-opacity:0"/>
</radialGradient>
<ellipse class="st3" cx="120.2" cy="42.4" rx="6.8" ry="3.6"/>
<path class="st44" d="M131,16.2c0,3.6-1.8,7.4-4.5,9.8c-0.6,0.4-1.1,0.8-1.6,1.3c-2.3,2.2-3.7,5.5-3.7,9c0,0.3,0,0.5,0,0.8
	c-0.9,2-1.4,4.3-1.4,6.7c0-2.4-0.5-4.7-1.4-6.7c0-0.3,0-0.5,0-0.8c0-3.9-1.7-7.4-4.3-9.5c-0.2-0.1-0.3-0.3-0.5-0.4l0,0
	c-3-2.5-5.2-6.5-5.2-10.3c0-6.3,5.1-11.4,11.2-11.4S131,9.9,131,16.2z"/>
<g>
	<g class="st45">
		<path class="st46" d="M120,41.2c-0.2-1.3-0.7-2.4-1.2-3.5c0-0.2,0-0.5,0-0.7c0-3.8-1.6-7.4-4.4-9.7c-0.2-0.1-0.3-0.3-0.5-0.4l0,0
			c-3-2.7-5-6.7-5-10.2c0-6.2,4.9-11.1,10.9-11.1s10.9,5,10.9,11.1c0,3.4-1.7,7.2-4.4,9.7c-0.6,0.4-1.1,0.8-1.7,1.3
			c-2.4,2.4-3.8,5.8-3.8,9.2c0,0.2,0,0.5,0,0.7C120.6,38.9,120.2,39.9,120,41.2z"/>
		<path class="st46" d="M119.9,5.8c5.9,0,10.7,4.9,10.7,10.9c0,3.3-1.6,7-4.3,9.5c-0.6,0.4-1.2,0.9-1.7,1.4
			c-2.5,2.4-3.9,5.9-3.9,9.4c0,0.2,0,0.5,0,0.7c-0.4,0.8-0.7,1.6-0.9,2.5c-0.2-0.8-0.5-1.6-0.9-2.4c0-0.2,0-0.5,0-0.7
			c0-3.9-1.6-7.5-4.5-9.9c-0.2-0.1-0.3-0.3-0.5-0.4l0,0l0,0c-3-2.6-5-6.5-5-9.9C109.3,10.7,114,5.8,119.9,5.8 M119.9,5.3
			c-6.2,0-11.2,5.1-11.2,11.4c0,3.9,2.2,7.8,5.2,10.3l0,0c0.2,0.1,0.3,0.3,0.5,0.4c2.6,2.2,4.3,5.7,4.3,9.5c0,0.3,0,0.5,0,0.8
			c0.9,2,1.4,3.7,1.4,6.2c0-2.4,0.5-4.2,1.4-6.2c0-0.3,0-0.5,0-0.8c0-3.6,1.4-6.9,3.7-9c0.5-0.5,1.1-1,1.6-1.3
			c2.6-2.5,4.5-6.3,4.5-9.8C131.1,10.4,126.1,5.3,119.9,5.3L119.9,5.3z"/>
	</g>
	<g>
		<path class="st41" d="M119.9,40.4c-0.2-1.3-0.7-2.4-1.2-3.5c0-0.2,0-0.5,0-0.7c0-3.8-1.6-7.4-4.4-9.7c-0.2-0.1-0.3-0.3-0.5-0.4
			l0,0c-3.1-2.6-5.1-6.7-5.1-10.1c0-6.2,4.9-11.1,10.9-11.1s10.9,5,10.9,11.1c0,3.4-1.7,7.2-4.4,9.7c-0.6,0.4-1.1,0.8-1.7,1.3
			c-2.4,2.4-3.8,5.8-3.8,9.2c0,0.2,0,0.5,0,0.7C120.5,38.1,120.1,39.1,119.9,40.4z"/>
		<g>
			<path class="st47" d="M119.8,5c5.9,0,10.7,4.9,10.7,10.9c0,3.3-1.6,7-4.3,9.5c-0.6,0.4-1.2,0.9-1.7,1.4c-2.5,2.4-3.9,5.9-3.9,9.4
				c0,0.2,0,0.5,0,0.7c-0.4,0.8-0.7,1.6-0.9,2.5c-0.2-0.8-0.5-1.6-0.9-2.4c0-0.2,0-0.5,0-0.7c0-3.9-1.6-7.5-4.5-9.9
				c-0.2-0.1-0.3-0.3-0.5-0.4l0,0l0,0c-3-2.6-5-6.5-5-9.9C109.2,9.9,113.9,5,119.8,5 M119.8,4.5c-6.2,0-11.2,5.1-11.2,11.4
				c0,3.9,2.2,7.8,5.2,10.3l0,0c0.2,0.1,0.3,0.3,0.5,0.4c2.6,2.2,4.3,5.7,4.3,9.5c0,0.3,0,0.5,0,0.8c0.9,2,1.4,3.7,1.4,6.2
				c0-2.4,0.5-4.2,1.4-6.2c0-0.3,0-0.5,0-0.8c0-3.6,1.4-6.9,3.7-9c0.5-0.5,1.1-1,1.6-1.3c2.6-2.5,4.5-6.3,4.5-9.8
				C131,9.6,126,4.5,119.8,4.5L119.8,4.5z"/>
		</g>
	</g>
</g>
<circle class="st48" cx="120.1" cy="15.5" r="7.8"/>
<text transform="matrix(1 0 0 1 114.3286 19.604)" class="st41 st69 st70">途</text>
<g>
	<path class="st48" d="M138.8,8.8v1.3h-1V8.8h-2.8V7.9l2.6-4.1h1.2v4.1h0.9v0.8H138.8z M137.8,4.9l-1.9,3h1.9V4.9z"/>
</g>
<circle class="st41" cx="173.2" cy="7.1" r="6"/>
<radialGradient id="SVGID_5_" cx="224.7069" cy="-395.8854" r="5.2256" fx="224.4485" fy="-395.8869" gradientTransform="matrix(0 0.6662 -1.3516 0 -378.8787 -106.4676)" gradientUnits="userSpaceOnUse">
	<stop  offset="2.560353e-02" style="stop-color:#231815;stop-opacity:0.55"/>
	<stop  offset="0.8602" style="stop-color:#231815;stop-opacity:0"/>
</radialGradient>
<ellipse class="st4" cx="156.2" cy="42.4" rx="6.8" ry="3.6"/>
<path class="st44" d="M167,16.2c0,3.6-1.8,7.4-4.5,9.8c-0.6,0.4-1.1,0.8-1.6,1.3c-2.3,2.2-3.7,5.5-3.7,9c0,0.3,0,0.5,0,0.8
	c-0.9,2-1.4,4.3-1.4,6.7c0-2.4-0.5-4.7-1.4-6.7c0-0.3,0-0.5,0-0.8c0-3.9-1.7-7.4-4.3-9.5c-0.2-0.1-0.3-0.3-0.5-0.4l0,0
	c-3-2.5-5.2-6.5-5.2-10.3c0-6.3,5.1-11.4,11.2-11.4C161.7,4.7,167,9.9,167,16.2z"/>
<g>
	<g class="st45">
		<path class="st46" d="M156,41.2c-0.2-1.3-0.7-2.4-1.2-3.5c0-0.2,0-0.5,0-0.7c0-3.8-1.6-7.4-4.4-9.7c-0.2-0.1-0.3-0.3-0.5-0.4l0,0
			c-3-2.7-5-6.7-5-10.2c0-6.2,4.9-11.1,10.9-11.1s10.9,5,10.9,11.1c0,3.4-1.7,7.2-4.4,9.7c-0.6,0.4-1.1,0.8-1.7,1.3
			c-2.4,2.4-3.8,5.8-3.8,9.2c0,0.2,0,0.5,0,0.7C156.6,38.9,156.2,39.9,156,41.2z"/>
		<path class="st46" d="M155.9,5.8c5.9,0,10.7,4.9,10.7,10.9c0,3.3-1.6,7-4.3,9.5c-0.6,0.4-1.2,0.9-1.7,1.4
			c-2.5,2.4-3.9,5.9-3.9,9.4c0,0.2,0,0.5,0,0.7c-0.4,0.8-0.7,1.6-0.9,2.5c-0.2-0.8-0.5-1.6-0.9-2.4c0-0.2,0-0.5,0-0.7
			c0-3.9-1.6-7.5-4.5-9.9c-0.2-0.1-0.3-0.3-0.5-0.4l0,0l0,0c-3-2.6-5-6.5-5-9.9C145.3,10.7,150,5.8,155.9,5.8 M155.9,5.3
			c-6.2,0-11.2,5.1-11.2,11.4c0,3.9,2.2,7.8,5.2,10.3l0,0c0.2,0.1,0.3,0.3,0.5,0.4c2.6,2.2,4.3,5.7,4.3,9.5c0,0.3,0,0.5,0,0.8
			c0.9,2,1.4,3.7,1.4,6.2c0-2.4,0.5-4.2,1.4-6.2c0-0.3,0-0.5,0-0.8c0-3.6,1.4-6.9,3.7-9c0.5-0.5,1.1-1,1.6-1.3
			c2.6-2.5,4.5-6.3,4.5-9.8C167.1,10.4,162.1,5.3,155.9,5.3L155.9,5.3z"/>
	</g>
	<g>
		<path class="st41" d="M155.9,40.4c-0.2-1.3-0.7-2.4-1.2-3.5c0-0.2,0-0.5,0-0.7c0-3.8-1.6-7.4-4.4-9.7c-0.2-0.1-0.3-0.3-0.5-0.4
			l0,0c-3.1-2.6-5.1-6.7-5.1-10.1c0-6.2,4.9-11.1,10.9-11.1c6,0,10.9,5,10.9,11.1c0,3.4-1.7,7.2-4.4,9.7c-0.6,0.4-1.1,0.8-1.7,1.3
			c-2.4,2.4-3.8,5.8-3.8,9.2c0,0.2,0,0.5,0,0.7C156.5,38.1,156.1,39.1,155.9,40.4z"/>
		<g>
			<path class="st47" d="M155.8,5c5.9,0,10.7,4.9,10.7,10.9c0,3.3-1.6,7-4.3,9.5c-0.6,0.4-1.2,0.9-1.7,1.4c-2.5,2.4-3.9,5.9-3.9,9.4
				c0,0.2,0,0.5,0,0.7c-0.4,0.8-0.7,1.6-0.9,2.5c-0.2-0.8-0.5-1.6-0.9-2.4c0-0.2,0-0.5,0-0.7c0-3.9-1.6-7.5-4.5-9.9
				c-0.2-0.1-0.3-0.3-0.5-0.4l0,0l0,0c-3-2.6-5-6.5-5-9.9C145.2,9.9,149.9,5,155.8,5 M155.8,4.5c-6.2,0-11.2,5.1-11.2,11.4
				c0,3.9,2.2,7.8,5.2,10.3l0,0c0.2,0.1,0.3,0.3,0.5,0.4c2.6,2.2,4.3,5.7,4.3,9.5c0,0.3,0,0.5,0,0.8c0.9,2,1.4,3.7,1.4,6.2
				c0-2.4,0.5-4.2,1.4-6.2c0-0.3,0-0.5,0-0.8c0-3.6,1.4-6.9,3.7-9c0.5-0.5,1.1-1,1.6-1.3c2.6-2.5,4.5-6.3,4.5-9.8
				C167,9.6,162,4.5,155.8,4.5L155.8,4.5z"/>
		</g>
	</g>
</g>
<circle class="st48" cx="156.1" cy="15.5" r="7.8"/>
<text transform="matrix(1 0 0 1 150.3286 19.604)" class="st41 st69 st70">途</text>
<g>
	<path class="st48" d="M175.5,8c0,0.7-0.2,1.2-0.6,1.6c-0.4,0.4-0.9,0.6-1.6,0.6c-0.6,0-1-0.1-1.4-0.4c-0.3-0.3-0.6-0.6-0.6-1.2
		l1-0.1c0.1,0.2,0.1,0.4,0.2,0.5s0.2,0.2,0.3,0.3s0.3,0.1,0.5,0.1c0.4,0,0.6-0.1,0.8-0.3s0.3-0.5,0.3-1c0-0.4-0.1-0.7-0.3-0.9
		s-0.4-0.3-0.8-0.3c-0.2,0-0.4,0-0.5,0.1s-0.3,0.2-0.5,0.3h-1l0.2-3.4h3.5v0.8h-2.6l-0.1,1.7c0.3-0.2,0.7-0.4,1.2-0.4
		c0.6,0,1,0.2,1.4,0.5C175.4,6.9,175.5,7.4,175.5,8z"/>
</g>
<circle class="st41" cx="209.2" cy="7.1" r="6"/>
<radialGradient id="SVGID_6_" cx="224.7069" cy="-422.5205" r="5.2256" fx="224.4485" fy="-422.522" gradientTransform="matrix(0 0.6662 -1.3516 0 -378.8787 -106.4676)" gradientUnits="userSpaceOnUse">
	<stop  offset="2.560353e-02" style="stop-color:#231815;stop-opacity:0.55"/>
	<stop  offset="0.8602" style="stop-color:#231815;stop-opacity:0"/>
</radialGradient>
<ellipse class="st5" cx="192.2" cy="42.4" rx="6.8" ry="3.6"/>
<path class="st44" d="M203,16.2c0,3.6-1.8,7.4-4.5,9.8c-0.6,0.4-1.1,0.8-1.6,1.3c-2.3,2.2-3.7,5.5-3.7,9c0,0.3,0,0.5,0,0.8
	c-0.9,2-1.4,4.3-1.4,6.7c0-2.4-0.5-4.7-1.4-6.7c0-0.3,0-0.5,0-0.8c0-3.9-1.7-7.4-4.3-9.5c-0.2-0.1-0.3-0.3-0.5-0.4l0,0
	c-3-2.5-5.2-6.5-5.2-10.3c0-6.3,5.1-11.4,11.2-11.4C197.7,4.7,203,9.9,203,16.2z"/>
<g>
	<g class="st45">
		<path class="st46" d="M192,41.2c-0.2-1.3-0.7-2.4-1.2-3.5c0-0.2,0-0.5,0-0.7c0-3.8-1.6-7.4-4.4-9.7c-0.2-0.1-0.3-0.3-0.5-0.4l0,0
			c-3-2.7-5-6.7-5-10.2c0-6.2,4.9-11.1,10.9-11.1s10.9,5,10.9,11.1c0,3.4-1.7,7.2-4.4,9.7c-0.6,0.4-1.1,0.8-1.7,1.3
			c-2.4,2.4-3.8,5.8-3.8,9.2c0,0.2,0,0.5,0,0.7C192.6,38.9,192.2,39.9,192,41.2z"/>
		<path class="st46" d="M191.9,5.8c5.9,0,10.7,4.9,10.7,10.9c0,3.3-1.6,7-4.3,9.5c-0.6,0.4-1.2,0.9-1.7,1.4
			c-2.5,2.4-3.9,5.9-3.9,9.4c0,0.2,0,0.5,0,0.7c-0.4,0.8-0.7,1.6-0.9,2.5c-0.2-0.8-0.5-1.6-0.9-2.4c0-0.2,0-0.5,0-0.7
			c0-3.9-1.6-7.5-4.5-9.9c-0.2-0.1-0.3-0.3-0.5-0.4l0,0l0,0c-3-2.6-5-6.5-5-9.9C181.3,10.7,186,5.8,191.9,5.8 M191.9,5.3
			c-6.2,0-11.2,5.1-11.2,11.4c0,3.9,2.2,7.8,5.2,10.3l0,0c0.2,0.1,0.3,0.3,0.5,0.4c2.6,2.2,4.3,5.7,4.3,9.5c0,0.3,0,0.5,0,0.8
			c0.9,2,1.4,3.7,1.4,6.2c0-2.4,0.5-4.2,1.4-6.2c0-0.3,0-0.5,0-0.8c0-3.6,1.4-6.9,3.7-9c0.5-0.5,1.1-1,1.6-1.3
			c2.6-2.5,4.5-6.3,4.5-9.8C203.1,10.4,198.1,5.3,191.9,5.3L191.9,5.3z"/>
	</g>
	<g>
		<path class="st41" d="M191.9,40.4c-0.2-1.3-0.7-2.4-1.2-3.5c0-0.2,0-0.5,0-0.7c0-3.8-1.6-7.4-4.4-9.7c-0.2-0.1-0.3-0.3-0.5-0.4
			l0,0c-3.1-2.6-5.1-6.7-5.1-10.1c0-6.2,4.9-11.1,10.9-11.1c6,0,10.9,5,10.9,11.1c0,3.4-1.7,7.2-4.4,9.7c-0.6,0.4-1.1,0.8-1.7,1.3
			c-2.4,2.4-3.8,5.8-3.8,9.2c0,0.2,0,0.5,0,0.7C192.5,38.1,192.1,39.1,191.9,40.4z"/>
		<g>
			<path class="st47" d="M191.8,5c5.9,0,10.7,4.9,10.7,10.9c0,3.3-1.6,7-4.3,9.5c-0.6,0.4-1.2,0.9-1.7,1.4c-2.5,2.4-3.9,5.9-3.9,9.4
				c0,0.2,0,0.5,0,0.7c-0.4,0.8-0.7,1.6-0.9,2.5c-0.2-0.8-0.5-1.6-0.9-2.4c0-0.2,0-0.5,0-0.7c0-3.9-1.6-7.5-4.5-9.9
				c-0.2-0.1-0.3-0.3-0.5-0.4l0,0l0,0c-3-2.6-5-6.5-5-9.9C181.2,9.9,185.9,5,191.8,5 M191.8,4.5c-6.2,0-11.2,5.1-11.2,11.4
				c0,3.9,2.2,7.8,5.2,10.3l0,0c0.2,0.1,0.3,0.3,0.5,0.4c2.6,2.2,4.3,5.7,4.3,9.5c0,0.3,0,0.5,0,0.8c0.9,2,1.4,3.7,1.4,6.2
				c0-2.4,0.5-4.2,1.4-6.2c0-0.3,0-0.5,0-0.8c0-3.6,1.4-6.9,3.7-9c0.5-0.5,1.1-1,1.6-1.3c2.6-2.5,4.5-6.3,4.5-9.8
				C203,9.6,198,4.5,191.8,4.5L191.8,4.5z"/>
		</g>
	</g>
</g>
<circle class="st48" cx="192.1" cy="15.5" r="7.8"/>
<text transform="matrix(1 0 0 1 186.3286 19.604)" class="st41 st69 st70">途</text>
<g>
	<path class="st48" d="M207.3,7.1c0-1.1,0.2-1.9,0.6-2.5c0.4-0.6,0.9-0.8,1.7-0.8c0.5,0,0.9,0.1,1.1,0.3c0.3,0.2,0.5,0.5,0.6,1
		l-1,0.2c-0.1-0.4-0.4-0.7-0.8-0.7c-0.8,0-1.2,0.7-1.3,2.2c0.1-0.2,0.3-0.4,0.6-0.5c0.2-0.1,0.5-0.2,0.8-0.2c0.6,0,1,0.2,1.3,0.5
		s0.5,0.8,0.5,1.4c0,0.7-0.2,1.2-0.5,1.6s-0.9,0.6-1.5,0.6c-0.7,0-1.2-0.3-1.6-0.8C207.5,8.9,207.3,8.1,207.3,7.1z M208.4,7.9
		c0,0.4,0.1,0.8,0.3,1c0.2,0.3,0.5,0.4,0.8,0.4c0.3,0,0.6-0.1,0.8-0.3s0.3-0.5,0.3-0.9c0-0.4-0.1-0.7-0.3-0.9
		c-0.2-0.2-0.4-0.3-0.8-0.3c-0.3,0-0.6,0.1-0.8,0.3C208.5,7.3,208.4,7.6,208.4,7.9z"/>
</g>
<circle class="st41" cx="245.2" cy="7.1" r="6"/>
<radialGradient id="SVGID_7_" cx="224.7069" cy="-449.1556" r="5.2256" fx="224.4485" fy="-449.1571" gradientTransform="matrix(0 0.6662 -1.3516 0 -378.8787 -106.4676)" gradientUnits="userSpaceOnUse">
	<stop  offset="2.560353e-02" style="stop-color:#231815;stop-opacity:0.55"/>
	<stop  offset="0.8602" style="stop-color:#231815;stop-opacity:0"/>
</radialGradient>
<ellipse class="st6" cx="228.2" cy="42.4" rx="6.8" ry="3.6"/>
<path class="st44" d="M239,16.2c0,3.6-1.8,7.4-4.5,9.8c-0.6,0.4-1.1,0.8-1.6,1.3c-2.3,2.2-3.7,5.5-3.7,9c0,0.3,0,0.5,0,0.8
	c-0.9,2-1.4,4.3-1.4,6.7c0-2.4-0.5-4.7-1.4-6.7c0-0.3,0-0.5,0-0.8c0-3.9-1.7-7.4-4.3-9.5c-0.2-0.1-0.3-0.3-0.5-0.4l0,0
	c-3-2.5-5.2-6.5-5.2-10.3c0-6.3,5.1-11.4,11.2-11.4C233.7,4.7,239,9.9,239,16.2z"/>
<g>
	<g class="st45">
		<path class="st46" d="M228,41.2c-0.2-1.3-0.7-2.4-1.2-3.5c0-0.2,0-0.5,0-0.7c0-3.8-1.6-7.4-4.4-9.7c-0.2-0.1-0.3-0.3-0.5-0.4l0,0
			c-3-2.7-5-6.7-5-10.2c0-6.2,4.9-11.1,10.9-11.1s10.9,5,10.9,11.1c0,3.4-1.7,7.2-4.4,9.7c-0.6,0.4-1.1,0.8-1.7,1.3
			c-2.4,2.4-3.8,5.8-3.8,9.2c0,0.2,0,0.5,0,0.7C228.6,38.9,228.2,39.9,228,41.2z"/>
		<path class="st46" d="M227.9,5.8c5.9,0,10.7,4.9,10.7,10.9c0,3.3-1.6,7-4.3,9.5c-0.6,0.4-1.2,0.9-1.7,1.4
			c-2.5,2.4-3.9,5.9-3.9,9.4c0,0.2,0,0.5,0,0.7c-0.4,0.8-0.7,1.6-0.9,2.5c-0.2-0.8-0.5-1.6-0.9-2.4c0-0.2,0-0.5,0-0.7
			c0-3.9-1.6-7.5-4.5-9.9c-0.2-0.1-0.3-0.3-0.5-0.4l0,0l0,0c-3-2.6-5-6.5-5-9.9C217.3,10.7,222,5.8,227.9,5.8 M227.9,5.3
			c-6.2,0-11.2,5.1-11.2,11.4c0,3.9,2.2,7.8,5.2,10.3l0,0c0.2,0.1,0.3,0.3,0.5,0.4c2.6,2.2,4.3,5.7,4.3,9.5c0,0.3,0,0.5,0,0.8
			c0.9,2,1.4,3.7,1.4,6.2c0-2.4,0.5-4.2,1.4-6.2c0-0.3,0-0.5,0-0.8c0-3.6,1.4-6.9,3.7-9c0.5-0.5,1.1-1,1.6-1.3
			c2.6-2.5,4.5-6.3,4.5-9.8C239.1,10.4,234.1,5.3,227.9,5.3L227.9,5.3z"/>
	</g>
	<g>
		<path class="st41" d="M227.9,40.4c-0.2-1.3-0.7-2.4-1.2-3.5c0-0.2,0-0.5,0-0.7c0-3.8-1.6-7.4-4.4-9.7c-0.2-0.1-0.3-0.3-0.5-0.4
			l0,0c-3.1-2.6-5.1-6.7-5.1-10.1c0-6.2,4.9-11.1,10.9-11.1c6,0,10.9,5,10.9,11.1c0,3.4-1.7,7.2-4.4,9.7c-0.6,0.4-1.1,0.8-1.7,1.3
			c-2.4,2.4-3.8,5.8-3.8,9.2c0,0.2,0,0.5,0,0.7C228.5,38.1,228.1,39.1,227.9,40.4z"/>
		<g>
			<path class="st47" d="M227.8,5c5.9,0,10.7,4.9,10.7,10.9c0,3.3-1.6,7-4.3,9.5c-0.6,0.4-1.2,0.9-1.7,1.4c-2.5,2.4-3.9,5.9-3.9,9.4
				c0,0.2,0,0.5,0,0.7c-0.4,0.8-0.7,1.6-0.9,2.5c-0.2-0.8-0.5-1.6-0.9-2.4c0-0.2,0-0.5,0-0.7c0-3.9-1.6-7.5-4.5-9.9
				c-0.2-0.1-0.3-0.3-0.5-0.4l0,0l0,0c-3-2.6-5-6.5-5-9.9C217.2,9.9,221.9,5,227.8,5 M227.8,4.5c-6.2,0-11.2,5.1-11.2,11.4
				c0,3.9,2.2,7.8,5.2,10.3l0,0c0.2,0.1,0.3,0.3,0.5,0.4c2.6,2.2,4.3,5.7,4.3,9.5c0,0.3,0,0.5,0,0.8c0.9,2,1.4,3.7,1.4,6.2
				c0-2.4,0.5-4.2,1.4-6.2c0-0.3,0-0.5,0-0.8c0-3.6,1.4-6.9,3.7-9c0.5-0.5,1.1-1,1.6-1.3c2.6-2.5,4.5-6.3,4.5-9.8
				C239,9.6,234,4.5,227.8,4.5L227.8,4.5z"/>
		</g>
	</g>
</g>
<circle class="st48" cx="228.1" cy="15.5" r="7.8"/>
<text transform="matrix(1 0 0 1 222.3286 19.604)" class="st41 st69 st70">途</text>
<g>
	<path class="st48" d="M247.5,4.7c-0.6,0.9-1,1.6-1.2,2.1c-0.3,0.6-0.5,1.1-0.6,1.6c-0.1,0.5-0.2,1.1-0.2,1.6h-1
		c0-0.8,0.2-1.6,0.5-2.4s0.9-1.8,1.7-2.9h-3.2V3.9h4.1V4.7z"/>
</g>
<circle class="st41" cx="281.2" cy="7.1" r="6"/>
<radialGradient id="SVGID_8_" cx="224.7069" cy="-475.7907" r="5.2256" fx="224.4485" fy="-475.7922" gradientTransform="matrix(0 0.6662 -1.3516 0 -378.8787 -106.4676)" gradientUnits="userSpaceOnUse">
	<stop  offset="2.560353e-02" style="stop-color:#231815;stop-opacity:0.55"/>
	<stop  offset="0.8602" style="stop-color:#231815;stop-opacity:0"/>
</radialGradient>
<ellipse class="st7" cx="264.2" cy="42.4" rx="6.8" ry="3.6"/>
<path class="st44" d="M275,16.2c0,3.6-1.8,7.4-4.5,9.8c-0.6,0.4-1.1,0.8-1.6,1.3c-2.3,2.2-3.7,5.5-3.7,9c0,0.3,0,0.5,0,0.8
	c-0.9,2-1.4,4.3-1.4,6.7c0-2.4-0.5-4.7-1.4-6.7c0-0.3,0-0.5,0-0.8c0-3.9-1.7-7.4-4.3-9.5c-0.2-0.1-0.3-0.3-0.5-0.4l0,0
	c-3-2.5-5.2-6.5-5.2-10.3c0-6.3,5.1-11.4,11.2-11.4S275,9.9,275,16.2z"/>
<g>
	<g class="st45">
		<path class="st46" d="M264,41.2c-0.2-1.3-0.7-2.4-1.2-3.5c0-0.2,0-0.5,0-0.7c0-3.8-1.6-7.4-4.4-9.7c-0.2-0.1-0.3-0.3-0.5-0.4l0,0
			c-3-2.7-5-6.7-5-10.2c0-6.2,4.9-11.1,10.9-11.1s10.9,5,10.9,11.1c0,3.4-1.7,7.2-4.4,9.7c-0.6,0.4-1.1,0.8-1.7,1.3
			c-2.4,2.4-3.8,5.8-3.8,9.2c0,0.2,0,0.5,0,0.7C264.6,38.9,264.2,39.9,264,41.2z"/>
		<path class="st46" d="M263.9,5.8c5.9,0,10.7,4.9,10.7,10.9c0,3.3-1.6,7-4.3,9.5c-0.6,0.4-1.2,0.9-1.7,1.4
			c-2.5,2.4-3.9,5.9-3.9,9.4c0,0.2,0,0.5,0,0.7c-0.4,0.8-0.7,1.6-0.9,2.5c-0.2-0.8-0.5-1.6-0.9-2.4c0-0.2,0-0.5,0-0.7
			c0-3.9-1.6-7.5-4.5-9.9c-0.2-0.1-0.3-0.3-0.5-0.4l0,0l0,0c-3-2.6-5-6.5-5-9.9C253.3,10.7,258,5.8,263.9,5.8 M263.9,5.3
			c-6.2,0-11.2,5.1-11.2,11.4c0,3.9,2.2,7.8,5.2,10.3l0,0c0.2,0.1,0.3,0.3,0.5,0.4c2.6,2.2,4.3,5.7,4.3,9.5c0,0.3,0,0.5,0,0.8
			c0.9,2,1.4,3.7,1.4,6.2c0-2.4,0.5-4.2,1.4-6.2c0-0.3,0-0.5,0-0.8c0-3.6,1.4-6.9,3.7-9c0.5-0.5,1.1-1,1.6-1.3
			c2.6-2.5,4.5-6.3,4.5-9.8C275.1,10.4,270.1,5.3,263.9,5.3L263.9,5.3z"/>
	</g>
	<g>
		<path class="st41" d="M263.9,40.4c-0.2-1.3-0.7-2.4-1.2-3.5c0-0.2,0-0.5,0-0.7c0-3.8-1.6-7.4-4.4-9.7c-0.2-0.1-0.3-0.3-0.5-0.4
			l0,0c-3.1-2.6-5.1-6.7-5.1-10.1c0-6.2,4.9-11.1,10.9-11.1s10.9,5,10.9,11.1c0,3.4-1.7,7.2-4.4,9.7c-0.6,0.4-1.1,0.8-1.7,1.3
			c-2.4,2.4-3.8,5.8-3.8,9.2c0,0.2,0,0.5,0,0.7C264.5,38.1,264.1,39.1,263.9,40.4z"/>
		<g>
			<path class="st47" d="M263.8,5c5.9,0,10.7,4.9,10.7,10.9c0,3.3-1.6,7-4.3,9.5c-0.6,0.4-1.2,0.9-1.7,1.4c-2.5,2.4-3.9,5.9-3.9,9.4
				c0,0.2,0,0.5,0,0.7c-0.4,0.8-0.7,1.6-0.9,2.5c-0.2-0.8-0.5-1.6-0.9-2.4c0-0.2,0-0.5,0-0.7c0-3.9-1.6-7.5-4.5-9.9
				c-0.2-0.1-0.3-0.3-0.5-0.4l0,0l0,0c-3-2.6-5-6.5-5-9.9C253.2,9.9,257.9,5,263.8,5 M263.8,4.5c-6.2,0-11.2,5.1-11.2,11.4
				c0,3.9,2.2,7.8,5.2,10.3l0,0c0.2,0.1,0.3,0.3,0.5,0.4c2.6,2.2,4.3,5.7,4.3,9.5c0,0.3,0,0.5,0,0.8c0.9,2,1.4,3.7,1.4,6.2
				c0-2.4,0.5-4.2,1.4-6.2c0-0.3,0-0.5,0-0.8c0-3.6,1.4-6.9,3.7-9c0.5-0.5,1.1-1,1.6-1.3c2.6-2.5,4.5-6.3,4.5-9.8
				C275,9.6,270,4.5,263.8,4.5L263.8,4.5z"/>
		</g>
	</g>
</g>
<circle class="st48" cx="264.1" cy="15.5" r="7.8"/>
<text transform="matrix(1 0 0 1 258.3286 19.604)" class="st41 st69 st70">途</text>
<g>
	<path class="st48" d="M283.5,8.3c0,0.6-0.2,1-0.5,1.4c-0.4,0.3-0.9,0.5-1.6,0.5c-0.7,0-1.2-0.2-1.6-0.5c-0.4-0.3-0.6-0.8-0.6-1.3
		c0-0.4,0.1-0.7,0.3-1s0.5-0.4,0.9-0.5v0c-0.3-0.1-0.6-0.3-0.8-0.5c-0.2-0.3-0.3-0.6-0.3-0.9c0-0.5,0.2-0.9,0.5-1.2
		c0.3-0.3,0.8-0.4,1.4-0.4c0.6,0,1.1,0.1,1.5,0.4c0.3,0.3,0.5,0.7,0.5,1.2c0,0.3-0.1,0.7-0.3,0.9s-0.5,0.4-0.8,0.5v0
		c0.4,0.1,0.7,0.2,0.9,0.5C283.4,7.6,283.5,7.9,283.5,8.3z M282.5,8.2c0-0.3-0.1-0.6-0.3-0.8c-0.2-0.2-0.5-0.3-0.8-0.3
		c-0.3,0-0.6,0.1-0.8,0.3c-0.2,0.2-0.3,0.5-0.3,0.8c0,0.4,0.1,0.7,0.3,0.9c0.2,0.2,0.5,0.3,0.8,0.3c0.4,0,0.6-0.1,0.8-0.3
		C282.4,8.9,282.5,8.6,282.5,8.2z M282.3,5.4c0-0.6-0.3-1-0.9-1c-0.6,0-0.9,0.3-0.9,1c0,0.3,0.1,0.6,0.2,0.7s0.4,0.3,0.7,0.3
		s0.5-0.1,0.7-0.2C282.3,6,282.3,5.8,282.3,5.4z"/>
</g>
<circle class="st41" cx="317.2" cy="7.1" r="6"/>
<radialGradient id="SVGID_9_" cx="224.7069" cy="-502.4258" r="5.2256" fx="224.4485" fy="-502.4273" gradientTransform="matrix(0 0.6662 -1.3516 0 -378.8787 -106.4676)" gradientUnits="userSpaceOnUse">
	<stop  offset="2.560353e-02" style="stop-color:#231815;stop-opacity:0.55"/>
	<stop  offset="0.8602" style="stop-color:#231815;stop-opacity:0"/>
</radialGradient>
<ellipse class="st8" cx="300.2" cy="42.4" rx="6.8" ry="3.6"/>
<path class="st44" d="M311,16.2c0,3.6-1.8,7.4-4.5,9.8c-0.6,0.4-1.1,0.8-1.6,1.3c-2.3,2.2-3.7,5.5-3.7,9c0,0.3,0,0.5,0,0.8
	c-0.9,2-1.4,4.3-1.4,6.7c0-2.4-0.5-4.7-1.4-6.7c0-0.3,0-0.5,0-0.8c0-3.9-1.7-7.4-4.3-9.5c-0.2-0.1-0.3-0.3-0.5-0.4l0,0
	c-3-2.5-5.2-6.5-5.2-10.3c0-6.3,5.1-11.4,11.2-11.4S311,9.9,311,16.2z"/>
<g>
	<g class="st45">
		<path class="st46" d="M300,41.2c-0.2-1.3-0.7-2.4-1.2-3.5c0-0.2,0-0.5,0-0.7c0-3.8-1.6-7.4-4.4-9.7c-0.2-0.1-0.3-0.3-0.5-0.4l0,0
			c-3-2.7-5-6.7-5-10.2c0-6.2,4.9-11.1,10.9-11.1s10.9,5,10.9,11.1c0,3.4-1.7,7.2-4.4,9.7c-0.6,0.4-1.1,0.8-1.7,1.3
			c-2.4,2.4-3.8,5.8-3.8,9.2c0,0.2,0,0.5,0,0.7C300.6,38.9,300.2,39.9,300,41.2z"/>
		<path class="st46" d="M299.9,5.8c5.9,0,10.7,4.9,10.7,10.9c0,3.3-1.6,7-4.3,9.5c-0.6,0.4-1.2,0.9-1.7,1.4
			c-2.5,2.4-3.9,5.9-3.9,9.4c0,0.2,0,0.5,0,0.7c-0.4,0.8-0.7,1.6-0.9,2.5c-0.2-0.8-0.5-1.6-0.9-2.4c0-0.2,0-0.5,0-0.7
			c0-3.9-1.6-7.5-4.5-9.9c-0.2-0.1-0.3-0.3-0.5-0.4l0,0l0,0c-3-2.6-5-6.5-5-9.9C289.3,10.7,294,5.8,299.9,5.8 M299.9,5.3
			c-6.2,0-11.2,5.1-11.2,11.4c0,3.9,2.2,7.8,5.2,10.3l0,0c0.2,0.1,0.3,0.3,0.5,0.4c2.6,2.2,4.3,5.7,4.3,9.5c0,0.3,0,0.5,0,0.8
			c0.9,2,1.4,3.7,1.4,6.2c0-2.4,0.5-4.2,1.4-6.2c0-0.3,0-0.5,0-0.8c0-3.6,1.4-6.9,3.7-9c0.5-0.5,1.1-1,1.6-1.3
			c2.6-2.5,4.5-6.3,4.5-9.8C311.1,10.4,306.1,5.3,299.9,5.3L299.9,5.3z"/>
	</g>
	<g>
		<path class="st41" d="M299.9,40.4c-0.2-1.3-0.7-2.4-1.2-3.5c0-0.2,0-0.5,0-0.7c0-3.8-1.6-7.4-4.4-9.7c-0.2-0.1-0.3-0.3-0.5-0.4
			l0,0c-3.1-2.6-5.1-6.7-5.1-10.1c0-6.2,4.9-11.1,10.9-11.1s10.9,5,10.9,11.1c0,3.4-1.7,7.2-4.4,9.7c-0.6,0.4-1.1,0.8-1.7,1.3
			c-2.4,2.4-3.8,5.8-3.8,9.2c0,0.2,0,0.5,0,0.7C300.5,38.1,300.1,39.1,299.9,40.4z"/>
		<g>
			<path class="st47" d="M299.8,5c5.9,0,10.7,4.9,10.7,10.9c0,3.3-1.6,7-4.3,9.5c-0.6,0.4-1.2,0.9-1.7,1.4c-2.5,2.4-3.9,5.9-3.9,9.4
				c0,0.2,0,0.5,0,0.7c-0.4,0.8-0.7,1.6-0.9,2.5c-0.2-0.8-0.5-1.6-0.9-2.4c0-0.2,0-0.5,0-0.7c0-3.9-1.6-7.5-4.5-9.9
				c-0.2-0.1-0.3-0.3-0.5-0.4l0,0l0,0c-3-2.6-5-6.5-5-9.9C289.2,9.9,293.9,5,299.8,5 M299.8,4.5c-6.2,0-11.2,5.1-11.2,11.4
				c0,3.9,2.2,7.8,5.2,10.3l0,0c0.2,0.1,0.3,0.3,0.5,0.4c2.6,2.2,4.3,5.7,4.3,9.5c0,0.3,0,0.5,0,0.8c0.9,2,1.4,3.7,1.4,6.2
				c0-2.4,0.5-4.2,1.4-6.2c0-0.3,0-0.5,0-0.8c0-3.6,1.4-6.9,3.7-9c0.5-0.5,1.1-1,1.6-1.3c2.6-2.5,4.5-6.3,4.5-9.8
				C311,9.6,306,4.5,299.8,4.5L299.8,4.5z"/>
		</g>
	</g>
</g>
<circle class="st48" cx="300.1" cy="15.5" r="7.8"/>
<text transform="matrix(1 0 0 1 294.3286 19.604)" class="st41 st69 st70">途</text>
<g>
	<path class="st48" d="M319.5,6.8c0,1.1-0.2,1.9-0.6,2.5c-0.4,0.6-0.9,0.8-1.7,0.8c-0.5,0-0.9-0.1-1.2-0.3c-0.3-0.2-0.5-0.6-0.6-1
		l1-0.1c0.1,0.5,0.5,0.7,0.9,0.7c0.8,0,1.2-0.7,1.3-2.2c-0.1,0.2-0.3,0.4-0.6,0.5c-0.3,0.1-0.5,0.2-0.9,0.2c-0.6,0-1-0.2-1.3-0.5
		c-0.3-0.4-0.5-0.9-0.5-1.5c0-0.6,0.2-1.1,0.5-1.5c0.4-0.4,0.9-0.5,1.5-0.5c0.7,0,1.2,0.3,1.6,0.8C319.3,5,319.5,5.8,319.5,6.8z
		 M318.4,6c0-0.4-0.1-0.8-0.3-1s-0.5-0.4-0.8-0.4c-0.3,0-0.6,0.1-0.8,0.3c-0.2,0.2-0.3,0.5-0.3,0.9c0,0.4,0.1,0.7,0.3,0.9
		c0.2,0.2,0.4,0.3,0.8,0.3c0.3,0,0.6-0.1,0.8-0.3C318.3,6.6,318.4,6.3,318.4,6z"/>
</g>
<circle class="st41" cx="353.2" cy="7.1" r="6"/>
<radialGradient id="SVGID_10_" cx="224.7069" cy="-529.0609" r="5.2256" fx="224.4485" fy="-529.0624" gradientTransform="matrix(0 0.6662 -1.3516 0 -378.8787 -106.4676)" gradientUnits="userSpaceOnUse">
	<stop  offset="2.560353e-02" style="stop-color:#231815;stop-opacity:0.55"/>
	<stop  offset="0.8602" style="stop-color:#231815;stop-opacity:0"/>
</radialGradient>
<ellipse class="st9" cx="336.2" cy="42.4" rx="6.8" ry="3.6"/>
<path class="st44" d="M347,16.2c0,3.6-1.8,7.4-4.5,9.8c-0.6,0.4-1.1,0.8-1.6,1.3c-2.3,2.2-3.7,5.5-3.7,9c0,0.3,0,0.5,0,0.8
	c-0.9,2-1.4,4.3-1.4,6.7c0-2.4-0.5-4.7-1.4-6.7c0-0.3,0-0.5,0-0.8c0-3.9-1.7-7.4-4.3-9.5c-0.2-0.1-0.3-0.3-0.5-0.4l0,0
	c-3-2.5-5.2-6.5-5.2-10.3c0-6.3,5.1-11.4,11.2-11.4S347,9.9,347,16.2z"/>
<g>
	<g class="st45">
		<path class="st46" d="M336,41.2c-0.2-1.3-0.7-2.4-1.2-3.5c0-0.2,0-0.5,0-0.7c0-3.8-1.6-7.4-4.4-9.7c-0.2-0.1-0.3-0.3-0.5-0.4l0,0
			c-3-2.7-5-6.7-5-10.2c0-6.2,4.9-11.1,10.9-11.1s10.9,5,10.9,11.1c0,3.4-1.7,7.2-4.4,9.7c-0.6,0.4-1.1,0.8-1.7,1.3
			c-2.4,2.4-3.8,5.8-3.8,9.2c0,0.2,0,0.5,0,0.7C336.6,38.9,336.2,39.9,336,41.2z"/>
		<path class="st46" d="M335.9,5.8c5.9,0,10.7,4.9,10.7,10.9c0,3.3-1.6,7-4.3,9.5c-0.6,0.4-1.2,0.9-1.7,1.4
			c-2.5,2.4-3.9,5.9-3.9,9.4c0,0.2,0,0.5,0,0.7c-0.4,0.8-0.7,1.6-0.9,2.5c-0.2-0.8-0.5-1.6-0.9-2.4c0-0.2,0-0.5,0-0.7
			c0-3.9-1.6-7.5-4.5-9.9c-0.2-0.1-0.3-0.3-0.5-0.4l0,0l0,0c-3-2.6-5-6.5-5-9.9C325.3,10.7,330,5.8,335.9,5.8 M335.9,5.3
			c-6.2,0-11.2,5.1-11.2,11.4c0,3.9,2.2,7.8,5.2,10.3l0,0c0.2,0.1,0.3,0.3,0.5,0.4c2.6,2.2,4.3,5.7,4.3,9.5c0,0.3,0,0.5,0,0.8
			c0.9,2,1.4,3.7,1.4,6.2c0-2.4,0.5-4.2,1.4-6.2c0-0.3,0-0.5,0-0.8c0-3.6,1.4-6.9,3.7-9c0.5-0.5,1.1-1,1.6-1.3
			c2.6-2.5,4.5-6.3,4.5-9.8C347.1,10.4,342.1,5.3,335.9,5.3L335.9,5.3z"/>
	</g>
	<g>
		<path class="st41" d="M335.9,40.4c-0.2-1.3-0.7-2.4-1.2-3.5c0-0.2,0-0.5,0-0.7c0-3.8-1.6-7.4-4.4-9.7c-0.2-0.1-0.3-0.3-0.5-0.4
			l0,0c-3.1-2.6-5.1-6.7-5.1-10.1c0-6.2,4.9-11.1,10.9-11.1s10.9,5,10.9,11.1c0,3.4-1.7,7.2-4.4,9.7c-0.6,0.4-1.1,0.8-1.7,1.3
			c-2.4,2.4-3.8,5.8-3.8,9.2c0,0.2,0,0.5,0,0.7C336.5,38.1,336.1,39.1,335.9,40.4z"/>
		<g>
			<path class="st47" d="M335.8,5c5.9,0,10.7,4.9,10.7,10.9c0,3.3-1.6,7-4.3,9.5c-0.6,0.4-1.2,0.9-1.7,1.4c-2.5,2.4-3.9,5.9-3.9,9.4
				c0,0.2,0,0.5,0,0.7c-0.4,0.8-0.7,1.6-0.9,2.5c-0.2-0.8-0.5-1.6-0.9-2.4c0-0.2,0-0.5,0-0.7c0-3.9-1.6-7.5-4.5-9.9
				c-0.2-0.1-0.3-0.3-0.5-0.4l0,0l0,0c-3-2.6-5-6.5-5-9.9C325.2,9.9,329.9,5,335.8,5 M335.8,4.5c-6.2,0-11.2,5.1-11.2,11.4
				c0,3.9,2.2,7.8,5.2,10.3l0,0c0.2,0.1,0.3,0.3,0.5,0.4c2.6,2.2,4.3,5.7,4.3,9.5c0,0.3,0,0.5,0,0.8c0.9,2,1.4,3.7,1.4,6.2
				c0-2.4,0.5-4.2,1.4-6.2c0-0.3,0-0.5,0-0.8c0-3.6,1.4-6.9,3.7-9c0.5-0.5,1.1-1,1.6-1.3c2.6-2.5,4.5-6.3,4.5-9.8
				C347,9.6,342,4.5,335.8,4.5L335.8,4.5z"/>
		</g>
	</g>
</g>
<circle class="st48" cx="336.1" cy="15.5" r="7.8"/>
<text transform="matrix(1 0 0 1 330.3286 19.604)" class="st41 st69 st70">途</text>
<g>
	<path class="st48" d="M349.2,9.2h1.6V4.8l-1.5,0.9V4.9l1.5-1h0.9v5.4h1.4v0.8h-4V9.2z"/>
	<path class="st48" d="M357.8,7c0,1-0.2,1.8-0.5,2.4c-0.4,0.5-0.9,0.8-1.6,0.8c-1.4,0-2.1-1.1-2.1-3.2c0-0.7,0.1-1.3,0.2-1.8
		c0.2-0.5,0.4-0.8,0.7-1c0.3-0.2,0.7-0.3,1.2-0.3c0.7,0,1.2,0.3,1.6,0.8S357.8,5.9,357.8,7z M356.8,7c0-0.6,0-1-0.1-1.4
		s-0.2-0.6-0.3-0.8c-0.2-0.2-0.4-0.2-0.6-0.2c-0.4,0-0.7,0.2-0.9,0.5c-0.2,0.4-0.3,1-0.3,1.8c0,0.8,0.1,1.4,0.3,1.8s0.5,0.6,0.8,0.6
		c0.4,0,0.7-0.2,0.8-0.6C356.7,8.4,356.8,7.8,356.8,7z"/>
</g>
<circle class="st41" cx="389.2" cy="7.1" r="6"/>
<radialGradient id="SVGID_11_" cx="224.7069" cy="-555.696" r="5.2256" fx="224.4485" fy="-555.6975" gradientTransform="matrix(0 0.6662 -1.3516 0 -378.8787 -106.4676)" gradientUnits="userSpaceOnUse">
	<stop  offset="2.560353e-02" style="stop-color:#231815;stop-opacity:0.55"/>
	<stop  offset="0.8602" style="stop-color:#231815;stop-opacity:0"/>
</radialGradient>
<ellipse class="st10" cx="372.2" cy="42.4" rx="6.8" ry="3.6"/>
<path class="st44" d="M383,16.2c0,3.6-1.8,7.4-4.5,9.8c-0.6,0.4-1.1,0.8-1.6,1.3c-2.3,2.2-3.7,5.5-3.7,9c0,0.3,0,0.5,0,0.8
	c-0.9,2-1.4,4.3-1.4,6.7c0-2.4-0.5-4.7-1.4-6.7c0-0.3,0-0.5,0-0.8c0-3.9-1.7-7.4-4.3-9.5c-0.2-0.1-0.3-0.3-0.5-0.4l0,0
	c-3-2.5-5.2-6.5-5.2-10.3c0-6.3,5.1-11.4,11.2-11.4S383,9.9,383,16.2z"/>
<g>
	<g class="st45">
		<path class="st46" d="M372,41.2c-0.2-1.3-0.7-2.4-1.2-3.5c0-0.2,0-0.5,0-0.7c0-3.8-1.6-7.4-4.4-9.7c-0.2-0.1-0.3-0.3-0.5-0.4l0,0
			c-3-2.7-5-6.7-5-10.2c0-6.2,4.9-11.1,10.9-11.1s10.9,5,10.9,11.1c0,3.4-1.7,7.2-4.4,9.7c-0.6,0.4-1.1,0.8-1.7,1.3
			c-2.4,2.4-3.8,5.8-3.8,9.2c0,0.2,0,0.5,0,0.7C372.6,38.9,372.2,39.9,372,41.2z"/>
		<path class="st46" d="M371.9,5.8c5.9,0,10.7,4.9,10.7,10.9c0,3.3-1.6,7-4.3,9.5c-0.6,0.4-1.2,0.9-1.7,1.4
			c-2.5,2.4-3.9,5.9-3.9,9.4c0,0.2,0,0.5,0,0.7c-0.4,0.8-0.7,1.6-0.9,2.5c-0.2-0.8-0.5-1.6-0.9-2.4c0-0.2,0-0.5,0-0.7
			c0-3.9-1.6-7.5-4.5-9.9c-0.2-0.1-0.3-0.3-0.5-0.4l0,0l0,0c-3-2.6-5-6.5-5-9.9C361.3,10.7,366,5.8,371.9,5.8 M371.9,5.3
			c-6.2,0-11.2,5.1-11.2,11.4c0,3.9,2.2,7.8,5.2,10.3l0,0c0.2,0.1,0.3,0.3,0.5,0.4c2.6,2.2,4.3,5.7,4.3,9.5c0,0.3,0,0.5,0,0.8
			c0.9,2,1.4,3.7,1.4,6.2c0-2.4,0.5-4.2,1.4-6.2c0-0.3,0-0.5,0-0.8c0-3.6,1.4-6.9,3.7-9c0.5-0.5,1.1-1,1.6-1.3
			c2.6-2.5,4.5-6.3,4.5-9.8C383.1,10.4,378.1,5.3,371.9,5.3L371.9,5.3z"/>
	</g>
	<g>
		<path class="st41" d="M371.9,40.4c-0.2-1.3-0.7-2.4-1.2-3.5c0-0.2,0-0.5,0-0.7c0-3.8-1.6-7.4-4.4-9.7c-0.2-0.1-0.3-0.3-0.5-0.4
			l0,0c-3.1-2.6-5.1-6.7-5.1-10.1c0-6.2,4.9-11.1,10.9-11.1s10.9,5,10.9,11.1c0,3.4-1.7,7.2-4.4,9.7c-0.6,0.4-1.1,0.8-1.7,1.3
			c-2.4,2.4-3.8,5.8-3.8,9.2c0,0.2,0,0.5,0,0.7C372.5,38.1,372.1,39.1,371.9,40.4z"/>
		<g>
			<path class="st47" d="M371.8,5c5.9,0,10.7,4.9,10.7,10.9c0,3.3-1.6,7-4.3,9.5c-0.6,0.4-1.2,0.9-1.7,1.4c-2.5,2.4-3.9,5.9-3.9,9.4
				c0,0.2,0,0.5,0,0.7c-0.4,0.8-0.7,1.6-0.9,2.5c-0.2-0.8-0.5-1.6-0.9-2.4c0-0.2,0-0.5,0-0.7c0-3.9-1.6-7.5-4.5-9.9
				c-0.2-0.1-0.3-0.3-0.5-0.4l0,0l0,0c-3-2.6-5-6.5-5-9.9C361.2,9.9,365.9,5,371.8,5 M371.8,4.5c-6.2,0-11.2,5.1-11.2,11.4
				c0,3.9,2.2,7.8,5.2,10.3l0,0c0.2,0.1,0.3,0.3,0.5,0.4c2.6,2.2,4.3,5.7,4.3,9.5c0,0.3,0,0.5,0,0.8c0.9,2,1.4,3.7,1.4,6.2
				c0-2.4,0.5-4.2,1.4-6.2c0-0.3,0-0.5,0-0.8c0-3.6,1.4-6.9,3.7-9c0.5-0.5,1.1-1,1.6-1.3c2.6-2.5,4.5-6.3,4.5-9.8
				C383,9.6,378,4.5,371.8,4.5L371.8,4.5z"/>
		</g>
	</g>
</g>
<circle class="st48" cx="372.1" cy="15.5" r="7.8"/>
<text transform="matrix(1 0 0 1 366.3286 19.604)" class="st41 st69 st70">途</text>
<g>
	<path class="st48" d="M385.2,9.2h1.6V4.8l-1.5,0.9V4.9l1.5-1h0.9v5.4h1.4v0.8h-4V9.2z"/>
	<path class="st48" d="M389.8,9.2h1.6V4.8L390,5.7V4.9l1.5-1h0.9v5.4h1.4v0.8h-4V9.2z"/>
</g>
<circle class="st41" cx="425.2" cy="7.1" r="6"/>
<radialGradient id="SVGID_12_" cx="224.7069" cy="-582.3311" r="5.2256" fx="224.4485" fy="-582.3326" gradientTransform="matrix(0 0.6662 -1.3516 0 -378.8787 -106.4676)" gradientUnits="userSpaceOnUse">
	<stop  offset="2.560353e-02" style="stop-color:#231815;stop-opacity:0.55"/>
	<stop  offset="0.8602" style="stop-color:#231815;stop-opacity:0"/>
</radialGradient>
<ellipse class="st11" cx="408.2" cy="42.4" rx="6.8" ry="3.6"/>
<path class="st44" d="M419,16.2c0,3.6-1.8,7.4-4.5,9.8c-0.6,0.4-1.1,0.8-1.6,1.3c-2.3,2.2-3.7,5.5-3.7,9c0,0.3,0,0.5,0,0.8
	c-0.9,2-1.4,4.3-1.4,6.7c0-2.4-0.5-4.7-1.4-6.7c0-0.3,0-0.5,0-0.8c0-3.9-1.7-7.4-4.3-9.5c-0.2-0.1-0.3-0.3-0.5-0.4l0,0
	c-3-2.5-5.2-6.5-5.2-10.3c0-6.3,5.1-11.4,11.2-11.4S419,9.9,419,16.2z"/>
<g>
	<g class="st45">
		<path class="st46" d="M408,41.2c-0.2-1.3-0.7-2.4-1.2-3.5c0-0.2,0-0.5,0-0.7c0-3.8-1.6-7.4-4.4-9.7c-0.2-0.1-0.3-0.3-0.5-0.4l0,0
			c-3-2.7-5-6.7-5-10.2c0-6.2,4.9-11.1,10.9-11.1s10.9,5,10.9,11.1c0,3.4-1.7,7.2-4.4,9.7c-0.6,0.4-1.1,0.8-1.7,1.3
			c-2.4,2.4-3.8,5.8-3.8,9.2c0,0.2,0,0.5,0,0.7C408.6,38.9,408.2,39.9,408,41.2z"/>
		<path class="st46" d="M407.9,5.8c5.9,0,10.7,4.9,10.7,10.9c0,3.3-1.6,7-4.3,9.5c-0.6,0.4-1.2,0.9-1.7,1.4
			c-2.5,2.4-3.9,5.9-3.9,9.4c0,0.2,0,0.5,0,0.7c-0.4,0.8-0.7,1.6-0.9,2.5c-0.2-0.8-0.5-1.6-0.9-2.4c0-0.2,0-0.5,0-0.7
			c0-3.9-1.6-7.5-4.5-9.9c-0.2-0.1-0.3-0.3-0.5-0.4l0,0l0,0c-3-2.6-5-6.5-5-9.9C397.3,10.7,402,5.8,407.9,5.8 M407.9,5.3
			c-6.2,0-11.2,5.1-11.2,11.4c0,3.9,2.2,7.8,5.2,10.3l0,0c0.2,0.1,0.3,0.3,0.5,0.4c2.6,2.2,4.3,5.7,4.3,9.5c0,0.3,0,0.5,0,0.8
			c0.9,2,1.4,3.7,1.4,6.2c0-2.4,0.5-4.2,1.4-6.2c0-0.3,0-0.5,0-0.8c0-3.6,1.4-6.9,3.7-9c0.5-0.5,1.1-1,1.6-1.3
			c2.6-2.5,4.5-6.3,4.5-9.8C419.1,10.4,414.1,5.3,407.9,5.3L407.9,5.3z"/>
	</g>
	<g>
		<path class="st41" d="M407.9,40.4c-0.2-1.3-0.7-2.4-1.2-3.5c0-0.2,0-0.5,0-0.7c0-3.8-1.6-7.4-4.4-9.7c-0.2-0.1-0.3-0.3-0.5-0.4
			l0,0c-3.1-2.6-5.1-6.7-5.1-10.1c0-6.2,4.9-11.1,10.9-11.1s10.9,5,10.9,11.1c0,3.4-1.7,7.2-4.4,9.7c-0.6,0.4-1.1,0.8-1.7,1.3
			c-2.4,2.4-3.8,5.8-3.8,9.2c0,0.2,0,0.5,0,0.7C408.5,38.1,408.1,39.1,407.9,40.4z"/>
		<g>
			<path class="st47" d="M407.8,5c5.9,0,10.7,4.9,10.7,10.9c0,3.3-1.6,7-4.3,9.5c-0.6,0.4-1.2,0.9-1.7,1.4c-2.5,2.4-3.9,5.9-3.9,9.4
				c0,0.2,0,0.5,0,0.7c-0.4,0.8-0.7,1.6-0.9,2.5c-0.2-0.8-0.5-1.6-0.9-2.4c0-0.2,0-0.5,0-0.7c0-3.9-1.6-7.5-4.5-9.9
				c-0.2-0.1-0.3-0.3-0.5-0.4l0,0l0,0c-3-2.6-5-6.5-5-9.9C397.2,9.9,401.9,5,407.8,5 M407.8,4.5c-6.2,0-11.2,5.1-11.2,11.4
				c0,3.9,2.2,7.8,5.2,10.3l0,0c0.2,0.1,0.3,0.3,0.5,0.4c2.6,2.2,4.3,5.7,4.3,9.5c0,0.3,0,0.5,0,0.8c0.9,2,1.4,3.7,1.4,6.2
				c0-2.4,0.5-4.2,1.4-6.2c0-0.3,0-0.5,0-0.8c0-3.6,1.4-6.9,3.7-9c0.5-0.5,1.1-1,1.6-1.3c2.6-2.5,4.5-6.3,4.5-9.8
				C419,9.6,414,4.5,407.8,4.5L407.8,4.5z"/>
		</g>
	</g>
</g>
<circle class="st48" cx="408.1" cy="15.5" r="7.8"/>
<text transform="matrix(1 0 0 1 402.3286 19.604)" class="st41 st69 st70">途</text>
<g>
	<path class="st48" d="M421.1,9.2h1.6V4.8l-1.5,0.9V4.9l1.5-1h0.9v5.4h1.4v0.8h-4V9.2z"/>
	<path class="st48" d="M425.5,10.1V9.3c0.1-0.3,0.4-0.7,0.6-1s0.6-0.7,1.1-1.1c0.5-0.5,0.9-0.8,1.1-1c0.2-0.2,0.3-0.5,0.3-0.7
		c0-0.3-0.1-0.5-0.3-0.7c-0.2-0.2-0.4-0.2-0.7-0.2c-0.6,0-0.9,0.3-1,0.9l-1-0.1c0.1-0.5,0.3-0.9,0.6-1.2c0.3-0.3,0.8-0.4,1.4-0.4
		c0.6,0,1.1,0.2,1.5,0.5c0.4,0.3,0.5,0.7,0.5,1.3c0,0.3-0.1,0.5-0.2,0.7c-0.1,0.2-0.2,0.4-0.4,0.7c-0.2,0.2-0.5,0.5-0.9,0.8
		c-0.8,0.6-1.2,1.1-1.4,1.5h3v0.8H425.5z"/>
</g>
<circle class="st41" cx="461.2" cy="7.1" r="6"/>
<radialGradient id="SVGID_13_" cx="224.7069" cy="-608.9662" r="5.2256" fx="224.4485" fy="-608.9677" gradientTransform="matrix(0 0.6662 -1.3516 0 -378.8787 -106.4676)" gradientUnits="userSpaceOnUse">
	<stop  offset="2.560353e-02" style="stop-color:#231815;stop-opacity:0.55"/>
	<stop  offset="0.8602" style="stop-color:#231815;stop-opacity:0"/>
</radialGradient>
<ellipse class="st12" cx="444.2" cy="42.4" rx="6.8" ry="3.6"/>
<path class="st44" d="M455,16.2c0,3.6-1.8,7.4-4.5,9.8c-0.6,0.4-1.1,0.8-1.6,1.3c-2.3,2.2-3.7,5.5-3.7,9c0,0.3,0,0.5,0,0.8
	c-0.9,2-1.4,4.3-1.4,6.7c0-2.4-0.5-4.7-1.4-6.7c0-0.3,0-0.5,0-0.8c0-3.9-1.7-7.4-4.3-9.5c-0.2-0.1-0.3-0.3-0.5-0.4l0,0
	c-3-2.5-5.2-6.5-5.2-10.3c0-6.3,5.1-11.4,11.2-11.4S455,9.9,455,16.2z"/>
<g>
	<g class="st45">
		<path class="st46" d="M444,41.2c-0.2-1.3-0.7-2.4-1.2-3.5c0-0.2,0-0.5,0-0.7c0-3.8-1.6-7.4-4.4-9.7c-0.2-0.1-0.3-0.3-0.5-0.4l0,0
			c-3-2.7-5-6.7-5-10.2c0-6.2,4.9-11.1,10.9-11.1s10.9,5,10.9,11.1c0,3.4-1.7,7.2-4.4,9.7c-0.6,0.4-1.1,0.8-1.7,1.3
			c-2.4,2.4-3.8,5.8-3.8,9.2c0,0.2,0,0.5,0,0.7C444.6,38.9,444.2,39.9,444,41.2z"/>
		<path class="st46" d="M443.9,5.8c5.9,0,10.7,4.9,10.7,10.9c0,3.3-1.6,7-4.3,9.5c-0.6,0.4-1.2,0.9-1.7,1.4
			c-2.5,2.4-3.9,5.9-3.9,9.4c0,0.2,0,0.5,0,0.7c-0.4,0.8-0.7,1.6-0.9,2.5c-0.2-0.8-0.5-1.6-0.9-2.4c0-0.2,0-0.5,0-0.7
			c0-3.9-1.6-7.5-4.5-9.9c-0.2-0.1-0.3-0.3-0.5-0.4l0,0l0,0c-3-2.6-5-6.5-5-9.9C433.3,10.7,438,5.8,443.9,5.8 M443.9,5.3
			c-6.2,0-11.2,5.1-11.2,11.4c0,3.9,2.2,7.8,5.2,10.3l0,0c0.2,0.1,0.3,0.3,0.5,0.4c2.6,2.2,4.3,5.7,4.3,9.5c0,0.3,0,0.5,0,0.8
			c0.9,2,1.4,3.7,1.4,6.2c0-2.4,0.5-4.2,1.4-6.2c0-0.3,0-0.5,0-0.8c0-3.6,1.4-6.9,3.7-9c0.5-0.5,1.1-1,1.6-1.3
			c2.6-2.5,4.5-6.3,4.5-9.8C455.1,10.4,450.1,5.3,443.9,5.3L443.9,5.3z"/>
	</g>
	<g>
		<path class="st41" d="M443.9,40.4c-0.2-1.3-0.7-2.4-1.2-3.5c0-0.2,0-0.5,0-0.7c0-3.8-1.6-7.4-4.4-9.7c-0.2-0.1-0.3-0.3-0.5-0.4
			l0,0c-3.1-2.6-5.1-6.7-5.1-10.1c0-6.2,4.9-11.1,10.9-11.1s10.9,5,10.9,11.1c0,3.4-1.7,7.2-4.4,9.7c-0.6,0.4-1.1,0.8-1.7,1.3
			c-2.4,2.4-3.8,5.8-3.8,9.2c0,0.2,0,0.5,0,0.7C444.5,38.1,444.1,39.1,443.9,40.4z"/>
		<g>
			<path class="st47" d="M443.8,5c5.9,0,10.7,4.9,10.7,10.9c0,3.3-1.6,7-4.3,9.5c-0.6,0.4-1.2,0.9-1.7,1.4c-2.5,2.4-3.9,5.9-3.9,9.4
				c0,0.2,0,0.5,0,0.7c-0.4,0.8-0.7,1.6-0.9,2.5c-0.2-0.8-0.5-1.6-0.9-2.4c0-0.2,0-0.5,0-0.7c0-3.9-1.6-7.5-4.5-9.9
				c-0.2-0.1-0.3-0.3-0.5-0.4l0,0l0,0c-3-2.6-5-6.5-5-9.9C433.2,9.9,437.9,5,443.8,5 M443.8,4.5c-6.2,0-11.2,5.1-11.2,11.4
				c0,3.9,2.2,7.8,5.2,10.3l0,0c0.2,0.1,0.3,0.3,0.5,0.4c2.6,2.2,4.3,5.7,4.3,9.5c0,0.3,0,0.5,0,0.8c0.9,2,1.4,3.7,1.4,6.2
				c0-2.4,0.5-4.2,1.4-6.2c0-0.3,0-0.5,0-0.8c0-3.6,1.4-6.9,3.7-9c0.5-0.5,1.1-1,1.6-1.3c2.6-2.5,4.5-6.3,4.5-9.8
				C455,9.6,450,4.5,443.8,4.5L443.8,4.5z"/>
		</g>
	</g>
</g>
<circle class="st48" cx="444.1" cy="15.5" r="7.8"/>
<text transform="matrix(1 0 0 1 438.3286 19.604)" class="st41 st69 st70">途</text>
<g>
	<path class="st48" d="M457.2,9.2h1.6V4.8l-1.5,0.9V4.9l1.5-1h0.9v5.4h1.4v0.8h-4V9.2z"/>
	<path class="st48" d="M465.7,8.3c0,0.6-0.2,1-0.5,1.3c-0.4,0.3-0.9,0.5-1.6,0.5c-0.6,0-1.1-0.1-1.5-0.4c-0.4-0.3-0.6-0.7-0.7-1.3
		l1-0.1c0,0.3,0.2,0.6,0.4,0.8c0.2,0.2,0.4,0.2,0.8,0.2c0.3,0,0.6-0.1,0.8-0.3c0.2-0.2,0.3-0.4,0.3-0.8c0-0.3-0.1-0.5-0.3-0.7
		c-0.2-0.2-0.6-0.3-1-0.3h-0.5V6.5h0.4c0.4,0,0.7-0.1,0.9-0.2c0.2-0.2,0.3-0.4,0.3-0.7c0-0.3-0.1-0.6-0.2-0.7
		c-0.2-0.2-0.4-0.2-0.7-0.2c-0.6,0-0.9,0.3-1,0.9l-1-0.1c0.1-0.5,0.3-0.9,0.6-1.2c0.4-0.3,0.8-0.4,1.4-0.4c0.6,0,1.1,0.1,1.4,0.4
		c0.3,0.3,0.5,0.7,0.5,1.2c0,0.4-0.1,0.7-0.3,0.9c-0.2,0.3-0.5,0.4-1,0.5v0c0.5,0.1,0.8,0.2,1.1,0.5C465.6,7.6,465.7,7.9,465.7,8.3z
		"/>
</g>
<circle class="st41" cx="497.2" cy="7.1" r="6"/>
<radialGradient id="SVGID_14_" cx="224.7069" cy="-635.6013" r="5.2256" fx="224.4485" fy="-635.6028" gradientTransform="matrix(0 0.6662 -1.3516 0 -378.8787 -106.4676)" gradientUnits="userSpaceOnUse">
	<stop  offset="2.560353e-02" style="stop-color:#231815;stop-opacity:0.55"/>
	<stop  offset="0.8602" style="stop-color:#231815;stop-opacity:0"/>
</radialGradient>
<ellipse class="st13" cx="480.2" cy="42.4" rx="6.8" ry="3.6"/>
<path class="st44" d="M491,16.2c0,3.6-1.8,7.4-4.5,9.8c-0.6,0.4-1.1,0.8-1.6,1.3c-2.3,2.2-3.7,5.5-3.7,9c0,0.3,0,0.5,0,0.8
	c-0.9,2-1.4,4.3-1.4,6.7c0-2.4-0.5-4.7-1.4-6.7c0-0.3,0-0.5,0-0.8c0-3.9-1.7-7.4-4.3-9.5c-0.2-0.1-0.3-0.3-0.5-0.4l0,0
	c-3-2.5-5.2-6.5-5.2-10.3c0-6.3,5.1-11.4,11.2-11.4S491,9.9,491,16.2z"/>
<g>
	<g class="st45">
		<path class="st46" d="M480,41.2c-0.2-1.3-0.7-2.4-1.2-3.5c0-0.2,0-0.5,0-0.7c0-3.8-1.6-7.4-4.4-9.7c-0.2-0.1-0.3-0.3-0.5-0.4l0,0
			c-3-2.7-5-6.7-5-10.2c0-6.2,4.9-11.1,10.9-11.1s10.9,5,10.9,11.1c0,3.4-1.7,7.2-4.4,9.7c-0.6,0.4-1.1,0.8-1.7,1.3
			c-2.4,2.4-3.8,5.8-3.8,9.2c0,0.2,0,0.5,0,0.7C480.6,38.9,480.2,39.9,480,41.2z"/>
		<path class="st46" d="M479.9,5.8c5.9,0,10.7,4.9,10.7,10.9c0,3.3-1.6,7-4.3,9.5c-0.6,0.4-1.2,0.9-1.7,1.4
			c-2.5,2.4-3.9,5.9-3.9,9.4c0,0.2,0,0.5,0,0.7c-0.4,0.8-0.7,1.6-0.9,2.5c-0.2-0.8-0.5-1.6-0.9-2.4c0-0.2,0-0.5,0-0.7
			c0-3.9-1.6-7.5-4.5-9.9c-0.2-0.1-0.3-0.3-0.5-0.4l0,0l0,0c-3-2.6-5-6.5-5-9.9C469.3,10.7,474,5.8,479.9,5.8 M479.9,5.3
			c-6.2,0-11.2,5.1-11.2,11.4c0,3.9,2.2,7.8,5.2,10.3l0,0c0.2,0.1,0.3,0.3,0.5,0.4c2.6,2.2,4.3,5.7,4.3,9.5c0,0.3,0,0.5,0,0.8
			c0.9,2,1.4,3.7,1.4,6.2c0-2.4,0.5-4.2,1.4-6.2c0-0.3,0-0.5,0-0.8c0-3.6,1.4-6.9,3.7-9c0.5-0.5,1.1-1,1.6-1.3
			c2.6-2.5,4.5-6.3,4.5-9.8C491.1,10.4,486.1,5.3,479.9,5.3L479.9,5.3z"/>
	</g>
	<g>
		<path class="st41" d="M479.9,40.4c-0.2-1.3-0.7-2.4-1.2-3.5c0-0.2,0-0.5,0-0.7c0-3.8-1.6-7.4-4.4-9.7c-0.2-0.1-0.3-0.3-0.5-0.4
			l0,0c-3.1-2.6-5.1-6.7-5.1-10.1c0-6.2,4.9-11.1,10.9-11.1s10.9,5,10.9,11.1c0,3.4-1.7,7.2-4.4,9.7c-0.6,0.4-1.1,0.8-1.7,1.3
			c-2.4,2.4-3.8,5.8-3.8,9.2c0,0.2,0,0.5,0,0.7C480.5,38.1,480.1,39.1,479.9,40.4z"/>
		<g>
			<path class="st47" d="M479.8,5c5.9,0,10.7,4.9,10.7,10.9c0,3.3-1.6,7-4.3,9.5c-0.6,0.4-1.2,0.9-1.7,1.4c-2.5,2.4-3.9,5.9-3.9,9.4
				c0,0.2,0,0.5,0,0.7c-0.4,0.8-0.7,1.6-0.9,2.5c-0.2-0.8-0.5-1.6-0.9-2.4c0-0.2,0-0.5,0-0.7c0-3.9-1.6-7.5-4.5-9.9
				c-0.2-0.1-0.3-0.3-0.5-0.4l0,0l0,0c-3-2.6-5-6.5-5-9.9C469.2,9.9,473.9,5,479.8,5 M479.8,4.5c-6.2,0-11.2,5.1-11.2,11.4
				c0,3.9,2.2,7.8,5.2,10.3l0,0c0.2,0.1,0.3,0.3,0.5,0.4c2.6,2.2,4.3,5.7,4.3,9.5c0,0.3,0,0.5,0,0.8c0.9,2,1.4,3.7,1.4,6.2
				c0-2.4,0.5-4.2,1.4-6.2c0-0.3,0-0.5,0-0.8c0-3.6,1.4-6.9,3.7-9c0.5-0.5,1.1-1,1.6-1.3c2.6-2.5,4.5-6.3,4.5-9.8
				C491,9.6,486,4.5,479.8,4.5L479.8,4.5z"/>
		</g>
	</g>
</g>
<circle class="st48" cx="480.1" cy="15.5" r="7.8"/>
<text transform="matrix(1 0 0 1 474.3286 19.604)" class="st41 st69 st70">途</text>
<g>
	<path class="st48" d="M492.9,9.2h1.6V4.8l-1.5,0.9V4.9l1.5-1h0.9v5.4h1.4v0.8h-4V9.2z"/>
	<path class="st48" d="M500.8,8.8v1.3h-1V8.8h-2.8V7.9l2.6-4.1h1.2v4.1h0.9v0.8H500.8z M499.9,4.9l-1.9,3h1.9V4.9z"/>
</g>
<circle class="st41" cx="533.2" cy="7.1" r="6"/>
<radialGradient id="SVGID_15_" cx="224.7069" cy="-662.2364" r="5.2256" fx="224.4485" fy="-662.2379" gradientTransform="matrix(0 0.6662 -1.3516 0 -378.8787 -106.4676)" gradientUnits="userSpaceOnUse">
	<stop  offset="2.560353e-02" style="stop-color:#231815;stop-opacity:0.55"/>
	<stop  offset="0.8602" style="stop-color:#231815;stop-opacity:0"/>
</radialGradient>
<ellipse class="st14" cx="516.2" cy="42.4" rx="6.8" ry="3.6"/>
<path class="st44" d="M527,16.2c0,3.6-1.8,7.4-4.5,9.8c-0.6,0.4-1.1,0.8-1.6,1.3c-2.3,2.2-3.7,5.5-3.7,9c0,0.3,0,0.5,0,0.8
	c-0.9,2-1.4,4.3-1.4,6.7c0-2.4-0.5-4.7-1.4-6.7c0-0.3,0-0.5,0-0.8c0-3.9-1.7-7.4-4.3-9.5c-0.2-0.1-0.3-0.3-0.5-0.4l0,0
	c-3-2.5-5.2-6.5-5.2-10.3c0-6.3,5.1-11.4,11.2-11.4C521.7,4.7,527,9.9,527,16.2z"/>
<g>
	<g class="st45">
		<path class="st46" d="M516,41.2c-0.2-1.3-0.7-2.4-1.2-3.5c0-0.2,0-0.5,0-0.7c0-3.8-1.6-7.4-4.4-9.7c-0.2-0.1-0.3-0.3-0.5-0.4l0,0
			c-3-2.7-5-6.7-5-10.2c0-6.2,4.9-11.1,10.9-11.1c6,0,10.9,5,10.9,11.1c0,3.4-1.7,7.2-4.4,9.7c-0.6,0.4-1.1,0.8-1.7,1.3
			c-2.4,2.4-3.8,5.8-3.8,9.2c0,0.2,0,0.5,0,0.7C516.6,38.9,516.2,39.9,516,41.2z"/>
		<path class="st46" d="M515.9,5.8c5.9,0,10.7,4.9,10.7,10.9c0,3.3-1.6,7-4.3,9.5c-0.6,0.4-1.2,0.9-1.7,1.4
			c-2.5,2.4-3.9,5.9-3.9,9.4c0,0.2,0,0.5,0,0.7c-0.4,0.8-0.7,1.6-0.9,2.5c-0.2-0.8-0.5-1.6-0.9-2.4c0-0.2,0-0.5,0-0.7
			c0-3.9-1.6-7.5-4.5-9.9c-0.2-0.1-0.3-0.3-0.5-0.4l0,0l0,0c-3-2.6-5-6.5-5-9.9C505.3,10.7,510,5.8,515.9,5.8 M515.9,5.3
			c-6.2,0-11.2,5.1-11.2,11.4c0,3.9,2.2,7.8,5.2,10.3l0,0c0.2,0.1,0.3,0.3,0.5,0.4c2.6,2.2,4.3,5.7,4.3,9.5c0,0.3,0,0.5,0,0.8
			c0.9,2,1.4,3.7,1.4,6.2c0-2.4,0.5-4.2,1.4-6.2c0-0.3,0-0.5,0-0.8c0-3.6,1.4-6.9,3.7-9c0.5-0.5,1.1-1,1.6-1.3
			c2.6-2.5,4.5-6.3,4.5-9.8C527.1,10.4,522.1,5.3,515.9,5.3L515.9,5.3z"/>
	</g>
	<g>
		<path class="st41" d="M515.9,40.4c-0.2-1.3-0.7-2.4-1.2-3.5c0-0.2,0-0.5,0-0.7c0-3.8-1.6-7.4-4.4-9.7c-0.2-0.1-0.3-0.3-0.5-0.4
			l0,0c-3.1-2.6-5.1-6.7-5.1-10.1c0-6.2,4.9-11.1,10.9-11.1s10.9,5,10.9,11.1c0,3.4-1.7,7.2-4.4,9.7c-0.6,0.4-1.1,0.8-1.7,1.3
			c-2.4,2.4-3.8,5.8-3.8,9.2c0,0.2,0,0.5,0,0.7C516.5,38.1,516.1,39.1,515.9,40.4z"/>
		<g>
			<path class="st47" d="M515.8,5c5.9,0,10.7,4.9,10.7,10.9c0,3.3-1.6,7-4.3,9.5c-0.6,0.4-1.2,0.9-1.7,1.4c-2.5,2.4-3.9,5.9-3.9,9.4
				c0,0.2,0,0.5,0,0.7c-0.4,0.8-0.7,1.6-0.9,2.5c-0.2-0.8-0.5-1.6-0.9-2.4c0-0.2,0-0.5,0-0.7c0-3.9-1.6-7.5-4.5-9.9
				c-0.2-0.1-0.3-0.3-0.5-0.4l0,0l0,0c-3-2.6-5-6.5-5-9.9C505.2,9.9,509.9,5,515.8,5 M515.8,4.5c-6.2,0-11.2,5.1-11.2,11.4
				c0,3.9,2.2,7.8,5.2,10.3l0,0c0.2,0.1,0.3,0.3,0.5,0.4c2.6,2.2,4.3,5.7,4.3,9.5c0,0.3,0,0.5,0,0.8c0.9,2,1.4,3.7,1.4,6.2
				c0-2.4,0.5-4.2,1.4-6.2c0-0.3,0-0.5,0-0.8c0-3.6,1.4-6.9,3.7-9c0.5-0.5,1.1-1,1.6-1.3c2.6-2.5,4.5-6.3,4.5-9.8
				C527,9.6,522,4.5,515.8,4.5L515.8,4.5z"/>
		</g>
	</g>
</g>
<circle class="st48" cx="516.1" cy="15.5" r="7.8"/>
<text transform="matrix(1 0 0 1 510.3286 19.604)" class="st41 st69 st70">途</text>
<g>
	<path class="st48" d="M529,9.3h1.6V4.8l-1.5,0.9V4.9l1.5-1h0.9v5.4h1.4v0.8h-4V9.3z"/>
	<path class="st48" d="M537.6,8.1c0,0.7-0.2,1.2-0.6,1.6c-0.4,0.4-0.9,0.6-1.6,0.6c-0.6,0-1-0.1-1.4-0.4c-0.3-0.3-0.6-0.6-0.6-1.2
		l1-0.1c0.1,0.2,0.1,0.4,0.2,0.5s0.2,0.2,0.3,0.3s0.3,0.1,0.5,0.1c0.4,0,0.6-0.1,0.8-0.3s0.3-0.5,0.3-1c0-0.4-0.1-0.7-0.3-0.9
		s-0.4-0.3-0.8-0.3c-0.2,0-0.4,0-0.5,0.1s-0.3,0.2-0.5,0.3h-1l0.2-3.4h3.5v0.8h-2.6l-0.1,1.7c0.3-0.2,0.7-0.4,1.2-0.4
		c0.6,0,1,0.2,1.4,0.5C537.4,7,537.6,7.4,537.6,8.1z"/>
</g>
<circle class="st41" cx="569.2" cy="7.1" r="6"/>
<radialGradient id="SVGID_16_" cx="224.7069" cy="-688.8715" r="5.2256" fx="224.4485" fy="-688.873" gradientTransform="matrix(0 0.6662 -1.3516 0 -378.8787 -106.4676)" gradientUnits="userSpaceOnUse">
	<stop  offset="2.560353e-02" style="stop-color:#231815;stop-opacity:0.55"/>
	<stop  offset="0.8602" style="stop-color:#231815;stop-opacity:0"/>
</radialGradient>
<ellipse class="st15" cx="552.2" cy="42.4" rx="6.8" ry="3.6"/>
<path class="st44" d="M563,16.2c0,3.6-1.8,7.4-4.5,9.8c-0.6,0.4-1.1,0.8-1.6,1.3c-2.3,2.2-3.7,5.5-3.7,9c0,0.3,0,0.5,0,0.8
	c-0.9,2-1.4,4.3-1.4,6.7c0-2.4-0.5-4.7-1.4-6.7c0-0.3,0-0.5,0-0.8c0-3.9-1.7-7.4-4.3-9.5c-0.2-0.1-0.3-0.3-0.5-0.4l0,0
	c-3-2.5-5.2-6.5-5.2-10.3c0-6.3,5.1-11.4,11.2-11.4C557.7,4.7,563,9.9,563,16.2z"/>
<g>
	<g class="st45">
		<path class="st46" d="M552,41.2c-0.2-1.3-0.7-2.4-1.2-3.5c0-0.2,0-0.5,0-0.7c0-3.8-1.6-7.4-4.4-9.7c-0.2-0.1-0.3-0.3-0.5-0.4l0,0
			c-3-2.7-5-6.7-5-10.2c0-6.2,4.9-11.1,10.9-11.1s10.9,5,10.9,11.1c0,3.4-1.7,7.2-4.4,9.7c-0.6,0.4-1.1,0.8-1.7,1.3
			c-2.4,2.4-3.8,5.8-3.8,9.2c0,0.2,0,0.5,0,0.7C552.6,38.9,552.2,39.9,552,41.2z"/>
		<path class="st46" d="M551.9,5.8c5.9,0,10.7,4.9,10.7,10.9c0,3.3-1.6,7-4.3,9.5c-0.6,0.4-1.2,0.9-1.7,1.4
			c-2.5,2.4-3.9,5.9-3.9,9.4c0,0.2,0,0.5,0,0.7c-0.4,0.8-0.7,1.6-0.9,2.5c-0.2-0.8-0.5-1.6-0.9-2.4c0-0.2,0-0.5,0-0.7
			c0-3.9-1.6-7.5-4.5-9.9c-0.2-0.1-0.3-0.3-0.5-0.4l0,0l0,0c-3-2.6-5-6.5-5-9.9C541.3,10.7,546,5.8,551.9,5.8 M551.9,5.3
			c-6.2,0-11.2,5.1-11.2,11.4c0,3.9,2.2,7.8,5.2,10.3l0,0c0.2,0.1,0.3,0.3,0.5,0.4c2.6,2.2,4.3,5.7,4.3,9.5c0,0.3,0,0.5,0,0.8
			c0.9,2,1.4,3.7,1.4,6.2c0-2.4,0.5-4.2,1.4-6.2c0-0.3,0-0.5,0-0.8c0-3.6,1.4-6.9,3.7-9c0.5-0.5,1.1-1,1.6-1.3
			c2.6-2.5,4.5-6.3,4.5-9.8C563.1,10.4,558.1,5.3,551.9,5.3L551.9,5.3z"/>
	</g>
	<g>
		<path class="st41" d="M551.9,40.4c-0.2-1.3-0.7-2.4-1.2-3.5c0-0.2,0-0.5,0-0.7c0-3.8-1.6-7.4-4.4-9.7c-0.2-0.1-0.3-0.3-0.5-0.4
			l0,0c-3.1-2.6-5.1-6.7-5.1-10.1c0-6.2,4.9-11.1,10.9-11.1s10.9,5,10.9,11.1c0,3.4-1.7,7.2-4.4,9.7c-0.6,0.4-1.1,0.8-1.7,1.3
			c-2.4,2.4-3.8,5.8-3.8,9.2c0,0.2,0,0.5,0,0.7C552.5,38.1,552.1,39.1,551.9,40.4z"/>
		<g>
			<path class="st47" d="M551.8,5c5.9,0,10.7,4.9,10.7,10.9c0,3.3-1.6,7-4.3,9.5c-0.6,0.4-1.2,0.9-1.7,1.4c-2.5,2.4-3.9,5.9-3.9,9.4
				c0,0.2,0,0.5,0,0.7c-0.4,0.8-0.7,1.6-0.9,2.5c-0.2-0.8-0.5-1.6-0.9-2.4c0-0.2,0-0.5,0-0.7c0-3.9-1.6-7.5-4.5-9.9
				c-0.2-0.1-0.3-0.3-0.5-0.4l0,0l0,0c-3-2.6-5-6.5-5-9.9C541.2,9.9,545.9,5,551.8,5 M551.8,4.5c-6.2,0-11.2,5.1-11.2,11.4
				c0,3.9,2.2,7.8,5.2,10.3l0,0c0.2,0.1,0.3,0.3,0.5,0.4c2.6,2.2,4.3,5.7,4.3,9.5c0,0.3,0,0.5,0,0.8c0.9,2,1.4,3.7,1.4,6.2
				c0-2.4,0.5-4.2,1.4-6.2c0-0.3,0-0.5,0-0.8c0-3.6,1.4-6.9,3.7-9c0.5-0.5,1.1-1,1.6-1.3c2.6-2.5,4.5-6.3,4.5-9.8
				C563,9.6,558,4.5,551.8,4.5L551.8,4.5z"/>
		</g>
	</g>
</g>
<circle class="st48" cx="552.1" cy="15.5" r="7.8"/>
<text transform="matrix(1 0 0 1 546.3286 19.604)" class="st41 st69 st70">途</text>
<g>
	<path class="st48" d="M565,9.2h1.6V4.8l-1.5,0.9V4.9l1.5-1h0.9v5.4h1.4v0.8h-4V9.2z"/>
	<path class="st48" d="M569.5,7.1c0-1.1,0.2-1.9,0.6-2.5c0.4-0.6,0.9-0.8,1.7-0.8c0.5,0,0.9,0.1,1.1,0.3c0.3,0.2,0.5,0.5,0.6,1
		l-1,0.2c-0.1-0.4-0.4-0.7-0.8-0.7c-0.8,0-1.2,0.7-1.3,2.2c0.1-0.2,0.3-0.4,0.6-0.5c0.2-0.1,0.5-0.2,0.8-0.2c0.6,0,1,0.2,1.3,0.5
		s0.5,0.8,0.5,1.4c0,0.7-0.2,1.2-0.5,1.6s-0.9,0.6-1.5,0.6c-0.7,0-1.2-0.3-1.6-0.8C569.7,8.9,569.5,8.1,569.5,7.1z M570.5,7.9
		c0,0.4,0.1,0.8,0.3,1c0.2,0.3,0.5,0.4,0.8,0.4c0.3,0,0.6-0.1,0.8-0.3s0.3-0.5,0.3-0.9c0-0.4-0.1-0.7-0.3-0.9
		c-0.2-0.2-0.4-0.3-0.8-0.3c-0.3,0-0.6,0.1-0.8,0.3C570.6,7.3,570.5,7.6,570.5,7.9z"/>
</g>
<circle class="st41" cx="605.2" cy="7.1" r="6"/>
<radialGradient id="SVGID_17_" cx="224.7069" cy="-715.5066" r="5.2256" fx="224.4485" fy="-715.5081" gradientTransform="matrix(0 0.6662 -1.3516 0 -378.8787 -106.4676)" gradientUnits="userSpaceOnUse">
	<stop  offset="2.560353e-02" style="stop-color:#231815;stop-opacity:0.55"/>
	<stop  offset="0.8602" style="stop-color:#231815;stop-opacity:0"/>
</radialGradient>
<ellipse class="st16" cx="588.2" cy="42.4" rx="6.8" ry="3.6"/>
<path class="st44" d="M599,16.2c0,3.6-1.8,7.4-4.5,9.8c-0.6,0.4-1.1,0.8-1.6,1.3c-2.3,2.2-3.7,5.5-3.7,9c0,0.3,0,0.5,0,0.8
	c-0.9,2-1.4,4.3-1.4,6.7c0-2.4-0.5-4.7-1.4-6.7c0-0.3,0-0.5,0-0.8c0-3.9-1.7-7.4-4.3-9.5c-0.2-0.1-0.3-0.3-0.5-0.4l0,0
	c-3-2.5-5.2-6.5-5.2-10.3c0-6.3,5.1-11.4,11.2-11.4C593.7,4.7,599,9.9,599,16.2z"/>
<g>
	<g class="st45">
		<path class="st46" d="M588,41.2c-0.2-1.3-0.7-2.4-1.2-3.5c0-0.2,0-0.5,0-0.7c0-3.8-1.6-7.4-4.4-9.7c-0.2-0.1-0.3-0.3-0.5-0.4l0,0
			c-3-2.7-5-6.7-5-10.2c0-6.2,4.9-11.1,10.9-11.1s10.9,5,10.9,11.1c0,3.4-1.7,7.2-4.4,9.7c-0.6,0.4-1.1,0.8-1.7,1.3
			c-2.4,2.4-3.8,5.8-3.8,9.2c0,0.2,0,0.5,0,0.7C588.6,38.9,588.2,39.9,588,41.2z"/>
		<path class="st46" d="M587.9,5.8c5.9,0,10.7,4.9,10.7,10.9c0,3.3-1.6,7-4.3,9.5c-0.6,0.4-1.2,0.9-1.7,1.4
			c-2.5,2.4-3.9,5.9-3.9,9.4c0,0.2,0,0.5,0,0.7c-0.4,0.8-0.7,1.6-0.9,2.5c-0.2-0.8-0.5-1.6-0.9-2.4c0-0.2,0-0.5,0-0.7
			c0-3.9-1.6-7.5-4.5-9.9c-0.2-0.1-0.3-0.3-0.5-0.4l0,0l0,0c-3-2.6-5-6.5-5-9.9C577.3,10.7,582,5.8,587.9,5.8 M587.9,5.3
			c-6.2,0-11.2,5.1-11.2,11.4c0,3.9,2.2,7.8,5.2,10.3l0,0c0.2,0.1,0.3,0.3,0.5,0.4c2.6,2.2,4.3,5.7,4.3,9.5c0,0.3,0,0.5,0,0.8
			c0.9,2,1.4,3.7,1.4,6.2c0-2.4,0.5-4.2,1.4-6.2c0-0.3,0-0.5,0-0.8c0-3.6,1.4-6.9,3.7-9c0.5-0.5,1.1-1,1.6-1.3
			c2.6-2.5,4.5-6.3,4.5-9.8C599.1,10.4,594.1,5.3,587.9,5.3L587.9,5.3z"/>
	</g>
	<g>
		<path class="st41" d="M587.9,40.4c-0.2-1.3-0.7-2.4-1.2-3.5c0-0.2,0-0.5,0-0.7c0-3.8-1.6-7.4-4.4-9.7c-0.2-0.1-0.3-0.3-0.5-0.4
			l0,0c-3.1-2.6-5.1-6.7-5.1-10.1c0-6.2,4.9-11.1,10.9-11.1s10.9,5,10.9,11.1c0,3.4-1.7,7.2-4.4,9.7c-0.6,0.4-1.1,0.8-1.7,1.3
			c-2.4,2.4-3.8,5.8-3.8,9.2c0,0.2,0,0.5,0,0.7C588.5,38.1,588.1,39.1,587.9,40.4z"/>
		<g>
			<path class="st47" d="M587.8,5c5.9,0,10.7,4.9,10.7,10.9c0,3.3-1.6,7-4.3,9.5c-0.6,0.4-1.2,0.9-1.7,1.4c-2.5,2.4-3.9,5.9-3.9,9.4
				c0,0.2,0,0.5,0,0.7c-0.4,0.8-0.7,1.6-0.9,2.5c-0.2-0.8-0.5-1.6-0.9-2.4c0-0.2,0-0.5,0-0.7c0-3.9-1.6-7.5-4.5-9.9
				c-0.2-0.1-0.3-0.3-0.5-0.4l0,0l0,0c-3-2.6-5-6.5-5-9.9C577.2,9.9,581.9,5,587.8,5 M587.8,4.5c-6.2,0-11.2,5.1-11.2,11.4
				c0,3.9,2.2,7.8,5.2,10.3l0,0c0.2,0.1,0.3,0.3,0.5,0.4c2.6,2.2,4.3,5.7,4.3,9.5c0,0.3,0,0.5,0,0.8c0.9,2,1.4,3.7,1.4,6.2
				c0-2.4,0.5-4.2,1.4-6.2c0-0.3,0-0.5,0-0.8c0-3.6,1.4-6.9,3.7-9c0.5-0.5,1.1-1,1.6-1.3c2.6-2.5,4.5-6.3,4.5-9.8
				C599,9.6,594,4.5,587.8,4.5L587.8,4.5z"/>
		</g>
	</g>
</g>
<circle class="st48" cx="588.1" cy="15.5" r="7.8"/>
<text transform="matrix(1 0 0 1 582.3286 19.604)" class="st41 st69 st70">途</text>
<g>
	<path class="st48" d="M601,9.3h1.6V4.8l-1.5,0.9V4.9l1.5-1h0.9v5.4h1.4v0.8h-4V9.3z"/>
	<path class="st48" d="M609.6,4.7c-0.6,0.9-1,1.6-1.2,2.1c-0.3,0.6-0.5,1.1-0.6,1.6c-0.1,0.5-0.2,1.1-0.2,1.6h-1
		c0-0.8,0.2-1.6,0.5-2.4s0.9-1.8,1.7-2.9h-3.2V3.9h4.1V4.7z"/>
</g>
<circle class="st41" cx="641.2" cy="7.1" r="6"/>
<radialGradient id="SVGID_18_" cx="224.7069" cy="-742.1417" r="5.2256" fx="224.4485" fy="-742.1432" gradientTransform="matrix(0 0.6662 -1.3516 0 -378.8787 -106.4676)" gradientUnits="userSpaceOnUse">
	<stop  offset="2.560353e-02" style="stop-color:#231815;stop-opacity:0.55"/>
	<stop  offset="0.8602" style="stop-color:#231815;stop-opacity:0"/>
</radialGradient>
<ellipse class="st17" cx="624.2" cy="42.4" rx="6.8" ry="3.6"/>
<path class="st44" d="M635,16.2c0,3.6-1.8,7.4-4.5,9.8c-0.6,0.4-1.1,0.8-1.6,1.3c-2.3,2.2-3.7,5.5-3.7,9c0,0.3,0,0.5,0,0.8
	c-0.9,2-1.4,4.3-1.4,6.7c0-2.4-0.5-4.7-1.4-6.7c0-0.3,0-0.5,0-0.8c0-3.9-1.7-7.4-4.3-9.5c-0.2-0.1-0.3-0.3-0.5-0.4l0,0
	c-3-2.5-5.2-6.5-5.2-10.3c0-6.3,5.1-11.4,11.2-11.4C629.7,4.7,635,9.9,635,16.2z"/>
<g>
	<g class="st45">
		<path class="st46" d="M624,41.2c-0.2-1.3-0.7-2.4-1.2-3.5c0-0.2,0-0.5,0-0.7c0-3.8-1.6-7.4-4.4-9.7c-0.2-0.1-0.3-0.3-0.5-0.4l0,0
			c-3-2.7-5-6.7-5-10.2c0-6.2,4.9-11.1,10.9-11.1s10.9,5,10.9,11.1c0,3.4-1.7,7.2-4.4,9.7c-0.6,0.4-1.1,0.8-1.7,1.3
			c-2.4,2.4-3.8,5.8-3.8,9.2c0,0.2,0,0.5,0,0.7C624.6,38.9,624.2,39.9,624,41.2z"/>
		<path class="st46" d="M623.9,5.8c5.9,0,10.7,4.9,10.7,10.9c0,3.3-1.6,7-4.3,9.5c-0.6,0.4-1.2,0.9-1.7,1.4
			c-2.5,2.4-3.9,5.9-3.9,9.4c0,0.2,0,0.5,0,0.7c-0.4,0.8-0.7,1.6-0.9,2.5c-0.2-0.8-0.5-1.6-0.9-2.4c0-0.2,0-0.5,0-0.7
			c0-3.9-1.6-7.5-4.5-9.9c-0.2-0.1-0.3-0.3-0.5-0.4l0,0l0,0c-3-2.6-5-6.5-5-9.9C613.3,10.7,618,5.8,623.9,5.8 M623.9,5.3
			c-6.2,0-11.2,5.1-11.2,11.4c0,3.9,2.2,7.8,5.2,10.3l0,0c0.2,0.1,0.3,0.3,0.5,0.4c2.6,2.2,4.3,5.7,4.3,9.5c0,0.3,0,0.5,0,0.8
			c0.9,2,1.4,3.7,1.4,6.2c0-2.4,0.5-4.2,1.4-6.2c0-0.3,0-0.5,0-0.8c0-3.6,1.4-6.9,3.7-9c0.5-0.5,1.1-1,1.6-1.3
			c2.6-2.5,4.5-6.3,4.5-9.8C635.1,10.4,630.1,5.3,623.9,5.3L623.9,5.3z"/>
	</g>
	<g>
		<path class="st41" d="M623.9,40.4c-0.2-1.3-0.7-2.4-1.2-3.5c0-0.2,0-0.5,0-0.7c0-3.8-1.6-7.4-4.4-9.7c-0.2-0.1-0.3-0.3-0.5-0.4
			l0,0c-3.1-2.6-5.1-6.7-5.1-10.1c0-6.2,4.9-11.1,10.9-11.1s10.9,5,10.9,11.1c0,3.4-1.7,7.2-4.4,9.7c-0.6,0.4-1.1,0.8-1.7,1.3
			c-2.4,2.4-3.8,5.8-3.8,9.2c0,0.2,0,0.5,0,0.7C624.5,38.1,624.1,39.1,623.9,40.4z"/>
		<g>
			<path class="st47" d="M623.8,5c5.9,0,10.7,4.9,10.7,10.9c0,3.3-1.6,7-4.3,9.5c-0.6,0.4-1.2,0.9-1.7,1.4c-2.5,2.4-3.9,5.9-3.9,9.4
				c0,0.2,0,0.5,0,0.7c-0.4,0.8-0.7,1.6-0.9,2.5c-0.2-0.8-0.5-1.6-0.9-2.4c0-0.2,0-0.5,0-0.7c0-3.9-1.6-7.5-4.5-9.9
				c-0.2-0.1-0.3-0.3-0.5-0.4l0,0l0,0c-3-2.6-5-6.5-5-9.9C613.2,9.9,617.9,5,623.8,5 M623.8,4.5c-6.2,0-11.2,5.1-11.2,11.4
				c0,3.9,2.2,7.8,5.2,10.3l0,0c0.2,0.1,0.3,0.3,0.5,0.4c2.6,2.2,4.3,5.7,4.3,9.5c0,0.3,0,0.5,0,0.8c0.9,2,1.4,3.7,1.4,6.2
				c0-2.4,0.5-4.2,1.4-6.2c0-0.3,0-0.5,0-0.8c0-3.6,1.4-6.9,3.7-9c0.5-0.5,1.1-1,1.6-1.3c2.6-2.5,4.5-6.3,4.5-9.8
				C635,9.6,630,4.5,623.8,4.5L623.8,4.5z"/>
		</g>
	</g>
</g>
<circle class="st48" cx="624.1" cy="15.5" r="7.8"/>
<text transform="matrix(1 0 0 1 618.3286 19.604)" class="st41 st69 st70">途</text>
<g>
	<path class="st48" d="M637,9.2h1.6V4.8l-1.5,0.9V4.9l1.5-1h0.9v5.4h1.4v0.8h-4V9.2z"/>
	<path class="st48" d="M645.7,8.3c0,0.6-0.2,1-0.5,1.4c-0.4,0.3-0.9,0.5-1.6,0.5c-0.7,0-1.2-0.2-1.6-0.5c-0.4-0.3-0.6-0.8-0.6-1.3
		c0-0.4,0.1-0.7,0.3-1s0.5-0.4,0.9-0.5v0c-0.3-0.1-0.6-0.3-0.8-0.5c-0.2-0.3-0.3-0.6-0.3-0.9c0-0.5,0.2-0.9,0.5-1.2
		c0.3-0.3,0.8-0.4,1.4-0.4c0.6,0,1.1,0.1,1.5,0.4c0.3,0.3,0.5,0.7,0.5,1.2c0,0.3-0.1,0.7-0.3,0.9s-0.5,0.4-0.8,0.5v0
		c0.4,0.1,0.7,0.2,0.9,0.5C645.5,7.6,645.7,7.9,645.7,8.3z M644.6,8.2c0-0.3-0.1-0.6-0.3-0.8c-0.2-0.2-0.5-0.3-0.8-0.3
		c-0.3,0-0.6,0.1-0.8,0.3c-0.2,0.2-0.3,0.5-0.3,0.8c0,0.4,0.1,0.7,0.3,0.9c0.2,0.2,0.5,0.3,0.8,0.3c0.4,0,0.6-0.1,0.8-0.3
		C644.5,8.9,644.6,8.6,644.6,8.2z M644.5,5.4c0-0.6-0.3-1-0.9-1c-0.6,0-0.9,0.3-0.9,1c0,0.3,0.1,0.6,0.2,0.7s0.4,0.3,0.7,0.3
		s0.5-0.1,0.7-0.2C644.4,6,644.5,5.8,644.5,5.4z"/>
</g>
<circle class="st41" cx="677.2" cy="7.1" r="6"/>
<radialGradient id="SVGID_19_" cx="224.7069" cy="-768.7768" r="5.2256" fx="224.4485" fy="-768.7783" gradientTransform="matrix(0 0.6662 -1.3516 0 -378.8787 -106.4676)" gradientUnits="userSpaceOnUse">
	<stop  offset="2.560353e-02" style="stop-color:#231815;stop-opacity:0.55"/>
	<stop  offset="0.8602" style="stop-color:#231815;stop-opacity:0"/>
</radialGradient>
<ellipse class="st18" cx="660.2" cy="42.4" rx="6.8" ry="3.6"/>
<path class="st44" d="M671,16.2c0,3.6-1.8,7.4-4.5,9.8c-0.6,0.4-1.1,0.8-1.6,1.3c-2.3,2.2-3.7,5.5-3.7,9c0,0.3,0,0.5,0,0.8
	c-0.9,2-1.4,4.3-1.4,6.7c0-2.4-0.5-4.7-1.4-6.7c0-0.3,0-0.5,0-0.8c0-3.9-1.7-7.4-4.3-9.5c-0.2-0.1-0.3-0.3-0.5-0.4l0,0
	c-3-2.5-5.2-6.5-5.2-10.3c0-6.3,5.1-11.4,11.2-11.4C665.7,4.7,671,9.9,671,16.2z"/>
<g>
	<g class="st45">
		<path class="st46" d="M660,41.2c-0.2-1.3-0.7-2.4-1.2-3.5c0-0.2,0-0.5,0-0.7c0-3.8-1.6-7.4-4.4-9.7c-0.2-0.1-0.3-0.3-0.5-0.4l0,0
			c-3-2.7-5-6.7-5-10.2c0-6.2,4.9-11.1,10.9-11.1s10.9,5,10.9,11.1c0,3.4-1.7,7.2-4.4,9.7c-0.6,0.4-1.1,0.8-1.7,1.3
			c-2.4,2.4-3.8,5.8-3.8,9.2c0,0.2,0,0.5,0,0.7C660.6,38.9,660.2,39.9,660,41.2z"/>
		<path class="st46" d="M659.9,5.8c5.9,0,10.7,4.9,10.7,10.9c0,3.3-1.6,7-4.3,9.5c-0.6,0.4-1.2,0.9-1.7,1.4
			c-2.5,2.4-3.9,5.9-3.9,9.4c0,0.2,0,0.5,0,0.7c-0.4,0.8-0.7,1.6-0.9,2.5c-0.2-0.8-0.5-1.6-0.9-2.4c0-0.2,0-0.5,0-0.7
			c0-3.9-1.6-7.5-4.5-9.9c-0.2-0.1-0.3-0.3-0.5-0.4l0,0l0,0c-3-2.6-5-6.5-5-9.9C649.3,10.7,654,5.8,659.9,5.8 M659.9,5.3
			c-6.2,0-11.2,5.1-11.2,11.4c0,3.9,2.2,7.8,5.2,10.3l0,0c0.2,0.1,0.3,0.3,0.5,0.4c2.6,2.2,4.3,5.7,4.3,9.5c0,0.3,0,0.5,0,0.8
			c0.9,2,1.4,3.7,1.4,6.2c0-2.4,0.5-4.2,1.4-6.2c0-0.3,0-0.5,0-0.8c0-3.6,1.4-6.9,3.7-9c0.5-0.5,1.1-1,1.6-1.3
			c2.6-2.5,4.5-6.3,4.5-9.8C671.1,10.4,666.1,5.3,659.9,5.3L659.9,5.3z"/>
	</g>
	<g>
		<path class="st41" d="M659.9,40.4c-0.2-1.3-0.7-2.4-1.2-3.5c0-0.2,0-0.5,0-0.7c0-3.8-1.6-7.4-4.4-9.7c-0.2-0.1-0.3-0.3-0.5-0.4
			l0,0c-3.1-2.6-5.1-6.7-5.1-10.1c0-6.2,4.9-11.1,10.9-11.1s10.9,5,10.9,11.1c0,3.4-1.7,7.2-4.4,9.7c-0.6,0.4-1.1,0.8-1.7,1.3
			c-2.4,2.4-3.8,5.8-3.8,9.2c0,0.2,0,0.5,0,0.7C660.5,38.1,660.1,39.1,659.9,40.4z"/>
		<g>
			<path class="st47" d="M659.8,5c5.9,0,10.7,4.9,10.7,10.9c0,3.3-1.6,7-4.3,9.5c-0.6,0.4-1.2,0.9-1.7,1.4c-2.5,2.4-3.9,5.9-3.9,9.4
				c0,0.2,0,0.5,0,0.7c-0.4,0.8-0.7,1.6-0.9,2.5c-0.2-0.8-0.5-1.6-0.9-2.4c0-0.2,0-0.5,0-0.7c0-3.9-1.6-7.5-4.5-9.9
				c-0.2-0.1-0.3-0.3-0.5-0.4l0,0l0,0c-3-2.6-5-6.5-5-9.9C649.2,9.9,653.9,5,659.8,5 M659.8,4.5c-6.2,0-11.2,5.1-11.2,11.4
				c0,3.9,2.2,7.8,5.2,10.3l0,0c0.2,0.1,0.3,0.3,0.5,0.4c2.6,2.2,4.3,5.7,4.3,9.5c0,0.3,0,0.5,0,0.8c0.9,2,1.4,3.7,1.4,6.2
				c0-2.4,0.5-4.2,1.4-6.2c0-0.3,0-0.5,0-0.8c0-3.6,1.4-6.9,3.7-9c0.5-0.5,1.1-1,1.6-1.3c2.6-2.5,4.5-6.3,4.5-9.8
				C671,9.6,666,4.5,659.8,4.5L659.8,4.5z"/>
		</g>
	</g>
</g>
<circle class="st48" cx="660.1" cy="15.5" r="7.8"/>
<text transform="matrix(1 0 0 1 654.3286 19.604)" class="st41 st69 st70">途</text>
<g>
	<path class="st48" d="M673.1,9.2h1.6V4.8l-1.5,0.9V4.9l1.5-1h0.9v5.4h1.4v0.8h-4V9.2z"/>
	<path class="st48" d="M681.7,6.8c0,1.1-0.2,1.9-0.6,2.5c-0.4,0.6-0.9,0.8-1.7,0.8c-0.5,0-0.9-0.1-1.2-0.3c-0.3-0.2-0.5-0.6-0.6-1
		l1-0.1c0.1,0.5,0.5,0.7,0.9,0.7c0.8,0,1.2-0.7,1.3-2.2c-0.1,0.2-0.3,0.4-0.6,0.5c-0.3,0.1-0.5,0.2-0.9,0.2c-0.6,0-1-0.2-1.3-0.5
		c-0.3-0.4-0.5-0.9-0.5-1.5c0-0.6,0.2-1.1,0.5-1.5c0.4-0.4,0.9-0.5,1.5-0.5c0.7,0,1.2,0.3,1.6,0.8C681.5,5,681.7,5.8,681.7,6.8z
		 M680.6,6c0-0.4-0.1-0.8-0.3-1s-0.5-0.4-0.8-0.4c-0.3,0-0.6,0.1-0.8,0.3c-0.2,0.2-0.3,0.5-0.3,0.9c0,0.4,0.1,0.7,0.3,0.9
		c0.2,0.2,0.4,0.3,0.8,0.3c0.3,0,0.6-0.1,0.8-0.3C680.5,6.6,680.6,6.3,680.6,6z"/>
</g>
<circle class="st41" cx="713.2" cy="7.1" r="6"/>
<radialGradient id="SVGID_20_" cx="224.7069" cy="-795.4119" r="5.2256" fx="224.4485" fy="-795.4134" gradientTransform="matrix(0 0.6662 -1.3516 0 -378.8787 -106.4676)" gradientUnits="userSpaceOnUse">
	<stop  offset="2.560353e-02" style="stop-color:#231815;stop-opacity:0.55"/>
	<stop  offset="0.8602" style="stop-color:#231815;stop-opacity:0"/>
</radialGradient>
<ellipse class="st19" cx="696.2" cy="42.4" rx="6.8" ry="3.6"/>
<path class="st44" d="M707,16.2c0,3.6-1.8,7.4-4.5,9.8c-0.6,0.4-1.1,0.8-1.6,1.3c-2.3,2.2-3.7,5.5-3.7,9c0,0.3,0,0.5,0,0.8
	c-0.9,2-1.4,4.3-1.4,6.7c0-2.4-0.5-4.7-1.4-6.7c0-0.3,0-0.5,0-0.8c0-3.9-1.7-7.4-4.3-9.5c-0.2-0.1-0.3-0.3-0.5-0.4l0,0
	c-3-2.5-5.2-6.5-5.2-10.3c0-6.3,5.1-11.4,11.2-11.4C701.7,4.7,707,9.9,707,16.2z"/>
<g>
	<g class="st45">
		<path class="st46" d="M696,41.2c-0.2-1.3-0.7-2.4-1.2-3.5c0-0.2,0-0.5,0-0.7c0-3.8-1.6-7.4-4.4-9.7c-0.2-0.1-0.3-0.3-0.5-0.4l0,0
			c-3-2.7-5-6.7-5-10.2c0-6.2,4.9-11.1,10.9-11.1s10.9,5,10.9,11.1c0,3.4-1.7,7.2-4.4,9.7c-0.6,0.4-1.1,0.8-1.7,1.3
			c-2.4,2.4-3.8,5.8-3.8,9.2c0,0.2,0,0.5,0,0.7C696.6,38.9,696.2,39.9,696,41.2z"/>
		<path class="st46" d="M695.9,5.8c5.9,0,10.7,4.9,10.7,10.9c0,3.3-1.6,7-4.3,9.5c-0.6,0.4-1.2,0.9-1.7,1.4
			c-2.5,2.4-3.9,5.9-3.9,9.4c0,0.2,0,0.5,0,0.7c-0.4,0.8-0.7,1.6-0.9,2.5c-0.2-0.8-0.5-1.6-0.9-2.4c0-0.2,0-0.5,0-0.7
			c0-3.9-1.6-7.5-4.5-9.9c-0.2-0.1-0.3-0.3-0.5-0.4l0,0l0,0c-3-2.6-5-6.5-5-9.9C685.3,10.7,690,5.8,695.9,5.8 M695.9,5.3
			c-6.2,0-11.2,5.1-11.2,11.4c0,3.9,2.2,7.8,5.2,10.3l0,0c0.2,0.1,0.3,0.3,0.5,0.4c2.6,2.2,4.3,5.7,4.3,9.5c0,0.3,0,0.5,0,0.8
			c0.9,2,1.4,3.7,1.4,6.2c0-2.4,0.5-4.2,1.4-6.2c0-0.3,0-0.5,0-0.8c0-3.6,1.4-6.9,3.7-9c0.5-0.5,1.1-1,1.6-1.3
			c2.6-2.5,4.5-6.3,4.5-9.8C707.1,10.4,702.1,5.3,695.9,5.3L695.9,5.3z"/>
	</g>
	<g>
		<path class="st41" d="M695.9,40.4c-0.2-1.3-0.7-2.4-1.2-3.5c0-0.2,0-0.5,0-0.7c0-3.8-1.6-7.4-4.4-9.7c-0.2-0.1-0.3-0.3-0.5-0.4
			l0,0c-3.1-2.6-5.1-6.7-5.1-10.1c0-6.2,4.9-11.1,10.9-11.1s10.9,5,10.9,11.1c0,3.4-1.7,7.2-4.4,9.7c-0.6,0.4-1.1,0.8-1.7,1.3
			c-2.4,2.4-3.8,5.8-3.8,9.2c0,0.2,0,0.5,0,0.7C696.5,38.1,696.1,39.1,695.9,40.4z"/>
		<g>
			<path class="st47" d="M695.8,5c5.9,0,10.7,4.9,10.7,10.9c0,3.3-1.6,7-4.3,9.5c-0.6,0.4-1.2,0.9-1.7,1.4c-2.5,2.4-3.9,5.9-3.9,9.4
				c0,0.2,0,0.5,0,0.7c-0.4,0.8-0.7,1.6-0.9,2.5c-0.2-0.8-0.5-1.6-0.9-2.4c0-0.2,0-0.5,0-0.7c0-3.9-1.6-7.5-4.5-9.9
				c-0.2-0.1-0.3-0.3-0.5-0.4l0,0l0,0c-3-2.6-5-6.5-5-9.9C685.2,9.9,689.9,5,695.8,5 M695.8,4.5c-6.2,0-11.2,5.1-11.2,11.4
				c0,3.9,2.2,7.8,5.2,10.3l0,0c0.2,0.1,0.3,0.3,0.5,0.4c2.6,2.2,4.3,5.7,4.3,9.5c0,0.3,0,0.5,0,0.8c0.9,2,1.4,3.7,1.4,6.2
				c0-2.4,0.5-4.2,1.4-6.2c0-0.3,0-0.5,0-0.8c0-3.6,1.4-6.9,3.7-9c0.5-0.5,1.1-1,1.6-1.3c2.6-2.5,4.5-6.3,4.5-9.8
				C707,9.6,702,4.5,695.8,4.5L695.8,4.5z"/>
		</g>
	</g>
</g>
<circle class="st48" cx="696.1" cy="15.5" r="7.8"/>
<text transform="matrix(1 0 0 1 690.3285 19.604)" class="st41 st69 st70">途</text>
<g>
	<path class="st48" d="M709.1,10.1V9.3c0.1-0.3,0.4-0.7,0.6-1s0.6-0.7,1.1-1.1c0.5-0.5,0.9-0.8,1.1-1c0.2-0.2,0.3-0.5,0.3-0.7
		c0-0.3-0.1-0.5-0.3-0.7c-0.2-0.2-0.4-0.2-0.7-0.2c-0.6,0-0.9,0.3-1,0.9l-1-0.1c0.1-0.5,0.3-0.9,0.6-1.2c0.3-0.3,0.8-0.4,1.4-0.4
		c0.6,0,1.1,0.2,1.5,0.5c0.4,0.3,0.5,0.7,0.5,1.3c0,0.3,0,0.5-0.2,0.7c-0.1,0.2-0.2,0.4-0.4,0.7c-0.2,0.2-0.5,0.5-0.9,0.8
		c-0.8,0.6-1.2,1.1-1.4,1.5h3v0.8H709.1z"/>
	<path class="st48" d="M718,7c0,1-0.2,1.8-0.5,2.4c-0.4,0.5-0.9,0.8-1.6,0.8c-1.4,0-2.1-1.1-2.1-3.2c0-0.7,0.1-1.3,0.2-1.8
		c0.2-0.5,0.4-0.8,0.7-1c0.3-0.2,0.7-0.3,1.2-0.3c0.7,0,1.2,0.3,1.6,0.8S718,5.9,718,7z M717,7c0-0.6,0-1-0.1-1.4s-0.2-0.6-0.3-0.8
		c-0.2-0.2-0.4-0.2-0.6-0.2c-0.4,0-0.7,0.2-0.9,0.5c-0.2,0.4-0.3,1-0.3,1.8c0,0.8,0.1,1.4,0.3,1.8s0.5,0.6,0.8,0.6
		c0.4,0,0.7-0.2,0.8-0.6C716.9,8.4,717,7.8,717,7z"/>
</g>
</svg>
