<?xml version="1.0" encoding="utf-8"?>
<!-- Generator: Adobe Illustrator 23.0.0, SVG Export Plug-In . SVG Version: 6.00 Build 0)  -->
<svg version="1.1" id="图层_1" xmlns="http://www.w3.org/2000/svg" xmlns:xlink="http://www.w3.org/1999/xlink" x="0px" y="0px"
	 width="520px" height="210px" style="enable-background:new 0 0 520 210;" xml:space="preserve">
<style type="text/css">
	.st0{fill:url(#SVGID_1_);}
	.st1{fill:url(#SVGID_2_);}
	.st2{fill:url(#SVGID_3_);}
	.st3{fill:url(#SVGID_4_);}
	.st4{fill:url(#SVGID_5_);}
	.st5{fill:url(#SVGID_6_);}
	.st6{fill:url(#SVGID_7_);}
	.st7{fill:url(#SVGID_8_);}
	.st8{fill:url(#SVGID_9_);}
	.st9{fill:url(#SVGID_10_);}
	.st10{fill:url(#SVGID_11_);}
	.st11{fill:url(#SVGID_12_);}
	.st12{fill:url(#SVGID_13_);}
	.st13{fill:url(#SVGID_14_);}
	.st14{fill:url(#SVGID_15_);}
	.st15{fill:url(#SVGID_16_);}
	.st16{fill:url(#SVGID_17_);}
	.st17{fill:url(#SVGID_18_);}
	.st18{fill:url(#SVGID_19_);}
	.st19{fill:url(#SVGID_20_);}
	.st20{fill:#E62520;}
	.st21{fill:url(#SVGID_21_);}
	.st22{fill:url(#SVGID_22_);}
	.st23{fill:url(#SVGID_23_);}
	.st24{fill:url(#SVGID_24_);}
	.st25{fill:url(#SVGID_25_);}
	.st26{fill:url(#SVGID_26_);}
	.st27{fill:url(#SVGID_27_);}
	.st28{fill:url(#SVGID_28_);}
	.st29{fill:url(#SVGID_29_);}
	.st30{fill:url(#SVGID_30_);}
	.st31{fill:url(#SVGID_31_);}
	.st32{fill:url(#SVGID_32_);}
	.st33{fill:url(#SVGID_33_);}
	.st34{fill:url(#SVGID_34_);}
	.st35{fill:url(#SVGID_35_);}
	.st36{fill:url(#SVGID_36_);}
	.st37{fill:url(#SVGID_37_);}
	.st38{fill:url(#SVGID_38_);}
	.st39{fill:url(#SVGID_39_);}
	.st40{fill:url(#SVGID_40_);}
	.st41{fill:#2B81FF;}
	.st42{fill:#2B81FF;stroke:#00376D;stroke-miterlimit:10;}
	.st43{fill:url(#SVGID_41_);}
	.st44{fill:#4383C4;}
	.st45{opacity:0.75;}
	.st46{fill:#7E7B7A;}
	.st47{fill:#004FAD;}
	.st48{fill:#FFFFFF;}
	.st49{fill:url(#SVGID_42_);}
	.st50{fill:url(#SVGID_43_);}
	.st51{fill:url(#SVGID_44_);}
	.st52{fill:url(#SVGID_45_);}
	.st53{fill:url(#SVGID_46_);}
	.st54{fill:url(#SVGID_47_);}
	.st55{fill:url(#SVGID_48_);}
	.st56{fill:url(#SVGID_49_);}
	.st57{fill:url(#SVGID_50_);}
	.st58{fill:url(#SVGID_51_);}
	.st59{fill:url(#SVGID_52_);}
	.st60{fill:url(#SVGID_53_);}
	.st61{fill:url(#SVGID_54_);}
	.st62{fill:url(#SVGID_55_);}
	.st63{fill:url(#SVGID_56_);}
	.st64{fill:url(#SVGID_57_);}
	.st65{fill:url(#SVGID_58_);}
	.st66{fill:url(#SVGID_59_);}
	.st67{fill:url(#SVGID_60_);}
	.st68{fill:#B2908E;}
	.st69{fill:url(#SVGID_61_);}
	.st70{fill:url(#SVGID_62_);}
	.st71{fill:url(#SVGID_63_);}
	.st72{fill:url(#SVGID_64_);}
	.st73{fill:url(#SVGID_65_);}
	.st74{fill:url(#SVGID_66_);}
	.st75{fill:url(#SVGID_67_);}
	.st76{fill:url(#SVGID_68_);}
	.st77{fill:url(#SVGID_69_);}
	.st78{fill:url(#SVGID_70_);}
	.st79{fill:url(#SVGID_71_);}
	.st80{fill:url(#SVGID_72_);}
	.st81{fill:url(#SVGID_73_);}
	.st82{fill:url(#SVGID_74_);}
	.st83{fill:url(#SVGID_75_);}
	.st84{fill:url(#SVGID_76_);}
	.st85{fill:url(#SVGID_77_);}
	.st86{fill:url(#SVGID_78_);}
	.st87{fill:url(#SVGID_79_);}
	.st88{fill:url(#SVGID_80_);}
</style>
<radialGradient id="SVGID_1_" cx="-275.7853" cy="39.491" r="5.2256" fx="-276.0437" fy="39.4895" gradientTransform="matrix(0 0.6662 -1.3516 0 66.3761 222.9604)" gradientUnits="userSpaceOnUse">
	<stop  offset="2.560353e-02" style="stop-color:#231815;stop-opacity:0.55"/>
	<stop  offset="0.8602" style="stop-color:#231815;stop-opacity:0"/>
</radialGradient>
<ellipse class="st0" cx="13" cy="38.4" rx="6.8" ry="3.6"/>
<radialGradient id="SVGID_2_" cx="-275.7853" cy="20.2546" r="5.2256" fx="-276.0437" fy="20.2531" gradientTransform="matrix(0 0.6662 -1.3516 0 66.3761 222.9604)" gradientUnits="userSpaceOnUse">
	<stop  offset="2.560353e-02" style="stop-color:#231815;stop-opacity:0.55"/>
	<stop  offset="0.8602" style="stop-color:#231815;stop-opacity:0"/>
</radialGradient>
<ellipse class="st1" cx="39" cy="38.4" rx="6.8" ry="3.6"/>
<radialGradient id="SVGID_3_" cx="-275.7853" cy="1.0181" r="5.2256" fx="-276.0437" fy="1.0166" gradientTransform="matrix(0 0.6662 -1.3516 0 66.3761 222.9604)" gradientUnits="userSpaceOnUse">
	<stop  offset="2.560353e-02" style="stop-color:#231815;stop-opacity:0.55"/>
	<stop  offset="0.8602" style="stop-color:#231815;stop-opacity:0"/>
</radialGradient>
<ellipse class="st2" cx="65" cy="38.4" rx="6.8" ry="3.6"/>
<radialGradient id="SVGID_4_" cx="-275.7853" cy="-18.2184" r="5.2256" fx="-276.0437" fy="-18.2199" gradientTransform="matrix(0 0.6662 -1.3516 0 66.3761 222.9604)" gradientUnits="userSpaceOnUse">
	<stop  offset="2.560353e-02" style="stop-color:#231815;stop-opacity:0.55"/>
	<stop  offset="0.8602" style="stop-color:#231815;stop-opacity:0"/>
</radialGradient>
<ellipse class="st3" cx="91" cy="38.4" rx="6.8" ry="3.6"/>
<radialGradient id="SVGID_5_" cx="-275.7853" cy="-37.4548" r="5.2256" fx="-276.0437" fy="-37.4563" gradientTransform="matrix(0 0.6662 -1.3516 0 66.3761 222.9604)" gradientUnits="userSpaceOnUse">
	<stop  offset="2.560353e-02" style="stop-color:#231815;stop-opacity:0.55"/>
	<stop  offset="0.8602" style="stop-color:#231815;stop-opacity:0"/>
</radialGradient>
<ellipse class="st4" cx="117" cy="38.4" rx="6.8" ry="3.6"/>
<radialGradient id="SVGID_6_" cx="-275.7853" cy="-56.6913" r="5.2256" fx="-276.0437" fy="-56.6928" gradientTransform="matrix(0 0.6662 -1.3516 0 66.3761 222.9604)" gradientUnits="userSpaceOnUse">
	<stop  offset="2.560353e-02" style="stop-color:#231815;stop-opacity:0.55"/>
	<stop  offset="0.8602" style="stop-color:#231815;stop-opacity:0"/>
</radialGradient>
<ellipse class="st5" cx="143" cy="38.4" rx="6.8" ry="3.6"/>
<radialGradient id="SVGID_7_" cx="-275.7853" cy="-75.9277" r="5.2256" fx="-276.0437" fy="-75.9292" gradientTransform="matrix(0 0.6662 -1.3516 0 66.3761 222.9604)" gradientUnits="userSpaceOnUse">
	<stop  offset="2.560353e-02" style="stop-color:#231815;stop-opacity:0.55"/>
	<stop  offset="0.8602" style="stop-color:#231815;stop-opacity:0"/>
</radialGradient>
<ellipse class="st6" cx="169" cy="38.4" rx="6.8" ry="3.6"/>
<radialGradient id="SVGID_8_" cx="-275.7853" cy="-95.1642" r="5.2256" fx="-276.0437" fy="-95.1657" gradientTransform="matrix(0 0.6662 -1.3516 0 66.3761 222.9604)" gradientUnits="userSpaceOnUse">
	<stop  offset="2.560353e-02" style="stop-color:#231815;stop-opacity:0.55"/>
	<stop  offset="0.8602" style="stop-color:#231815;stop-opacity:0"/>
</radialGradient>
<ellipse class="st7" cx="195" cy="38.4" rx="6.8" ry="3.6"/>
<radialGradient id="SVGID_9_" cx="-275.7853" cy="-114.4007" r="5.2256" fx="-276.0437" fy="-114.4022" gradientTransform="matrix(0 0.6662 -1.3516 0 66.3761 222.9604)" gradientUnits="userSpaceOnUse">
	<stop  offset="2.560353e-02" style="stop-color:#231815;stop-opacity:0.55"/>
	<stop  offset="0.8602" style="stop-color:#231815;stop-opacity:0"/>
</radialGradient>
<ellipse class="st8" cx="221" cy="38.4" rx="6.8" ry="3.6"/>
<radialGradient id="SVGID_10_" cx="-275.7853" cy="-133.6371" r="5.2256" fx="-276.0437" fy="-133.6386" gradientTransform="matrix(0 0.6662 -1.3516 0 66.3761 222.9604)" gradientUnits="userSpaceOnUse">
	<stop  offset="2.560353e-02" style="stop-color:#231815;stop-opacity:0.55"/>
	<stop  offset="0.8602" style="stop-color:#231815;stop-opacity:0"/>
</radialGradient>
<ellipse class="st9" cx="247" cy="38.4" rx="6.8" ry="3.6"/>
<radialGradient id="SVGID_11_" cx="-275.7853" cy="-152.8736" r="5.2256" fx="-276.0437" fy="-152.8751" gradientTransform="matrix(0 0.6662 -1.3516 0 66.3761 222.9604)" gradientUnits="userSpaceOnUse">
	<stop  offset="2.560353e-02" style="stop-color:#231815;stop-opacity:0.55"/>
	<stop  offset="0.8602" style="stop-color:#231815;stop-opacity:0"/>
</radialGradient>
<ellipse class="st10" cx="273" cy="38.4" rx="6.8" ry="3.6"/>
<radialGradient id="SVGID_12_" cx="-275.7853" cy="-172.1092" r="5.2256" fx="-276.0437" fy="-172.1107" gradientTransform="matrix(0 0.6662 -1.3516 0 66.3761 222.9604)" gradientUnits="userSpaceOnUse">
	<stop  offset="2.560353e-02" style="stop-color:#231815;stop-opacity:0.55"/>
	<stop  offset="0.8602" style="stop-color:#231815;stop-opacity:0"/>
</radialGradient>
<ellipse class="st11" cx="299" cy="38.4" rx="6.8" ry="3.6"/>
<radialGradient id="SVGID_13_" cx="-275.7853" cy="-191.3465" r="5.2256" fx="-276.0437" fy="-191.348" gradientTransform="matrix(0 0.6662 -1.3516 0 66.3761 222.9604)" gradientUnits="userSpaceOnUse">
	<stop  offset="2.560353e-02" style="stop-color:#231815;stop-opacity:0.55"/>
	<stop  offset="0.8602" style="stop-color:#231815;stop-opacity:0"/>
</radialGradient>
<ellipse class="st12" cx="325" cy="38.4" rx="6.8" ry="3.6"/>
<radialGradient id="SVGID_14_" cx="-275.7853" cy="-210.583" r="5.2256" fx="-276.0437" fy="-210.5845" gradientTransform="matrix(0 0.6662 -1.3516 0 66.3761 222.9604)" gradientUnits="userSpaceOnUse">
	<stop  offset="2.560353e-02" style="stop-color:#231815;stop-opacity:0.55"/>
	<stop  offset="0.8602" style="stop-color:#231815;stop-opacity:0"/>
</radialGradient>
<ellipse class="st13" cx="351" cy="38.4" rx="6.8" ry="3.6"/>
<radialGradient id="SVGID_15_" cx="-275.7853" cy="-229.8194" r="5.2256" fx="-276.0437" fy="-229.8209" gradientTransform="matrix(0 0.6662 -1.3516 0 66.3761 222.9604)" gradientUnits="userSpaceOnUse">
	<stop  offset="2.560353e-02" style="stop-color:#231815;stop-opacity:0.55"/>
	<stop  offset="0.8602" style="stop-color:#231815;stop-opacity:0"/>
</radialGradient>
<ellipse class="st14" cx="377" cy="38.4" rx="6.8" ry="3.6"/>
<radialGradient id="SVGID_16_" cx="-275.7853" cy="-249.0559" r="5.2256" fx="-276.0437" fy="-249.0574" gradientTransform="matrix(0 0.6662 -1.3516 0 66.3761 222.9604)" gradientUnits="userSpaceOnUse">
	<stop  offset="2.560353e-02" style="stop-color:#231815;stop-opacity:0.55"/>
	<stop  offset="0.8602" style="stop-color:#231815;stop-opacity:0"/>
</radialGradient>
<ellipse class="st15" cx="403" cy="38.4" rx="6.8" ry="3.6"/>
<radialGradient id="SVGID_17_" cx="-275.7853" cy="-268.2924" r="5.2256" fx="-276.0437" fy="-268.2939" gradientTransform="matrix(0 0.6662 -1.3516 0 66.3761 222.9604)" gradientUnits="userSpaceOnUse">
	<stop  offset="2.560353e-02" style="stop-color:#231815;stop-opacity:0.55"/>
	<stop  offset="0.8602" style="stop-color:#231815;stop-opacity:0"/>
</radialGradient>
<ellipse class="st16" cx="429" cy="38.4" rx="6.8" ry="3.6"/>
<radialGradient id="SVGID_18_" cx="-275.7853" cy="-287.5288" r="5.2256" fx="-276.0437" fy="-287.5303" gradientTransform="matrix(0 0.6662 -1.3516 0 66.3761 222.9604)" gradientUnits="userSpaceOnUse">
	<stop  offset="2.560353e-02" style="stop-color:#231815;stop-opacity:0.55"/>
	<stop  offset="0.8602" style="stop-color:#231815;stop-opacity:0"/>
</radialGradient>
<ellipse class="st17" cx="455" cy="38.4" rx="6.8" ry="3.6"/>
<radialGradient id="SVGID_19_" cx="-275.7853" cy="-306.7653" r="5.2256" fx="-276.0437" fy="-306.7668" gradientTransform="matrix(0 0.6662 -1.3516 0 66.3761 222.9604)" gradientUnits="userSpaceOnUse">
	<stop  offset="2.560353e-02" style="stop-color:#231815;stop-opacity:0.55"/>
	<stop  offset="0.8602" style="stop-color:#231815;stop-opacity:0"/>
</radialGradient>
<ellipse class="st18" cx="481" cy="38.4" rx="6.8" ry="3.6"/>
<radialGradient id="SVGID_20_" cx="-275.7853" cy="-326.0017" r="5.2256" fx="-276.0437" fy="-326.0032" gradientTransform="matrix(0 0.6662 -1.3516 0 66.3761 222.9604)" gradientUnits="userSpaceOnUse">
	<stop  offset="2.560353e-02" style="stop-color:#231815;stop-opacity:0.55"/>
	<stop  offset="0.8602" style="stop-color:#231815;stop-opacity:0"/>
</radialGradient>
<ellipse class="st19" cx="507" cy="38.4" rx="6.8" ry="3.6"/>
<path class="st20" d="M23.6,18.1c-0.5-3.3-2.4-6.2-5.1-7.8C16.9,9.2,15,8.6,13,8.6s-3.9,0.6-5.5,1.7c-2.7,1.6-4.6,4.5-5.1,7.8
	c-0.4,2.6,0.1,5,1.2,7l0,0c0,0,0,0,0,0c0.5,0.9,1.1,1.8,1.8,2.5c2.4,2.5,4.6,5.2,6.1,8.5C12.7,38.5,13,40,13,40l0-0.2h0l0,0.2
	c0,0,0.3-1.5,1.4-3.9c1.5-3.2,3.7-6,6.1-8.5c0.7-0.7,1.3-1.6,1.8-2.5c0,0,0,0,0,0l0,0C23.4,23.1,23.9,20.6,23.6,18.1z"/>
<path class="st20" d="M49.6,18.1c-0.5-3.3-2.4-6.2-5.1-7.8C42.9,9.2,41,8.6,39,8.6s-3.9,0.6-5.5,1.7c-2.7,1.6-4.6,4.5-5.1,7.8
	c-0.4,2.6,0.1,5,1.2,7l0,0c0,0,0,0,0,0c0.5,0.9,1.1,1.8,1.8,2.5c2.4,2.5,4.6,5.2,6.1,8.5C38.7,38.5,39,40,39,40l0-0.2h0l0,0.2
	c0,0,0.3-1.5,1.4-3.9c1.5-3.2,3.7-6,6.1-8.5c0.7-0.7,1.3-1.6,1.8-2.5c0,0,0,0,0,0l0,0C49.4,23.1,49.9,20.6,49.6,18.1z"/>
<path class="st20" d="M75.6,18.1c-0.5-3.3-2.4-6.2-5.1-7.8C68.9,9.2,67,8.6,65,8.6c-2,0-3.9,0.6-5.5,1.7c-2.7,1.6-4.6,4.5-5.1,7.8
	c-0.4,2.6,0.1,5,1.2,7l0,0c0,0,0,0,0,0c0.5,0.9,1.1,1.8,1.8,2.5c2.4,2.5,4.6,5.2,6.1,8.5C64.7,38.5,65,40,65,40l0-0.2h0l0,0.2
	c0,0,0.3-1.5,1.4-3.9c1.5-3.2,3.7-6,6.1-8.5c0.7-0.7,1.3-1.6,1.8-2.5c0,0,0,0,0,0l0,0C75.4,23.1,75.9,20.6,75.6,18.1z"/>
<path class="st20" d="M101.6,18.1c-0.5-3.3-2.4-6.2-5.1-7.8C94.9,9.2,93,8.6,91,8.6s-3.9,0.6-5.5,1.7c-2.7,1.6-4.6,4.5-5.1,7.8
	c-0.4,2.6,0.1,5,1.2,7l0,0c0,0,0,0,0,0c0.5,0.9,1.1,1.8,1.8,2.5c2.4,2.5,4.6,5.2,6.1,8.5C90.7,38.5,91,40,91,40l0-0.2h0l0,0.2
	c0,0,0.3-1.5,1.4-3.9c1.5-3.2,3.7-6,6.1-8.5c0.7-0.7,1.3-1.6,1.8-2.5c0,0,0,0,0,0l0,0C101.4,23.1,101.9,20.6,101.6,18.1z"/>
<path class="st20" d="M127.6,18.1c-0.5-3.3-2.4-6.2-5.1-7.8c-1.6-1.1-3.5-1.7-5.5-1.7s-3.9,0.6-5.5,1.7c-2.7,1.6-4.6,4.5-5.1,7.8
	c-0.4,2.6,0.1,5,1.2,7l0,0c0,0,0,0,0,0c0.5,0.9,1.1,1.8,1.8,2.5c2.4,2.5,4.6,5.2,6.1,8.5c1.1,2.4,1.4,3.9,1.4,3.9l0-0.2h0l0,0.2
	c0,0,0.3-1.5,1.4-3.9c1.5-3.2,3.7-6,6.1-8.5c0.7-0.7,1.3-1.6,1.8-2.5c0,0,0,0,0,0l0,0C127.4,23.1,127.9,20.6,127.6,18.1z"/>
<path class="st20" d="M153.6,18.1c-0.5-3.3-2.4-6.2-5.1-7.8c-1.6-1.1-3.5-1.7-5.5-1.7s-3.9,0.6-5.5,1.7c-2.7,1.6-4.6,4.5-5.1,7.8
	c-0.4,2.6,0.1,5,1.2,7l0,0c0,0,0,0,0,0c0.5,0.9,1.1,1.8,1.8,2.5c2.4,2.5,4.6,5.2,6.1,8.5c1.1,2.4,1.4,3.9,1.4,3.9l0-0.2h0l0,0.2
	c0,0,0.3-1.5,1.4-3.9c1.5-3.2,3.7-6,6.1-8.5c0.7-0.7,1.3-1.6,1.8-2.5c0,0,0,0,0,0l0,0C153.4,23.1,153.9,20.6,153.6,18.1z"/>
<path class="st20" d="M179.6,18.1c-0.5-3.3-2.4-6.2-5.1-7.8c-1.6-1.1-3.5-1.7-5.5-1.7s-3.9,0.6-5.5,1.7c-2.7,1.6-4.6,4.5-5.1,7.8
	c-0.4,2.6,0.1,5,1.2,7l0,0c0,0,0,0,0,0c0.5,0.9,1.1,1.8,1.8,2.5c2.4,2.5,4.6,5.2,6.1,8.5c1.1,2.4,1.4,3.9,1.4,3.9l0-0.2h0l0,0.2
	c0,0,0.3-1.5,1.4-3.9c1.5-3.2,3.7-6,6.1-8.5c0.7-0.7,1.3-1.6,1.8-2.5c0,0,0,0,0,0l0,0C179.4,23.1,179.9,20.6,179.6,18.1z"/>
<path class="st20" d="M205.6,18.1c-0.5-3.3-2.4-6.2-5.1-7.8c-1.6-1.1-3.5-1.7-5.5-1.7s-3.9,0.6-5.5,1.7c-2.7,1.6-4.6,4.5-5.1,7.8
	c-0.4,2.6,0.1,5,1.2,7l0,0c0,0,0,0,0,0c0.5,0.9,1.1,1.8,1.8,2.5c2.4,2.5,4.6,5.2,6.1,8.5c1.1,2.4,1.4,3.9,1.4,3.9l0-0.2h0l0,0.2
	c0,0,0.3-1.5,1.4-3.9c1.5-3.2,3.7-6,6.1-8.5c0.7-0.7,1.3-1.6,1.8-2.5c0,0,0,0,0,0l0,0C205.4,23.1,205.9,20.6,205.6,18.1z"/>
<path class="st20" d="M231.6,18.1c-0.5-3.3-2.4-6.2-5.1-7.8c-1.6-1.1-3.5-1.7-5.5-1.7s-3.9,0.6-5.5,1.7c-2.7,1.6-4.6,4.5-5.1,7.8
	c-0.4,2.6,0.1,5,1.2,7l0,0c0,0,0,0,0,0c0.5,0.9,1.1,1.8,1.8,2.5c2.4,2.5,4.6,5.2,6.1,8.5c1.1,2.4,1.4,3.9,1.4,3.9l0-0.2h0l0,0.2
	c0,0,0.3-1.5,1.4-3.9c1.5-3.2,3.7-6,6.1-8.5c0.7-0.7,1.3-1.6,1.8-2.5c0,0,0,0,0,0l0,0C231.4,23.1,231.9,20.6,231.6,18.1z"/>
<path class="st20" d="M257.6,18.1c-0.5-3.3-2.4-6.2-5.1-7.8c-1.6-1.1-3.5-1.7-5.5-1.7s-3.9,0.6-5.5,1.7c-2.7,1.6-4.6,4.5-5.1,7.8
	c-0.4,2.6,0.1,5,1.2,7l0,0c0,0,0,0,0,0c0.5,0.9,1.1,1.8,1.8,2.5c2.4,2.5,4.6,5.2,6.1,8.5c1.1,2.4,1.4,3.9,1.4,3.9l0-0.2h0l0,0.2
	c0,0,0.3-1.5,1.4-3.9c1.5-3.2,3.7-6,6.1-8.5c0.7-0.7,1.3-1.6,1.8-2.5c0,0,0,0,0,0l0,0C257.4,23.1,257.9,20.6,257.6,18.1z"/>
<path class="st20" d="M283.6,18.1c-0.5-3.3-2.4-6.2-5.1-7.8c-1.6-1.1-3.5-1.7-5.5-1.7s-3.9,0.6-5.5,1.7c-2.7,1.6-4.6,4.5-5.1,7.8
	c-0.4,2.6,0.1,5,1.2,7l0,0c0,0,0,0,0,0c0.5,0.9,1.1,1.8,1.8,2.5c2.4,2.5,4.6,5.2,6.1,8.5c1.1,2.4,1.4,3.9,1.4,3.9l0-0.2h0l0,0.2
	c0,0,0.3-1.5,1.4-3.9c1.5-3.2,3.7-6,6.1-8.5c0.7-0.7,1.3-1.6,1.8-2.5c0,0,0,0,0,0l0,0C283.4,23.1,283.9,20.6,283.6,18.1z"/>
<path class="st20" d="M309.6,18.1c-0.5-3.3-2.4-6.2-5.1-7.8c-1.6-1.1-3.5-1.7-5.5-1.7s-3.9,0.6-5.5,1.7c-2.7,1.6-4.6,4.5-5.1,7.8
	c-0.4,2.6,0.1,5,1.2,7l0,0c0,0,0,0,0,0c0.5,0.9,1.1,1.8,1.8,2.5c2.4,2.5,4.6,5.2,6.1,8.5c1.1,2.4,1.4,3.9,1.4,3.9l0-0.2h0l0,0.2
	c0,0,0.3-1.5,1.4-3.9c1.5-3.2,3.7-6,6.1-8.5c0.7-0.7,1.3-1.6,1.8-2.5c0,0,0,0,0,0l0,0C309.4,23.1,309.9,20.6,309.6,18.1z"/>
<path class="st20" d="M335.6,18.1c-0.5-3.3-2.4-6.2-5.1-7.8c-1.6-1.1-3.5-1.7-5.5-1.7s-3.9,0.6-5.5,1.7c-2.7,1.6-4.6,4.5-5.1,7.8
	c-0.4,2.6,0.1,5,1.2,7l0,0c0,0,0,0,0,0c0.5,0.9,1.1,1.8,1.8,2.5c2.4,2.5,4.6,5.2,6.1,8.5c1.1,2.4,1.4,3.9,1.4,3.9l0-0.2h0l0,0.2
	c0,0,0.3-1.5,1.4-3.9c1.5-3.2,3.7-6,6.1-8.5c0.7-0.7,1.3-1.6,1.8-2.5c0,0,0,0,0,0l0,0C335.4,23.1,335.9,20.6,335.6,18.1z"/>
<path class="st20" d="M361.6,18.1c-0.5-3.3-2.4-6.2-5.1-7.8c-1.6-1.1-3.5-1.7-5.5-1.7s-3.9,0.6-5.5,1.7c-2.7,1.6-4.6,4.5-5.1,7.8
	c-0.4,2.6,0.1,5,1.2,7l0,0c0,0,0,0,0,0c0.5,0.9,1.1,1.8,1.8,2.5c2.4,2.5,4.6,5.2,6.1,8.5c1.1,2.4,1.4,3.9,1.4,3.9l0-0.2h0l0,0.2
	c0,0,0.3-1.5,1.4-3.9c1.5-3.2,3.7-6,6.1-8.5c0.7-0.7,1.3-1.6,1.8-2.5c0,0,0,0,0,0l0,0C361.4,23.1,361.9,20.6,361.6,18.1z"/>
<path class="st20" d="M387.6,18.1c-0.5-3.3-2.4-6.2-5.1-7.8c-1.6-1.1-3.5-1.7-5.5-1.7s-3.9,0.6-5.5,1.7c-2.7,1.6-4.6,4.5-5.1,7.8
	c-0.4,2.6,0.1,5,1.2,7l0,0c0,0,0,0,0,0c0.5,0.9,1.1,1.8,1.8,2.5c2.4,2.5,4.6,5.2,6.1,8.5c1.1,2.4,1.4,3.9,1.4,3.9l0-0.2h0l0,0.2
	c0,0,0.3-1.5,1.4-3.9c1.5-3.2,3.7-6,6.1-8.5c0.7-0.7,1.3-1.6,1.8-2.5c0,0,0,0,0,0l0,0C387.4,23.1,387.9,20.6,387.6,18.1z"/>
<path class="st20" d="M413.6,18.1c-0.5-3.3-2.4-6.2-5.1-7.8c-1.6-1.1-3.5-1.7-5.5-1.7s-3.9,0.6-5.5,1.7c-2.7,1.6-4.6,4.5-5.1,7.8
	c-0.4,2.6,0.1,5,1.2,7l0,0c0,0,0,0,0,0c0.5,0.9,1.1,1.8,1.8,2.5c2.4,2.5,4.6,5.2,6.1,8.5c1.1,2.4,1.4,3.9,1.4,3.9l0-0.2h0l0,0.2
	c0,0,0.3-1.5,1.4-3.9c1.5-3.2,3.7-6,6.1-8.5c0.7-0.7,1.3-1.6,1.8-2.5c0,0,0,0,0,0l0,0C413.4,23.1,413.9,20.6,413.6,18.1z"/>
<path class="st20" d="M439.6,18.1c-0.5-3.3-2.4-6.2-5.1-7.8c-1.6-1.1-3.5-1.7-5.5-1.7s-3.9,0.6-5.5,1.7c-2.7,1.6-4.6,4.5-5.1,7.8
	c-0.4,2.6,0.1,5,1.2,7l0,0c0,0,0,0,0,0c0.5,0.9,1.1,1.8,1.8,2.5c2.4,2.5,4.6,5.2,6.1,8.5c1.1,2.4,1.4,3.9,1.4,3.9l0-0.2h0l0,0.2
	c0,0,0.3-1.5,1.4-3.9c1.5-3.2,3.7-6,6.1-8.5c0.7-0.7,1.3-1.6,1.8-2.5c0,0,0,0,0,0l0,0C439.4,23.1,439.9,20.6,439.6,18.1z"/>
<path class="st20" d="M465.6,18.1c-0.5-3.3-2.4-6.2-5.1-7.8c-1.6-1.1-3.5-1.7-5.5-1.7s-3.9,0.6-5.5,1.7c-2.7,1.6-4.6,4.5-5.1,7.8
	c-0.4,2.6,0.1,5,1.2,7l0,0c0,0,0,0,0,0c0.5,0.9,1.1,1.8,1.8,2.5c2.4,2.5,4.6,5.2,6.1,8.5c1.1,2.4,1.4,3.9,1.4,3.9l0-0.2h0l0,0.2
	c0,0,0.3-1.5,1.4-3.9c1.5-3.2,3.7-6,6.1-8.5c0.7-0.7,1.3-1.6,1.8-2.5c0,0,0,0,0,0l0,0C465.4,23.1,465.9,20.6,465.6,18.1z"/>
<path class="st20" d="M491.6,18.1c-0.5-3.3-2.4-6.2-5.1-7.8c-1.6-1.1-3.5-1.7-5.5-1.7s-3.9,0.6-5.5,1.7c-2.7,1.6-4.6,4.5-5.1,7.8
	c-0.4,2.6,0.1,5,1.2,7l0,0c0,0,0,0,0,0c0.5,0.9,1.1,1.8,1.8,2.5c2.4,2.5,4.6,5.2,6.1,8.5c1.1,2.4,1.4,3.9,1.4,3.9l0-0.2h0l0,0.2
	c0,0,0.3-1.5,1.4-3.9c1.5-3.2,3.7-6,6.1-8.5c0.7-0.7,1.3-1.6,1.8-2.5c0,0,0,0,0,0l0,0C491.4,23.1,491.9,20.6,491.6,18.1z"/>
<path class="st20" d="M517.6,18.1c-0.5-3.3-2.4-6.2-5.1-7.8c-1.6-1.1-3.5-1.7-5.5-1.7s-3.9,0.6-5.5,1.7c-2.7,1.6-4.6,4.5-5.1,7.8
	c-0.4,2.6,0.1,5,1.2,7l0,0c0,0,0,0,0,0c0.5,0.9,1.1,1.8,1.8,2.5c2.4,2.5,4.6,5.2,6.1,8.5c1.1,2.4,1.4,3.9,1.4,3.9l0-0.2h0l0,0.2
	c0,0,0.3-1.5,1.4-3.9c1.5-3.2,3.7-6,6.1-8.5c0.7-0.7,1.3-1.6,1.8-2.5c0,0,0,0,0,0l0,0C517.4,23.1,517.9,20.6,517.6,18.1z"/>
<radialGradient id="SVGID_21_" cx="-212.7411" cy="39.491" r="5.2256" fx="-212.9995" fy="39.4895" gradientTransform="matrix(0 0.6662 -1.3516 0 66.3761 222.9604)" gradientUnits="userSpaceOnUse">
	<stop  offset="2.560353e-02" style="stop-color:#231815;stop-opacity:0.55"/>
	<stop  offset="0.8602" style="stop-color:#231815;stop-opacity:0"/>
</radialGradient>
<ellipse class="st21" cx="13" cy="80.4" rx="6.8" ry="3.6"/>
<radialGradient id="SVGID_22_" cx="-212.7411" cy="20.2546" r="5.2256" fx="-212.9995" fy="20.2531" gradientTransform="matrix(0 0.6662 -1.3516 0 66.3761 222.9604)" gradientUnits="userSpaceOnUse">
	<stop  offset="2.560353e-02" style="stop-color:#231815;stop-opacity:0.55"/>
	<stop  offset="0.8602" style="stop-color:#231815;stop-opacity:0"/>
</radialGradient>
<ellipse class="st22" cx="39" cy="80.4" rx="6.8" ry="3.6"/>
<radialGradient id="SVGID_23_" cx="-212.7411" cy="1.0181" r="5.2256" fx="-212.9995" fy="1.0166" gradientTransform="matrix(0 0.6662 -1.3516 0 66.3761 222.9604)" gradientUnits="userSpaceOnUse">
	<stop  offset="2.560353e-02" style="stop-color:#231815;stop-opacity:0.55"/>
	<stop  offset="0.8602" style="stop-color:#231815;stop-opacity:0"/>
</radialGradient>
<ellipse class="st23" cx="65" cy="80.4" rx="6.8" ry="3.6"/>
<radialGradient id="SVGID_24_" cx="-212.7411" cy="-18.2184" r="5.2256" fx="-212.9995" fy="-18.2199" gradientTransform="matrix(0 0.6662 -1.3516 0 66.3761 222.9604)" gradientUnits="userSpaceOnUse">
	<stop  offset="2.560353e-02" style="stop-color:#231815;stop-opacity:0.55"/>
	<stop  offset="0.8602" style="stop-color:#231815;stop-opacity:0"/>
</radialGradient>
<ellipse class="st24" cx="91" cy="80.4" rx="6.8" ry="3.6"/>
<radialGradient id="SVGID_25_" cx="-212.7411" cy="-37.4548" r="5.2256" fx="-212.9995" fy="-37.4563" gradientTransform="matrix(0 0.6662 -1.3516 0 66.3761 222.9604)" gradientUnits="userSpaceOnUse">
	<stop  offset="2.560353e-02" style="stop-color:#231815;stop-opacity:0.55"/>
	<stop  offset="0.8602" style="stop-color:#231815;stop-opacity:0"/>
</radialGradient>
<ellipse class="st25" cx="117" cy="80.4" rx="6.8" ry="3.6"/>
<radialGradient id="SVGID_26_" cx="-212.7411" cy="-56.6913" r="5.2256" fx="-212.9995" fy="-56.6928" gradientTransform="matrix(0 0.6662 -1.3516 0 66.3761 222.9604)" gradientUnits="userSpaceOnUse">
	<stop  offset="2.560353e-02" style="stop-color:#231815;stop-opacity:0.55"/>
	<stop  offset="0.8602" style="stop-color:#231815;stop-opacity:0"/>
</radialGradient>
<ellipse class="st26" cx="143" cy="80.4" rx="6.8" ry="3.6"/>
<radialGradient id="SVGID_27_" cx="-212.7411" cy="-75.9277" r="5.2256" fx="-212.9995" fy="-75.9292" gradientTransform="matrix(0 0.6662 -1.3516 0 66.3761 222.9604)" gradientUnits="userSpaceOnUse">
	<stop  offset="2.560353e-02" style="stop-color:#231815;stop-opacity:0.55"/>
	<stop  offset="0.8602" style="stop-color:#231815;stop-opacity:0"/>
</radialGradient>
<ellipse class="st27" cx="169" cy="80.4" rx="6.8" ry="3.6"/>
<radialGradient id="SVGID_28_" cx="-212.7411" cy="-95.1642" r="5.2256" fx="-212.9995" fy="-95.1657" gradientTransform="matrix(0 0.6662 -1.3516 0 66.3761 222.9604)" gradientUnits="userSpaceOnUse">
	<stop  offset="2.560353e-02" style="stop-color:#231815;stop-opacity:0.55"/>
	<stop  offset="0.8602" style="stop-color:#231815;stop-opacity:0"/>
</radialGradient>
<ellipse class="st28" cx="195" cy="80.4" rx="6.8" ry="3.6"/>
<radialGradient id="SVGID_29_" cx="-212.7411" cy="-114.4007" r="5.2256" fx="-212.9995" fy="-114.4022" gradientTransform="matrix(0 0.6662 -1.3516 0 66.3761 222.9604)" gradientUnits="userSpaceOnUse">
	<stop  offset="2.560353e-02" style="stop-color:#231815;stop-opacity:0.55"/>
	<stop  offset="0.8602" style="stop-color:#231815;stop-opacity:0"/>
</radialGradient>
<ellipse class="st29" cx="221" cy="80.4" rx="6.8" ry="3.6"/>
<radialGradient id="SVGID_30_" cx="-212.7411" cy="-133.6371" r="5.2256" fx="-212.9995" fy="-133.6386" gradientTransform="matrix(0 0.6662 -1.3516 0 66.3761 222.9604)" gradientUnits="userSpaceOnUse">
	<stop  offset="2.560353e-02" style="stop-color:#231815;stop-opacity:0.55"/>
	<stop  offset="0.8602" style="stop-color:#231815;stop-opacity:0"/>
</radialGradient>
<ellipse class="st30" cx="247" cy="80.4" rx="6.8" ry="3.6"/>
<radialGradient id="SVGID_31_" cx="-212.7411" cy="-152.8736" r="5.2256" fx="-212.9995" fy="-152.8751" gradientTransform="matrix(0 0.6662 -1.3516 0 66.3761 222.9604)" gradientUnits="userSpaceOnUse">
	<stop  offset="2.560353e-02" style="stop-color:#231815;stop-opacity:0.55"/>
	<stop  offset="0.8602" style="stop-color:#231815;stop-opacity:0"/>
</radialGradient>
<ellipse class="st31" cx="273" cy="80.4" rx="6.8" ry="3.6"/>
<radialGradient id="SVGID_32_" cx="-212.7411" cy="-172.1092" r="5.2256" fx="-212.9995" fy="-172.1107" gradientTransform="matrix(0 0.6662 -1.3516 0 66.3761 222.9604)" gradientUnits="userSpaceOnUse">
	<stop  offset="2.560353e-02" style="stop-color:#231815;stop-opacity:0.55"/>
	<stop  offset="0.8602" style="stop-color:#231815;stop-opacity:0"/>
</radialGradient>
<ellipse class="st32" cx="299" cy="80.4" rx="6.8" ry="3.6"/>
<radialGradient id="SVGID_33_" cx="-212.7411" cy="-191.3465" r="5.2256" fx="-212.9995" fy="-191.348" gradientTransform="matrix(0 0.6662 -1.3516 0 66.3761 222.9604)" gradientUnits="userSpaceOnUse">
	<stop  offset="2.560353e-02" style="stop-color:#231815;stop-opacity:0.55"/>
	<stop  offset="0.8602" style="stop-color:#231815;stop-opacity:0"/>
</radialGradient>
<ellipse class="st33" cx="325" cy="80.4" rx="6.8" ry="3.6"/>
<radialGradient id="SVGID_34_" cx="-212.7411" cy="-210.583" r="5.2256" fx="-212.9995" fy="-210.5845" gradientTransform="matrix(0 0.6662 -1.3516 0 66.3761 222.9604)" gradientUnits="userSpaceOnUse">
	<stop  offset="2.560353e-02" style="stop-color:#231815;stop-opacity:0.55"/>
	<stop  offset="0.8602" style="stop-color:#231815;stop-opacity:0"/>
</radialGradient>
<ellipse class="st34" cx="351" cy="80.4" rx="6.8" ry="3.6"/>
<radialGradient id="SVGID_35_" cx="-212.7411" cy="-229.8194" r="5.2256" fx="-212.9995" fy="-229.8209" gradientTransform="matrix(0 0.6662 -1.3516 0 66.3761 222.9604)" gradientUnits="userSpaceOnUse">
	<stop  offset="2.560353e-02" style="stop-color:#231815;stop-opacity:0.55"/>
	<stop  offset="0.8602" style="stop-color:#231815;stop-opacity:0"/>
</radialGradient>
<ellipse class="st35" cx="377" cy="80.4" rx="6.8" ry="3.6"/>
<radialGradient id="SVGID_36_" cx="-212.7411" cy="-249.0559" r="5.2256" fx="-212.9995" fy="-249.0574" gradientTransform="matrix(0 0.6662 -1.3516 0 66.3761 222.9604)" gradientUnits="userSpaceOnUse">
	<stop  offset="2.560353e-02" style="stop-color:#231815;stop-opacity:0.55"/>
	<stop  offset="0.8602" style="stop-color:#231815;stop-opacity:0"/>
</radialGradient>
<ellipse class="st36" cx="403" cy="80.4" rx="6.8" ry="3.6"/>
<radialGradient id="SVGID_37_" cx="-212.7411" cy="-268.2924" r="5.2256" fx="-212.9995" fy="-268.2939" gradientTransform="matrix(0 0.6662 -1.3516 0 66.3761 222.9604)" gradientUnits="userSpaceOnUse">
	<stop  offset="2.560353e-02" style="stop-color:#231815;stop-opacity:0.55"/>
	<stop  offset="0.8602" style="stop-color:#231815;stop-opacity:0"/>
</radialGradient>
<ellipse class="st37" cx="429" cy="80.4" rx="6.8" ry="3.6"/>
<radialGradient id="SVGID_38_" cx="-212.7411" cy="-287.5288" r="5.2256" fx="-212.9995" fy="-287.5303" gradientTransform="matrix(0 0.6662 -1.3516 0 66.3761 222.9604)" gradientUnits="userSpaceOnUse">
	<stop  offset="2.560353e-02" style="stop-color:#231815;stop-opacity:0.55"/>
	<stop  offset="0.8602" style="stop-color:#231815;stop-opacity:0"/>
</radialGradient>
<ellipse class="st38" cx="455" cy="80.4" rx="6.8" ry="3.6"/>
<radialGradient id="SVGID_39_" cx="-212.7411" cy="-306.7653" r="5.2256" fx="-212.9995" fy="-306.7668" gradientTransform="matrix(0 0.6662 -1.3516 0 66.3761 222.9604)" gradientUnits="userSpaceOnUse">
	<stop  offset="2.560353e-02" style="stop-color:#231815;stop-opacity:0.55"/>
	<stop  offset="0.8602" style="stop-color:#231815;stop-opacity:0"/>
</radialGradient>
<ellipse class="st39" cx="481" cy="80.4" rx="6.8" ry="3.6"/>
<radialGradient id="SVGID_40_" cx="-212.7411" cy="-326.0017" r="5.2256" fx="-212.9995" fy="-326.0032" gradientTransform="matrix(0 0.6662 -1.3516 0 66.3761 222.9604)" gradientUnits="userSpaceOnUse">
	<stop  offset="2.560353e-02" style="stop-color:#231815;stop-opacity:0.55"/>
	<stop  offset="0.8602" style="stop-color:#231815;stop-opacity:0"/>
</radialGradient>
<ellipse class="st40" cx="507" cy="80.4" rx="6.8" ry="3.6"/>
<path class="st41" d="M23.6,60.1c-0.5-3.3-2.4-6.2-5.1-7.8c-1.6-1.1-3.5-1.7-5.5-1.7s-3.9,0.6-5.5,1.7c-2.7,1.6-4.6,4.5-5.1,7.8
	c-0.4,2.6,0.1,5,1.2,7l0,0c0,0,0,0,0,0c0.5,0.9,1.1,1.8,1.8,2.5c2.4,2.5,4.6,5.2,6.1,8.5C12.7,80.5,13,82,13,82l0-0.2h0l0,0.2
	c0,0,0.3-1.5,1.4-3.9c1.5-3.2,3.7-6,6.1-8.5c0.7-0.7,1.3-1.6,1.8-2.5c0,0,0,0,0,0l0,0C23.4,65.1,23.9,62.6,23.6,60.1z"/>
<path class="st41" d="M49.6,60.1c-0.5-3.3-2.4-6.2-5.1-7.8c-1.6-1.1-3.5-1.7-5.5-1.7s-3.9,0.6-5.5,1.7c-2.7,1.6-4.6,4.5-5.1,7.8
	c-0.4,2.6,0.1,5,1.2,7l0,0c0,0,0,0,0,0c0.5,0.9,1.1,1.8,1.8,2.5c2.4,2.5,4.6,5.2,6.1,8.5C38.7,80.5,39,82,39,82l0-0.2h0l0,0.2
	c0,0,0.3-1.5,1.4-3.9c1.5-3.2,3.7-6,6.1-8.5c0.7-0.7,1.3-1.6,1.8-2.5c0,0,0,0,0,0l0,0C49.4,65.1,49.9,62.6,49.6,60.1z"/>
<path class="st41" d="M75.6,60.1c-0.5-3.3-2.4-6.2-5.1-7.8c-1.6-1.1-3.5-1.7-5.5-1.7c-2,0-3.9,0.6-5.5,1.7c-2.7,1.6-4.6,4.5-5.1,7.8
	c-0.4,2.6,0.1,5,1.2,7l0,0c0,0,0,0,0,0c0.5,0.9,1.1,1.8,1.8,2.5c2.4,2.5,4.6,5.2,6.1,8.5C64.7,80.5,65,82,65,82l0-0.2h0l0,0.2
	c0,0,0.3-1.5,1.4-3.9c1.5-3.2,3.7-6,6.1-8.5c0.7-0.7,1.3-1.6,1.8-2.5c0,0,0,0,0,0l0,0C75.4,65.1,75.9,62.6,75.6,60.1z"/>
<path class="st41" d="M101.6,60.1c-0.5-3.3-2.4-6.2-5.1-7.8c-1.6-1.1-3.5-1.7-5.5-1.7s-3.9,0.6-5.5,1.7c-2.7,1.6-4.6,4.5-5.1,7.8
	c-0.4,2.6,0.1,5,1.2,7l0,0c0,0,0,0,0,0c0.5,0.9,1.1,1.8,1.8,2.5c2.4,2.5,4.6,5.2,6.1,8.5C90.7,80.5,91,82,91,82l0-0.2h0l0,0.2
	c0,0,0.3-1.5,1.4-3.9c1.5-3.2,3.7-6,6.1-8.5c0.7-0.7,1.3-1.6,1.8-2.5c0,0,0,0,0,0l0,0C101.4,65.1,101.9,62.6,101.6,60.1z"/>
<path class="st41" d="M127.6,60.1c-0.5-3.3-2.4-6.2-5.1-7.8c-1.6-1.1-3.5-1.7-5.5-1.7s-3.9,0.6-5.5,1.7c-2.7,1.6-4.6,4.5-5.1,7.8
	c-0.4,2.6,0.1,5,1.2,7l0,0c0,0,0,0,0,0c0.5,0.9,1.1,1.8,1.8,2.5c2.4,2.5,4.6,5.2,6.1,8.5c1.1,2.4,1.4,3.9,1.4,3.9l0-0.2h0l0,0.2
	c0,0,0.3-1.5,1.4-3.9c1.5-3.2,3.7-6,6.1-8.5c0.7-0.7,1.3-1.6,1.8-2.5c0,0,0,0,0,0l0,0C127.4,65.1,127.9,62.6,127.6,60.1z"/>
<path class="st41" d="M153.6,60.1c-0.5-3.3-2.4-6.2-5.1-7.8c-1.6-1.1-3.5-1.7-5.5-1.7s-3.9,0.6-5.5,1.7c-2.7,1.6-4.6,4.5-5.1,7.8
	c-0.4,2.6,0.1,5,1.2,7l0,0c0,0,0,0,0,0c0.5,0.9,1.1,1.8,1.8,2.5c2.4,2.5,4.6,5.2,6.1,8.5c1.1,2.4,1.4,3.9,1.4,3.9l0-0.2h0l0,0.2
	c0,0,0.3-1.5,1.4-3.9c1.5-3.2,3.7-6,6.1-8.5c0.7-0.7,1.3-1.6,1.8-2.5c0,0,0,0,0,0l0,0C153.4,65.1,153.9,62.6,153.6,60.1z"/>
<path class="st41" d="M179.6,60.1c-0.5-3.3-2.4-6.2-5.1-7.8c-1.6-1.1-3.5-1.7-5.5-1.7s-3.9,0.6-5.5,1.7c-2.7,1.6-4.6,4.5-5.1,7.8
	c-0.4,2.6,0.1,5,1.2,7l0,0c0,0,0,0,0,0c0.5,0.9,1.1,1.8,1.8,2.5c2.4,2.5,4.6,5.2,6.1,8.5c1.1,2.4,1.4,3.9,1.4,3.9l0-0.2h0l0,0.2
	c0,0,0.3-1.5,1.4-3.9c1.5-3.2,3.7-6,6.1-8.5c0.7-0.7,1.3-1.6,1.8-2.5c0,0,0,0,0,0l0,0C179.4,65.1,179.9,62.6,179.6,60.1z"/>
<path class="st41" d="M205.6,60.1c-0.5-3.3-2.4-6.2-5.1-7.8c-1.6-1.1-3.5-1.7-5.5-1.7s-3.9,0.6-5.5,1.7c-2.7,1.6-4.6,4.5-5.1,7.8
	c-0.4,2.6,0.1,5,1.2,7l0,0c0,0,0,0,0,0c0.5,0.9,1.1,1.8,1.8,2.5c2.4,2.5,4.6,5.2,6.1,8.5c1.1,2.4,1.4,3.9,1.4,3.9l0-0.2h0l0,0.2
	c0,0,0.3-1.5,1.4-3.9c1.5-3.2,3.7-6,6.1-8.5c0.7-0.7,1.3-1.6,1.8-2.5c0,0,0,0,0,0l0,0C205.4,65.1,205.9,62.6,205.6,60.1z"/>
<path class="st41" d="M231.6,60.1c-0.5-3.3-2.4-6.2-5.1-7.8c-1.6-1.1-3.5-1.7-5.5-1.7s-3.9,0.6-5.5,1.7c-2.7,1.6-4.6,4.5-5.1,7.8
	c-0.4,2.6,0.1,5,1.2,7l0,0c0,0,0,0,0,0c0.5,0.9,1.1,1.8,1.8,2.5c2.4,2.5,4.6,5.2,6.1,8.5c1.1,2.4,1.4,3.9,1.4,3.9l0-0.2h0l0,0.2
	c0,0,0.3-1.5,1.4-3.9c1.5-3.2,3.7-6,6.1-8.5c0.7-0.7,1.3-1.6,1.8-2.5c0,0,0,0,0,0l0,0C231.4,65.1,231.9,62.6,231.6,60.1z"/>
<path class="st41" d="M257.6,60.1c-0.5-3.3-2.4-6.2-5.1-7.8c-1.6-1.1-3.5-1.7-5.5-1.7s-3.9,0.6-5.5,1.7c-2.7,1.6-4.6,4.5-5.1,7.8
	c-0.4,2.6,0.1,5,1.2,7l0,0c0,0,0,0,0,0c0.5,0.9,1.1,1.8,1.8,2.5c2.4,2.5,4.6,5.2,6.1,8.5c1.1,2.4,1.4,3.9,1.4,3.9l0-0.2h0l0,0.2
	c0,0,0.3-1.5,1.4-3.9c1.5-3.2,3.7-6,6.1-8.5c0.7-0.7,1.3-1.6,1.8-2.5c0,0,0,0,0,0l0,0C257.4,65.1,257.9,62.6,257.6,60.1z"/>
<path class="st41" d="M283.6,60.1c-0.5-3.3-2.4-6.2-5.1-7.8c-1.6-1.1-3.5-1.7-5.5-1.7s-3.9,0.6-5.5,1.7c-2.7,1.6-4.6,4.5-5.1,7.8
	c-0.4,2.6,0.1,5,1.2,7l0,0c0,0,0,0,0,0c0.5,0.9,1.1,1.8,1.8,2.5c2.4,2.5,4.6,5.2,6.1,8.5c1.1,2.4,1.4,3.9,1.4,3.9l0-0.2h0l0,0.2
	c0,0,0.3-1.5,1.4-3.9c1.5-3.2,3.7-6,6.1-8.5c0.7-0.7,1.3-1.6,1.8-2.5c0,0,0,0,0,0l0,0C283.4,65.1,283.9,62.6,283.6,60.1z"/>
<path class="st41" d="M309.6,60.1c-0.5-3.3-2.4-6.2-5.1-7.8c-1.6-1.1-3.5-1.7-5.5-1.7s-3.9,0.6-5.5,1.7c-2.7,1.6-4.6,4.5-5.1,7.8
	c-0.4,2.6,0.1,5,1.2,7l0,0c0,0,0,0,0,0c0.5,0.9,1.1,1.8,1.8,2.5c2.4,2.5,4.6,5.2,6.1,8.5c1.1,2.4,1.4,3.9,1.4,3.9l0-0.2h0l0,0.2
	c0,0,0.3-1.5,1.4-3.9c1.5-3.2,3.7-6,6.1-8.5c0.7-0.7,1.3-1.6,1.8-2.5c0,0,0,0,0,0l0,0C309.4,65.1,309.9,62.6,309.6,60.1z"/>
<path class="st41" d="M335.6,60.1c-0.5-3.3-2.4-6.2-5.1-7.8c-1.6-1.1-3.5-1.7-5.5-1.7s-3.9,0.6-5.5,1.7c-2.7,1.6-4.6,4.5-5.1,7.8
	c-0.4,2.6,0.1,5,1.2,7l0,0c0,0,0,0,0,0c0.5,0.9,1.1,1.8,1.8,2.5c2.4,2.5,4.6,5.2,6.1,8.5c1.1,2.4,1.4,3.9,1.4,3.9l0-0.2h0l0,0.2
	c0,0,0.3-1.5,1.4-3.9c1.5-3.2,3.7-6,6.1-8.5c0.7-0.7,1.3-1.6,1.8-2.5c0,0,0,0,0,0l0,0C335.4,65.1,335.9,62.6,335.6,60.1z"/>
<path class="st41" d="M361.6,60.1c-0.5-3.3-2.4-6.2-5.1-7.8c-1.6-1.1-3.5-1.7-5.5-1.7s-3.9,0.6-5.5,1.7c-2.7,1.6-4.6,4.5-5.1,7.8
	c-0.4,2.6,0.1,5,1.2,7l0,0c0,0,0,0,0,0c0.5,0.9,1.1,1.8,1.8,2.5c2.4,2.5,4.6,5.2,6.1,8.5c1.1,2.4,1.4,3.9,1.4,3.9l0-0.2h0l0,0.2
	c0,0,0.3-1.5,1.4-3.9c1.5-3.2,3.7-6,6.1-8.5c0.7-0.7,1.3-1.6,1.8-2.5c0,0,0,0,0,0l0,0C361.4,65.1,361.9,62.6,361.6,60.1z"/>
<path class="st41" d="M387.6,60.1c-0.5-3.3-2.4-6.2-5.1-7.8c-1.6-1.1-3.5-1.7-5.5-1.7s-3.9,0.6-5.5,1.7c-2.7,1.6-4.6,4.5-5.1,7.8
	c-0.4,2.6,0.1,5,1.2,7l0,0c0,0,0,0,0,0c0.5,0.9,1.1,1.8,1.8,2.5c2.4,2.5,4.6,5.2,6.1,8.5c1.1,2.4,1.4,3.9,1.4,3.9l0-0.2h0l0,0.2
	c0,0,0.3-1.5,1.4-3.9c1.5-3.2,3.7-6,6.1-8.5c0.7-0.7,1.3-1.6,1.8-2.5c0,0,0,0,0,0l0,0C387.4,65.1,387.9,62.6,387.6,60.1z"/>
<path class="st41" d="M413.6,60.1c-0.5-3.3-2.4-6.2-5.1-7.8c-1.6-1.1-3.5-1.7-5.5-1.7s-3.9,0.6-5.5,1.7c-2.7,1.6-4.6,4.5-5.1,7.8
	c-0.4,2.6,0.1,5,1.2,7l0,0c0,0,0,0,0,0c0.5,0.9,1.1,1.8,1.8,2.5c2.4,2.5,4.6,5.2,6.1,8.5c1.1,2.4,1.4,3.9,1.4,3.9l0-0.2h0l0,0.2
	c0,0,0.3-1.5,1.4-3.9c1.5-3.2,3.7-6,6.1-8.5c0.7-0.7,1.3-1.6,1.8-2.5c0,0,0,0,0,0l0,0C413.4,65.1,413.9,62.6,413.6,60.1z"/>
<path class="st41" d="M439.6,60.1c-0.5-3.3-2.4-6.2-5.1-7.8c-1.6-1.1-3.5-1.7-5.5-1.7s-3.9,0.6-5.5,1.7c-2.7,1.6-4.6,4.5-5.1,7.8
	c-0.4,2.6,0.1,5,1.2,7l0,0c0,0,0,0,0,0c0.5,0.9,1.1,1.8,1.8,2.5c2.4,2.5,4.6,5.2,6.1,8.5c1.1,2.4,1.4,3.9,1.4,3.9l0-0.2h0l0,0.2
	c0,0,0.3-1.5,1.4-3.9c1.5-3.2,3.7-6,6.1-8.5c0.7-0.7,1.3-1.6,1.8-2.5c0,0,0,0,0,0l0,0C439.4,65.1,439.9,62.6,439.6,60.1z"/>
<path class="st41" d="M465.6,60.1c-0.5-3.3-2.4-6.2-5.1-7.8c-1.6-1.1-3.5-1.7-5.5-1.7s-3.9,0.6-5.5,1.7c-2.7,1.6-4.6,4.5-5.1,7.8
	c-0.4,2.6,0.1,5,1.2,7l0,0c0,0,0,0,0,0c0.5,0.9,1.1,1.8,1.8,2.5c2.4,2.5,4.6,5.2,6.1,8.5c1.1,2.4,1.4,3.9,1.4,3.9l0-0.2h0l0,0.2
	c0,0,0.3-1.5,1.4-3.9c1.5-3.2,3.7-6,6.1-8.5c0.7-0.7,1.3-1.6,1.8-2.5c0,0,0,0,0,0l0,0C465.4,65.1,465.9,62.6,465.6,60.1z"/>
<path class="st41" d="M491.6,60.1c-0.5-3.3-2.4-6.2-5.1-7.8c-1.6-1.1-3.5-1.7-5.5-1.7s-3.9,0.6-5.5,1.7c-2.7,1.6-4.6,4.5-5.1,7.8
	c-0.4,2.6,0.1,5,1.2,7l0,0c0,0,0,0,0,0c0.5,0.9,1.1,1.8,1.8,2.5c2.4,2.5,4.6,5.2,6.1,8.5c1.1,2.4,1.4,3.9,1.4,3.9l0-0.2h0l0,0.2
	c0,0,0.3-1.5,1.4-3.9c1.5-3.2,3.7-6,6.1-8.5c0.7-0.7,1.3-1.6,1.8-2.5c0,0,0,0,0,0l0,0C491.4,65.1,491.9,62.6,491.6,60.1z"/>
<path class="st41" d="M517.6,60.1c-0.5-3.3-2.4-6.2-5.1-7.8c-1.6-1.1-3.5-1.7-5.5-1.7s-3.9,0.6-5.5,1.7c-2.7,1.6-4.6,4.5-5.1,7.8
	c-0.4,2.6,0.1,5,1.2,7l0,0c0,0,0,0,0,0c0.5,0.9,1.1,1.8,1.8,2.5c2.4,2.5,4.6,5.2,6.1,8.5c1.1,2.4,1.4,3.9,1.4,3.9l0-0.2h0l0,0.2
	c0,0,0.3-1.5,1.4-3.9c1.5-3.2,3.7-6,6.1-8.5c0.7-0.7,1.3-1.6,1.8-2.5c0,0,0,0,0,0l0,0C517.4,65.1,517.9,62.6,517.6,60.1z"/>
<g>
	<g>
		<path class="st48" d="M12.5,24.6v-6.9c-0.4,0.2-1.2,0.4-1.7,0.4v-1.5c0.9-0.2,1.8-0.7,2.3-1.2h1.4v9.2H12.5z"/>
	</g>
</g>
<g>
	<g>
		<path class="st48" d="M35.8,24.6v-0.1c0-1.6,0.7-2.9,2.7-4.4c1.3-1,1.7-1.3,1.7-2.1c0-0.8-0.4-1.2-1.2-1.2c-0.9,0-1.2,0.6-1.4,1.4
			h-1.9c0.1-1.6,1.2-2.9,3.3-2.9c2.4,0,3.2,1.4,3.2,2.8c0,1.3-0.6,2-2.3,3.2c-1.1,0.8-1.6,1.3-1.8,1.7h4.4l-0.2,1.7H35.8z"/>
	</g>
</g>
<g>
	<g>
		<path class="st48" d="M61.6,17.7c0.1-1.1,0.9-2.5,3.2-2.5c2.1,0,3.1,1.2,3.1,2.5c0,1.1-0.6,1.6-1.1,1.9v0c0.6,0.2,1.5,0.8,1.5,2.2
			c0,1.3-0.8,2.9-3.5,2.9c-2.5,0-3.3-1.5-3.4-2.7h1.9c0.1,0.6,0.6,1.2,1.5,1.2c0.9,0,1.4-0.6,1.4-1.4c0-0.9-0.4-1.4-1.5-1.4h-0.8
			v-1.5h0.7c0.9,0,1.3-0.3,1.3-1.1c0-0.6-0.4-1.1-1.2-1.1c-0.9,0-1.2,0.5-1.3,1H61.6z"/>
	</g>
</g>
<g>
	<g>
		<path class="st48" d="M91.1,24.6v-2.1h-4.2v-1.7l3.8-5.4h2.2v5.5H94l-0.2,1.6h-0.9v2.1H91.1z M91.1,19.2c0-1,0-1.6,0-2.1
			c-0.4,0.8-1.6,2.5-2.4,3.8h2.4V19.2z"/>
	</g>
</g>
<g>
	<g>
		<path class="st48" d="M172.7,15.3v1.5c-1.5,2.1-2.9,5.1-3.3,7.7h-2.1c0.4-2.7,2-6,3.3-7.6h-4.3v-1.6H172.7z"/>
	</g>
</g>
<g>
	<g>
		<path class="st48" d="M191.6,21.9c0-1.2,0.8-1.9,1.5-2.2c-0.7-0.4-1.1-1-1.1-1.9c0-1.6,1.1-2.6,3.2-2.6c1.9,0,3.1,1,3.1,2.6
			c0,1.1-0.5,1.6-1.2,1.9c0.7,0.2,1.5,1,1.5,2.2c0,1.9-1.5,2.9-3.6,2.9C193.1,24.7,191.6,23.7,191.6,21.9z M196.6,21.8
			c0-0.9-0.6-1.3-1.5-1.3c-1,0-1.5,0.5-1.5,1.3c0,0.8,0.6,1.4,1.6,1.4C196,23.2,196.6,22.8,196.6,21.8z M193.8,17.9
			c0,0.6,0.4,1,1.3,1c0.8,0,1.3-0.3,1.3-1c0-0.7-0.5-1.1-1.3-1.1C194.3,16.7,193.8,17.1,193.8,17.9z"/>
	</g>
</g>
<g>
	<g>
		<path class="st48" d="M219.6,22.4c0.2,0.5,0.5,0.9,1.3,0.9c1.3,0,1.4-1.6,1.5-2.6c-0.4,0.5-1.1,0.8-1.9,0.8c-1.9,0-3-1.3-3-3
			c0-1.8,1.3-3.2,3.4-3.2c2.6,0,3.5,2,3.5,4.3c0,2.6-0.7,5.2-3.6,5.2c-2.1,0-3-1.3-3.2-2.4H219.6z M219.5,18.4
			c0,0.9,0.5,1.5,1.4,1.5c0.9,0,1.4-0.5,1.4-1.5c0-0.6-0.3-1.6-1.4-1.6C219.9,16.9,219.5,17.5,219.5,18.4z"/>
	</g>
</g>
<g>
	<g>
		<path class="st48" d="M242.5,24.6v-6.9c-0.4,0.2-1.2,0.4-1.7,0.4v-1.5c0.9-0.2,1.8-0.7,2.3-1.2h1.4v9.2H242.5z"/>
		<path class="st48" d="M253.5,19.9c0,2.5-0.8,4.8-3.5,4.8c-2.7,0-3.5-2.2-3.5-4.8c0-2.5,0.9-4.8,3.6-4.8
			C252.5,15.2,253.5,17.3,253.5,19.9z M248.4,19.9c0,1.7,0.2,3.2,1.5,3.2c1.3,0,1.4-1.4,1.4-3.2c0-1.8-0.2-3.1-1.4-3.1
			C248.8,16.8,248.4,17.9,248.4,19.9z"/>
	</g>
</g>
<g>
	<g>
		<path class="st48" d="M269.4,24.5v-6.9c-0.4,0.2-1.2,0.4-1.7,0.4v-1.5c0.9-0.2,1.8-0.7,2.3-1.2h1.4v9.2H269.4z"/>
		<path class="st48" d="M275,24.5v-6.9c-0.4,0.2-1.2,0.4-1.7,0.4v-1.5c0.9-0.2,1.8-0.7,2.3-1.2h1.4v9.2H275z"/>
	</g>
</g>
<g>
	<g>
		<path class="st48" d="M294.5,24.5v-6.9c-0.4,0.2-1.2,0.4-1.7,0.4v-1.5c0.9-0.2,1.8-0.7,2.3-1.2h1.4v9.2H294.5z"/>
		<path class="st48" d="M298.4,24.5v-0.1c0-1.6,0.7-2.9,2.7-4.4c1.3-1,1.7-1.3,1.7-2.1c0-0.8-0.4-1.2-1.2-1.2
			c-0.9,0-1.2,0.6-1.4,1.4h-1.9c0.1-1.6,1.2-2.9,3.3-2.9c2.4,0,3.2,1.4,3.2,2.8c0,1.3-0.6,2-2.3,3.2c-1.1,0.8-1.6,1.3-1.8,1.7h4.4
			l-0.3,1.7H298.4z"/>
	</g>
</g>
<g>
	<g>
		<path class="st48" d="M320.5,24.5v-6.9c-0.4,0.2-1.2,0.4-1.7,0.4v-1.5c0.9-0.2,1.8-0.7,2.3-1.2h1.4v9.2H320.5z"/>
		<path class="st48" d="M324.4,17.6c0.1-1.1,0.9-2.5,3.2-2.5c2.1,0,3.1,1.2,3.1,2.5c0,1.1-0.6,1.6-1.1,1.9v0
			c0.6,0.2,1.5,0.8,1.5,2.2c0,1.3-0.8,2.9-3.5,2.9c-2.5,0-3.3-1.5-3.4-2.7h1.9c0.1,0.6,0.6,1.2,1.5,1.2c0.9,0,1.4-0.6,1.4-1.4
			c0-0.9-0.4-1.4-1.5-1.4h-0.8v-1.5h0.7c0.9,0,1.3-0.3,1.3-1.1c0-0.6-0.4-1.1-1.2-1.1c-0.9,0-1.2,0.5-1.3,1H324.4z"/>
	</g>
</g>
<g>
	<g>
		<path class="st48" d="M346.5,24.5v-6.9c-0.4,0.2-1.2,0.4-1.7,0.4v-1.5c0.9-0.2,1.8-0.7,2.3-1.2h1.4v9.2H346.5z"/>
		<path class="st48" d="M354.4,24.5v-2.1h-4.2v-1.7l3.8-5.4h2.2v5.5h1.1l-0.2,1.6h-0.9v2.1H354.4z M354.4,19.1c0-1,0-1.6,0-2.1
			c-0.4,0.8-1.6,2.5-2.4,3.8h2.4V19.1z"/>
	</g>
</g>
<g>
	<g>
		<path class="st48" d="M372.5,24.5v-6.9c-0.4,0.2-1.2,0.4-1.7,0.4v-1.5c0.9-0.2,1.8-0.7,2.3-1.2h1.4v9.2H372.5z"/>
		<path class="st48" d="M382.7,16.9H379c-0.1,0.5-0.2,1.4-0.3,1.8c0.3-0.3,0.9-0.5,1.7-0.5c1.8,0,2.8,1.3,2.8,3.1
			c0,1.8-1,3.4-3.5,3.4c-1.8,0-3.2-0.9-3.4-2.6h2c0.2,0.6,0.6,1,1.4,1c1,0,1.4-0.7,1.4-1.7c0-1-0.4-1.6-1.4-1.6
			c-0.9,0-1.2,0.4-1.4,0.9l-1.8-0.2c0.2-1.2,0.6-3.9,0.8-5.2h5.6L382.7,16.9z"/>
	</g>
</g>
<g>
	<g>
		<path class="st48" d="M398.5,24.5v-6.9c-0.4,0.2-1.2,0.4-1.7,0.4v-1.5c0.9-0.2,1.8-0.7,2.3-1.2h1.4v9.2H398.5z"/>
		<path class="st48" d="M407.2,17.5c-0.1-0.5-0.4-0.9-1.2-0.9c-1.2,0-1.6,1.2-1.6,2.4c0.4-0.5,1-0.9,2.1-0.9c1.7,0,2.9,1.2,2.9,3.1
			c0,2-1.3,3.4-3.4,3.4c-2.7,0-3.6-2.1-3.6-4.7c0-2.4,0.8-4.9,3.7-4.9c2,0,2.9,1.3,3,2.4H407.2z M407.3,21.4c0-0.9-0.3-1.7-1.4-1.7
			c-0.9,0-1.4,0.5-1.4,1.6c0,0.7,0.4,1.7,1.4,1.7C406.9,23.1,407.3,22.3,407.3,21.4z"/>
	</g>
</g>
<g>
	<g>
		<path class="st48" d="M424.8,24.5v-6.9c-0.4,0.2-1.2,0.4-1.7,0.4v-1.5c0.9-0.2,1.8-0.7,2.3-1.2h1.4v9.2H424.8z"/>
		<path class="st48" d="M434.8,15.3v1.5c-1.5,2.1-2.9,5.1-3.3,7.7h-2.1c0.4-2.7,2-6,3.3-7.6h-4.3v-1.6H434.8z"/>
	</g>
</g>
<g>
	<g>
		<path class="st48" d="M450.5,24.5v-6.9c-0.4,0.2-1.2,0.4-1.7,0.4v-1.5c0.9-0.2,1.8-0.7,2.3-1.2h1.4v9.2H450.5z"/>
		<path class="st48" d="M454.3,21.8c0-1.2,0.8-1.9,1.5-2.2c-0.7-0.4-1.1-1-1.1-1.9c0-1.6,1.1-2.6,3.2-2.6c1.9,0,3.1,1,3.1,2.6
			c0,1.1-0.5,1.6-1.2,1.9c0.7,0.2,1.5,1,1.5,2.2c0,1.9-1.5,2.9-3.6,2.9C455.9,24.7,454.3,23.7,454.3,21.8z M459.4,21.7
			c0-0.9-0.6-1.3-1.5-1.3c-1,0-1.5,0.5-1.5,1.3c0,0.8,0.6,1.4,1.6,1.4C458.8,23.1,459.4,22.7,459.4,21.7z M456.6,17.8
			c0,0.6,0.4,1,1.3,1c0.8,0,1.3-0.3,1.3-1c0-0.7-0.5-1.1-1.3-1.1C457.1,16.6,456.6,17,456.6,17.8z"/>
	</g>
</g>
<g>
	<g>
		<path class="st48" d="M476.5,24.5v-6.9c-0.4,0.2-1.2,0.4-1.7,0.4v-1.5c0.9-0.2,1.8-0.7,2.3-1.2h1.4v9.2H476.5z"/>
		<path class="st48" d="M482.4,22.2c0.2,0.5,0.5,0.9,1.3,0.9c1.3,0,1.4-1.6,1.5-2.6c-0.4,0.5-1.1,0.8-1.9,0.8c-1.9,0-3-1.3-3-3
			c0-1.8,1.3-3.2,3.4-3.2c2.6,0,3.5,2,3.5,4.3c0,2.6-0.7,5.2-3.6,5.2c-2.1,0-3-1.3-3.2-2.4H482.4z M482.3,18.2
			c0,0.9,0.5,1.5,1.4,1.5c0.9,0,1.4-0.5,1.4-1.5c0-0.6-0.3-1.6-1.4-1.6C482.8,16.7,482.3,17.3,482.3,18.2z"/>
	</g>
</g>
<g>
	<g>
		<path class="st48" d="M500.2,24.5v-0.1c0-1.6,0.7-2.9,2.7-4.4c1.3-1,1.7-1.3,1.7-2.1c0-0.8-0.4-1.2-1.2-1.2
			c-0.9,0-1.2,0.6-1.4,1.4h-1.9c0.1-1.6,1.2-2.9,3.3-2.9c2.4,0,3.2,1.4,3.2,2.8c0,1.3-0.6,2-2.3,3.2c-1.1,0.8-1.6,1.3-1.8,1.7h4.4
			l-0.3,1.7H500.2z"/>
		<path class="st48" d="M514.4,19.8c0,2.5-0.8,4.8-3.5,4.8c-2.7,0-3.5-2.2-3.5-4.8c0-2.5,0.9-4.8,3.6-4.8
			C513.5,15.1,514.4,17.2,514.4,19.8z M509.4,19.9c0,1.7,0.2,3.2,1.5,3.2c1.3,0,1.4-1.4,1.4-3.2c0-1.8-0.2-3.1-1.4-3.1
			C509.8,16.7,509.4,17.9,509.4,19.9z"/>
	</g>
</g>
<g>
	<g>
		<path class="st48" d="M119.8,17h-3.7c-0.1,0.5-0.2,1.4-0.3,1.8c0.3-0.3,0.9-0.5,1.7-0.5c1.8,0,2.8,1.3,2.8,3.1
			c0,1.8-1,3.4-3.5,3.4c-1.8,0-3.2-0.9-3.4-2.6h2c0.2,0.6,0.6,1,1.4,1c1,0,1.4-0.7,1.4-1.7c0-1-0.4-1.6-1.4-1.6
			c-0.9,0-1.2,0.4-1.4,0.9l-1.8-0.2c0.2-1.2,0.6-3.9,0.8-5.2h5.6L119.8,17z"/>
	</g>
</g>
<g>
	<g>
		<path class="st48" d="M144,17.6c-0.1-0.5-0.4-0.9-1.2-0.9c-1.2,0-1.6,1.2-1.6,2.4c0.4-0.5,1-0.9,2.1-0.9c1.7,0,2.9,1.2,2.9,3.1
			c0,2-1.3,3.4-3.4,3.4c-2.7,0-3.6-2.1-3.6-4.7c0-2.4,0.8-4.9,3.7-4.9c2,0,2.9,1.3,3,2.4H144z M144.2,21.5c0-0.9-0.3-1.7-1.4-1.7
			c-0.9,0-1.4,0.5-1.4,1.6c0,0.7,0.4,1.7,1.4,1.7C143.8,23.1,144.2,22.4,144.2,21.5z"/>
	</g>
</g>
<g>
	<g>
		<path class="st48" d="M12.5,66.8v-6.9c-0.4,0.2-1.2,0.4-1.7,0.4v-1.5c0.9-0.2,1.8-0.7,2.3-1.2h1.4v9.2H12.5z"/>
	</g>
</g>
<g>
	<g>
		<path class="st48" d="M35.8,66.8v-0.1c0-1.6,0.7-2.9,2.7-4.4c1.3-1,1.7-1.3,1.7-2.1c0-0.8-0.4-1.2-1.2-1.2c-0.9,0-1.2,0.6-1.4,1.4
			h-1.9c0.1-1.6,1.2-2.9,3.3-2.9c2.4,0,3.2,1.4,3.2,2.8c0,1.3-0.6,2-2.3,3.2c-1.1,0.8-1.6,1.3-1.8,1.7h4.4l-0.2,1.7H35.8z"/>
	</g>
</g>
<g>
	<g>
		<path class="st48" d="M61.6,60c0.1-1.1,0.9-2.5,3.2-2.5c2.1,0,3.1,1.2,3.1,2.5c0,1.1-0.6,1.6-1.1,1.9v0c0.6,0.2,1.5,0.8,1.5,2.2
			c0,1.3-0.8,2.9-3.5,2.9c-2.5,0-3.3-1.5-3.4-2.7h1.9c0.1,0.6,0.6,1.2,1.5,1.2c0.9,0,1.4-0.6,1.4-1.4c0-0.9-0.4-1.4-1.5-1.4h-0.8
			v-1.5h0.7c0.9,0,1.3-0.3,1.3-1.1c0-0.6-0.4-1.1-1.2-1.1c-0.9,0-1.2,0.5-1.3,1H61.6z"/>
	</g>
</g>
<g>
	<g>
		<path class="st48" d="M91.1,66.8v-2.1h-4.2V63l3.8-5.4h2.2v5.5H94l-0.2,1.6h-0.9v2.1H91.1z M91.1,61.5c0-1,0-1.6,0-2.1
			c-0.4,0.8-1.6,2.5-2.4,3.8h2.4V61.5z"/>
	</g>
</g>
<g>
	<g>
		<path class="st48" d="M172.7,57.6v1.5c-1.5,2.1-2.9,5.1-3.3,7.7h-2.1c0.4-2.7,2-6,3.3-7.6h-4.3v-1.6H172.7z"/>
	</g>
</g>
<g>
	<g>
		<path class="st48" d="M191.6,64.2c0-1.2,0.8-1.9,1.5-2.2c-0.7-0.4-1.1-1-1.1-1.9c0-1.6,1.1-2.6,3.2-2.6c1.9,0,3.1,1,3.1,2.6
			c0,1.1-0.5,1.6-1.2,1.9c0.7,0.2,1.5,1,1.5,2.2c0,1.9-1.5,2.9-3.6,2.9C193.1,67,191.6,66,191.6,64.2z M196.6,64.1
			c0-0.9-0.6-1.3-1.5-1.3c-1,0-1.5,0.5-1.5,1.3c0,0.8,0.6,1.4,1.6,1.4C196,65.4,196.6,65,196.6,64.1z M193.8,60.1c0,0.6,0.4,1,1.3,1
			c0.8,0,1.3-0.3,1.3-1c0-0.7-0.5-1.1-1.3-1.1C194.3,59,193.8,59.4,193.8,60.1z"/>
	</g>
</g>
<g>
	<g>
		<path class="st48" d="M219.6,64.6c0.2,0.5,0.5,0.9,1.3,0.9c1.3,0,1.4-1.6,1.5-2.6c-0.4,0.5-1.1,0.8-1.9,0.8c-1.9,0-3-1.3-3-3
			c0-1.8,1.3-3.2,3.4-3.2c2.6,0,3.5,2,3.5,4.3c0,2.6-0.7,5.2-3.6,5.2c-2.1,0-3-1.3-3.2-2.4H219.6z M219.5,60.6
			c0,0.9,0.5,1.5,1.4,1.5c0.9,0,1.4-0.5,1.4-1.5c0-0.6-0.3-1.6-1.4-1.6C219.9,59.1,219.5,59.8,219.5,60.6z"/>
	</g>
</g>
<g>
	<g>
		<path class="st48" d="M242.5,66.8v-6.9c-0.4,0.2-1.2,0.4-1.7,0.4v-1.5c0.9-0.2,1.8-0.7,2.3-1.2h1.4v9.2H242.5z"/>
		<path class="st48" d="M253.5,62.1c0,2.5-0.8,4.8-3.5,4.8c-2.7,0-3.5-2.2-3.5-4.8c0-2.5,0.9-4.8,3.6-4.8
			C252.5,57.4,253.5,59.5,253.5,62.1z M248.4,62.2c0,1.7,0.2,3.2,1.5,3.2c1.3,0,1.4-1.4,1.4-3.2c0-1.8-0.2-3.1-1.4-3.1
			C248.8,59,248.4,60.2,248.4,62.2z"/>
	</g>
</g>
<g>
	<g>
		<path class="st48" d="M269.4,66.7v-6.9c-0.4,0.2-1.2,0.4-1.7,0.4v-1.5c0.9-0.2,1.8-0.7,2.3-1.2h1.4v9.2H269.4z"/>
		<path class="st48" d="M275,66.7v-6.9c-0.4,0.2-1.2,0.4-1.7,0.4v-1.5c0.9-0.2,1.8-0.7,2.3-1.2h1.4v9.2H275z"/>
	</g>
</g>
<g>
	<g>
		<path class="st48" d="M294.5,66.7v-6.9c-0.4,0.2-1.2,0.4-1.7,0.4v-1.5c0.9-0.2,1.8-0.7,2.3-1.2h1.4v9.2H294.5z"/>
		<path class="st48" d="M298.4,66.7v-0.1c0-1.6,0.7-2.9,2.7-4.4c1.3-1,1.7-1.3,1.7-2.1c0-0.8-0.4-1.2-1.2-1.2
			c-0.9,0-1.2,0.6-1.4,1.4h-1.9c0.1-1.6,1.2-2.9,3.3-2.9c2.4,0,3.2,1.4,3.2,2.8c0,1.3-0.6,2-2.3,3.2c-1.1,0.8-1.6,1.3-1.8,1.7h4.4
			l-0.3,1.7H298.4z"/>
	</g>
</g>
<g>
	<g>
		<path class="st48" d="M320.5,66.7v-6.9c-0.4,0.2-1.2,0.4-1.7,0.4v-1.5c0.9-0.2,1.8-0.7,2.3-1.2h1.4v9.2H320.5z"/>
		<path class="st48" d="M324.4,59.9c0.1-1.1,0.9-2.5,3.2-2.5c2.1,0,3.1,1.2,3.1,2.5c0,1.1-0.6,1.6-1.1,1.9v0
			c0.6,0.2,1.5,0.8,1.5,2.2c0,1.3-0.8,2.9-3.5,2.9c-2.5,0-3.3-1.5-3.4-2.7h1.9c0.1,0.6,0.6,1.2,1.5,1.2c0.9,0,1.4-0.6,1.4-1.4
			c0-0.9-0.4-1.4-1.5-1.4h-0.8V61h0.7c0.9,0,1.3-0.3,1.3-1.1c0-0.6-0.4-1.1-1.2-1.1c-0.9,0-1.2,0.5-1.3,1H324.4z"/>
	</g>
</g>
<g>
	<g>
		<path class="st48" d="M346.5,66.7v-6.9c-0.4,0.2-1.2,0.4-1.7,0.4v-1.5c0.9-0.2,1.8-0.7,2.3-1.2h1.4v9.2H346.5z"/>
		<path class="st48" d="M354.4,66.7v-2.1h-4.2v-1.7l3.8-5.4h2.2V63h1.1l-0.2,1.6h-0.9v2.1H354.4z M354.4,61.4c0-1,0-1.6,0-2.1
			c-0.4,0.8-1.6,2.5-2.4,3.8h2.4V61.4z"/>
	</g>
</g>
<g>
	<g>
		<path class="st48" d="M372.5,66.7v-6.9c-0.4,0.2-1.2,0.4-1.7,0.4v-1.5c0.9-0.2,1.8-0.7,2.3-1.2h1.4v9.2H372.5z"/>
		<path class="st48" d="M382.7,59.1H379c-0.1,0.5-0.2,1.4-0.3,1.8c0.3-0.3,0.9-0.5,1.7-0.5c1.8,0,2.8,1.3,2.8,3.1
			c0,1.8-1,3.4-3.5,3.4c-1.8,0-3.2-0.9-3.4-2.6h2c0.2,0.6,0.6,1,1.4,1c1,0,1.4-0.7,1.4-1.7c0-1-0.4-1.6-1.4-1.6
			c-0.9,0-1.2,0.4-1.4,0.9l-1.8-0.2c0.2-1.2,0.6-3.9,0.8-5.2h5.6L382.7,59.1z"/>
	</g>
</g>
<g>
	<g>
		<path class="st48" d="M398.5,66.7v-6.9c-0.4,0.2-1.2,0.4-1.7,0.4v-1.5c0.9-0.2,1.8-0.7,2.3-1.2h1.4v9.2H398.5z"/>
		<path class="st48" d="M407.2,59.7c-0.1-0.5-0.4-0.9-1.2-0.9c-1.2,0-1.6,1.2-1.6,2.4c0.4-0.5,1-0.9,2.1-0.9c1.7,0,2.9,1.2,2.9,3.1
			c0,2-1.3,3.4-3.4,3.4c-2.7,0-3.6-2.1-3.6-4.7c0-2.4,0.8-4.9,3.7-4.9c2,0,2.9,1.3,3,2.4H407.2z M407.3,63.6c0-0.9-0.3-1.7-1.4-1.7
			c-0.9,0-1.4,0.5-1.4,1.6c0,0.7,0.4,1.7,1.4,1.7C406.9,65.3,407.3,64.6,407.3,63.6z"/>
	</g>
</g>
<g>
	<g>
		<path class="st48" d="M424.8,66.7v-6.9c-0.4,0.2-1.2,0.4-1.7,0.4v-1.5c0.9-0.2,1.8-0.7,2.3-1.2h1.4v9.2H424.8z"/>
		<path class="st48" d="M434.8,57.5V59c-1.5,2.1-2.9,5.1-3.3,7.7h-2.1c0.4-2.7,2-6,3.3-7.6h-4.3v-1.6H434.8z"/>
	</g>
</g>
<g>
	<g>
		<path class="st48" d="M450.5,66.7v-6.9c-0.4,0.2-1.2,0.4-1.7,0.4v-1.5c0.9-0.2,1.8-0.7,2.3-1.2h1.4v9.2H450.5z"/>
		<path class="st48" d="M454.3,64.1c0-1.2,0.8-1.9,1.5-2.2c-0.7-0.4-1.1-1-1.1-1.9c0-1.6,1.1-2.6,3.2-2.6c1.9,0,3.1,1,3.1,2.6
			c0,1.1-0.5,1.6-1.2,1.9c0.7,0.2,1.5,1,1.5,2.2c0,1.9-1.5,2.9-3.6,2.9C455.9,66.9,454.3,65.9,454.3,64.1z M459.4,64
			c0-0.9-0.6-1.3-1.5-1.3c-1,0-1.5,0.5-1.5,1.3c0,0.8,0.6,1.4,1.6,1.4C458.8,65.3,459.4,64.9,459.4,64z M456.6,60c0,0.6,0.4,1,1.3,1
			c0.8,0,1.3-0.3,1.3-1c0-0.7-0.5-1.1-1.3-1.1C457.1,58.9,456.6,59.3,456.6,60z"/>
	</g>
</g>
<g>
	<g>
		<path class="st48" d="M476.5,66.7v-6.9c-0.4,0.2-1.2,0.4-1.7,0.4v-1.5c0.9-0.2,1.8-0.7,2.3-1.2h1.4v9.2H476.5z"/>
		<path class="st48" d="M482.4,64.4c0.2,0.5,0.5,0.9,1.3,0.9c1.3,0,1.4-1.6,1.5-2.6c-0.4,0.5-1.1,0.8-1.9,0.8c-1.9,0-3-1.3-3-3
			c0-1.8,1.3-3.2,3.4-3.2c2.6,0,3.5,2,3.5,4.3c0,2.6-0.7,5.2-3.6,5.2c-2.1,0-3-1.3-3.2-2.4H482.4z M482.3,60.4
			c0,0.9,0.5,1.5,1.4,1.5c0.9,0,1.4-0.5,1.4-1.5c0-0.6-0.3-1.6-1.4-1.6C482.8,58.9,482.3,59.6,482.3,60.4z"/>
	</g>
</g>
<g>
	<g>
		<path class="st48" d="M500.2,66.7v-0.1c0-1.6,0.7-2.9,2.7-4.4c1.3-1,1.7-1.3,1.7-2.1c0-0.8-0.4-1.2-1.2-1.2
			c-0.9,0-1.2,0.6-1.4,1.4h-1.9c0.1-1.6,1.2-2.9,3.3-2.9c2.4,0,3.2,1.4,3.2,2.8c0,1.3-0.6,2-2.3,3.2c-1.1,0.8-1.6,1.3-1.8,1.7h4.4
			l-0.3,1.7H500.2z"/>
		<path class="st48" d="M514.4,62.1c0,2.5-0.8,4.8-3.5,4.8c-2.7,0-3.5-2.2-3.5-4.8c0-2.5,0.9-4.8,3.6-4.8
			C513.5,57.3,514.4,59.4,514.4,62.1z M509.4,62.1c0,1.7,0.2,3.2,1.5,3.2c1.3,0,1.4-1.4,1.4-3.2c0-1.8-0.2-3.1-1.4-3.1
			C509.8,58.9,509.4,60.1,509.4,62.1z"/>
	</g>
</g>
<g>
	<g>
		<path class="st48" d="M119.8,59.2h-3.7c-0.1,0.5-0.2,1.4-0.3,1.8c0.3-0.3,0.9-0.5,1.7-0.5c1.8,0,2.8,1.3,2.8,3.1
			c0,1.8-1,3.4-3.5,3.4c-1.8,0-3.2-0.9-3.4-2.6h2c0.2,0.6,0.6,1,1.4,1c1,0,1.4-0.7,1.4-1.7c0-1-0.4-1.6-1.4-1.6
			c-0.9,0-1.2,0.4-1.4,0.9l-1.8-0.2c0.2-1.2,0.6-3.9,0.8-5.2h5.6L119.8,59.2z"/>
	</g>
</g>
<g>
	<g>
		<path class="st48" d="M144,59.8c-0.1-0.5-0.4-0.9-1.2-0.9c-1.2,0-1.6,1.2-1.6,2.4c0.4-0.5,1-0.9,2.1-0.9c1.7,0,2.9,1.2,2.9,3.1
			c0,2-1.3,3.4-3.4,3.4c-2.7,0-3.6-2.1-3.6-4.7c0-2.4,0.8-4.9,3.7-4.9c2,0,2.9,1.3,3,2.4H144z M144.2,63.7c0-0.9-0.3-1.7-1.4-1.7
			c-0.9,0-1.4,0.5-1.4,1.6c0,0.7,0.4,1.7,1.4,1.7C143.8,65.4,144.2,64.6,144.2,63.7z"/>
	</g>
</g>
</svg>
